<svg version="1.1" xmlns="http://www.w3.org/2000/svg" width="4265" height="938"><defs><clipPath id="obDwRUdGbMaf"><path fill="none" stroke="none" d="M 260.5 86.5 L 4260.5 86.5 L 4260.5 886.5 L 260.5 886.5 L 260.5 86.5 Z"/></clipPath><clipPath id="rOdyInDxhGta"><path fill="none" stroke="none" d="M 260.5 86.5 L 4260.5 86.5 L 4260.5 886.5 L 260.5 886.5 L 260.5 86.5 Z"/></clipPath><clipPath id="izGSKUFKWrUm"><path fill="none" stroke="none" d="M 260.5 86.5 L 4260.5 86.5 L 4260.5 886.5 L 260.5 886.5 L 260.5 86.5 Z"/></clipPath><clipPath id="TBBquOXxqzCp"><path fill="none" stroke="none" d="M 260.5 86.5 L 4260.5 86.5 L 4260.5 886.5 L 260.5 886.5 L 260.5 86.5 Z"/></clipPath><clipPath id="ZfNrZsxURnKc"><path fill="none" stroke="none" d="M 260.5 86.5 L 4260.5 86.5 L 4260.5 886.5 L 260.5 886.5 L 260.5 86.5 Z"/></clipPath><clipPath id="TBVccPXBmwyC"><path fill="none" stroke="none" d="M 260.5 86.5 L 4260.5 86.5 L 4260.5 886.5 L 260.5 886.5 L 260.5 86.5 Z"/></clipPath><clipPath id="TxWvJQMtfnbK"><path fill="none" stroke="none" d="M 260.5 86.5 L 4260.5 86.5 L 4260.5 886.5 L 260.5 886.5 L 260.5 86.5 Z"/></clipPath><clipPath id="cKzytmrpdtUD"><path fill="none" stroke="none" d="M 260.5 86.5 L 4260.5 86.5 L 4260.5 886.5 L 260.5 886.5 L 260.5 86.5 Z"/></clipPath><clipPath id="JdkqSkdUKXTS"><path fill="none" stroke="none" d="M 260.5 86.5 L 4260.5 86.5 L 4260.5 886.5 L 260.5 886.5 L 260.5 86.5 Z"/></clipPath><clipPath id="wrSCgUIqNGHh"><path fill="none" stroke="none" d="M 260.5 86.5 L 4260.5 86.5 L 4260.5 886.5 L 260.5 886.5 L 260.5 86.5 Z"/></clipPath><clipPath id="KJNQBeWTIwob"><path fill="none" stroke="none" d="M 260.5 86.5 L 4260.5 86.5 L 4260.5 886.5 L 260.5 886.5 L 260.5 86.5 Z"/></clipPath></defs><path fill="rgb(255,255,255)" stroke="none" paint-order="stroke" d="M 0.5 0.5 L 4265.5 0.5 L 4265.5 938.5 L 0.5 938.5 L 0.5 0.5 Z" fill-opacity="1"/><rect fill="#FFFFFF" stroke="none" x="260" y="86" width="4000" height="800" transform="matrix(1, 0, 0, 1, 0.5, 0.5)"/><path fill="rgb(255,255,255)" stroke="none" paint-order="stroke" d="M 260.5 86.5 L 4260.5 86.5 L 4260.5 886.5 L 260.5 886.5 L 260.5 86.5 Z" fill-opacity="1"/><path fill="none" stroke="rgb(229,229,229)" paint-order="fill" d="M 260.5 86.5 L 4260.5 86.5 L 4260.5 886.5 L 260.5 886.5 L 260.5 86.5 Z" stroke-opacity="1" stroke-linejoin="bevel" stroke-miterlimit="10"/><path fill="none" stroke="rgb(229,229,229)" paint-order="fill" d="M 1050.5 886.5 L 1050.5 86.5 M 1862.5 886.5 L 1862.5 86.5 M 2673.5 886.5 L 2673.5 86.5 M 3484.5 886.5 L 3484.5 86.5" stroke-opacity="1" stroke-linejoin="bevel" stroke-miterlimit="10" clip-path="url(#obDwRUdGbMaf)"/><path fill="none" stroke="rgb(229,229,229)" paint-order="fill" d="M 260.5 786.5 L 4260.5 786.5 M 260.5 586.5 L 4260.5 586.5 M 260.5 386.5 L 4260.5 386.5 M 260.5 186.5 L 4260.5 186.5" stroke-opacity="1" stroke-linejoin="bevel" stroke-miterlimit="10" clip-path="url(#rOdyInDxhGta)"/><path fill="rgb(189,189,189)" stroke="rgb(189,189,189)" paint-order="fill" d="M 1464.5308837890625 186.5 A 7.5 7.5 0 0 1 1449.5308837890625 186.5 A 7.5 7.5 0 0 1 1464.5308837890625 186.5" fill-opacity="1" clip-path="url(#izGSKUFKWrUm)" stroke-opacity="1" stroke-linejoin="bevel" stroke-miterlimit="10"/><path fill="none" stroke="rgb(189,189,189)" paint-order="fill" d="M 442.31817626953125 186.5 L 2502.234619140625 186.5" stroke-opacity="1" stroke-linejoin="bevel" stroke-miterlimit="10" stroke-width="5" clip-path="url(#TBBquOXxqzCp)"/><path fill="rgb(0,0,0)" stroke="rgb(0,0,0)" paint-order="fill" d="M 2915.413818359375 386.5 A 7.5 7.5 0 0 1 2900.413818359375 386.5 A 7.5 7.5 0 0 1 2915.413818359375 386.5" fill-opacity="1" clip-path="url(#ZfNrZsxURnKc)" stroke-opacity="1" stroke-linejoin="bevel" stroke-miterlimit="10"/><path fill="none" stroke="rgb(0,0,0)" paint-order="fill" d="M 2182.93212890625 386.5 L 3660.51318359375 386.5" stroke-opacity="1" stroke-linejoin="bevel" stroke-miterlimit="10" stroke-width="5" clip-path="url(#TBVccPXBmwyC)"/><path fill="rgb(107,174,214)" stroke="rgb(107,174,214)" paint-order="fill" d="M 2574.2744140625 586.5 A 7.5 7.5 0 0 1 2559.2744140625 586.5 A 7.5 7.5 0 0 1 2574.2744140625 586.5" fill-opacity="1" clip-path="url(#TxWvJQMtfnbK)" stroke-opacity="1" stroke-linejoin="bevel" stroke-miterlimit="10"/><path fill="none" stroke="rgb(107,174,214)" paint-order="fill" d="M 1648.8607177734375 586.5 L 3513.787841796875 586.5" stroke-opacity="1" stroke-linejoin="bevel" stroke-miterlimit="10" stroke-width="5" clip-path="url(#cKzytmrpdtUD)"/><path fill="rgb(8,81,156)" stroke="rgb(8,81,156)" paint-order="fill" d="M 3222.604736328125 786.5 A 7.5 7.5 0 0 1 3207.604736328125 786.5 A 7.5 7.5 0 0 1 3222.604736328125 786.5" fill-opacity="1" clip-path="url(#JdkqSkdUKXTS)" stroke-opacity="1" stroke-linejoin="bevel" stroke-miterlimit="10"/><path fill="none" stroke="rgb(8,81,156)" paint-order="fill" d="M 2374.591064453125 786.5 L 4078.681884765625 786.5" stroke-opacity="1" stroke-linejoin="bevel" stroke-miterlimit="10" stroke-width="5" clip-path="url(#wrSCgUIqNGHh)"/><path fill="none" stroke="rgb(0,0,0)" paint-order="fill" d="M 260.5 886.5 L 4260.5 886.5" stroke-opacity="1" stroke-linejoin="bevel" stroke-miterlimit="10"/><path fill="none" stroke="rgb(0,0,0)" paint-order="fill" d="M 1050.5 892.5 L 1050.5 884.5 M 1862.5 892.5 L 1862.5 884.5 M 2673.5 892.5 L 2673.5 884.5 M 3484.5 892.5 L 3484.5 884.5" stroke-opacity="1" stroke-linejoin="bevel" stroke-miterlimit="10"/><path fill="none" stroke="rgb(0,0,0)" paint-order="fill" d="M 888.5 890.5 L 888.5 886.5 M 726.5 890.5 L 726.5 886.5 M 564.5 890.5 L 564.5 886.5 M 402.5 890.5 L 402.5 886.5 M 1050.5 890.5 L 1050.5 886.5 M 1213.5 890.5 L 1213.5 886.5 M 1375.5 890.5 L 1375.5 886.5 M 1537.5 890.5 L 1537.5 886.5 M 1699.5 890.5 L 1699.5 886.5 M 1862.5 890.5 L 1862.5 886.5 M 2024.5 890.5 L 2024.5 886.5 M 2186.5 890.5 L 2186.5 886.5 M 2348.5 890.5 L 2348.5 886.5 M 2510.5 890.5 L 2510.5 886.5 M 2673.5 890.5 L 2673.5 886.5 M 2835.5 890.5 L 2835.5 886.5 M 2997.5 890.5 L 2997.5 886.5 M 3159.5 890.5 L 3159.5 886.5 M 3322.5 890.5 L 3322.5 886.5 M 3484.5 890.5 L 3484.5 886.5 M 3646.5 890.5 L 3646.5 886.5 M 3808.5 890.5 L 3808.5 886.5 M 3970.5 890.5 L 3970.5 886.5 M 4133.5 890.5 L 4133.5 886.5" stroke-opacity="1" stroke-linejoin="bevel" stroke-miterlimit="10"/><text fill="rgb(68,68,68)" stroke="none" font-family="helvetica" font-size="40pt" font-style="normal" font-weight="normal" text-decoration="normal" x="1013.3337554931641" y="935.2528190612793" text-anchor="start" dominant-baseline="alphabetic" transform="matrix(1, 0, 0, 1, 0.5, 0.5)" fill-opacity="1">1.4</text><text fill="none" stroke="rgb(0,0,0)" font-family="helvetica" font-size="40pt" font-style="normal" font-weight="normal" text-decoration="normal" x="1013.3337554931641" y="935.2528190612793" text-anchor="start" dominant-baseline="alphabetic" transform="matrix(1, 0, 0, 1, 0.5, 0.5)" stroke-opacity="0" stroke-linejoin="bevel" stroke-miterlimit="10">1.4</text><text fill="rgb(68,68,68)" stroke="none" font-family="helvetica" font-size="40pt" font-style="normal" font-weight="normal" text-decoration="normal" x="1824.458999633789" y="935.2528190612793" text-anchor="start" dominant-baseline="alphabetic" transform="matrix(1, 0, 0, 1, 0.5, 0.5)" fill-opacity="1">1.6</text><text fill="none" stroke="rgb(0,0,0)" font-family="helvetica" font-size="40pt" font-style="normal" font-weight="normal" text-decoration="normal" x="1824.458999633789" y="935.2528190612793" text-anchor="start" dominant-baseline="alphabetic" transform="matrix(1, 0, 0, 1, 0.5, 0.5)" stroke-opacity="0" stroke-linejoin="bevel" stroke-miterlimit="10">1.6</text><text fill="rgb(68,68,68)" stroke="none" font-family="helvetica" font-size="40pt" font-style="normal" font-weight="normal" text-decoration="normal" x="2635.5841217041016" y="935.2528190612793" text-anchor="start" dominant-baseline="alphabetic" transform="matrix(1, 0, 0, 1, 0.5, 0.5)" fill-opacity="1">1.8</text><text fill="none" stroke="rgb(0,0,0)" font-family="helvetica" font-size="40pt" font-style="normal" font-weight="normal" text-decoration="normal" x="2635.5841217041016" y="935.2528190612793" text-anchor="start" dominant-baseline="alphabetic" transform="matrix(1, 0, 0, 1, 0.5, 0.5)" stroke-opacity="0" stroke-linejoin="bevel" stroke-miterlimit="10">1.8</text><text fill="rgb(68,68,68)" stroke="none" font-family="helvetica" font-size="40pt" font-style="normal" font-weight="normal" text-decoration="normal" x="3468.9475479125977" y="935.2528190612793" text-anchor="start" dominant-baseline="alphabetic" transform="matrix(1, 0, 0, 1, 0.5, 0.5)" fill-opacity="1">2</text><text fill="none" stroke="rgb(0,0,0)" font-family="helvetica" font-size="40pt" font-style="normal" font-weight="normal" text-decoration="normal" x="3468.9475479125977" y="935.2528190612793" text-anchor="start" dominant-baseline="alphabetic" transform="matrix(1, 0, 0, 1, 0.5, 0.5)" stroke-opacity="0" stroke-linejoin="bevel" stroke-miterlimit="10">2</text><path fill="none" stroke="rgb(0,0,0)" paint-order="fill" d="M 260.5 886.5 L 260.5 86.5" stroke-opacity="1" stroke-linejoin="bevel" stroke-miterlimit="10"/><path fill="none" stroke="rgb(0,0,0)" paint-order="fill" d="M 254.5 786.5 L 262.5 786.5 M 254.5 586.5 L 262.5 586.5 M 254.5 386.5 L 262.5 386.5 M 254.5 186.5 L 262.5 186.5" stroke-opacity="1" stroke-linejoin="bevel" stroke-miterlimit="10"/><path fill="none" stroke="rgb(0,0,0)" paint-order="fill" d="" stroke-opacity="1" stroke-linejoin="bevel" stroke-miterlimit="10"/><text fill="rgb(68,68,68)" stroke="none" font-family="helvetica" font-size="40pt" font-style="normal" font-weight="normal" text-decoration="normal" x="32.65937805175781" y="804.5" text-anchor="start" dominant-baseline="alphabetic" transform="matrix(1, 0, 0, 1, 0.5, 0.5)" fill-opacity="1">ASO_GF</text><text fill="none" stroke="rgb(0,0,0)" font-family="helvetica" font-size="40pt" font-style="normal" font-weight="normal" text-decoration="normal" x="32.65937805175781" y="804.5" text-anchor="start" dominant-baseline="alphabetic" transform="matrix(1, 0, 0, 1, 0.5, 0.5)" stroke-opacity="0" stroke-linejoin="bevel" stroke-miterlimit="10">ASO_GF</text><text fill="rgb(68,68,68)" stroke="none" font-family="helvetica" font-size="40pt" font-style="normal" font-weight="normal" text-decoration="normal" x="62.37107849121094" y="604.5" text-anchor="start" dominant-baseline="alphabetic" transform="matrix(1, 0, 0, 1, 0.5, 0.5)" fill-opacity="1">WT_GF</text><text fill="none" stroke="rgb(0,0,0)" font-family="helvetica" font-size="40pt" font-style="normal" font-weight="normal" text-decoration="normal" x="62.37107849121094" y="604.5" text-anchor="start" dominant-baseline="alphabetic" transform="matrix(1, 0, 0, 1, 0.5, 0.5)" stroke-opacity="0" stroke-linejoin="bevel" stroke-miterlimit="10">WT_GF</text><text fill="rgb(68,68,68)" stroke="none" font-family="helvetica" font-size="40pt" font-style="normal" font-weight="normal" text-decoration="normal" x="2.9997711181640625" y="404.5" text-anchor="start" dominant-baseline="alphabetic" transform="matrix(1, 0, 0, 1, 0.5, 0.5)" fill-opacity="1">ASO_SPF</text><text fill="none" stroke="rgb(0,0,0)" font-family="helvetica" font-size="40pt" font-style="normal" font-weight="normal" text-decoration="normal" x="2.9997711181640625" y="404.5" text-anchor="start" dominant-baseline="alphabetic" transform="matrix(1, 0, 0, 1, 0.5, 0.5)" stroke-opacity="0" stroke-linejoin="bevel" stroke-miterlimit="10">ASO_SPF</text><text fill="rgb(68,68,68)" stroke="none" font-family="helvetica" font-size="40pt" font-style="normal" font-weight="normal" text-decoration="normal" x="32.71147155761719" y="204.5" text-anchor="start" dominant-baseline="alphabetic" transform="matrix(1, 0, 0, 1, 0.5, 0.5)" fill-opacity="1">WT_SPF</text><text fill="none" stroke="rgb(0,0,0)" font-family="helvetica" font-size="40pt" font-style="normal" font-weight="normal" text-decoration="normal" x="32.71147155761719" y="204.5" text-anchor="start" dominant-baseline="alphabetic" transform="matrix(1, 0, 0, 1, 0.5, 0.5)" stroke-opacity="0" stroke-linejoin="bevel" stroke-miterlimit="10">WT_SPF</text><text fill="rgb(68,68,68)" stroke="none" font-family="helvetica" font-size="48pt" font-style="normal" font-weight="bold" text-decoration="normal" x="260" y="66" text-anchor="start" dominant-baseline="alphabetic" transform="matrix(1, 0, 0, 1, 0.5, 0.5)" fill-opacity="1">sigma 95%CI, lognormal mixed model</text><text fill="none" stroke="rgb(0,0,0)" font-family="helvetica" font-size="48pt" font-style="normal" font-weight="bold" text-decoration="normal" x="260" y="66" text-anchor="start" dominant-baseline="alphabetic" transform="matrix(1, 0, 0, 1, 0.5, 0.5)" stroke-opacity="0" stroke-miterlimit="10" stroke-dasharray="">sigma 95%CI, lognormal mixed model</text></svg>