<svg version="1.1" xmlns="http://www.w3.org/2000/svg" width="4266" height="929"><defs><clipPath id="trGkzBJplRtz"><path fill="none" stroke="none" d="M 0.5 0.5 L 4266.5 0.5 L 4266.5 929.5 L 0.5 929.5 L 0.5 0.5 Z M 261.5 77.5 L 4261.5 77.5 L 4261.5 877.5 L 261.5 877.5 L 261.5 77.5 Z" clip-rule="evenodd"/></clipPath><clipPath id="rnTOnUWmKLpe"><path fill="none" stroke="none" d="M 261.5 77.5 L 4261.5 77.5 L 4261.5 877.5 L 261.5 877.5 L 261.5 77.5 Z"/></clipPath><clipPath id="ASwPJiKLpWKm"><path fill="none" stroke="none" d="M 261.5 77.5 L 4261.5 77.5 L 4261.5 877.5 L 261.5 877.5 L 261.5 77.5 Z"/></clipPath><clipPath id="OVSyNxQRAplW"><path fill="none" stroke="none" d="M 261.5 77.5 L 4261.5 77.5 L 4261.5 877.5 L 261.5 877.5 L 261.5 77.5 Z"/></clipPath><clipPath id="xRTaCzQkBNgV"><path fill="none" stroke="none" d="M 261.5 77.5 L 4261.5 77.5 L 4261.5 877.5 L 261.5 877.5 L 261.5 77.5 Z"/></clipPath><clipPath id="QPltDhAmtMtD"><path fill="none" stroke="none" d="M 261.5 77.5 L 4261.5 77.5 L 4261.5 877.5 L 261.5 877.5 L 261.5 77.5 Z"/></clipPath><clipPath id="FUHNzbzxzNhS"><path fill="none" stroke="none" d="M 261.5 77.5 L 4261.5 77.5 L 4261.5 877.5 L 261.5 877.5 L 261.5 77.5 Z"/></clipPath><clipPath id="gCDiTBZOrNbs"><path fill="none" stroke="none" d="M 261.5 77.5 L 4261.5 77.5 L 4261.5 877.5 L 261.5 877.5 L 261.5 77.5 Z"/></clipPath><clipPath id="xIqCoPZVNyxQ"><path fill="none" stroke="none" d="M 261.5 77.5 L 4261.5 77.5 L 4261.5 877.5 L 261.5 877.5 L 261.5 77.5 Z"/></clipPath><clipPath id="kEgnXFcXLDOu"><path fill="none" stroke="none" d="M 261.5 77.5 L 4261.5 77.5 L 4261.5 877.5 L 261.5 877.5 L 261.5 77.5 Z"/></clipPath><clipPath id="NrMcdKplFsVs"><path fill="none" stroke="none" d="M 261.5 77.5 L 4261.5 77.5 L 4261.5 877.5 L 261.5 877.5 L 261.5 77.5 Z"/></clipPath><clipPath id="lKEvWTXeiUTC"><path fill="none" stroke="none" d="M 261.5 77.5 L 4261.5 77.5 L 4261.5 877.5 L 261.5 877.5 L 261.5 77.5 Z"/></clipPath></defs><path fill="rgb(255,255,255)" stroke="none" paint-order="stroke" d="M 0.5 0.5 L 4266.5 0.5 L 4266.5 929.5 L 0.5 929.5 L 0.5 0.5 Z" fill-opacity="1" clip-path="url(#trGkzBJplRtz)"/><path fill="rgb(255,255,255)" stroke="none" paint-order="stroke" d="M 261.5 77.5 L 4261.5 77.5 L 4261.5 877.5 L 261.5 877.5 L 261.5 77.5 Z" fill-opacity="1"/><path fill="none" stroke="rgb(229,229,229)" paint-order="fill" d="M 261.5 77.5 L 4261.5 77.5 L 4261.5 877.5 L 261.5 877.5 L 261.5 77.5 Z" stroke-opacity="1" stroke-linejoin="bevel" stroke-miterlimit="10"/><path fill="none" stroke="rgb(229,229,229)" paint-order="fill" d="M 529.5 877.5 L 529.5 77.5 M 1235.5 877.5 L 1235.5 77.5 M 1941.5 877.5 L 1941.5 77.5 M 2647.5 877.5 L 2647.5 77.5 M 3353.5 877.5 L 3353.5 77.5 M 4059.5 877.5 L 4059.5 77.5" stroke-opacity="1" stroke-linejoin="bevel" stroke-miterlimit="10" clip-path="url(#rnTOnUWmKLpe)"/><path fill="none" stroke="rgb(229,229,229)" paint-order="fill" d="M 261.5 777.5 L 4261.5 777.5 M 261.5 577.5 L 4261.5 577.5 M 261.5 377.5 L 4261.5 377.5 M 261.5 177.5 L 4261.5 177.5" stroke-opacity="1" stroke-linejoin="bevel" stroke-miterlimit="10" clip-path="url(#ASwPJiKLpWKm)"/><path fill="rgb(189,189,189)" stroke="rgb(189,189,189)" paint-order="fill" d="M 2822.138427734375 177.5 A 7.5 7.5 0 0 1 2807.138427734375 177.5 A 7.5 7.5 0 0 1 2822.138427734375 177.5" fill-opacity="1" clip-path="url(#OVSyNxQRAplW)" stroke-opacity="1" stroke-linejoin="bevel" stroke-miterlimit="10"/><path fill="none" stroke="rgb(189,189,189)" paint-order="fill" d="M 1514.949951171875 177.5 L 4023.898681640625 177.5" stroke-opacity="1" stroke-linejoin="bevel" stroke-miterlimit="10" stroke-width="5" clip-path="url(#xRTaCzQkBNgV)"/><path fill="rgb(0,0,0)" stroke="rgb(0,0,0)" paint-order="fill" d="M 1406.5350341796875 377.5 A 7.5 7.5 0 0 1 1391.5350341796875 377.5 A 7.5 7.5 0 0 1 1406.5350341796875 377.5" fill-opacity="1" clip-path="url(#QPltDhAmtMtD)" stroke-opacity="1" stroke-linejoin="bevel" stroke-miterlimit="10"/><path fill="none" stroke="rgb(0,0,0)" paint-order="fill" d="M 443.31817626953125 377.5 L 2259.370361328125 377.5" stroke-opacity="1" stroke-linejoin="bevel" stroke-miterlimit="10" stroke-width="5" clip-path="url(#FUHNzbzxzNhS)"/><path fill="rgb(107,174,214)" stroke="rgb(107,174,214)" paint-order="fill" d="M 2921.72900390625 577.5 A 7.5 7.5 0 0 1 2906.72900390625 577.5 A 7.5 7.5 0 0 1 2921.72900390625 577.5" fill-opacity="1" clip-path="url(#gCDiTBZOrNbs)" stroke-opacity="1" stroke-linejoin="bevel" stroke-miterlimit="10"/><path fill="none" stroke="rgb(107,174,214)" paint-order="fill" d="M 1731.844482421875 577.5 L 4079.681884765625 577.5" stroke-opacity="1" stroke-linejoin="bevel" stroke-miterlimit="10" stroke-width="5" clip-path="url(#xIqCoPZVNyxQ)"/><path fill="rgb(8,81,156)" stroke="rgb(8,81,156)" paint-order="fill" d="M 2084.06103515625 777.5 A 7.5 7.5 0 0 1 2069.06103515625 777.5 A 7.5 7.5 0 0 1 2084.06103515625 777.5" fill-opacity="1" clip-path="url(#kEgnXFcXLDOu)" stroke-opacity="1" stroke-linejoin="bevel" stroke-miterlimit="10"/><path fill="none" stroke="rgb(8,81,156)" paint-order="fill" d="M 960.6415405273438 777.5 L 3162.46142578125 777.5" stroke-opacity="1" stroke-linejoin="bevel" stroke-miterlimit="10" stroke-width="5" clip-path="url(#NrMcdKplFsVs)"/><path fill="none" stroke="rgb(0,0,0)" paint-order="fill" d="M 261.5 877.5 L 4261.5 877.5" stroke-opacity="1" stroke-linejoin="bevel" stroke-miterlimit="10"/><path fill="none" stroke="rgb(0,0,0)" paint-order="fill" d="M 529.5 883.5 L 529.5 875.5 M 1235.5 883.5 L 1235.5 875.5 M 1941.5 883.5 L 1941.5 875.5 M 2647.5 883.5 L 2647.5 875.5 M 3353.5 883.5 L 3353.5 875.5 M 4059.5 883.5 L 4059.5 875.5" stroke-opacity="1" stroke-linejoin="bevel" stroke-miterlimit="10"/><path fill="none" stroke="rgb(0,0,0)" paint-order="fill" d="M 388.5 881.5 L 388.5 877.5 M 529.5 881.5 L 529.5 877.5 M 671.5 881.5 L 671.5 877.5 M 812.5 881.5 L 812.5 877.5 M 953.5 881.5 L 953.5 877.5 M 1094.5 881.5 L 1094.5 877.5 M 1235.5 881.5 L 1235.5 877.5 M 1376.5 881.5 L 1376.5 877.5 M 1518.5 881.5 L 1518.5 877.5 M 1659.5 881.5 L 1659.5 877.5 M 1800.5 881.5 L 1800.5 877.5 M 1941.5 881.5 L 1941.5 877.5 M 2082.5 881.5 L 2082.5 877.5 M 2223.5 881.5 L 2223.5 877.5 M 2365.5 881.5 L 2365.5 877.5 M 2506.5 881.5 L 2506.5 877.5 M 2647.5 881.5 L 2647.5 877.5 M 2788.5 881.5 L 2788.5 877.5 M 2929.5 881.5 L 2929.5 877.5 M 3070.5 881.5 L 3070.5 877.5 M 3212.5 881.5 L 3212.5 877.5 M 3353.5 881.5 L 3353.5 877.5 M 3494.5 881.5 L 3494.5 877.5 M 3635.5 881.5 L 3635.5 877.5 M 3776.5 881.5 L 3776.5 877.5 M 3917.5 881.5 L 3917.5 877.5 M 4059.5 881.5 L 4059.5 877.5 M 4200.5 881.5 L 4200.5 877.5" stroke-opacity="1" stroke-linejoin="bevel" stroke-miterlimit="10"/><text fill="rgb(68,68,68)" stroke="none" font-family="helvetica" font-size="40pt" font-style="normal" font-weight="normal" text-decoration="normal" x="492.2526397705078" y="926.374755859375" text-anchor="start" dominant-baseline="alphabetic" transform="matrix(1, 0, 0, 1, 0.5, 0.5)" fill-opacity="1">0.5</text><text fill="none" stroke="rgb(0,0,0)" font-family="helvetica" font-size="40pt" font-style="normal" font-weight="normal" text-decoration="normal" x="492.2526397705078" y="926.374755859375" text-anchor="start" dominant-baseline="alphabetic" transform="matrix(1, 0, 0, 1, 0.5, 0.5)" stroke-opacity="0" stroke-linejoin="bevel" stroke-miterlimit="10">0.5</text><text fill="rgb(68,68,68)" stroke="none" font-family="helvetica" font-size="40pt" font-style="normal" font-weight="normal" text-decoration="normal" x="1198.0785064697266" y="926.374755859375" text-anchor="start" dominant-baseline="alphabetic" transform="matrix(1, 0, 0, 1, 0.5, 0.5)" fill-opacity="1">0.6</text><text fill="none" stroke="rgb(0,0,0)" font-family="helvetica" font-size="40pt" font-style="normal" font-weight="normal" text-decoration="normal" x="1198.0785064697266" y="926.374755859375" text-anchor="start" dominant-baseline="alphabetic" transform="matrix(1, 0, 0, 1, 0.5, 0.5)" stroke-opacity="0" stroke-linejoin="bevel" stroke-miterlimit="10">0.6</text><text fill="rgb(68,68,68)" stroke="none" font-family="helvetica" font-size="40pt" font-style="normal" font-weight="normal" text-decoration="normal" x="1903.904312133789" y="926.374755859375" text-anchor="start" dominant-baseline="alphabetic" transform="matrix(1, 0, 0, 1, 0.5, 0.5)" fill-opacity="1">0.7</text><text fill="none" stroke="rgb(0,0,0)" font-family="helvetica" font-size="40pt" font-style="normal" font-weight="normal" text-decoration="normal" x="1903.904312133789" y="926.374755859375" text-anchor="start" dominant-baseline="alphabetic" transform="matrix(1, 0, 0, 1, 0.5, 0.5)" stroke-opacity="0" stroke-linejoin="bevel" stroke-miterlimit="10">0.7</text><text fill="rgb(68,68,68)" stroke="none" font-family="helvetica" font-size="40pt" font-style="normal" font-weight="normal" text-decoration="normal" x="2609.729995727539" y="926.374755859375" text-anchor="start" dominant-baseline="alphabetic" transform="matrix(1, 0, 0, 1, 0.5, 0.5)" fill-opacity="1">0.8</text><text fill="none" stroke="rgb(0,0,0)" font-family="helvetica" font-size="40pt" font-style="normal" font-weight="normal" text-decoration="normal" x="2609.729995727539" y="926.374755859375" text-anchor="start" dominant-baseline="alphabetic" transform="matrix(1, 0, 0, 1, 0.5, 0.5)" stroke-opacity="0" stroke-linejoin="bevel" stroke-miterlimit="10">0.8</text><text fill="rgb(68,68,68)" stroke="none" font-family="helvetica" font-size="40pt" font-style="normal" font-weight="normal" text-decoration="normal" x="3315.555923461914" y="926.374755859375" text-anchor="start" dominant-baseline="alphabetic" transform="matrix(1, 0, 0, 1, 0.5, 0.5)" fill-opacity="1">0.9</text><text fill="none" stroke="rgb(0,0,0)" font-family="helvetica" font-size="40pt" font-style="normal" font-weight="normal" text-decoration="normal" x="3315.555923461914" y="926.374755859375" text-anchor="start" dominant-baseline="alphabetic" transform="matrix(1, 0, 0, 1, 0.5, 0.5)" stroke-opacity="0" stroke-linejoin="bevel" stroke-miterlimit="10">0.9</text><text fill="rgb(68,68,68)" stroke="none" font-family="helvetica" font-size="40pt" font-style="normal" font-weight="normal" text-decoration="normal" x="4043.690185546875" y="926.374755859375" text-anchor="start" dominant-baseline="alphabetic" transform="matrix(1, 0, 0, 1, 0.5, 0.5)" fill-opacity="1">1</text><text fill="none" stroke="rgb(0,0,0)" font-family="helvetica" font-size="40pt" font-style="normal" font-weight="normal" text-decoration="normal" x="4043.690185546875" y="926.374755859375" text-anchor="start" dominant-baseline="alphabetic" transform="matrix(1, 0, 0, 1, 0.5, 0.5)" stroke-opacity="0" stroke-linejoin="bevel" stroke-miterlimit="10">1</text><path fill="none" stroke="rgb(0,0,0)" paint-order="fill" d="M 261.5 877.5 L 261.5 77.5" stroke-opacity="1" stroke-linejoin="bevel" stroke-miterlimit="10"/><path fill="none" stroke="rgb(0,0,0)" paint-order="fill" d="M 255.5 777.5 L 263.5 777.5 M 255.5 577.5 L 263.5 577.5 M 255.5 377.5 L 263.5 377.5 M 255.5 177.5 L 263.5 177.5" stroke-opacity="1" stroke-linejoin="bevel" stroke-miterlimit="10"/><path fill="none" stroke="rgb(0,0,0)" paint-order="fill" d="" stroke-opacity="1" stroke-linejoin="bevel" stroke-miterlimit="10"/><text fill="rgb(68,68,68)" stroke="none" font-family="helvetica" font-size="40pt" font-style="normal" font-weight="normal" text-decoration="normal" x="32.96665954589844" y="791.5" text-anchor="start" dominant-baseline="alphabetic" transform="matrix(1, 0, 0, 1, 0.5, 0.5)" fill-opacity="1">ASO_GF</text><text fill="none" stroke="rgb(0,0,0)" font-family="helvetica" font-size="40pt" font-style="normal" font-weight="normal" text-decoration="normal" x="32.96665954589844" y="791.5" text-anchor="start" dominant-baseline="alphabetic" transform="matrix(1, 0, 0, 1, 0.5, 0.5)" stroke-opacity="0" stroke-linejoin="bevel" stroke-miterlimit="10">ASO_GF</text><text fill="rgb(68,68,68)" stroke="none" font-family="helvetica" font-size="40pt" font-style="normal" font-weight="normal" text-decoration="normal" x="62.76666259765625" y="591.5" text-anchor="start" dominant-baseline="alphabetic" transform="matrix(1, 0, 0, 1, 0.5, 0.5)" fill-opacity="1">WT_GF</text><text fill="none" stroke="rgb(0,0,0)" font-family="helvetica" font-size="40pt" font-style="normal" font-weight="normal" text-decoration="normal" x="62.76666259765625" y="591.5" text-anchor="start" dominant-baseline="alphabetic" transform="matrix(1, 0, 0, 1, 0.5, 0.5)" stroke-opacity="0" stroke-linejoin="bevel" stroke-miterlimit="10">WT_GF</text><text fill="rgb(68,68,68)" stroke="none" font-family="helvetica" font-size="40pt" font-style="normal" font-weight="normal" text-decoration="normal" x="3.2166595458984375" y="391.5" text-anchor="start" dominant-baseline="alphabetic" transform="matrix(1, 0, 0, 1, 0.5, 0.5)" fill-opacity="1">ASO_SPF</text><text fill="none" stroke="rgb(0,0,0)" font-family="helvetica" font-size="40pt" font-style="normal" font-weight="normal" text-decoration="normal" x="3.2166595458984375" y="391.5" text-anchor="start" dominant-baseline="alphabetic" transform="matrix(1, 0, 0, 1, 0.5, 0.5)" stroke-opacity="0" stroke-linejoin="bevel" stroke-miterlimit="10">ASO_SPF</text><text fill="rgb(68,68,68)" stroke="none" font-family="helvetica" font-size="40pt" font-style="normal" font-weight="normal" text-decoration="normal" x="33.01666259765625" y="191.5" text-anchor="start" dominant-baseline="alphabetic" transform="matrix(1, 0, 0, 1, 0.5, 0.5)" fill-opacity="1">WT_SPF</text><text fill="none" stroke="rgb(0,0,0)" font-family="helvetica" font-size="40pt" font-style="normal" font-weight="normal" text-decoration="normal" x="33.01666259765625" y="191.5" text-anchor="start" dominant-baseline="alphabetic" transform="matrix(1, 0, 0, 1, 0.5, 0.5)" stroke-opacity="0" stroke-linejoin="bevel" stroke-miterlimit="10">WT_SPF</text><text fill="rgb(68,68,68)" stroke="none" font-family="helvetica" font-size="48pt" font-style="normal" font-weight="bold" text-decoration="normal" x="0" y="50" text-anchor="start" dominant-baseline="alphabetic" transform="matrix(1, 0, 0, 1, 261.5, 7.5)" fill-opacity="1">sigma 95%CI, lognormal mixed model</text><text fill="none" stroke="rgb(0,0,0)" font-family="helvetica" font-size="48pt" font-style="normal" font-weight="bold" text-decoration="normal" x="0" y="50" text-anchor="start" dominant-baseline="alphabetic" transform="matrix(1, 0, 0, 1, 261.5, 7.5)" stroke-opacity="0" stroke-miterlimit="10" stroke-dasharray="">sigma 95%CI, lognormal mixed model</text></svg>