<svg version="1.1" xmlns="http://www.w3.org/2000/svg" width="4266" height="929"><defs><clipPath id="SRVDZXshNiiO"><path fill="none" stroke="none" d="M 0.5 0.5 L 4266.5 0.5 L 4266.5 929.5 L 0.5 929.5 L 0.5 0.5 Z M 261.5 77.5 L 4261.5 77.5 L 4261.5 877.5 L 261.5 877.5 L 261.5 77.5 Z" clip-rule="evenodd"/></clipPath><clipPath id="IMKhXXWqaDHc"><path fill="none" stroke="none" d="M 261.5 77.5 L 4261.5 77.5 L 4261.5 877.5 L 261.5 877.5 L 261.5 77.5 Z"/></clipPath><clipPath id="nyuBULXMuAPu"><path fill="none" stroke="none" d="M 261.5 77.5 L 4261.5 77.5 L 4261.5 877.5 L 261.5 877.5 L 261.5 77.5 Z"/></clipPath><clipPath id="wtuyphUgDbdE"><path fill="none" stroke="none" d="M 261.5 77.5 L 4261.5 77.5 L 4261.5 877.5 L 261.5 877.5 L 261.5 77.5 Z"/></clipPath><clipPath id="iNmxZflTOHaV"><path fill="none" stroke="none" d="M 261.5 77.5 L 4261.5 77.5 L 4261.5 877.5 L 261.5 877.5 L 261.5 77.5 Z"/></clipPath><clipPath id="dFsQicwynfTx"><path fill="none" stroke="none" d="M 261.5 77.5 L 4261.5 77.5 L 4261.5 877.5 L 261.5 877.5 L 261.5 77.5 Z"/></clipPath><clipPath id="ZbxVrhFGxsAC"><path fill="none" stroke="none" d="M 261.5 77.5 L 4261.5 77.5 L 4261.5 877.5 L 261.5 877.5 L 261.5 77.5 Z"/></clipPath><clipPath id="TUodiTVoRIyp"><path fill="none" stroke="none" d="M 261.5 77.5 L 4261.5 77.5 L 4261.5 877.5 L 261.5 877.5 L 261.5 77.5 Z"/></clipPath><clipPath id="TqxoOmdZrLfp"><path fill="none" stroke="none" d="M 261.5 77.5 L 4261.5 77.5 L 4261.5 877.5 L 261.5 877.5 L 261.5 77.5 Z"/></clipPath><clipPath id="zpxcnFHTModc"><path fill="none" stroke="none" d="M 261.5 77.5 L 4261.5 77.5 L 4261.5 877.5 L 261.5 877.5 L 261.5 77.5 Z"/></clipPath><clipPath id="wOCipiesgvcB"><path fill="none" stroke="none" d="M 261.5 77.5 L 4261.5 77.5 L 4261.5 877.5 L 261.5 877.5 L 261.5 77.5 Z"/></clipPath><clipPath id="vHJyWtunXVMI"><path fill="none" stroke="none" d="M 261.5 77.5 L 4261.5 77.5 L 4261.5 877.5 L 261.5 877.5 L 261.5 77.5 Z"/></clipPath></defs><path fill="#ffffff" stroke="none" paint-order="stroke" d="M 0.5 0.5 L 4266.5 0.5 L 4266.5 929.5 L 0.5 929.5 L 0.5 0.5 Z" clip-path="url(#SRVDZXshNiiO)"/><path fill="#ffffff" stroke="none" paint-order="stroke" d="M 261.5 77.5 L 4261.5 77.5 L 4261.5 877.5 L 261.5 877.5 L 261.5 77.5 Z"/><path fill="none" stroke="#e5e5e5" paint-order="fill" d="M 261.5 77.5 L 4261.5 77.5 L 4261.5 877.5 L 261.5 877.5 L 261.5 77.5 Z" stroke-linejoin="bevel" stroke-miterlimit="10"/><path fill="none" stroke="#e5e5e5" paint-order="fill" d="M 623.5 877.5 L 623.5 77.5 M 1487.5 877.5 L 1487.5 77.5 M 2351.5 877.5 L 2351.5 77.5 M 3215.5 877.5 L 3215.5 77.5 M 4079.5 877.5 L 4079.5 77.5" stroke-linejoin="bevel" stroke-miterlimit="10" clip-path="url(#IMKhXXWqaDHc)"/><path fill="none" stroke="#e5e5e5" paint-order="fill" d="M 261.5 777.5 L 4261.5 777.5 M 261.5 577.5 L 4261.5 577.5 M 261.5 377.5 L 4261.5 377.5 M 261.5 177.5 L 4261.5 177.5" stroke-linejoin="bevel" stroke-miterlimit="10" clip-path="url(#nyuBULXMuAPu)"/><path fill="rgb(189,189,189)" stroke="rgb(189,189,189)" paint-order="fill" d="M 3520.993408203125 177.5 A 7.5 7.5 0 0 1 3505.993408203125 177.5 A 7.5 7.5 0 0 1 3520.993408203125 177.5" fill-opacity="1" clip-path="url(#wtuyphUgDbdE)" stroke-opacity="1" stroke-linejoin="bevel" stroke-miterlimit="10"/><path fill="none" stroke="#bdbdbd" paint-order="fill" d="M 2351.668701171875 177.5 L 4079.681884765625 177.5" stroke-linejoin="bevel" stroke-miterlimit="10" stroke-width="5" clip-path="url(#iNmxZflTOHaV)"/><path fill="rgb(0,0,0)" stroke="rgb(0,0,0)" paint-order="fill" d="M 2270.26611328125 377.5 A 7.5 7.5 0 0 1 2255.26611328125 377.5 A 7.5 7.5 0 0 1 2270.26611328125 377.5" fill-opacity="1" clip-path="url(#dFsQicwynfTx)" stroke-opacity="1" stroke-linejoin="bevel" stroke-miterlimit="10"/><path fill="none" stroke="#000000" paint-order="fill" d="M 443.31817626953125 377.5 L 3634.632080078125 377.5" stroke-linejoin="bevel" stroke-miterlimit="10" stroke-width="5" clip-path="url(#ZbxVrhFGxsAC)"/><path fill="rgb(107,174,214)" stroke="rgb(107,174,214)" paint-order="fill" d="M 3695.045654296875 577.5 A 7.5 7.5 0 0 1 3680.045654296875 577.5 A 7.5 7.5 0 0 1 3695.045654296875 577.5" fill-opacity="1" clip-path="url(#TUodiTVoRIyp)" stroke-opacity="1" stroke-linejoin="bevel" stroke-miterlimit="10"/><path fill="none" stroke="#6baed6" paint-order="fill" d="M 2786.387451171875 577.5 L 4079.681884765625 577.5" stroke-linejoin="bevel" stroke-miterlimit="10" stroke-width="5" clip-path="url(#TqxoOmdZrLfp)"/><path fill="rgb(8,81,156)" stroke="rgb(8,81,156)" paint-order="fill" d="M 2648.338134765625 777.5 A 7.5 7.5 0 0 1 2633.338134765625 777.5 A 7.5 7.5 0 0 1 2648.338134765625 777.5" fill-opacity="1" clip-path="url(#zpxcnFHTModc)" stroke-opacity="1" stroke-linejoin="bevel" stroke-miterlimit="10"/><path fill="none" stroke="#08519c" paint-order="fill" d="M 1201.25439453125 777.5 L 4079.681884765625 777.5" stroke-linejoin="bevel" stroke-miterlimit="10" stroke-width="5" clip-path="url(#wOCipiesgvcB)"/><path fill="none" stroke="black" paint-order="fill" d="M 261.5 877.5 L 4261.5 877.5" stroke-linejoin="bevel" stroke-miterlimit="10"/><path fill="none" stroke="black" paint-order="fill" d="M 623.5 883.5 L 623.5 875.5 M 1487.5 883.5 L 1487.5 875.5 M 2351.5 883.5 L 2351.5 875.5 M 3215.5 883.5 L 3215.5 875.5 M 4079.5 883.5 L 4079.5 875.5" stroke-linejoin="bevel" stroke-miterlimit="10"/><path fill="none" stroke="black" paint-order="fill" d="M 450.5 881.5 L 450.5 877.5 M 277.5 881.5 L 277.5 877.5 M 623.5 881.5 L 623.5 877.5 M 796.5 881.5 L 796.5 877.5 M 969.5 881.5 L 969.5 877.5 M 1141.5 881.5 L 1141.5 877.5 M 1314.5 881.5 L 1314.5 877.5 M 1487.5 881.5 L 1487.5 877.5 M 1660.5 881.5 L 1660.5 877.5 M 1833.5 881.5 L 1833.5 877.5 M 2005.5 881.5 L 2005.5 877.5 M 2178.5 881.5 L 2178.5 877.5 M 2351.5 881.5 L 2351.5 877.5 M 2524.5 881.5 L 2524.5 877.5 M 2697.5 881.5 L 2697.5 877.5 M 2869.5 881.5 L 2869.5 877.5 M 3042.5 881.5 L 3042.5 877.5 M 3215.5 881.5 L 3215.5 877.5 M 3388.5 881.5 L 3388.5 877.5 M 3561.5 881.5 L 3561.5 877.5 M 3734.5 881.5 L 3734.5 877.5 M 3906.5 881.5 L 3906.5 877.5 M 4079.5 881.5 L 4079.5 877.5 M 4252.5 881.5 L 4252.5 877.5" stroke-linejoin="bevel" stroke-miterlimit="10"/><text fill="#444444" stroke="none" font-family="helvetica" font-size="40pt" font-style="normal" font-weight="normal" text-decoration="normal" x="585.7227325439453" y="926.374755859375" text-anchor="start" dominant-baseline="alphabetic" transform="matrix(1, 0, 0, 1, 0.5, 0.5)">0.6</text><text fill="none" stroke="rgb(0,0,0)" font-family="helvetica" font-size="40pt" font-style="normal" font-weight="normal" text-decoration="normal" x="585.7227325439453" y="926.374755859375" text-anchor="start" dominant-baseline="alphabetic" transform="matrix(1, 0, 0, 1, 0.5, 0.5)" stroke-opacity="0" stroke-linejoin="bevel" stroke-miterlimit="10">0.6</text><text fill="#444444" stroke="none" font-family="helvetica" font-size="40pt" font-style="normal" font-weight="normal" text-decoration="normal" x="1449.791763305664" y="926.374755859375" text-anchor="start" dominant-baseline="alphabetic" transform="matrix(1, 0, 0, 1, 0.5, 0.5)">0.7</text><text fill="none" stroke="rgb(0,0,0)" font-family="helvetica" font-size="40pt" font-style="normal" font-weight="normal" text-decoration="normal" x="1449.791763305664" y="926.374755859375" text-anchor="start" dominant-baseline="alphabetic" transform="matrix(1, 0, 0, 1, 0.5, 0.5)" stroke-opacity="0" stroke-linejoin="bevel" stroke-miterlimit="10">0.7</text><text fill="#444444" stroke="none" font-family="helvetica" font-size="40pt" font-style="normal" font-weight="normal" text-decoration="normal" x="2313.860855102539" y="926.374755859375" text-anchor="start" dominant-baseline="alphabetic" transform="matrix(1, 0, 0, 1, 0.5, 0.5)">0.8</text><text fill="none" stroke="rgb(0,0,0)" font-family="helvetica" font-size="40pt" font-style="normal" font-weight="normal" text-decoration="normal" x="2313.860855102539" y="926.374755859375" text-anchor="start" dominant-baseline="alphabetic" transform="matrix(1, 0, 0, 1, 0.5, 0.5)" stroke-opacity="0" stroke-linejoin="bevel" stroke-miterlimit="10">0.8</text><text fill="#444444" stroke="none" font-family="helvetica" font-size="40pt" font-style="normal" font-weight="normal" text-decoration="normal" x="3177.929702758789" y="926.374755859375" text-anchor="start" dominant-baseline="alphabetic" transform="matrix(1, 0, 0, 1, 0.5, 0.5)">0.9</text><text fill="none" stroke="rgb(0,0,0)" font-family="helvetica" font-size="40pt" font-style="normal" font-weight="normal" text-decoration="normal" x="3177.929702758789" y="926.374755859375" text-anchor="start" dominant-baseline="alphabetic" transform="matrix(1, 0, 0, 1, 0.5, 0.5)" stroke-opacity="0" stroke-linejoin="bevel" stroke-miterlimit="10">0.9</text><text fill="#444444" stroke="none" font-family="helvetica" font-size="40pt" font-style="normal" font-weight="normal" text-decoration="normal" x="4064.30712890625" y="926.374755859375" text-anchor="start" dominant-baseline="alphabetic" transform="matrix(1, 0, 0, 1, 0.5, 0.5)">1</text><text fill="none" stroke="rgb(0,0,0)" font-family="helvetica" font-size="40pt" font-style="normal" font-weight="normal" text-decoration="normal" x="4064.30712890625" y="926.374755859375" text-anchor="start" dominant-baseline="alphabetic" transform="matrix(1, 0, 0, 1, 0.5, 0.5)" stroke-opacity="0" stroke-linejoin="bevel" stroke-miterlimit="10">1</text><path fill="none" stroke="black" paint-order="fill" d="M 261.5 877.5 L 261.5 77.5" stroke-linejoin="bevel" stroke-miterlimit="10"/><path fill="none" stroke="black" paint-order="fill" d="M 255.5 777.5 L 263.5 777.5 M 255.5 577.5 L 263.5 577.5 M 255.5 377.5 L 263.5 377.5 M 255.5 177.5 L 263.5 177.5" stroke-linejoin="bevel" stroke-miterlimit="10"/><path fill="none" stroke="black" paint-order="fill" d="" stroke-linejoin="bevel" stroke-miterlimit="10"/><text fill="#444444" stroke="none" font-family="helvetica" font-size="40pt" font-style="normal" font-weight="normal" text-decoration="normal" x="32.96665954589844" y="791.5" text-anchor="start" dominant-baseline="alphabetic" transform="matrix(1, 0, 0, 1, 0.5, 0.5)">ASO_GF</text><text fill="none" stroke="rgb(0,0,0)" font-family="helvetica" font-size="40pt" font-style="normal" font-weight="normal" text-decoration="normal" x="32.96665954589844" y="791.5" text-anchor="start" dominant-baseline="alphabetic" transform="matrix(1, 0, 0, 1, 0.5, 0.5)" stroke-opacity="0" stroke-linejoin="bevel" stroke-miterlimit="10">ASO_GF</text><text fill="#444444" stroke="none" font-family="helvetica" font-size="40pt" font-style="normal" font-weight="normal" text-decoration="normal" x="62.76666259765625" y="591.5" text-anchor="start" dominant-baseline="alphabetic" transform="matrix(1, 0, 0, 1, 0.5, 0.5)">WT_GF</text><text fill="none" stroke="rgb(0,0,0)" font-family="helvetica" font-size="40pt" font-style="normal" font-weight="normal" text-decoration="normal" x="62.76666259765625" y="591.5" text-anchor="start" dominant-baseline="alphabetic" transform="matrix(1, 0, 0, 1, 0.5, 0.5)" stroke-opacity="0" stroke-linejoin="bevel" stroke-miterlimit="10">WT_GF</text><text fill="#444444" stroke="none" font-family="helvetica" font-size="40pt" font-style="normal" font-weight="normal" text-decoration="normal" x="3.2166595458984375" y="391.5" text-anchor="start" dominant-baseline="alphabetic" transform="matrix(1, 0, 0, 1, 0.5, 0.5)">ASO_SPF</text><text fill="none" stroke="rgb(0,0,0)" font-family="helvetica" font-size="40pt" font-style="normal" font-weight="normal" text-decoration="normal" x="3.2166595458984375" y="391.5" text-anchor="start" dominant-baseline="alphabetic" transform="matrix(1, 0, 0, 1, 0.5, 0.5)" stroke-opacity="0" stroke-linejoin="bevel" stroke-miterlimit="10">ASO_SPF</text><text fill="#444444" stroke="none" font-family="helvetica" font-size="40pt" font-style="normal" font-weight="normal" text-decoration="normal" x="33.01666259765625" y="191.5" text-anchor="start" dominant-baseline="alphabetic" transform="matrix(1, 0, 0, 1, 0.5, 0.5)">WT_SPF</text><text fill="none" stroke="rgb(0,0,0)" font-family="helvetica" font-size="40pt" font-style="normal" font-weight="normal" text-decoration="normal" x="33.01666259765625" y="191.5" text-anchor="start" dominant-baseline="alphabetic" transform="matrix(1, 0, 0, 1, 0.5, 0.5)" stroke-opacity="0" stroke-linejoin="bevel" stroke-miterlimit="10">WT_SPF</text><text fill="#444444" stroke="none" font-family="helvetica" font-size="48pt" font-style="normal" font-weight="bold" text-decoration="normal" x="0" y="50" text-anchor="start" dominant-baseline="alphabetic" transform="matrix(1, 0, 0, 1, 261.5, 7.5)">omega 95%CI, lognormal mixed model</text><text fill="none" stroke="rgb(0,0,0)" font-family="helvetica" font-size="48pt" font-style="normal" font-weight="bold" text-decoration="normal" x="0" y="50" text-anchor="start" dominant-baseline="alphabetic" transform="matrix(1, 0, 0, 1, 261.5, 7.5)" stroke-opacity="0" stroke-miterlimit="10" stroke-dasharray="">omega 95%CI, lognormal mixed model</text></svg>