<svg version="1.1" xmlns="http://www.w3.org/2000/svg" width="4265" height="938"><defs><clipPath id="tTKVgkBdMxvv"><path fill="none" stroke="none" d="M 260.5 86.5 L 4260.5 86.5 L 4260.5 886.5 L 260.5 886.5 L 260.5 86.5 Z"/></clipPath><clipPath id="tdJxeGIXeXvc"><path fill="none" stroke="none" d="M 260.5 86.5 L 4260.5 86.5 L 4260.5 886.5 L 260.5 886.5 L 260.5 86.5 Z"/></clipPath><clipPath id="nmWaufKdQxgq"><path fill="none" stroke="none" d="M 260.5 86.5 L 4260.5 86.5 L 4260.5 886.5 L 260.5 886.5 L 260.5 86.5 Z"/></clipPath><clipPath id="TfXTmsaEVNNJ"><path fill="none" stroke="none" d="M 260.5 86.5 L 4260.5 86.5 L 4260.5 886.5 L 260.5 886.5 L 260.5 86.5 Z"/></clipPath><clipPath id="eaNyzZdqVTWp"><path fill="none" stroke="none" d="M 260.5 86.5 L 4260.5 86.5 L 4260.5 886.5 L 260.5 886.5 L 260.5 86.5 Z"/></clipPath><clipPath id="TMDcsuLhHMpm"><path fill="none" stroke="none" d="M 260.5 86.5 L 4260.5 86.5 L 4260.5 886.5 L 260.5 886.5 L 260.5 86.5 Z"/></clipPath><clipPath id="LpVNMGytrvUR"><path fill="none" stroke="none" d="M 260.5 86.5 L 4260.5 86.5 L 4260.5 886.5 L 260.5 886.5 L 260.5 86.5 Z"/></clipPath><clipPath id="OhdObZCirCgb"><path fill="none" stroke="none" d="M 260.5 86.5 L 4260.5 86.5 L 4260.5 886.5 L 260.5 886.5 L 260.5 86.5 Z"/></clipPath><clipPath id="PwtOAFvGnsfL"><path fill="none" stroke="none" d="M 260.5 86.5 L 4260.5 86.5 L 4260.5 886.5 L 260.5 886.5 L 260.5 86.5 Z"/></clipPath><clipPath id="XsbCSUoyTDsP"><path fill="none" stroke="none" d="M 260.5 86.5 L 4260.5 86.5 L 4260.5 886.5 L 260.5 886.5 L 260.5 86.5 Z"/></clipPath><clipPath id="pxqxTuuHaDag"><path fill="none" stroke="none" d="M 260.5 86.5 L 4260.5 86.5 L 4260.5 886.5 L 260.5 886.5 L 260.5 86.5 Z"/></clipPath></defs><path fill="rgb(255,255,255)" stroke="none" paint-order="stroke" d="M 0.5 0.5 L 4265.5 0.5 L 4265.5 938.5 L 0.5 938.5 L 0.5 0.5 Z" fill-opacity="1"/><rect fill="#FFFFFF" stroke="none" x="260" y="86" width="4000" height="800" transform="matrix(1, 0, 0, 1, 0.5, 0.5)"/><path fill="rgb(255,255,255)" stroke="none" paint-order="stroke" d="M 260.5 86.5 L 4260.5 86.5 L 4260.5 886.5 L 260.5 886.5 L 260.5 86.5 Z" fill-opacity="1"/><path fill="none" stroke="rgb(229,229,229)" paint-order="fill" d="M 260.5 86.5 L 4260.5 86.5 L 4260.5 886.5 L 260.5 886.5 L 260.5 86.5 Z" stroke-opacity="1" stroke-linejoin="bevel" stroke-miterlimit="10"/><path fill="none" stroke="rgb(229,229,229)" paint-order="fill" d="M 1066.5 886.5 L 1066.5 86.5 M 1880.5 886.5 L 1880.5 86.5 M 2695.5 886.5 L 2695.5 86.5 M 3509.5 886.5 L 3509.5 86.5" stroke-opacity="1" stroke-linejoin="bevel" stroke-miterlimit="10" clip-path="url(#tTKVgkBdMxvv)"/><path fill="none" stroke="rgb(229,229,229)" paint-order="fill" d="M 260.5 786.5 L 4260.5 786.5 M 260.5 586.5 L 4260.5 586.5 M 260.5 386.5 L 4260.5 386.5 M 260.5 186.5 L 4260.5 186.5" stroke-opacity="1" stroke-linejoin="bevel" stroke-miterlimit="10" clip-path="url(#tdJxeGIXeXvc)"/><path fill="rgb(189,189,189)" stroke="rgb(189,189,189)" paint-order="fill" d="M 1481.6083984375 186.5 A 7.5 7.5 0 0 1 1466.6083984375 186.5 A 7.5 7.5 0 0 1 1481.6083984375 186.5" fill-opacity="1" clip-path="url(#nmWaufKdQxgq)" stroke-opacity="1" stroke-linejoin="bevel" stroke-miterlimit="10"/><path fill="none" stroke="rgb(189,189,189)" paint-order="fill" d="M 442.31817626953125 186.5 L 2473.919921875 186.5" stroke-opacity="1" stroke-linejoin="bevel" stroke-miterlimit="10" stroke-width="5" clip-path="url(#TfXTmsaEVNNJ)"/><path fill="rgb(0,0,0)" stroke="rgb(0,0,0)" paint-order="fill" d="M 2938.5947265625 386.5 A 7.5 7.5 0 0 1 2923.5947265625 386.5 A 7.5 7.5 0 0 1 2938.5947265625 386.5" fill-opacity="1" clip-path="url(#eaNyzZdqVTWp)" stroke-opacity="1" stroke-linejoin="bevel" stroke-miterlimit="10"/><path fill="none" stroke="rgb(0,0,0)" paint-order="fill" d="M 2176.60009765625 386.5 L 3655.439697265625 386.5" stroke-opacity="1" stroke-linejoin="bevel" stroke-miterlimit="10" stroke-width="5" clip-path="url(#TMDcsuLhHMpm)"/><path fill="rgb(107,174,214)" stroke="rgb(107,174,214)" paint-order="fill" d="M 2596.020263671875 586.5 A 7.5 7.5 0 0 1 2581.020263671875 586.5 A 7.5 7.5 0 0 1 2596.020263671875 586.5" fill-opacity="1" clip-path="url(#LpVNMGytrvUR)" stroke-opacity="1" stroke-linejoin="bevel" stroke-miterlimit="10"/><path fill="none" stroke="rgb(107,174,214)" paint-order="fill" d="M 1645.328369140625 586.5 L 3501.694091796875 586.5" stroke-opacity="1" stroke-linejoin="bevel" stroke-miterlimit="10" stroke-width="5" clip-path="url(#OhdObZCirCgb)"/><path fill="rgb(8,81,156)" stroke="rgb(8,81,156)" paint-order="fill" d="M 3247.077880859375 786.5 A 7.5 7.5 0 0 1 3232.077880859375 786.5 A 7.5 7.5 0 0 1 3247.077880859375 786.5" fill-opacity="1" clip-path="url(#PwtOAFvGnsfL)" stroke-opacity="1" stroke-linejoin="bevel" stroke-miterlimit="10"/><path fill="none" stroke="rgb(8,81,156)" paint-order="fill" d="M 2374.83740234375 786.5 L 4078.681884765625 786.5" stroke-opacity="1" stroke-linejoin="bevel" stroke-miterlimit="10" stroke-width="5" clip-path="url(#XsbCSUoyTDsP)"/><path fill="none" stroke="rgb(0,0,0)" paint-order="fill" d="M 260.5 886.5 L 4260.5 886.5" stroke-opacity="1" stroke-linejoin="bevel" stroke-miterlimit="10"/><path fill="none" stroke="rgb(0,0,0)" paint-order="fill" d="M 1066.5 892.5 L 1066.5 884.5 M 1880.5 892.5 L 1880.5 884.5 M 2695.5 892.5 L 2695.5 884.5 M 3509.5 892.5 L 3509.5 884.5" stroke-opacity="1" stroke-linejoin="bevel" stroke-miterlimit="10"/><path fill="none" stroke="rgb(0,0,0)" paint-order="fill" d="M 903.5 890.5 L 903.5 886.5 M 740.5 890.5 L 740.5 886.5 M 577.5 890.5 L 577.5 886.5 M 414.5 890.5 L 414.5 886.5 M 1066.5 890.5 L 1066.5 886.5 M 1229.5 890.5 L 1229.5 886.5 M 1392.5 890.5 L 1392.5 886.5 M 1554.5 890.5 L 1554.5 886.5 M 1717.5 890.5 L 1717.5 886.5 M 1880.5 890.5 L 1880.5 886.5 M 2043.5 890.5 L 2043.5 886.5 M 2206.5 890.5 L 2206.5 886.5 M 2369.5 890.5 L 2369.5 886.5 M 2532.5 890.5 L 2532.5 886.5 M 2695.5 890.5 L 2695.5 886.5 M 2858.5 890.5 L 2858.5 886.5 M 3021.5 890.5 L 3021.5 886.5 M 3184.5 890.5 L 3184.5 886.5 M 3346.5 890.5 L 3346.5 886.5 M 3509.5 890.5 L 3509.5 886.5 M 3672.5 890.5 L 3672.5 886.5 M 3835.5 890.5 L 3835.5 886.5 M 3998.5 890.5 L 3998.5 886.5 M 4161.5 890.5 L 4161.5 886.5" stroke-opacity="1" stroke-linejoin="bevel" stroke-miterlimit="10"/><text fill="rgb(68,68,68)" stroke="none" font-family="helvetica" font-size="40pt" font-style="normal" font-weight="normal" text-decoration="normal" x="1028.702896118164" y="935.2528190612793" text-anchor="start" dominant-baseline="alphabetic" transform="matrix(1, 0, 0, 1, 0.5, 0.5)" fill-opacity="1">1.4</text><text fill="none" stroke="rgb(0,0,0)" font-family="helvetica" font-size="40pt" font-style="normal" font-weight="normal" text-decoration="normal" x="1028.702896118164" y="935.2528190612793" text-anchor="start" dominant-baseline="alphabetic" transform="matrix(1, 0, 0, 1, 0.5, 0.5)" stroke-opacity="0" stroke-linejoin="bevel" stroke-miterlimit="10">1.4</text><text fill="rgb(68,68,68)" stroke="none" font-family="helvetica" font-size="40pt" font-style="normal" font-weight="normal" text-decoration="normal" x="1843.240249633789" y="935.2528190612793" text-anchor="start" dominant-baseline="alphabetic" transform="matrix(1, 0, 0, 1, 0.5, 0.5)" fill-opacity="1">1.6</text><text fill="none" stroke="rgb(0,0,0)" font-family="helvetica" font-size="40pt" font-style="normal" font-weight="normal" text-decoration="normal" x="1843.240249633789" y="935.2528190612793" text-anchor="start" dominant-baseline="alphabetic" transform="matrix(1, 0, 0, 1, 0.5, 0.5)" stroke-opacity="0" stroke-linejoin="bevel" stroke-miterlimit="10">1.6</text><text fill="rgb(68,68,68)" stroke="none" font-family="helvetica" font-size="40pt" font-style="normal" font-weight="normal" text-decoration="normal" x="2657.7774810791016" y="935.2528190612793" text-anchor="start" dominant-baseline="alphabetic" transform="matrix(1, 0, 0, 1, 0.5, 0.5)" fill-opacity="1">1.8</text><text fill="none" stroke="rgb(0,0,0)" font-family="helvetica" font-size="40pt" font-style="normal" font-weight="normal" text-decoration="normal" x="2657.7774810791016" y="935.2528190612793" text-anchor="start" dominant-baseline="alphabetic" transform="matrix(1, 0, 0, 1, 0.5, 0.5)" stroke-opacity="0" stroke-linejoin="bevel" stroke-miterlimit="10">1.8</text><text fill="rgb(68,68,68)" stroke="none" font-family="helvetica" font-size="40pt" font-style="normal" font-weight="normal" text-decoration="normal" x="3494.5530166625977" y="935.2528190612793" text-anchor="start" dominant-baseline="alphabetic" transform="matrix(1, 0, 0, 1, 0.5, 0.5)" fill-opacity="1">2</text><text fill="none" stroke="rgb(0,0,0)" font-family="helvetica" font-size="40pt" font-style="normal" font-weight="normal" text-decoration="normal" x="3494.5530166625977" y="935.2528190612793" text-anchor="start" dominant-baseline="alphabetic" transform="matrix(1, 0, 0, 1, 0.5, 0.5)" stroke-opacity="0" stroke-linejoin="bevel" stroke-miterlimit="10">2</text><path fill="none" stroke="rgb(0,0,0)" paint-order="fill" d="M 260.5 886.5 L 260.5 86.5" stroke-opacity="1" stroke-linejoin="bevel" stroke-miterlimit="10"/><path fill="none" stroke="rgb(0,0,0)" paint-order="fill" d="M 254.5 786.5 L 262.5 786.5 M 254.5 586.5 L 262.5 586.5 M 254.5 386.5 L 262.5 386.5 M 254.5 186.5 L 262.5 186.5" stroke-opacity="1" stroke-linejoin="bevel" stroke-miterlimit="10"/><path fill="none" stroke="rgb(0,0,0)" paint-order="fill" d="" stroke-opacity="1" stroke-linejoin="bevel" stroke-miterlimit="10"/><text fill="rgb(68,68,68)" stroke="none" font-family="helvetica" font-size="40pt" font-style="normal" font-weight="normal" text-decoration="normal" x="32.65937805175781" y="804.5" text-anchor="start" dominant-baseline="alphabetic" transform="matrix(1, 0, 0, 1, 0.5, 0.5)" fill-opacity="1">ASO_GF</text><text fill="none" stroke="rgb(0,0,0)" font-family="helvetica" font-size="40pt" font-style="normal" font-weight="normal" text-decoration="normal" x="32.65937805175781" y="804.5" text-anchor="start" dominant-baseline="alphabetic" transform="matrix(1, 0, 0, 1, 0.5, 0.5)" stroke-opacity="0" stroke-linejoin="bevel" stroke-miterlimit="10">ASO_GF</text><text fill="rgb(68,68,68)" stroke="none" font-family="helvetica" font-size="40pt" font-style="normal" font-weight="normal" text-decoration="normal" x="62.37107849121094" y="604.5" text-anchor="start" dominant-baseline="alphabetic" transform="matrix(1, 0, 0, 1, 0.5, 0.5)" fill-opacity="1">WT_GF</text><text fill="none" stroke="rgb(0,0,0)" font-family="helvetica" font-size="40pt" font-style="normal" font-weight="normal" text-decoration="normal" x="62.37107849121094" y="604.5" text-anchor="start" dominant-baseline="alphabetic" transform="matrix(1, 0, 0, 1, 0.5, 0.5)" stroke-opacity="0" stroke-linejoin="bevel" stroke-miterlimit="10">WT_GF</text><text fill="rgb(68,68,68)" stroke="none" font-family="helvetica" font-size="40pt" font-style="normal" font-weight="normal" text-decoration="normal" x="2.9997711181640625" y="404.5" text-anchor="start" dominant-baseline="alphabetic" transform="matrix(1, 0, 0, 1, 0.5, 0.5)" fill-opacity="1">ASO_SPF</text><text fill="none" stroke="rgb(0,0,0)" font-family="helvetica" font-size="40pt" font-style="normal" font-weight="normal" text-decoration="normal" x="2.9997711181640625" y="404.5" text-anchor="start" dominant-baseline="alphabetic" transform="matrix(1, 0, 0, 1, 0.5, 0.5)" stroke-opacity="0" stroke-linejoin="bevel" stroke-miterlimit="10">ASO_SPF</text><text fill="rgb(68,68,68)" stroke="none" font-family="helvetica" font-size="40pt" font-style="normal" font-weight="normal" text-decoration="normal" x="32.71147155761719" y="204.5" text-anchor="start" dominant-baseline="alphabetic" transform="matrix(1, 0, 0, 1, 0.5, 0.5)" fill-opacity="1">WT_SPF</text><text fill="none" stroke="rgb(0,0,0)" font-family="helvetica" font-size="40pt" font-style="normal" font-weight="normal" text-decoration="normal" x="32.71147155761719" y="204.5" text-anchor="start" dominant-baseline="alphabetic" transform="matrix(1, 0, 0, 1, 0.5, 0.5)" stroke-opacity="0" stroke-linejoin="bevel" stroke-miterlimit="10">WT_SPF</text><text fill="rgb(68,68,68)" stroke="none" font-family="helvetica" font-size="48pt" font-style="normal" font-weight="bold" text-decoration="normal" x="260" y="66" text-anchor="start" dominant-baseline="alphabetic" transform="matrix(1, 0, 0, 1, 0.5, 0.5)" fill-opacity="1">mu 95%CI, lognormal mixed model</text><text fill="none" stroke="rgb(0,0,0)" font-family="helvetica" font-size="48pt" font-style="normal" font-weight="bold" text-decoration="normal" x="260" y="66" text-anchor="start" dominant-baseline="alphabetic" transform="matrix(1, 0, 0, 1, 0.5, 0.5)" stroke-opacity="0" stroke-miterlimit="10" stroke-dasharray="">mu 95%CI, lognormal mixed model</text></svg>