<svg version="1.1" xmlns="http://www.w3.org/2000/svg" width="4265" height="938"><defs><clipPath id="BGaTVQrPobUc"><path fill="none" stroke="none" d="M 260.5 86.5 L 4260.5 86.5 L 4260.5 886.5 L 260.5 886.5 L 260.5 86.5 Z"/></clipPath><clipPath id="KybAHunJxhkx"><path fill="none" stroke="none" d="M 260.5 86.5 L 4260.5 86.5 L 4260.5 886.5 L 260.5 886.5 L 260.5 86.5 Z"/></clipPath><clipPath id="rtTVnBKzfdEK"><path fill="none" stroke="none" d="M 260.5 86.5 L 4260.5 86.5 L 4260.5 886.5 L 260.5 886.5 L 260.5 86.5 Z"/></clipPath><clipPath id="fyvXSvZKDUEL"><path fill="none" stroke="none" d="M 260.5 86.5 L 4260.5 86.5 L 4260.5 886.5 L 260.5 886.5 L 260.5 86.5 Z"/></clipPath><clipPath id="NNGPJkNyWfXp"><path fill="none" stroke="none" d="M 260.5 86.5 L 4260.5 86.5 L 4260.5 886.5 L 260.5 886.5 L 260.5 86.5 Z"/></clipPath><clipPath id="ZrLHbpONFviq"><path fill="none" stroke="none" d="M 260.5 86.5 L 4260.5 86.5 L 4260.5 886.5 L 260.5 886.5 L 260.5 86.5 Z"/></clipPath><clipPath id="aheRDUQfIeII"><path fill="none" stroke="none" d="M 260.5 86.5 L 4260.5 86.5 L 4260.5 886.5 L 260.5 886.5 L 260.5 86.5 Z"/></clipPath><clipPath id="pdUXtpCnBBWT"><path fill="none" stroke="none" d="M 260.5 86.5 L 4260.5 86.5 L 4260.5 886.5 L 260.5 886.5 L 260.5 86.5 Z"/></clipPath><clipPath id="yWEvinZkKGTV"><path fill="none" stroke="none" d="M 260.5 86.5 L 4260.5 86.5 L 4260.5 886.5 L 260.5 886.5 L 260.5 86.5 Z"/></clipPath><clipPath id="MpgwDmJtixyk"><path fill="none" stroke="none" d="M 260.5 86.5 L 4260.5 86.5 L 4260.5 886.5 L 260.5 886.5 L 260.5 86.5 Z"/></clipPath><clipPath id="NPqKgFuFMQEP"><path fill="none" stroke="none" d="M 260.5 86.5 L 4260.5 86.5 L 4260.5 886.5 L 260.5 886.5 L 260.5 86.5 Z"/></clipPath></defs><path fill="rgb(255,255,255)" stroke="none" paint-order="stroke" d="M 0.5 0.5 L 4265.5 0.5 L 4265.5 938.5 L 0.5 938.5 L 0.5 0.5 Z" fill-opacity="1"/><rect fill="#FFFFFF" stroke="none" x="260" y="86" width="4000" height="800" transform="matrix(1, 0, 0, 1, 0.5, 0.5)"/><path fill="rgb(255,255,255)" stroke="none" paint-order="stroke" d="M 260.5 86.5 L 4260.5 86.5 L 4260.5 886.5 L 260.5 886.5 L 260.5 86.5 Z" fill-opacity="1"/><path fill="none" stroke="rgb(229,229,229)" paint-order="fill" d="M 260.5 86.5 L 4260.5 86.5 L 4260.5 886.5 L 260.5 886.5 L 260.5 86.5 Z" stroke-opacity="1" stroke-linejoin="bevel" stroke-miterlimit="10"/><path fill="none" stroke="rgb(229,229,229)" paint-order="fill" d="M 495.5 886.5 L 495.5 86.5 M 1211.5 886.5 L 1211.5 86.5 M 1928.5 886.5 L 1928.5 86.5 M 2645.5 886.5 L 2645.5 86.5 M 3361.5 886.5 L 3361.5 86.5 M 4078.5 886.5 L 4078.5 86.5" stroke-opacity="1" stroke-linejoin="bevel" stroke-miterlimit="10" clip-path="url(#BGaTVQrPobUc)"/><path fill="none" stroke="rgb(229,229,229)" paint-order="fill" d="M 260.5 786.5 L 4260.5 786.5 M 260.5 586.5 L 4260.5 586.5 M 260.5 386.5 L 4260.5 386.5 M 260.5 186.5 L 4260.5 186.5" stroke-opacity="1" stroke-linejoin="bevel" stroke-miterlimit="10" clip-path="url(#KybAHunJxhkx)"/><path fill="rgb(189,189,189)" stroke="rgb(189,189,189)" paint-order="fill" d="M 3747.177978515625 186.5 A 7.5 7.5 0 0 1 3732.177978515625 186.5 A 7.5 7.5 0 0 1 3747.177978515625 186.5" fill-opacity="1" clip-path="url(#rtTVnBKzfdEK)" stroke-opacity="1" stroke-linejoin="bevel" stroke-miterlimit="10"/><path fill="none" stroke="rgb(189,189,189)" paint-order="fill" d="M 3140.534423828125 186.5 L 4078.681884765625 186.5" stroke-opacity="1" stroke-linejoin="bevel" stroke-miterlimit="10" stroke-width="5" clip-path="url(#fyvXSvZKDUEL)"/><path fill="rgb(0,0,0)" stroke="rgb(0,0,0)" paint-order="fill" d="M 1357.353271484375 386.5 A 7.5 7.5 0 0 1 1342.353271484375 386.5 A 7.5 7.5 0 0 1 1357.353271484375 386.5" fill-opacity="1" clip-path="url(#NNGPJkNyWfXp)" stroke-opacity="1" stroke-linejoin="bevel" stroke-miterlimit="10"/><path fill="none" stroke="rgb(0,0,0)" paint-order="fill" d="M 442.31817626953125 386.5 L 2238.31005859375 386.5" stroke-opacity="1" stroke-linejoin="bevel" stroke-miterlimit="10" stroke-width="5" clip-path="url(#ZrLHbpONFviq)"/><path fill="rgb(107,174,214)" stroke="rgb(107,174,214)" paint-order="fill" d="M 3988.187744140625 586.5 A 7.5 7.5 0 0 1 3973.187744140625 586.5 A 7.5 7.5 0 0 1 3988.187744140625 586.5" fill-opacity="1" clip-path="url(#aheRDUQfIeII)" stroke-opacity="1" stroke-linejoin="bevel" stroke-miterlimit="10"/><path fill="none" stroke="rgb(107,174,214)" paint-order="fill" d="M 3707.146728515625 586.5 L 4078.681884765625 586.5" stroke-opacity="1" stroke-linejoin="bevel" stroke-miterlimit="10" stroke-width="5" clip-path="url(#pdUXtpCnBBWT)"/><path fill="rgb(8,81,156)" stroke="rgb(8,81,156)" paint-order="fill" d="M 4086.181884765625 786.5 A 7.5 7.5 0 0 1 4071.181884765625 786.5 A 7.5 7.5 0 0 1 4086.181884765625 786.5" fill-opacity="1" clip-path="url(#yWEvinZkKGTV)" stroke-opacity="1" stroke-linejoin="bevel" stroke-miterlimit="10"/><path fill="none" stroke="rgb(8,81,156)" paint-order="fill" d="M 4078.681884765625 786.5 L 4078.681884765625 786.5" stroke-opacity="1" stroke-linejoin="bevel" stroke-miterlimit="10" stroke-width="5" clip-path="url(#MpgwDmJtixyk)"/><path fill="none" stroke="rgb(0,0,0)" paint-order="fill" d="M 260.5 886.5 L 4260.5 886.5" stroke-opacity="1" stroke-linejoin="bevel" stroke-miterlimit="10"/><path fill="none" stroke="rgb(0,0,0)" paint-order="fill" d="M 495.5 892.5 L 495.5 884.5 M 1211.5 892.5 L 1211.5 884.5 M 1928.5 892.5 L 1928.5 884.5 M 2645.5 892.5 L 2645.5 884.5 M 3361.5 892.5 L 3361.5 884.5 M 4078.5 892.5 L 4078.5 884.5" stroke-opacity="1" stroke-linejoin="bevel" stroke-miterlimit="10"/><path fill="none" stroke="rgb(0,0,0)" paint-order="fill" d="M 351.5 890.5 L 351.5 886.5 M 495.5 890.5 L 495.5 886.5 M 638.5 890.5 L 638.5 886.5 M 781.5 890.5 L 781.5 886.5 M 925.5 890.5 L 925.5 886.5 M 1068.5 890.5 L 1068.5 886.5 M 1211.5 890.5 L 1211.5 886.5 M 1355.5 890.5 L 1355.5 886.5 M 1498.5 890.5 L 1498.5 886.5 M 1641.5 890.5 L 1641.5 886.5 M 1785.5 890.5 L 1785.5 886.5 M 1928.5 890.5 L 1928.5 886.5 M 2071.5 890.5 L 2071.5 886.5 M 2215.5 890.5 L 2215.5 886.5 M 2358.5 890.5 L 2358.5 886.5 M 2501.5 890.5 L 2501.5 886.5 M 2645.5 890.5 L 2645.5 886.5 M 2788.5 890.5 L 2788.5 886.5 M 2931.5 890.5 L 2931.5 886.5 M 3075.5 890.5 L 3075.5 886.5 M 3218.5 890.5 L 3218.5 886.5 M 3361.5 890.5 L 3361.5 886.5 M 3505.5 890.5 L 3505.5 886.5 M 3648.5 890.5 L 3648.5 886.5 M 3791.5 890.5 L 3791.5 886.5 M 3935.5 890.5 L 3935.5 886.5 M 4078.5 890.5 L 4078.5 886.5 M 4222.5 890.5 L 4222.5 886.5" stroke-opacity="1" stroke-linejoin="bevel" stroke-miterlimit="10"/><text fill="rgb(68,68,68)" stroke="none" font-family="helvetica" font-size="40pt" font-style="normal" font-weight="normal" text-decoration="normal" x="457.4326934814453" y="935.2528190612793" text-anchor="start" dominant-baseline="alphabetic" transform="matrix(1, 0, 0, 1, 0.5, 0.5)" fill-opacity="1">0.5</text><text fill="none" stroke="rgb(0,0,0)" font-family="helvetica" font-size="40pt" font-style="normal" font-weight="normal" text-decoration="normal" x="457.4326934814453" y="935.2528190612793" text-anchor="start" dominant-baseline="alphabetic" transform="matrix(1, 0, 0, 1, 0.5, 0.5)" stroke-opacity="0" stroke-linejoin="bevel" stroke-miterlimit="10">0.5</text><text fill="rgb(68,68,68)" stroke="none" font-family="helvetica" font-size="40pt" font-style="normal" font-weight="normal" text-decoration="normal" x="1174.168960571289" y="935.2528190612793" text-anchor="start" dominant-baseline="alphabetic" transform="matrix(1, 0, 0, 1, 0.5, 0.5)" fill-opacity="1">0.6</text><text fill="none" stroke="rgb(0,0,0)" font-family="helvetica" font-size="40pt" font-style="normal" font-weight="normal" text-decoration="normal" x="1174.168960571289" y="935.2528190612793" text-anchor="start" dominant-baseline="alphabetic" transform="matrix(1, 0, 0, 1, 0.5, 0.5)" stroke-opacity="0" stroke-linejoin="bevel" stroke-miterlimit="10">0.6</text><text fill="rgb(68,68,68)" stroke="none" font-family="helvetica" font-size="40pt" font-style="normal" font-weight="normal" text-decoration="normal" x="1890.905288696289" y="935.2528190612793" text-anchor="start" dominant-baseline="alphabetic" transform="matrix(1, 0, 0, 1, 0.5, 0.5)" fill-opacity="1">0.7</text><text fill="none" stroke="rgb(0,0,0)" font-family="helvetica" font-size="40pt" font-style="normal" font-weight="normal" text-decoration="normal" x="1890.905288696289" y="935.2528190612793" text-anchor="start" dominant-baseline="alphabetic" transform="matrix(1, 0, 0, 1, 0.5, 0.5)" stroke-opacity="0" stroke-linejoin="bevel" stroke-miterlimit="10">0.7</text><text fill="rgb(68,68,68)" stroke="none" font-family="helvetica" font-size="40pt" font-style="normal" font-weight="normal" text-decoration="normal" x="2607.6414947509766" y="935.2528190612793" text-anchor="start" dominant-baseline="alphabetic" transform="matrix(1, 0, 0, 1, 0.5, 0.5)" fill-opacity="1">0.8</text><text fill="none" stroke="rgb(0,0,0)" font-family="helvetica" font-size="40pt" font-style="normal" font-weight="normal" text-decoration="normal" x="2607.6414947509766" y="935.2528190612793" text-anchor="start" dominant-baseline="alphabetic" transform="matrix(1, 0, 0, 1, 0.5, 0.5)" stroke-opacity="0" stroke-linejoin="bevel" stroke-miterlimit="10">0.8</text><text fill="rgb(68,68,68)" stroke="none" font-family="helvetica" font-size="40pt" font-style="normal" font-weight="normal" text-decoration="normal" x="3324.3778228759766" y="935.2528190612793" text-anchor="start" dominant-baseline="alphabetic" transform="matrix(1, 0, 0, 1, 0.5, 0.5)" fill-opacity="1">0.9</text><text fill="none" stroke="rgb(0,0,0)" font-family="helvetica" font-size="40pt" font-style="normal" font-weight="normal" text-decoration="normal" x="3324.3778228759766" y="935.2528190612793" text-anchor="start" dominant-baseline="alphabetic" transform="matrix(1, 0, 0, 1, 0.5, 0.5)" stroke-opacity="0" stroke-linejoin="bevel" stroke-miterlimit="10">0.9</text><text fill="rgb(68,68,68)" stroke="none" font-family="helvetica" font-size="40pt" font-style="normal" font-weight="normal" text-decoration="normal" x="4063.3523330688477" y="935.2528190612793" text-anchor="start" dominant-baseline="alphabetic" transform="matrix(1, 0, 0, 1, 0.5, 0.5)" fill-opacity="1">1</text><text fill="none" stroke="rgb(0,0,0)" font-family="helvetica" font-size="40pt" font-style="normal" font-weight="normal" text-decoration="normal" x="4063.3523330688477" y="935.2528190612793" text-anchor="start" dominant-baseline="alphabetic" transform="matrix(1, 0, 0, 1, 0.5, 0.5)" stroke-opacity="0" stroke-linejoin="bevel" stroke-miterlimit="10">1</text><path fill="none" stroke="rgb(0,0,0)" paint-order="fill" d="M 260.5 886.5 L 260.5 86.5" stroke-opacity="1" stroke-linejoin="bevel" stroke-miterlimit="10"/><path fill="none" stroke="rgb(0,0,0)" paint-order="fill" d="M 254.5 786.5 L 262.5 786.5 M 254.5 586.5 L 262.5 586.5 M 254.5 386.5 L 262.5 386.5 M 254.5 186.5 L 262.5 186.5" stroke-opacity="1" stroke-linejoin="bevel" stroke-miterlimit="10"/><path fill="none" stroke="rgb(0,0,0)" paint-order="fill" d="" stroke-opacity="1" stroke-linejoin="bevel" stroke-miterlimit="10"/><text fill="rgb(68,68,68)" stroke="none" font-family="helvetica" font-size="40pt" font-style="normal" font-weight="normal" text-decoration="normal" x="32.65937805175781" y="804.5" text-anchor="start" dominant-baseline="alphabetic" transform="matrix(1, 0, 0, 1, 0.5, 0.5)" fill-opacity="1">ASO_GF</text><text fill="none" stroke="rgb(0,0,0)" font-family="helvetica" font-size="40pt" font-style="normal" font-weight="normal" text-decoration="normal" x="32.65937805175781" y="804.5" text-anchor="start" dominant-baseline="alphabetic" transform="matrix(1, 0, 0, 1, 0.5, 0.5)" stroke-opacity="0" stroke-linejoin="bevel" stroke-miterlimit="10">ASO_GF</text><text fill="rgb(68,68,68)" stroke="none" font-family="helvetica" font-size="40pt" font-style="normal" font-weight="normal" text-decoration="normal" x="62.37107849121094" y="604.5" text-anchor="start" dominant-baseline="alphabetic" transform="matrix(1, 0, 0, 1, 0.5, 0.5)" fill-opacity="1">WT_GF</text><text fill="none" stroke="rgb(0,0,0)" font-family="helvetica" font-size="40pt" font-style="normal" font-weight="normal" text-decoration="normal" x="62.37107849121094" y="604.5" text-anchor="start" dominant-baseline="alphabetic" transform="matrix(1, 0, 0, 1, 0.5, 0.5)" stroke-opacity="0" stroke-linejoin="bevel" stroke-miterlimit="10">WT_GF</text><text fill="rgb(68,68,68)" stroke="none" font-family="helvetica" font-size="40pt" font-style="normal" font-weight="normal" text-decoration="normal" x="2.9997711181640625" y="404.5" text-anchor="start" dominant-baseline="alphabetic" transform="matrix(1, 0, 0, 1, 0.5, 0.5)" fill-opacity="1">ASO_SPF</text><text fill="none" stroke="rgb(0,0,0)" font-family="helvetica" font-size="40pt" font-style="normal" font-weight="normal" text-decoration="normal" x="2.9997711181640625" y="404.5" text-anchor="start" dominant-baseline="alphabetic" transform="matrix(1, 0, 0, 1, 0.5, 0.5)" stroke-opacity="0" stroke-linejoin="bevel" stroke-miterlimit="10">ASO_SPF</text><text fill="rgb(68,68,68)" stroke="none" font-family="helvetica" font-size="40pt" font-style="normal" font-weight="normal" text-decoration="normal" x="32.71147155761719" y="204.5" text-anchor="start" dominant-baseline="alphabetic" transform="matrix(1, 0, 0, 1, 0.5, 0.5)" fill-opacity="1">WT_SPF</text><text fill="none" stroke="rgb(0,0,0)" font-family="helvetica" font-size="40pt" font-style="normal" font-weight="normal" text-decoration="normal" x="32.71147155761719" y="204.5" text-anchor="start" dominant-baseline="alphabetic" transform="matrix(1, 0, 0, 1, 0.5, 0.5)" stroke-opacity="0" stroke-linejoin="bevel" stroke-miterlimit="10">WT_SPF</text><text fill="rgb(68,68,68)" stroke="none" font-family="helvetica" font-size="48pt" font-style="normal" font-weight="bold" text-decoration="normal" x="260" y="66" text-anchor="start" dominant-baseline="alphabetic" transform="matrix(1, 0, 0, 1, 0.5, 0.5)" fill-opacity="1">omega 95%CI, lognormal mixed model</text><text fill="none" stroke="rgb(0,0,0)" font-family="helvetica" font-size="48pt" font-style="normal" font-weight="bold" text-decoration="normal" x="260" y="66" text-anchor="start" dominant-baseline="alphabetic" transform="matrix(1, 0, 0, 1, 0.5, 0.5)" stroke-opacity="0" stroke-miterlimit="10" stroke-dasharray="">omega 95%CI, lognormal mixed model</text></svg>