<svg version="1.1" xmlns="http://www.w3.org/2000/svg" width="4265" height="938"><defs><clipPath id="JOHzGeLZlKHI"><path fill="none" stroke="none" d="M 260.5 86.5 L 4260.5 86.5 L 4260.5 886.5 L 260.5 886.5 L 260.5 86.5 Z"/></clipPath><clipPath id="iPWTWSwadGDw"><path fill="none" stroke="none" d="M 260.5 86.5 L 4260.5 86.5 L 4260.5 886.5 L 260.5 886.5 L 260.5 86.5 Z"/></clipPath><clipPath id="qIInxVxPsXFT"><path fill="none" stroke="none" d="M 260.5 86.5 L 4260.5 86.5 L 4260.5 886.5 L 260.5 886.5 L 260.5 86.5 Z"/></clipPath><clipPath id="wUfQvuQZTITG"><path fill="none" stroke="none" d="M 260.5 86.5 L 4260.5 86.5 L 4260.5 886.5 L 260.5 886.5 L 260.5 86.5 Z"/></clipPath><clipPath id="uoEUJOHwmpbh"><path fill="none" stroke="none" d="M 260.5 86.5 L 4260.5 86.5 L 4260.5 886.5 L 260.5 886.5 L 260.5 86.5 Z"/></clipPath><clipPath id="WyuNRChGHTwT"><path fill="none" stroke="none" d="M 260.5 86.5 L 4260.5 86.5 L 4260.5 886.5 L 260.5 886.5 L 260.5 86.5 Z"/></clipPath><clipPath id="TxwnGBosmMCZ"><path fill="none" stroke="none" d="M 260.5 86.5 L 4260.5 86.5 L 4260.5 886.5 L 260.5 886.5 L 260.5 86.5 Z"/></clipPath><clipPath id="WkRcawwLVZMQ"><path fill="none" stroke="none" d="M 260.5 86.5 L 4260.5 86.5 L 4260.5 886.5 L 260.5 886.5 L 260.5 86.5 Z"/></clipPath><clipPath id="NkKrRtfRQeLP"><path fill="none" stroke="none" d="M 260.5 86.5 L 4260.5 86.5 L 4260.5 886.5 L 260.5 886.5 L 260.5 86.5 Z"/></clipPath><clipPath id="pVTWNikmkatU"><path fill="none" stroke="none" d="M 260.5 86.5 L 4260.5 86.5 L 4260.5 886.5 L 260.5 886.5 L 260.5 86.5 Z"/></clipPath><clipPath id="hymbzUkyFQNa"><path fill="none" stroke="none" d="M 260.5 86.5 L 4260.5 86.5 L 4260.5 886.5 L 260.5 886.5 L 260.5 86.5 Z"/></clipPath></defs><path fill="rgb(255,255,255)" stroke="none" paint-order="stroke" d="M 0.5 0.5 L 4265.5 0.5 L 4265.5 938.5 L 0.5 938.5 L 0.5 0.5 Z" fill-opacity="1"/><rect fill="#FFFFFF" stroke="none" x="260" y="86" width="4000" height="800" transform="matrix(1, 0, 0, 1, 0.5, 0.5)"/><path fill="rgb(255,255,255)" stroke="none" paint-order="stroke" d="M 260.5 86.5 L 4260.5 86.5 L 4260.5 886.5 L 260.5 886.5 L 260.5 86.5 Z" fill-opacity="1"/><path fill="none" stroke="rgb(229,229,229)" paint-order="fill" d="M 260.5 86.5 L 4260.5 86.5 L 4260.5 886.5 L 260.5 886.5 L 260.5 86.5 Z" stroke-opacity="1" stroke-linejoin="bevel" stroke-miterlimit="10"/><path fill="none" stroke="rgb(229,229,229)" paint-order="fill" d="M 619.5 886.5 L 619.5 86.5 M 1196.5 886.5 L 1196.5 86.5 M 1772.5 886.5 L 1772.5 86.5 M 2349.5 886.5 L 2349.5 86.5 M 2925.5 886.5 L 2925.5 86.5 M 3502.5 886.5 L 3502.5 86.5 M 4078.5 886.5 L 4078.5 86.5" stroke-opacity="1" stroke-linejoin="bevel" stroke-miterlimit="10" clip-path="url(#JOHzGeLZlKHI)"/><path fill="none" stroke="rgb(229,229,229)" paint-order="fill" d="M 260.5 786.5 L 4260.5 786.5 M 260.5 586.5 L 4260.5 586.5 M 260.5 386.5 L 4260.5 386.5 M 260.5 186.5 L 4260.5 186.5" stroke-opacity="1" stroke-linejoin="bevel" stroke-miterlimit="10" clip-path="url(#iPWTWSwadGDw)"/><path fill="rgb(189,189,189)" stroke="rgb(189,189,189)" paint-order="fill" d="M 3326.322998046875 186.5 A 7.5 7.5 0 0 1 3311.322998046875 186.5 A 7.5 7.5 0 0 1 3326.322998046875 186.5" fill-opacity="1" clip-path="url(#qIInxVxPsXFT)" stroke-opacity="1" stroke-linejoin="bevel" stroke-miterlimit="10"/><path fill="none" stroke="rgb(189,189,189)" paint-order="fill" d="M 2310.817138671875 186.5 L 4078.681884765625 186.5" stroke-opacity="1" stroke-linejoin="bevel" stroke-miterlimit="10" stroke-width="5" clip-path="url(#wUfQvuQZTITG)"/><path fill="rgb(0,0,0)" stroke="rgb(0,0,0)" paint-order="fill" d="M 1666.8302001953125 386.5 A 7.5 7.5 0 0 1 1651.8302001953125 386.5 A 7.5 7.5 0 0 1 1666.8302001953125 386.5" fill-opacity="1" clip-path="url(#uoEUJOHwmpbh)" stroke-opacity="1" stroke-linejoin="bevel" stroke-miterlimit="10"/><path fill="none" stroke="rgb(0,0,0)" paint-order="fill" d="M 442.31817626953125 386.5 L 2865.701416015625 386.5" stroke-opacity="1" stroke-linejoin="bevel" stroke-miterlimit="10" stroke-width="5" clip-path="url(#WyuNRChGHTwT)"/><path fill="rgb(107,174,214)" stroke="rgb(107,174,214)" paint-order="fill" d="M 3321.1923828125 586.5 A 7.5 7.5 0 0 1 3306.1923828125 586.5 A 7.5 7.5 0 0 1 3321.1923828125 586.5" fill-opacity="1" clip-path="url(#TxwnGBosmMCZ)" stroke-opacity="1" stroke-linejoin="bevel" stroke-miterlimit="10"/><path fill="none" stroke="rgb(107,174,214)" paint-order="fill" d="M 2503.817138671875 586.5 L 3960.69775390625 586.5" stroke-opacity="1" stroke-linejoin="bevel" stroke-miterlimit="10" stroke-width="5" clip-path="url(#WkRcawwLVZMQ)"/><path fill="rgb(8,81,156)" stroke="rgb(8,81,156)" paint-order="fill" d="M 2576.67236328125 786.5 A 7.5 7.5 0 0 1 2561.67236328125 786.5 A 7.5 7.5 0 0 1 2576.67236328125 786.5" fill-opacity="1" clip-path="url(#NkKrRtfRQeLP)" stroke-opacity="1" stroke-linejoin="bevel" stroke-miterlimit="10"/><path fill="none" stroke="rgb(8,81,156)" paint-order="fill" d="M 1471.406005859375 786.5 L 3511.935302734375 786.5" stroke-opacity="1" stroke-linejoin="bevel" stroke-miterlimit="10" stroke-width="5" clip-path="url(#pVTWNikmkatU)"/><path fill="none" stroke="rgb(0,0,0)" paint-order="fill" d="M 260.5 886.5 L 4260.5 886.5" stroke-opacity="1" stroke-linejoin="bevel" stroke-miterlimit="10"/><path fill="none" stroke="rgb(0,0,0)" paint-order="fill" d="M 619.5 892.5 L 619.5 884.5 M 1196.5 892.5 L 1196.5 884.5 M 1772.5 892.5 L 1772.5 884.5 M 2349.5 892.5 L 2349.5 884.5 M 2925.5 892.5 L 2925.5 884.5 M 3502.5 892.5 L 3502.5 884.5 M 4078.5 892.5 L 4078.5 884.5" stroke-opacity="1" stroke-linejoin="bevel" stroke-miterlimit="10"/><path fill="none" stroke="rgb(0,0,0)" paint-order="fill" d="M 504.5 890.5 L 504.5 886.5 M 389.5 890.5 L 389.5 886.5 M 273.5 890.5 L 273.5 886.5 M 619.5 890.5 L 619.5 886.5 M 734.5 890.5 L 734.5 886.5 M 850.5 890.5 L 850.5 886.5 M 965.5 890.5 L 965.5 886.5 M 1080.5 890.5 L 1080.5 886.5 M 1196.5 890.5 L 1196.5 886.5 M 1311.5 890.5 L 1311.5 886.5 M 1426.5 890.5 L 1426.5 886.5 M 1542.5 890.5 L 1542.5 886.5 M 1657.5 890.5 L 1657.5 886.5 M 1772.5 890.5 L 1772.5 886.5 M 1887.5 890.5 L 1887.5 886.5 M 2003.5 890.5 L 2003.5 886.5 M 2118.5 890.5 L 2118.5 886.5 M 2233.5 890.5 L 2233.5 886.5 M 2349.5 890.5 L 2349.5 886.5 M 2464.5 890.5 L 2464.5 886.5 M 2579.5 890.5 L 2579.5 886.5 M 2695.5 890.5 L 2695.5 886.5 M 2810.5 890.5 L 2810.5 886.5 M 2925.5 890.5 L 2925.5 886.5 M 3040.5 890.5 L 3040.5 886.5 M 3156.5 890.5 L 3156.5 886.5 M 3271.5 890.5 L 3271.5 886.5 M 3386.5 890.5 L 3386.5 886.5 M 3502.5 890.5 L 3502.5 886.5 M 3617.5 890.5 L 3617.5 886.5 M 3732.5 890.5 L 3732.5 886.5 M 3848.5 890.5 L 3848.5 886.5 M 3963.5 890.5 L 3963.5 886.5 M 4078.5 890.5 L 4078.5 886.5 M 4193.5 890.5 L 4193.5 886.5" stroke-opacity="1" stroke-linejoin="bevel" stroke-miterlimit="10"/><text fill="rgb(68,68,68)" stroke="none" font-family="helvetica" font-size="40pt" font-style="normal" font-weight="normal" text-decoration="normal" x="582.1123199462891" y="935.2528190612793" text-anchor="start" dominant-baseline="alphabetic" transform="matrix(1, 0, 0, 1, 0.5, 0.5)" fill-opacity="1">0.7</text><text fill="none" stroke="rgb(0,0,0)" font-family="helvetica" font-size="40pt" font-style="normal" font-weight="normal" text-decoration="normal" x="582.1123199462891" y="935.2528190612793" text-anchor="start" dominant-baseline="alphabetic" transform="matrix(1, 0, 0, 1, 0.5, 0.5)" stroke-opacity="0" stroke-linejoin="bevel" stroke-miterlimit="10">0.7</text><text fill="rgb(68,68,68)" stroke="none" font-family="helvetica" font-size="40pt" font-style="normal" font-weight="normal" text-decoration="normal" x="1143.7827682495117" y="935.2528190612793" text-anchor="start" dominant-baseline="alphabetic" transform="matrix(1, 0, 0, 1, 0.5, 0.5)" fill-opacity="1">0.75</text><text fill="none" stroke="rgb(0,0,0)" font-family="helvetica" font-size="40pt" font-style="normal" font-weight="normal" text-decoration="normal" x="1143.7827682495117" y="935.2528190612793" text-anchor="start" dominant-baseline="alphabetic" transform="matrix(1, 0, 0, 1, 0.5, 0.5)" stroke-opacity="0" stroke-linejoin="bevel" stroke-miterlimit="10">0.75</text><text fill="rgb(68,68,68)" stroke="none" font-family="helvetica" font-size="40pt" font-style="normal" font-weight="normal" text-decoration="normal" x="1735.1129302978516" y="935.2528190612793" text-anchor="start" dominant-baseline="alphabetic" transform="matrix(1, 0, 0, 1, 0.5, 0.5)" fill-opacity="1">0.8</text><text fill="none" stroke="rgb(0,0,0)" font-family="helvetica" font-size="40pt" font-style="normal" font-weight="normal" text-decoration="normal" x="1735.1129302978516" y="935.2528190612793" text-anchor="start" dominant-baseline="alphabetic" transform="matrix(1, 0, 0, 1, 0.5, 0.5)" stroke-opacity="0" stroke-linejoin="bevel" stroke-miterlimit="10">0.8</text><text fill="rgb(68,68,68)" stroke="none" font-family="helvetica" font-size="40pt" font-style="normal" font-weight="normal" text-decoration="normal" x="2296.783378601074" y="935.2528190612793" text-anchor="start" dominant-baseline="alphabetic" transform="matrix(1, 0, 0, 1, 0.5, 0.5)" fill-opacity="1">0.85</text><text fill="none" stroke="rgb(0,0,0)" font-family="helvetica" font-size="40pt" font-style="normal" font-weight="normal" text-decoration="normal" x="2296.783378601074" y="935.2528190612793" text-anchor="start" dominant-baseline="alphabetic" transform="matrix(1, 0, 0, 1, 0.5, 0.5)" stroke-opacity="0" stroke-linejoin="bevel" stroke-miterlimit="10">0.85</text><text fill="rgb(68,68,68)" stroke="none" font-family="helvetica" font-size="40pt" font-style="normal" font-weight="normal" text-decoration="normal" x="2888.1136627197266" y="935.2528190612793" text-anchor="start" dominant-baseline="alphabetic" transform="matrix(1, 0, 0, 1, 0.5, 0.5)" fill-opacity="1">0.9</text><text fill="none" stroke="rgb(0,0,0)" font-family="helvetica" font-size="40pt" font-style="normal" font-weight="normal" text-decoration="normal" x="2888.1136627197266" y="935.2528190612793" text-anchor="start" dominant-baseline="alphabetic" transform="matrix(1, 0, 0, 1, 0.5, 0.5)" stroke-opacity="0" stroke-linejoin="bevel" stroke-miterlimit="10">0.9</text><text fill="rgb(68,68,68)" stroke="none" font-family="helvetica" font-size="40pt" font-style="normal" font-weight="normal" text-decoration="normal" x="3449.784111022949" y="935.2528190612793" text-anchor="start" dominant-baseline="alphabetic" transform="matrix(1, 0, 0, 1, 0.5, 0.5)" fill-opacity="1">0.95</text><text fill="none" stroke="rgb(0,0,0)" font-family="helvetica" font-size="40pt" font-style="normal" font-weight="normal" text-decoration="normal" x="3449.784111022949" y="935.2528190612793" text-anchor="start" dominant-baseline="alphabetic" transform="matrix(1, 0, 0, 1, 0.5, 0.5)" stroke-opacity="0" stroke-linejoin="bevel" stroke-miterlimit="10">0.95</text><text fill="rgb(68,68,68)" stroke="none" font-family="helvetica" font-size="40pt" font-style="normal" font-weight="normal" text-decoration="normal" x="4063.3523330688477" y="935.2528190612793" text-anchor="start" dominant-baseline="alphabetic" transform="matrix(1, 0, 0, 1, 0.5, 0.5)" fill-opacity="1">1</text><text fill="none" stroke="rgb(0,0,0)" font-family="helvetica" font-size="40pt" font-style="normal" font-weight="normal" text-decoration="normal" x="4063.3523330688477" y="935.2528190612793" text-anchor="start" dominant-baseline="alphabetic" transform="matrix(1, 0, 0, 1, 0.5, 0.5)" stroke-opacity="0" stroke-linejoin="bevel" stroke-miterlimit="10">1</text><path fill="none" stroke="rgb(0,0,0)" paint-order="fill" d="M 260.5 886.5 L 260.5 86.5" stroke-opacity="1" stroke-linejoin="bevel" stroke-miterlimit="10"/><path fill="none" stroke="rgb(0,0,0)" paint-order="fill" d="M 254.5 786.5 L 262.5 786.5 M 254.5 586.5 L 262.5 586.5 M 254.5 386.5 L 262.5 386.5 M 254.5 186.5 L 262.5 186.5" stroke-opacity="1" stroke-linejoin="bevel" stroke-miterlimit="10"/><path fill="none" stroke="rgb(0,0,0)" paint-order="fill" d="" stroke-opacity="1" stroke-linejoin="bevel" stroke-miterlimit="10"/><text fill="rgb(68,68,68)" stroke="none" font-family="helvetica" font-size="40pt" font-style="normal" font-weight="normal" text-decoration="normal" x="32.65937805175781" y="804.5" text-anchor="start" dominant-baseline="alphabetic" transform="matrix(1, 0, 0, 1, 0.5, 0.5)" fill-opacity="1">ASO_GF</text><text fill="none" stroke="rgb(0,0,0)" font-family="helvetica" font-size="40pt" font-style="normal" font-weight="normal" text-decoration="normal" x="32.65937805175781" y="804.5" text-anchor="start" dominant-baseline="alphabetic" transform="matrix(1, 0, 0, 1, 0.5, 0.5)" stroke-opacity="0" stroke-linejoin="bevel" stroke-miterlimit="10">ASO_GF</text><text fill="rgb(68,68,68)" stroke="none" font-family="helvetica" font-size="40pt" font-style="normal" font-weight="normal" text-decoration="normal" x="62.37107849121094" y="604.5" text-anchor="start" dominant-baseline="alphabetic" transform="matrix(1, 0, 0, 1, 0.5, 0.5)" fill-opacity="1">WT_GF</text><text fill="none" stroke="rgb(0,0,0)" font-family="helvetica" font-size="40pt" font-style="normal" font-weight="normal" text-decoration="normal" x="62.37107849121094" y="604.5" text-anchor="start" dominant-baseline="alphabetic" transform="matrix(1, 0, 0, 1, 0.5, 0.5)" stroke-opacity="0" stroke-linejoin="bevel" stroke-miterlimit="10">WT_GF</text><text fill="rgb(68,68,68)" stroke="none" font-family="helvetica" font-size="40pt" font-style="normal" font-weight="normal" text-decoration="normal" x="2.9997711181640625" y="404.5" text-anchor="start" dominant-baseline="alphabetic" transform="matrix(1, 0, 0, 1, 0.5, 0.5)" fill-opacity="1">ASO_SPF</text><text fill="none" stroke="rgb(0,0,0)" font-family="helvetica" font-size="40pt" font-style="normal" font-weight="normal" text-decoration="normal" x="2.9997711181640625" y="404.5" text-anchor="start" dominant-baseline="alphabetic" transform="matrix(1, 0, 0, 1, 0.5, 0.5)" stroke-opacity="0" stroke-linejoin="bevel" stroke-miterlimit="10">ASO_SPF</text><text fill="rgb(68,68,68)" stroke="none" font-family="helvetica" font-size="40pt" font-style="normal" font-weight="normal" text-decoration="normal" x="32.71147155761719" y="204.5" text-anchor="start" dominant-baseline="alphabetic" transform="matrix(1, 0, 0, 1, 0.5, 0.5)" fill-opacity="1">WT_SPF</text><text fill="none" stroke="rgb(0,0,0)" font-family="helvetica" font-size="40pt" font-style="normal" font-weight="normal" text-decoration="normal" x="32.71147155761719" y="204.5" text-anchor="start" dominant-baseline="alphabetic" transform="matrix(1, 0, 0, 1, 0.5, 0.5)" stroke-opacity="0" stroke-linejoin="bevel" stroke-miterlimit="10">WT_SPF</text><text fill="rgb(68,68,68)" stroke="none" font-family="helvetica" font-size="48pt" font-style="normal" font-weight="bold" text-decoration="normal" x="260" y="66" text-anchor="start" dominant-baseline="alphabetic" transform="matrix(1, 0, 0, 1, 0.5, 0.5)" fill-opacity="1">omega 95%CI, lognormal mixed model</text><text fill="none" stroke="rgb(0,0,0)" font-family="helvetica" font-size="48pt" font-style="normal" font-weight="bold" text-decoration="normal" x="260" y="66" text-anchor="start" dominant-baseline="alphabetic" transform="matrix(1, 0, 0, 1, 0.5, 0.5)" stroke-opacity="0" stroke-miterlimit="10" stroke-dasharray="">omega 95%CI, lognormal mixed model</text></svg>