<svg version="1.1" xmlns="http://www.w3.org/2000/svg" width="4266" height="929"><defs><clipPath id="dCeTXXtnzZhi"><path fill="none" stroke="none" d="M 0.5 0.5 L 4266.5 0.5 L 4266.5 929.5 L 0.5 929.5 L 0.5 0.5 Z M 261.5 77.5 L 4261.5 77.5 L 4261.5 877.5 L 261.5 877.5 L 261.5 77.5 Z" clip-rule="evenodd"/></clipPath><clipPath id="tuyzpCkcoltd"><path fill="none" stroke="none" d="M 261.5 77.5 L 4261.5 77.5 L 4261.5 877.5 L 261.5 877.5 L 261.5 77.5 Z"/></clipPath><clipPath id="UxZzadNpbrak"><path fill="none" stroke="none" d="M 261.5 77.5 L 4261.5 77.5 L 4261.5 877.5 L 261.5 877.5 L 261.5 77.5 Z"/></clipPath><clipPath id="GRMTIzBhuglC"><path fill="none" stroke="none" d="M 261.5 77.5 L 4261.5 77.5 L 4261.5 877.5 L 261.5 877.5 L 261.5 77.5 Z"/></clipPath><clipPath id="KPqOBCvTgeSw"><path fill="none" stroke="none" d="M 261.5 77.5 L 4261.5 77.5 L 4261.5 877.5 L 261.5 877.5 L 261.5 77.5 Z"/></clipPath><clipPath id="FXOGVIgMzRtu"><path fill="none" stroke="none" d="M 261.5 77.5 L 4261.5 77.5 L 4261.5 877.5 L 261.5 877.5 L 261.5 77.5 Z"/></clipPath><clipPath id="hhtAeKapbzfZ"><path fill="none" stroke="none" d="M 261.5 77.5 L 4261.5 77.5 L 4261.5 877.5 L 261.5 877.5 L 261.5 77.5 Z"/></clipPath><clipPath id="QVlWweIgEiln"><path fill="none" stroke="none" d="M 261.5 77.5 L 4261.5 77.5 L 4261.5 877.5 L 261.5 877.5 L 261.5 77.5 Z"/></clipPath><clipPath id="RImByZMPiaTI"><path fill="none" stroke="none" d="M 261.5 77.5 L 4261.5 77.5 L 4261.5 877.5 L 261.5 877.5 L 261.5 77.5 Z"/></clipPath><clipPath id="DKVcRCzvuBOd"><path fill="none" stroke="none" d="M 261.5 77.5 L 4261.5 77.5 L 4261.5 877.5 L 261.5 877.5 L 261.5 77.5 Z"/></clipPath><clipPath id="iPucckrlQAyS"><path fill="none" stroke="none" d="M 261.5 77.5 L 4261.5 77.5 L 4261.5 877.5 L 261.5 877.5 L 261.5 77.5 Z"/></clipPath><clipPath id="erZmmvzhGlNr"><path fill="none" stroke="none" d="M 261.5 77.5 L 4261.5 77.5 L 4261.5 877.5 L 261.5 877.5 L 261.5 77.5 Z"/></clipPath></defs><path fill="#ffffff" stroke="none" paint-order="stroke" d="M 0.5 0.5 L 4266.5 0.5 L 4266.5 929.5 L 0.5 929.5 L 0.5 0.5 Z" clip-path="url(#dCeTXXtnzZhi)"/><path fill="#ffffff" stroke="none" paint-order="stroke" d="M 261.5 77.5 L 4261.5 77.5 L 4261.5 877.5 L 261.5 877.5 L 261.5 77.5 Z"/><path fill="none" stroke="#e5e5e5" paint-order="fill" d="M 261.5 77.5 L 4261.5 77.5 L 4261.5 877.5 L 261.5 877.5 L 261.5 77.5 Z" stroke-linejoin="bevel" stroke-miterlimit="10"/><path fill="none" stroke="#e5e5e5" paint-order="fill" d="M 861.5 877.5 L 861.5 77.5 M 1550.5 877.5 L 1550.5 77.5 M 2239.5 877.5 L 2239.5 77.5 M 2929.5 877.5 L 2929.5 77.5 M 3618.5 877.5 L 3618.5 77.5" stroke-linejoin="bevel" stroke-miterlimit="10" clip-path="url(#tuyzpCkcoltd)"/><path fill="none" stroke="#e5e5e5" paint-order="fill" d="M 261.5 777.5 L 4261.5 777.5 M 261.5 577.5 L 4261.5 577.5 M 261.5 377.5 L 4261.5 377.5 M 261.5 177.5 L 4261.5 177.5" stroke-linejoin="bevel" stroke-miterlimit="10" clip-path="url(#UxZzadNpbrak)"/><path fill="rgb(189,189,189)" stroke="rgb(189,189,189)" paint-order="fill" d="M 2596.5546875 177.5 A 7.5 7.5 0 0 1 2581.5546875 177.5 A 7.5 7.5 0 0 1 2596.5546875 177.5" fill-opacity="1" clip-path="url(#GRMTIzBhuglC)" stroke-opacity="1" stroke-linejoin="bevel" stroke-miterlimit="10"/><path fill="none" stroke="#bdbdbd" paint-order="fill" d="M 1299.9710693359375 177.5 L 3846.22412109375 177.5" stroke-linejoin="bevel" stroke-miterlimit="10" stroke-width="5" clip-path="url(#KPqOBCvTgeSw)"/><path fill="rgb(0,0,0)" stroke="rgb(0,0,0)" paint-order="fill" d="M 2809.85302734375 377.5 A 7.5 7.5 0 0 1 2794.85302734375 377.5 A 7.5 7.5 0 0 1 2809.85302734375 377.5" fill-opacity="1" clip-path="url(#FXOGVIgMzRtu)" stroke-opacity="1" stroke-linejoin="bevel" stroke-miterlimit="10"/><path fill="none" stroke="#000000" paint-order="fill" d="M 1601.3858642578125 377.5 L 4079.681884765625 377.5" stroke-linejoin="bevel" stroke-miterlimit="10" stroke-width="5" clip-path="url(#hhtAeKapbzfZ)"/><path fill="rgb(107,174,214)" stroke="rgb(107,174,214)" paint-order="fill" d="M 1782.232177734375 577.5 A 7.5 7.5 0 0 1 1767.232177734375 577.5 A 7.5 7.5 0 0 1 1782.232177734375 577.5" fill-opacity="1" clip-path="url(#QVlWweIgEiln)" stroke-opacity="1" stroke-linejoin="bevel" stroke-miterlimit="10"/><path fill="none" stroke="#6baed6" paint-order="fill" d="M 948.8883056640625 577.5 L 2598.506591796875 577.5" stroke-linejoin="bevel" stroke-miterlimit="10" stroke-width="5" clip-path="url(#RImByZMPiaTI)"/><path fill="rgb(8,81,156)" stroke="rgb(8,81,156)" paint-order="fill" d="M 1030.0189208984375 777.5 A 7.5 7.5 0 0 1 1015.0189208984375 777.5 A 7.5 7.5 0 0 1 1030.0189208984375 777.5" fill-opacity="1" clip-path="url(#DKVcRCzvuBOd)" stroke-opacity="1" stroke-linejoin="bevel" stroke-miterlimit="10"/><path fill="none" stroke="#08519c" paint-order="fill" d="M 443.31817626953125 777.5 L 1599.510986328125 777.5" stroke-linejoin="bevel" stroke-miterlimit="10" stroke-width="5" clip-path="url(#iPucckrlQAyS)"/><path fill="none" stroke="black" paint-order="fill" d="M 261.5 877.5 L 4261.5 877.5" stroke-linejoin="bevel" stroke-miterlimit="10"/><path fill="none" stroke="black" paint-order="fill" d="M 861.5 883.5 L 861.5 875.5 M 1550.5 883.5 L 1550.5 875.5 M 2239.5 883.5 L 2239.5 875.5 M 2929.5 883.5 L 2929.5 875.5 M 3618.5 883.5 L 3618.5 875.5" stroke-linejoin="bevel" stroke-miterlimit="10"/><path fill="none" stroke="black" paint-order="fill" d="M 723.5 881.5 L 723.5 877.5 M 585.5 881.5 L 585.5 877.5 M 447.5 881.5 L 447.5 877.5 M 309.5 881.5 L 309.5 877.5 M 861.5 881.5 L 861.5 877.5 M 999.5 881.5 L 999.5 877.5 M 1137.5 881.5 L 1137.5 877.5 M 1274.5 881.5 L 1274.5 877.5 M 1412.5 881.5 L 1412.5 877.5 M 1550.5 881.5 L 1550.5 877.5 M 1688.5 881.5 L 1688.5 877.5 M 1826.5 881.5 L 1826.5 877.5 M 1964.5 881.5 L 1964.5 877.5 M 2102.5 881.5 L 2102.5 877.5 M 2239.5 881.5 L 2239.5 877.5 M 2377.5 881.5 L 2377.5 877.5 M 2515.5 881.5 L 2515.5 877.5 M 2653.5 881.5 L 2653.5 877.5 M 2791.5 881.5 L 2791.5 877.5 M 2929.5 881.5 L 2929.5 877.5 M 3066.5 881.5 L 3066.5 877.5 M 3204.5 881.5 L 3204.5 877.5 M 3342.5 881.5 L 3342.5 877.5 M 3480.5 881.5 L 3480.5 877.5 M 3618.5 881.5 L 3618.5 877.5 M 3756.5 881.5 L 3756.5 877.5 M 3894.5 881.5 L 3894.5 877.5 M 4031.5 881.5 L 4031.5 877.5 M 4169.5 881.5 L 4169.5 877.5" stroke-linejoin="bevel" stroke-miterlimit="10"/><text fill="#444444" stroke="none" font-family="helvetica" font-size="40pt" font-style="normal" font-weight="normal" text-decoration="normal" x="845.9754028320312" y="926.374755859375" text-anchor="start" dominant-baseline="alphabetic" transform="matrix(1, 0, 0, 1, 0.5, 0.5)">2</text><text fill="none" stroke="rgb(0,0,0)" font-family="helvetica" font-size="40pt" font-style="normal" font-weight="normal" text-decoration="normal" x="845.9754028320312" y="926.374755859375" text-anchor="start" dominant-baseline="alphabetic" transform="matrix(1, 0, 0, 1, 0.5, 0.5)" stroke-opacity="0" stroke-linejoin="bevel" stroke-miterlimit="10">2</text><text fill="#444444" stroke="none" font-family="helvetica" font-size="40pt" font-style="normal" font-weight="normal" text-decoration="normal" x="1512.9210357666016" y="926.374755859375" text-anchor="start" dominant-baseline="alphabetic" transform="matrix(1, 0, 0, 1, 0.5, 0.5)">2.2</text><text fill="none" stroke="rgb(0,0,0)" font-family="helvetica" font-size="40pt" font-style="normal" font-weight="normal" text-decoration="normal" x="1512.9210357666016" y="926.374755859375" text-anchor="start" dominant-baseline="alphabetic" transform="matrix(1, 0, 0, 1, 0.5, 0.5)" stroke-opacity="0" stroke-linejoin="bevel" stroke-miterlimit="10">2.2</text><text fill="#444444" stroke="none" font-family="helvetica" font-size="40pt" font-style="normal" font-weight="normal" text-decoration="normal" x="2202.175064086914" y="926.374755859375" text-anchor="start" dominant-baseline="alphabetic" transform="matrix(1, 0, 0, 1, 0.5, 0.5)">2.4</text><text fill="none" stroke="rgb(0,0,0)" font-family="helvetica" font-size="40pt" font-style="normal" font-weight="normal" text-decoration="normal" x="2202.175064086914" y="926.374755859375" text-anchor="start" dominant-baseline="alphabetic" transform="matrix(1, 0, 0, 1, 0.5, 0.5)" stroke-opacity="0" stroke-linejoin="bevel" stroke-miterlimit="10">2.4</text><text fill="#444444" stroke="none" font-family="helvetica" font-size="40pt" font-style="normal" font-weight="normal" text-decoration="normal" x="2891.428970336914" y="926.374755859375" text-anchor="start" dominant-baseline="alphabetic" transform="matrix(1, 0, 0, 1, 0.5, 0.5)">2.6</text><text fill="none" stroke="rgb(0,0,0)" font-family="helvetica" font-size="40pt" font-style="normal" font-weight="normal" text-decoration="normal" x="2891.428970336914" y="926.374755859375" text-anchor="start" dominant-baseline="alphabetic" transform="matrix(1, 0, 0, 1, 0.5, 0.5)" stroke-opacity="0" stroke-linejoin="bevel" stroke-miterlimit="10">2.6</text><text fill="#444444" stroke="none" font-family="helvetica" font-size="40pt" font-style="normal" font-weight="normal" text-decoration="normal" x="3580.683120727539" y="926.374755859375" text-anchor="start" dominant-baseline="alphabetic" transform="matrix(1, 0, 0, 1, 0.5, 0.5)">2.8</text><text fill="none" stroke="rgb(0,0,0)" font-family="helvetica" font-size="40pt" font-style="normal" font-weight="normal" text-decoration="normal" x="3580.683120727539" y="926.374755859375" text-anchor="start" dominant-baseline="alphabetic" transform="matrix(1, 0, 0, 1, 0.5, 0.5)" stroke-opacity="0" stroke-linejoin="bevel" stroke-miterlimit="10">2.8</text><path fill="none" stroke="black" paint-order="fill" d="M 261.5 877.5 L 261.5 77.5" stroke-linejoin="bevel" stroke-miterlimit="10"/><path fill="none" stroke="black" paint-order="fill" d="M 255.5 777.5 L 263.5 777.5 M 255.5 577.5 L 263.5 577.5 M 255.5 377.5 L 263.5 377.5 M 255.5 177.5 L 263.5 177.5" stroke-linejoin="bevel" stroke-miterlimit="10"/><path fill="none" stroke="black" paint-order="fill" d="" stroke-linejoin="bevel" stroke-miterlimit="10"/><text fill="#444444" stroke="none" font-family="helvetica" font-size="40pt" font-style="normal" font-weight="normal" text-decoration="normal" x="32.96665954589844" y="791.5" text-anchor="start" dominant-baseline="alphabetic" transform="matrix(1, 0, 0, 1, 0.5, 0.5)">ASO_GF</text><text fill="none" stroke="rgb(0,0,0)" font-family="helvetica" font-size="40pt" font-style="normal" font-weight="normal" text-decoration="normal" x="32.96665954589844" y="791.5" text-anchor="start" dominant-baseline="alphabetic" transform="matrix(1, 0, 0, 1, 0.5, 0.5)" stroke-opacity="0" stroke-linejoin="bevel" stroke-miterlimit="10">ASO_GF</text><text fill="#444444" stroke="none" font-family="helvetica" font-size="40pt" font-style="normal" font-weight="normal" text-decoration="normal" x="62.76666259765625" y="591.5" text-anchor="start" dominant-baseline="alphabetic" transform="matrix(1, 0, 0, 1, 0.5, 0.5)">WT_GF</text><text fill="none" stroke="rgb(0,0,0)" font-family="helvetica" font-size="40pt" font-style="normal" font-weight="normal" text-decoration="normal" x="62.76666259765625" y="591.5" text-anchor="start" dominant-baseline="alphabetic" transform="matrix(1, 0, 0, 1, 0.5, 0.5)" stroke-opacity="0" stroke-linejoin="bevel" stroke-miterlimit="10">WT_GF</text><text fill="#444444" stroke="none" font-family="helvetica" font-size="40pt" font-style="normal" font-weight="normal" text-decoration="normal" x="3.2166595458984375" y="391.5" text-anchor="start" dominant-baseline="alphabetic" transform="matrix(1, 0, 0, 1, 0.5, 0.5)">ASO_SPF</text><text fill="none" stroke="rgb(0,0,0)" font-family="helvetica" font-size="40pt" font-style="normal" font-weight="normal" text-decoration="normal" x="3.2166595458984375" y="391.5" text-anchor="start" dominant-baseline="alphabetic" transform="matrix(1, 0, 0, 1, 0.5, 0.5)" stroke-opacity="0" stroke-linejoin="bevel" stroke-miterlimit="10">ASO_SPF</text><text fill="#444444" stroke="none" font-family="helvetica" font-size="40pt" font-style="normal" font-weight="normal" text-decoration="normal" x="33.01666259765625" y="191.5" text-anchor="start" dominant-baseline="alphabetic" transform="matrix(1, 0, 0, 1, 0.5, 0.5)">WT_SPF</text><text fill="none" stroke="rgb(0,0,0)" font-family="helvetica" font-size="40pt" font-style="normal" font-weight="normal" text-decoration="normal" x="33.01666259765625" y="191.5" text-anchor="start" dominant-baseline="alphabetic" transform="matrix(1, 0, 0, 1, 0.5, 0.5)" stroke-opacity="0" stroke-linejoin="bevel" stroke-miterlimit="10">WT_SPF</text><text fill="#444444" stroke="none" font-family="helvetica" font-size="48pt" font-style="normal" font-weight="bold" text-decoration="normal" x="0" y="50" text-anchor="start" dominant-baseline="alphabetic" transform="matrix(1, 0, 0, 1, 261.5, 7.5)">mu 95%CI, lognormal mixed model</text><text fill="none" stroke="rgb(0,0,0)" font-family="helvetica" font-size="48pt" font-style="normal" font-weight="bold" text-decoration="normal" x="0" y="50" text-anchor="start" dominant-baseline="alphabetic" transform="matrix(1, 0, 0, 1, 261.5, 7.5)" stroke-opacity="0" stroke-miterlimit="10" stroke-dasharray="">mu 95%CI, lognormal mixed model</text></svg>