<svg version="1.1" xmlns="http://www.w3.org/2000/svg" width="4266" height="929"><defs><clipPath id="lVHEhKJcgmei"><path fill="none" stroke="none" d="M 0.5 0.5 L 4266.5 0.5 L 4266.5 929.5 L 0.5 929.5 L 0.5 0.5 Z M 261.5 77.5 L 4261.5 77.5 L 4261.5 877.5 L 261.5 877.5 L 261.5 77.5 Z" clip-rule="evenodd"/></clipPath><clipPath id="IyGKOXkoFWha"><path fill="none" stroke="none" d="M 261.5 77.5 L 4261.5 77.5 L 4261.5 877.5 L 261.5 877.5 L 261.5 77.5 Z"/></clipPath><clipPath id="PGQIdXVihONw"><path fill="none" stroke="none" d="M 261.5 77.5 L 4261.5 77.5 L 4261.5 877.5 L 261.5 877.5 L 261.5 77.5 Z"/></clipPath><clipPath id="lpwsWgbaSoQT"><path fill="none" stroke="none" d="M 261.5 77.5 L 4261.5 77.5 L 4261.5 877.5 L 261.5 877.5 L 261.5 77.5 Z"/></clipPath><clipPath id="UgPgkTbuAwHz"><path fill="none" stroke="none" d="M 261.5 77.5 L 4261.5 77.5 L 4261.5 877.5 L 261.5 877.5 L 261.5 77.5 Z"/></clipPath><clipPath id="kTgSqCxTxckW"><path fill="none" stroke="none" d="M 261.5 77.5 L 4261.5 77.5 L 4261.5 877.5 L 261.5 877.5 L 261.5 77.5 Z"/></clipPath><clipPath id="NcTStoCNrMMR"><path fill="none" stroke="none" d="M 261.5 77.5 L 4261.5 77.5 L 4261.5 877.5 L 261.5 877.5 L 261.5 77.5 Z"/></clipPath><clipPath id="UinTzKWXPaUS"><path fill="none" stroke="none" d="M 261.5 77.5 L 4261.5 77.5 L 4261.5 877.5 L 261.5 877.5 L 261.5 77.5 Z"/></clipPath><clipPath id="rbwpBbkLAgBM"><path fill="none" stroke="none" d="M 261.5 77.5 L 4261.5 77.5 L 4261.5 877.5 L 261.5 877.5 L 261.5 77.5 Z"/></clipPath><clipPath id="HwgdXNeBVTxX"><path fill="none" stroke="none" d="M 261.5 77.5 L 4261.5 77.5 L 4261.5 877.5 L 261.5 877.5 L 261.5 77.5 Z"/></clipPath><clipPath id="Bvhcmohknpev"><path fill="none" stroke="none" d="M 261.5 77.5 L 4261.5 77.5 L 4261.5 877.5 L 261.5 877.5 L 261.5 77.5 Z"/></clipPath><clipPath id="dJxNienmhHmK"><path fill="none" stroke="none" d="M 261.5 77.5 L 4261.5 77.5 L 4261.5 877.5 L 261.5 877.5 L 261.5 77.5 Z"/></clipPath></defs><path fill="rgb(255,255,255)" stroke="none" paint-order="stroke" d="M 0.5 0.5 L 4266.5 0.5 L 4266.5 929.5 L 0.5 929.5 L 0.5 0.5 Z" fill-opacity="1" clip-path="url(#lVHEhKJcgmei)"/><path fill="rgb(255,255,255)" stroke="none" paint-order="stroke" d="M 261.5 77.5 L 4261.5 77.5 L 4261.5 877.5 L 261.5 877.5 L 261.5 77.5 Z" fill-opacity="1"/><path fill="none" stroke="rgb(229,229,229)" paint-order="fill" d="M 261.5 77.5 L 4261.5 77.5 L 4261.5 877.5 L 261.5 877.5 L 261.5 77.5 Z" stroke-opacity="1" stroke-linejoin="bevel" stroke-miterlimit="10"/><path fill="none" stroke="rgb(229,229,229)" paint-order="fill" d="M 620.5 877.5 L 620.5 77.5 M 1197.5 877.5 L 1197.5 77.5 M 1773.5 877.5 L 1773.5 77.5 M 2350.5 877.5 L 2350.5 77.5 M 2926.5 877.5 L 2926.5 77.5 M 3503.5 877.5 L 3503.5 77.5 M 4079.5 877.5 L 4079.5 77.5" stroke-opacity="1" stroke-linejoin="bevel" stroke-miterlimit="10" clip-path="url(#IyGKOXkoFWha)"/><path fill="none" stroke="rgb(229,229,229)" paint-order="fill" d="M 261.5 777.5 L 4261.5 777.5 M 261.5 577.5 L 4261.5 577.5 M 261.5 377.5 L 4261.5 377.5 M 261.5 177.5 L 4261.5 177.5" stroke-opacity="1" stroke-linejoin="bevel" stroke-miterlimit="10" clip-path="url(#PGQIdXVihONw)"/><path fill="rgb(189,189,189)" stroke="rgb(189,189,189)" paint-order="fill" d="M 3327.322998046875 177.5 A 7.5 7.5 0 0 1 3312.322998046875 177.5 A 7.5 7.5 0 0 1 3327.322998046875 177.5" fill-opacity="1" clip-path="url(#lpwsWgbaSoQT)" stroke-opacity="1" stroke-linejoin="bevel" stroke-miterlimit="10"/><path fill="none" stroke="rgb(189,189,189)" paint-order="fill" d="M 2311.817138671875 177.5 L 4079.681884765625 177.5" stroke-opacity="1" stroke-linejoin="bevel" stroke-miterlimit="10" stroke-width="5" clip-path="url(#UgPgkTbuAwHz)"/><path fill="rgb(0,0,0)" stroke="rgb(0,0,0)" paint-order="fill" d="M 1667.8302001953125 377.5 A 7.5 7.5 0 0 1 1652.8302001953125 377.5 A 7.5 7.5 0 0 1 1667.8302001953125 377.5" fill-opacity="1" clip-path="url(#kTgSqCxTxckW)" stroke-opacity="1" stroke-linejoin="bevel" stroke-miterlimit="10"/><path fill="none" stroke="rgb(0,0,0)" paint-order="fill" d="M 443.31817626953125 377.5 L 2866.701416015625 377.5" stroke-opacity="1" stroke-linejoin="bevel" stroke-miterlimit="10" stroke-width="5" clip-path="url(#NcTStoCNrMMR)"/><path fill="rgb(107,174,214)" stroke="rgb(107,174,214)" paint-order="fill" d="M 3322.1923828125 577.5 A 7.5 7.5 0 0 1 3307.1923828125 577.5 A 7.5 7.5 0 0 1 3322.1923828125 577.5" fill-opacity="1" clip-path="url(#UinTzKWXPaUS)" stroke-opacity="1" stroke-linejoin="bevel" stroke-miterlimit="10"/><path fill="none" stroke="rgb(107,174,214)" paint-order="fill" d="M 2504.817138671875 577.5 L 3961.69775390625 577.5" stroke-opacity="1" stroke-linejoin="bevel" stroke-miterlimit="10" stroke-width="5" clip-path="url(#rbwpBbkLAgBM)"/><path fill="rgb(8,81,156)" stroke="rgb(8,81,156)" paint-order="fill" d="M 2577.67236328125 777.5 A 7.5 7.5 0 0 1 2562.67236328125 777.5 A 7.5 7.5 0 0 1 2577.67236328125 777.5" fill-opacity="1" clip-path="url(#HwgdXNeBVTxX)" stroke-opacity="1" stroke-linejoin="bevel" stroke-miterlimit="10"/><path fill="none" stroke="rgb(8,81,156)" paint-order="fill" d="M 1472.406005859375 777.5 L 3512.935302734375 777.5" stroke-opacity="1" stroke-linejoin="bevel" stroke-miterlimit="10" stroke-width="5" clip-path="url(#Bvhcmohknpev)"/><path fill="none" stroke="rgb(0,0,0)" paint-order="fill" d="M 261.5 877.5 L 4261.5 877.5" stroke-opacity="1" stroke-linejoin="bevel" stroke-miterlimit="10"/><path fill="none" stroke="rgb(0,0,0)" paint-order="fill" d="M 620.5 883.5 L 620.5 875.5 M 1197.5 883.5 L 1197.5 875.5 M 1773.5 883.5 L 1773.5 875.5 M 2350.5 883.5 L 2350.5 875.5 M 2926.5 883.5 L 2926.5 875.5 M 3503.5 883.5 L 3503.5 875.5 M 4079.5 883.5 L 4079.5 875.5" stroke-opacity="1" stroke-linejoin="bevel" stroke-miterlimit="10"/><path fill="none" stroke="rgb(0,0,0)" paint-order="fill" d="M 505.5 881.5 L 505.5 877.5 M 390.5 881.5 L 390.5 877.5 M 274.5 881.5 L 274.5 877.5 M 620.5 881.5 L 620.5 877.5 M 735.5 881.5 L 735.5 877.5 M 851.5 881.5 L 851.5 877.5 M 966.5 881.5 L 966.5 877.5 M 1081.5 881.5 L 1081.5 877.5 M 1197.5 881.5 L 1197.5 877.5 M 1312.5 881.5 L 1312.5 877.5 M 1427.5 881.5 L 1427.5 877.5 M 1543.5 881.5 L 1543.5 877.5 M 1658.5 881.5 L 1658.5 877.5 M 1773.5 881.5 L 1773.5 877.5 M 1888.5 881.5 L 1888.5 877.5 M 2004.5 881.5 L 2004.5 877.5 M 2119.5 881.5 L 2119.5 877.5 M 2234.5 881.5 L 2234.5 877.5 M 2350.5 881.5 L 2350.5 877.5 M 2465.5 881.5 L 2465.5 877.5 M 2580.5 881.5 L 2580.5 877.5 M 2696.5 881.5 L 2696.5 877.5 M 2811.5 881.5 L 2811.5 877.5 M 2926.5 881.5 L 2926.5 877.5 M 3041.5 881.5 L 3041.5 877.5 M 3157.5 881.5 L 3157.5 877.5 M 3272.5 881.5 L 3272.5 877.5 M 3387.5 881.5 L 3387.5 877.5 M 3503.5 881.5 L 3503.5 877.5 M 3618.5 881.5 L 3618.5 877.5 M 3733.5 881.5 L 3733.5 877.5 M 3849.5 881.5 L 3849.5 877.5 M 3964.5 881.5 L 3964.5 877.5 M 4079.5 881.5 L 4079.5 877.5 M 4194.5 881.5 L 4194.5 877.5" stroke-opacity="1" stroke-linejoin="bevel" stroke-miterlimit="10"/><text fill="rgb(68,68,68)" stroke="none" font-family="helvetica" font-size="40pt" font-style="normal" font-weight="normal" text-decoration="normal" x="582.9969635009766" y="926.374755859375" text-anchor="start" dominant-baseline="alphabetic" transform="matrix(1, 0, 0, 1, 0.5, 0.5)" fill-opacity="1">0.7</text><text fill="none" stroke="rgb(0,0,0)" font-family="helvetica" font-size="40pt" font-style="normal" font-weight="normal" text-decoration="normal" x="582.9969635009766" y="926.374755859375" text-anchor="start" dominant-baseline="alphabetic" transform="matrix(1, 0, 0, 1, 0.5, 0.5)" stroke-opacity="0" stroke-linejoin="bevel" stroke-miterlimit="10">0.7</text><text fill="rgb(68,68,68)" stroke="none" font-family="helvetica" font-size="40pt" font-style="normal" font-weight="normal" text-decoration="normal" x="1144.6222076416016" y="926.374755859375" text-anchor="start" dominant-baseline="alphabetic" transform="matrix(1, 0, 0, 1, 0.5, 0.5)" fill-opacity="1">0.75</text><text fill="none" stroke="rgb(0,0,0)" font-family="helvetica" font-size="40pt" font-style="normal" font-weight="normal" text-decoration="normal" x="1144.6222076416016" y="926.374755859375" text-anchor="start" dominant-baseline="alphabetic" transform="matrix(1, 0, 0, 1, 0.5, 0.5)" stroke-opacity="0" stroke-linejoin="bevel" stroke-miterlimit="10">0.75</text><text fill="rgb(68,68,68)" stroke="none" font-family="helvetica" font-size="40pt" font-style="normal" font-weight="normal" text-decoration="normal" x="1735.997573852539" y="926.374755859375" text-anchor="start" dominant-baseline="alphabetic" transform="matrix(1, 0, 0, 1, 0.5, 0.5)" fill-opacity="1">0.8</text><text fill="none" stroke="rgb(0,0,0)" font-family="helvetica" font-size="40pt" font-style="normal" font-weight="normal" text-decoration="normal" x="1735.997573852539" y="926.374755859375" text-anchor="start" dominant-baseline="alphabetic" transform="matrix(1, 0, 0, 1, 0.5, 0.5)" stroke-opacity="0" stroke-linejoin="bevel" stroke-miterlimit="10">0.8</text><text fill="rgb(68,68,68)" stroke="none" font-family="helvetica" font-size="40pt" font-style="normal" font-weight="normal" text-decoration="normal" x="2297.622817993164" y="926.374755859375" text-anchor="start" dominant-baseline="alphabetic" transform="matrix(1, 0, 0, 1, 0.5, 0.5)" fill-opacity="1">0.85</text><text fill="none" stroke="rgb(0,0,0)" font-family="helvetica" font-size="40pt" font-style="normal" font-weight="normal" text-decoration="normal" x="2297.622817993164" y="926.374755859375" text-anchor="start" dominant-baseline="alphabetic" transform="matrix(1, 0, 0, 1, 0.5, 0.5)" stroke-opacity="0" stroke-linejoin="bevel" stroke-miterlimit="10">0.85</text><text fill="rgb(68,68,68)" stroke="none" font-family="helvetica" font-size="40pt" font-style="normal" font-weight="normal" text-decoration="normal" x="2888.998306274414" y="926.374755859375" text-anchor="start" dominant-baseline="alphabetic" transform="matrix(1, 0, 0, 1, 0.5, 0.5)" fill-opacity="1">0.9</text><text fill="none" stroke="rgb(0,0,0)" font-family="helvetica" font-size="40pt" font-style="normal" font-weight="normal" text-decoration="normal" x="2888.998306274414" y="926.374755859375" text-anchor="start" dominant-baseline="alphabetic" transform="matrix(1, 0, 0, 1, 0.5, 0.5)" stroke-opacity="0" stroke-linejoin="bevel" stroke-miterlimit="10">0.9</text><text fill="rgb(68,68,68)" stroke="none" font-family="helvetica" font-size="40pt" font-style="normal" font-weight="normal" text-decoration="normal" x="3450.623550415039" y="926.374755859375" text-anchor="start" dominant-baseline="alphabetic" transform="matrix(1, 0, 0, 1, 0.5, 0.5)" fill-opacity="1">0.95</text><text fill="none" stroke="rgb(0,0,0)" font-family="helvetica" font-size="40pt" font-style="normal" font-weight="normal" text-decoration="normal" x="3450.623550415039" y="926.374755859375" text-anchor="start" dominant-baseline="alphabetic" transform="matrix(1, 0, 0, 1, 0.5, 0.5)" stroke-opacity="0" stroke-linejoin="bevel" stroke-miterlimit="10">0.95</text><text fill="rgb(68,68,68)" stroke="none" font-family="helvetica" font-size="40pt" font-style="normal" font-weight="normal" text-decoration="normal" x="4064.30712890625" y="926.374755859375" text-anchor="start" dominant-baseline="alphabetic" transform="matrix(1, 0, 0, 1, 0.5, 0.5)" fill-opacity="1">1</text><text fill="none" stroke="rgb(0,0,0)" font-family="helvetica" font-size="40pt" font-style="normal" font-weight="normal" text-decoration="normal" x="4064.30712890625" y="926.374755859375" text-anchor="start" dominant-baseline="alphabetic" transform="matrix(1, 0, 0, 1, 0.5, 0.5)" stroke-opacity="0" stroke-linejoin="bevel" stroke-miterlimit="10">1</text><path fill="none" stroke="rgb(0,0,0)" paint-order="fill" d="M 261.5 877.5 L 261.5 77.5" stroke-opacity="1" stroke-linejoin="bevel" stroke-miterlimit="10"/><path fill="none" stroke="rgb(0,0,0)" paint-order="fill" d="M 255.5 777.5 L 263.5 777.5 M 255.5 577.5 L 263.5 577.5 M 255.5 377.5 L 263.5 377.5 M 255.5 177.5 L 263.5 177.5" stroke-opacity="1" stroke-linejoin="bevel" stroke-miterlimit="10"/><path fill="none" stroke="rgb(0,0,0)" paint-order="fill" d="" stroke-opacity="1" stroke-linejoin="bevel" stroke-miterlimit="10"/><text fill="rgb(68,68,68)" stroke="none" font-family="helvetica" font-size="40pt" font-style="normal" font-weight="normal" text-decoration="normal" x="32.96665954589844" y="791.5" text-anchor="start" dominant-baseline="alphabetic" transform="matrix(1, 0, 0, 1, 0.5, 0.5)" fill-opacity="1">ASO_GF</text><text fill="none" stroke="rgb(0,0,0)" font-family="helvetica" font-size="40pt" font-style="normal" font-weight="normal" text-decoration="normal" x="32.96665954589844" y="791.5" text-anchor="start" dominant-baseline="alphabetic" transform="matrix(1, 0, 0, 1, 0.5, 0.5)" stroke-opacity="0" stroke-linejoin="bevel" stroke-miterlimit="10">ASO_GF</text><text fill="rgb(68,68,68)" stroke="none" font-family="helvetica" font-size="40pt" font-style="normal" font-weight="normal" text-decoration="normal" x="62.76666259765625" y="591.5" text-anchor="start" dominant-baseline="alphabetic" transform="matrix(1, 0, 0, 1, 0.5, 0.5)" fill-opacity="1">WT_GF</text><text fill="none" stroke="rgb(0,0,0)" font-family="helvetica" font-size="40pt" font-style="normal" font-weight="normal" text-decoration="normal" x="62.76666259765625" y="591.5" text-anchor="start" dominant-baseline="alphabetic" transform="matrix(1, 0, 0, 1, 0.5, 0.5)" stroke-opacity="0" stroke-linejoin="bevel" stroke-miterlimit="10">WT_GF</text><text fill="rgb(68,68,68)" stroke="none" font-family="helvetica" font-size="40pt" font-style="normal" font-weight="normal" text-decoration="normal" x="3.2166595458984375" y="391.5" text-anchor="start" dominant-baseline="alphabetic" transform="matrix(1, 0, 0, 1, 0.5, 0.5)" fill-opacity="1">ASO_SPF</text><text fill="none" stroke="rgb(0,0,0)" font-family="helvetica" font-size="40pt" font-style="normal" font-weight="normal" text-decoration="normal" x="3.2166595458984375" y="391.5" text-anchor="start" dominant-baseline="alphabetic" transform="matrix(1, 0, 0, 1, 0.5, 0.5)" stroke-opacity="0" stroke-linejoin="bevel" stroke-miterlimit="10">ASO_SPF</text><text fill="rgb(68,68,68)" stroke="none" font-family="helvetica" font-size="40pt" font-style="normal" font-weight="normal" text-decoration="normal" x="33.01666259765625" y="191.5" text-anchor="start" dominant-baseline="alphabetic" transform="matrix(1, 0, 0, 1, 0.5, 0.5)" fill-opacity="1">WT_SPF</text><text fill="none" stroke="rgb(0,0,0)" font-family="helvetica" font-size="40pt" font-style="normal" font-weight="normal" text-decoration="normal" x="33.01666259765625" y="191.5" text-anchor="start" dominant-baseline="alphabetic" transform="matrix(1, 0, 0, 1, 0.5, 0.5)" stroke-opacity="0" stroke-linejoin="bevel" stroke-miterlimit="10">WT_SPF</text><text fill="rgb(68,68,68)" stroke="none" font-family="helvetica" font-size="48pt" font-style="normal" font-weight="bold" text-decoration="normal" x="0" y="50" text-anchor="start" dominant-baseline="alphabetic" transform="matrix(1, 0, 0, 1, 261.5, 7.5)" fill-opacity="1">omega 95%CI, lognormal mixed model</text><text fill="none" stroke="rgb(0,0,0)" font-family="helvetica" font-size="48pt" font-style="normal" font-weight="bold" text-decoration="normal" x="0" y="50" text-anchor="start" dominant-baseline="alphabetic" transform="matrix(1, 0, 0, 1, 261.5, 7.5)" stroke-opacity="0" stroke-miterlimit="10" stroke-dasharray="">omega 95%CI, lognormal mixed model</text></svg>