<svg version="1.1" xmlns="http://www.w3.org/2000/svg" width="4265" height="938"><defs><clipPath id="GfqAWwcQpQKW"><path fill="none" stroke="none" d="M 260.5 86.5 L 4260.5 86.5 L 4260.5 886.5 L 260.5 886.5 L 260.5 86.5 Z"/></clipPath><clipPath id="VsGbdDRDONcn"><path fill="none" stroke="none" d="M 260.5 86.5 L 4260.5 86.5 L 4260.5 886.5 L 260.5 886.5 L 260.5 86.5 Z"/></clipPath><clipPath id="yKWRMwkeZvZd"><path fill="none" stroke="none" d="M 260.5 86.5 L 4260.5 86.5 L 4260.5 886.5 L 260.5 886.5 L 260.5 86.5 Z"/></clipPath><clipPath id="iSSihekwkrpE"><path fill="none" stroke="none" d="M 260.5 86.5 L 4260.5 86.5 L 4260.5 886.5 L 260.5 886.5 L 260.5 86.5 Z"/></clipPath><clipPath id="ZUHeAqKogEvR"><path fill="none" stroke="none" d="M 260.5 86.5 L 4260.5 86.5 L 4260.5 886.5 L 260.5 886.5 L 260.5 86.5 Z"/></clipPath><clipPath id="yJCOQOIlLAzk"><path fill="none" stroke="none" d="M 260.5 86.5 L 4260.5 86.5 L 4260.5 886.5 L 260.5 886.5 L 260.5 86.5 Z"/></clipPath><clipPath id="OveKFylTQihg"><path fill="none" stroke="none" d="M 260.5 86.5 L 4260.5 86.5 L 4260.5 886.5 L 260.5 886.5 L 260.5 86.5 Z"/></clipPath><clipPath id="rAUidZNOEdvJ"><path fill="none" stroke="none" d="M 260.5 86.5 L 4260.5 86.5 L 4260.5 886.5 L 260.5 886.5 L 260.5 86.5 Z"/></clipPath><clipPath id="AHFCTKnWeSZK"><path fill="none" stroke="none" d="M 260.5 86.5 L 4260.5 86.5 L 4260.5 886.5 L 260.5 886.5 L 260.5 86.5 Z"/></clipPath><clipPath id="hhvemFbDHNBW"><path fill="none" stroke="none" d="M 260.5 86.5 L 4260.5 86.5 L 4260.5 886.5 L 260.5 886.5 L 260.5 86.5 Z"/></clipPath><clipPath id="OTVrDTLyJMVv"><path fill="none" stroke="none" d="M 260.5 86.5 L 4260.5 86.5 L 4260.5 886.5 L 260.5 886.5 L 260.5 86.5 Z"/></clipPath></defs><path fill="rgb(255,255,255)" stroke="none" paint-order="stroke" d="M 0.5 0.5 L 4265.5 0.5 L 4265.5 938.5 L 0.5 938.5 L 0.5 0.5 Z" fill-opacity="1"/><rect fill="#FFFFFF" stroke="none" x="260" y="86" width="4000" height="800" transform="matrix(1, 0, 0, 1, 0.5, 0.5)"/><path fill="rgb(255,255,255)" stroke="none" paint-order="stroke" d="M 260.5 86.5 L 4260.5 86.5 L 4260.5 886.5 L 260.5 886.5 L 260.5 86.5 Z" fill-opacity="1"/><path fill="none" stroke="rgb(229,229,229)" paint-order="fill" d="M 260.5 86.5 L 4260.5 86.5 L 4260.5 886.5 L 260.5 886.5 L 260.5 86.5 Z" stroke-opacity="1" stroke-linejoin="bevel" stroke-miterlimit="10"/><path fill="none" stroke="rgb(229,229,229)" paint-order="fill" d="M 528.5 886.5 L 528.5 86.5 M 1344.5 886.5 L 1344.5 86.5 M 2160.5 886.5 L 2160.5 86.5 M 2975.5 886.5 L 2975.5 86.5 M 3791.5 886.5 L 3791.5 86.5" stroke-opacity="1" stroke-linejoin="bevel" stroke-miterlimit="10" clip-path="url(#GfqAWwcQpQKW)"/><path fill="none" stroke="rgb(229,229,229)" paint-order="fill" d="M 260.5 786.5 L 4260.5 786.5 M 260.5 586.5 L 4260.5 586.5 M 260.5 386.5 L 4260.5 386.5 M 260.5 186.5 L 4260.5 186.5" stroke-opacity="1" stroke-linejoin="bevel" stroke-miterlimit="10" clip-path="url(#VsGbdDRDONcn)"/><path fill="rgb(189,189,189)" stroke="rgb(189,189,189)" paint-order="fill" d="M 2593.4951171875 186.5 A 7.5 7.5 0 0 1 2578.4951171875 186.5 A 7.5 7.5 0 0 1 2593.4951171875 186.5" fill-opacity="1" clip-path="url(#yKWRMwkeZvZd)" stroke-opacity="1" stroke-linejoin="bevel" stroke-miterlimit="10"/><path fill="none" stroke="rgb(189,189,189)" paint-order="fill" d="M 1622.869384765625 186.5 L 3668.508056640625 186.5" stroke-opacity="1" stroke-linejoin="bevel" stroke-miterlimit="10" stroke-width="5" clip-path="url(#iSSihekwkrpE)"/><path fill="rgb(0,0,0)" stroke="rgb(0,0,0)" paint-order="fill" d="M 3193.7744140625 386.5 A 7.5 7.5 0 0 1 3178.7744140625 386.5 A 7.5 7.5 0 0 1 3193.7744140625 386.5" fill-opacity="1" clip-path="url(#ZUHeAqKogEvR)" stroke-opacity="1" stroke-linejoin="bevel" stroke-miterlimit="10"/><path fill="none" stroke="rgb(0,0,0)" paint-order="fill" d="M 2391.842529296875 386.5 L 4078.681884765625 386.5" stroke-opacity="1" stroke-linejoin="bevel" stroke-miterlimit="10" stroke-width="5" clip-path="url(#yJCOQOIlLAzk)"/><path fill="rgb(107,174,214)" stroke="rgb(107,174,214)" paint-order="fill" d="M 1674.3297119140625 586.5 A 7.5 7.5 0 0 1 1659.3297119140625 586.5 A 7.5 7.5 0 0 1 1674.3297119140625 586.5" fill-opacity="1" clip-path="url(#OveKFylTQihg)" stroke-opacity="1" stroke-linejoin="bevel" stroke-miterlimit="10"/><path fill="none" stroke="rgb(107,174,214)" paint-order="fill" d="M 952.0709228515625 586.5 L 2409.58203125 586.5" stroke-opacity="1" stroke-linejoin="bevel" stroke-miterlimit="10" stroke-width="5" clip-path="url(#rAUidZNOEdvJ)"/><path fill="rgb(8,81,156)" stroke="rgb(8,81,156)" paint-order="fill" d="M 921.0621948242188 786.5 A 7.5 7.5 0 0 1 906.0621948242188 786.5 A 7.5 7.5 0 0 1 921.0621948242188 786.5" fill-opacity="1" clip-path="url(#AHFCTKnWeSZK)" stroke-opacity="1" stroke-linejoin="bevel" stroke-miterlimit="10"/><path fill="none" stroke="rgb(8,81,156)" paint-order="fill" d="M 442.31817626953125 786.5 L 1406.9755859375 786.5" stroke-opacity="1" stroke-linejoin="bevel" stroke-miterlimit="10" stroke-width="5" clip-path="url(#hhvemFbDHNBW)"/><path fill="none" stroke="rgb(0,0,0)" paint-order="fill" d="M 260.5 886.5 L 4260.5 886.5" stroke-opacity="1" stroke-linejoin="bevel" stroke-miterlimit="10"/><path fill="none" stroke="rgb(0,0,0)" paint-order="fill" d="M 528.5 892.5 L 528.5 884.5 M 1344.5 892.5 L 1344.5 884.5 M 2160.5 892.5 L 2160.5 884.5 M 2975.5 892.5 L 2975.5 884.5 M 3791.5 892.5 L 3791.5 884.5" stroke-opacity="1" stroke-linejoin="bevel" stroke-miterlimit="10"/><path fill="none" stroke="rgb(0,0,0)" paint-order="fill" d="M 365.5 890.5 L 365.5 886.5 M 528.5 890.5 L 528.5 886.5 M 691.5 890.5 L 691.5 886.5 M 854.5 890.5 L 854.5 886.5 M 1018.5 890.5 L 1018.5 886.5 M 1181.5 890.5 L 1181.5 886.5 M 1344.5 890.5 L 1344.5 886.5 M 1507.5 890.5 L 1507.5 886.5 M 1670.5 890.5 L 1670.5 886.5 M 1833.5 890.5 L 1833.5 886.5 M 1996.5 890.5 L 1996.5 886.5 M 2160.5 890.5 L 2160.5 886.5 M 2323.5 890.5 L 2323.5 886.5 M 2486.5 890.5 L 2486.5 886.5 M 2649.5 890.5 L 2649.5 886.5 M 2812.5 890.5 L 2812.5 886.5 M 2975.5 890.5 L 2975.5 886.5 M 3139.5 890.5 L 3139.5 886.5 M 3302.5 890.5 L 3302.5 886.5 M 3465.5 890.5 L 3465.5 886.5 M 3628.5 890.5 L 3628.5 886.5 M 3791.5 890.5 L 3791.5 886.5 M 3954.5 890.5 L 3954.5 886.5 M 4118.5 890.5 L 4118.5 886.5" stroke-opacity="1" stroke-linejoin="bevel" stroke-miterlimit="10"/><text fill="rgb(68,68,68)" stroke="none" font-family="helvetica" font-size="40pt" font-style="normal" font-weight="normal" text-decoration="normal" x="513.2552871704102" y="935.2528190612793" text-anchor="start" dominant-baseline="alphabetic" transform="matrix(1, 0, 0, 1, 0.5, 0.5)" fill-opacity="1">2</text><text fill="none" stroke="rgb(0,0,0)" font-family="helvetica" font-size="40pt" font-style="normal" font-weight="normal" text-decoration="normal" x="513.2552871704102" y="935.2528190612793" text-anchor="start" dominant-baseline="alphabetic" transform="matrix(1, 0, 0, 1, 0.5, 0.5)" stroke-opacity="0" stroke-linejoin="bevel" stroke-miterlimit="10">2</text><text fill="rgb(68,68,68)" stroke="none" font-family="helvetica" font-size="40pt" font-style="normal" font-weight="normal" text-decoration="normal" x="1306.8028717041016" y="935.2528190612793" text-anchor="start" dominant-baseline="alphabetic" transform="matrix(1, 0, 0, 1, 0.5, 0.5)" fill-opacity="1">2.2</text><text fill="none" stroke="rgb(0,0,0)" font-family="helvetica" font-size="40pt" font-style="normal" font-weight="normal" text-decoration="normal" x="1306.8028717041016" y="935.2528190612793" text-anchor="start" dominant-baseline="alphabetic" transform="matrix(1, 0, 0, 1, 0.5, 0.5)" stroke-opacity="0" stroke-linejoin="bevel" stroke-miterlimit="10">2.2</text><text fill="rgb(68,68,68)" stroke="none" font-family="helvetica" font-size="40pt" font-style="normal" font-weight="normal" text-decoration="normal" x="2122.5887603759766" y="935.2528190612793" text-anchor="start" dominant-baseline="alphabetic" transform="matrix(1, 0, 0, 1, 0.5, 0.5)" fill-opacity="1">2.4</text><text fill="none" stroke="rgb(0,0,0)" font-family="helvetica" font-size="40pt" font-style="normal" font-weight="normal" text-decoration="normal" x="2122.5887603759766" y="935.2528190612793" text-anchor="start" dominant-baseline="alphabetic" transform="matrix(1, 0, 0, 1, 0.5, 0.5)" stroke-opacity="0" stroke-linejoin="bevel" stroke-miterlimit="10">2.4</text><text fill="rgb(68,68,68)" stroke="none" font-family="helvetica" font-size="40pt" font-style="normal" font-weight="normal" text-decoration="normal" x="2938.3746490478516" y="935.2528190612793" text-anchor="start" dominant-baseline="alphabetic" transform="matrix(1, 0, 0, 1, 0.5, 0.5)" fill-opacity="1">2.6</text><text fill="none" stroke="rgb(0,0,0)" font-family="helvetica" font-size="40pt" font-style="normal" font-weight="normal" text-decoration="normal" x="2938.3746490478516" y="935.2528190612793" text-anchor="start" dominant-baseline="alphabetic" transform="matrix(1, 0, 0, 1, 0.5, 0.5)" stroke-opacity="0" stroke-linejoin="bevel" stroke-miterlimit="10">2.6</text><text fill="rgb(68,68,68)" stroke="none" font-family="helvetica" font-size="40pt" font-style="normal" font-weight="normal" text-decoration="normal" x="3754.1602935791016" y="935.2528190612793" text-anchor="start" dominant-baseline="alphabetic" transform="matrix(1, 0, 0, 1, 0.5, 0.5)" fill-opacity="1">2.8</text><text fill="none" stroke="rgb(0,0,0)" font-family="helvetica" font-size="40pt" font-style="normal" font-weight="normal" text-decoration="normal" x="3754.1602935791016" y="935.2528190612793" text-anchor="start" dominant-baseline="alphabetic" transform="matrix(1, 0, 0, 1, 0.5, 0.5)" stroke-opacity="0" stroke-linejoin="bevel" stroke-miterlimit="10">2.8</text><path fill="none" stroke="rgb(0,0,0)" paint-order="fill" d="M 260.5 886.5 L 260.5 86.5" stroke-opacity="1" stroke-linejoin="bevel" stroke-miterlimit="10"/><path fill="none" stroke="rgb(0,0,0)" paint-order="fill" d="M 254.5 786.5 L 262.5 786.5 M 254.5 586.5 L 262.5 586.5 M 254.5 386.5 L 262.5 386.5 M 254.5 186.5 L 262.5 186.5" stroke-opacity="1" stroke-linejoin="bevel" stroke-miterlimit="10"/><path fill="none" stroke="rgb(0,0,0)" paint-order="fill" d="" stroke-opacity="1" stroke-linejoin="bevel" stroke-miterlimit="10"/><text fill="rgb(68,68,68)" stroke="none" font-family="helvetica" font-size="40pt" font-style="normal" font-weight="normal" text-decoration="normal" x="32.65937805175781" y="804.5" text-anchor="start" dominant-baseline="alphabetic" transform="matrix(1, 0, 0, 1, 0.5, 0.5)" fill-opacity="1">ASO_GF</text><text fill="none" stroke="rgb(0,0,0)" font-family="helvetica" font-size="40pt" font-style="normal" font-weight="normal" text-decoration="normal" x="32.65937805175781" y="804.5" text-anchor="start" dominant-baseline="alphabetic" transform="matrix(1, 0, 0, 1, 0.5, 0.5)" stroke-opacity="0" stroke-linejoin="bevel" stroke-miterlimit="10">ASO_GF</text><text fill="rgb(68,68,68)" stroke="none" font-family="helvetica" font-size="40pt" font-style="normal" font-weight="normal" text-decoration="normal" x="62.37107849121094" y="604.5" text-anchor="start" dominant-baseline="alphabetic" transform="matrix(1, 0, 0, 1, 0.5, 0.5)" fill-opacity="1">WT_GF</text><text fill="none" stroke="rgb(0,0,0)" font-family="helvetica" font-size="40pt" font-style="normal" font-weight="normal" text-decoration="normal" x="62.37107849121094" y="604.5" text-anchor="start" dominant-baseline="alphabetic" transform="matrix(1, 0, 0, 1, 0.5, 0.5)" stroke-opacity="0" stroke-linejoin="bevel" stroke-miterlimit="10">WT_GF</text><text fill="rgb(68,68,68)" stroke="none" font-family="helvetica" font-size="40pt" font-style="normal" font-weight="normal" text-decoration="normal" x="2.9997711181640625" y="404.5" text-anchor="start" dominant-baseline="alphabetic" transform="matrix(1, 0, 0, 1, 0.5, 0.5)" fill-opacity="1">ASO_SPF</text><text fill="none" stroke="rgb(0,0,0)" font-family="helvetica" font-size="40pt" font-style="normal" font-weight="normal" text-decoration="normal" x="2.9997711181640625" y="404.5" text-anchor="start" dominant-baseline="alphabetic" transform="matrix(1, 0, 0, 1, 0.5, 0.5)" stroke-opacity="0" stroke-linejoin="bevel" stroke-miterlimit="10">ASO_SPF</text><text fill="rgb(68,68,68)" stroke="none" font-family="helvetica" font-size="40pt" font-style="normal" font-weight="normal" text-decoration="normal" x="32.71147155761719" y="204.5" text-anchor="start" dominant-baseline="alphabetic" transform="matrix(1, 0, 0, 1, 0.5, 0.5)" fill-opacity="1">WT_SPF</text><text fill="none" stroke="rgb(0,0,0)" font-family="helvetica" font-size="40pt" font-style="normal" font-weight="normal" text-decoration="normal" x="32.71147155761719" y="204.5" text-anchor="start" dominant-baseline="alphabetic" transform="matrix(1, 0, 0, 1, 0.5, 0.5)" stroke-opacity="0" stroke-linejoin="bevel" stroke-miterlimit="10">WT_SPF</text><text fill="rgb(68,68,68)" stroke="none" font-family="helvetica" font-size="48pt" font-style="normal" font-weight="bold" text-decoration="normal" x="260" y="66" text-anchor="start" dominant-baseline="alphabetic" transform="matrix(1, 0, 0, 1, 0.5, 0.5)" fill-opacity="1">mu 95%CI, lognormal mixed model</text><text fill="none" stroke="rgb(0,0,0)" font-family="helvetica" font-size="48pt" font-style="normal" font-weight="bold" text-decoration="normal" x="260" y="66" text-anchor="start" dominant-baseline="alphabetic" transform="matrix(1, 0, 0, 1, 0.5, 0.5)" stroke-opacity="0" stroke-miterlimit="10" stroke-dasharray="">mu 95%CI, lognormal mixed model</text></svg>