<svg version="1.1" xmlns="http://www.w3.org/2000/svg" width="4266" height="929"><defs><clipPath id="nlXpKvgRFWEq"><path fill="none" stroke="none" d="M 0.5 0.5 L 4266.5 0.5 L 4266.5 929.5 L 0.5 929.5 L 0.5 0.5 Z M 261.5 77.5 L 4261.5 77.5 L 4261.5 877.5 L 261.5 877.5 L 261.5 77.5 Z" clip-rule="evenodd"/></clipPath><clipPath id="pLuWCTWUeJog"><path fill="none" stroke="none" d="M 261.5 77.5 L 4261.5 77.5 L 4261.5 877.5 L 261.5 877.5 L 261.5 77.5 Z"/></clipPath><clipPath id="dbIzXulLQJtk"><path fill="none" stroke="none" d="M 261.5 77.5 L 4261.5 77.5 L 4261.5 877.5 L 261.5 877.5 L 261.5 77.5 Z"/></clipPath><clipPath id="hTDoOWxbheDI"><path fill="none" stroke="none" d="M 261.5 77.5 L 4261.5 77.5 L 4261.5 877.5 L 261.5 877.5 L 261.5 77.5 Z"/></clipPath><clipPath id="dcHhdiSOZxDk"><path fill="none" stroke="none" d="M 261.5 77.5 L 4261.5 77.5 L 4261.5 877.5 L 261.5 877.5 L 261.5 77.5 Z"/></clipPath><clipPath id="vahPoyvvtITd"><path fill="none" stroke="none" d="M 261.5 77.5 L 4261.5 77.5 L 4261.5 877.5 L 261.5 877.5 L 261.5 77.5 Z"/></clipPath><clipPath id="hhsnoboJigbx"><path fill="none" stroke="none" d="M 261.5 77.5 L 4261.5 77.5 L 4261.5 877.5 L 261.5 877.5 L 261.5 77.5 Z"/></clipPath><clipPath id="mhtBNegpDfrk"><path fill="none" stroke="none" d="M 261.5 77.5 L 4261.5 77.5 L 4261.5 877.5 L 261.5 877.5 L 261.5 77.5 Z"/></clipPath><clipPath id="glFzmPlANgzD"><path fill="none" stroke="none" d="M 261.5 77.5 L 4261.5 77.5 L 4261.5 877.5 L 261.5 877.5 L 261.5 77.5 Z"/></clipPath><clipPath id="nLWFuLmMTATf"><path fill="none" stroke="none" d="M 261.5 77.5 L 4261.5 77.5 L 4261.5 877.5 L 261.5 877.5 L 261.5 77.5 Z"/></clipPath><clipPath id="vcKoReeXcFwr"><path fill="none" stroke="none" d="M 261.5 77.5 L 4261.5 77.5 L 4261.5 877.5 L 261.5 877.5 L 261.5 77.5 Z"/></clipPath><clipPath id="OrJBfgFERQMU"><path fill="none" stroke="none" d="M 261.5 77.5 L 4261.5 77.5 L 4261.5 877.5 L 261.5 877.5 L 261.5 77.5 Z"/></clipPath></defs><path fill="#ffffff" stroke="none" paint-order="stroke" d="M 0.5 0.5 L 4266.5 0.5 L 4266.5 929.5 L 0.5 929.5 L 0.5 0.5 Z" clip-path="url(#nlXpKvgRFWEq)"/><path fill="#ffffff" stroke="none" paint-order="stroke" d="M 261.5 77.5 L 4261.5 77.5 L 4261.5 877.5 L 261.5 877.5 L 261.5 77.5 Z"/><path fill="none" stroke="#e5e5e5" paint-order="fill" d="M 261.5 77.5 L 4261.5 77.5 L 4261.5 877.5 L 261.5 877.5 L 261.5 77.5 Z" stroke-linejoin="bevel" stroke-miterlimit="10"/><path fill="none" stroke="#e5e5e5" paint-order="fill" d="M 342.5 877.5 L 342.5 77.5 M 941.5 877.5 L 941.5 77.5 M 1541.5 877.5 L 1541.5 77.5 M 2141.5 877.5 L 2141.5 77.5 M 2741.5 877.5 L 2741.5 77.5 M 3340.5 877.5 L 3340.5 77.5 M 3940.5 877.5 L 3940.5 77.5" stroke-linejoin="bevel" stroke-miterlimit="10" clip-path="url(#pLuWCTWUeJog)"/><path fill="none" stroke="#e5e5e5" paint-order="fill" d="M 261.5 777.5 L 4261.5 777.5 M 261.5 577.5 L 4261.5 577.5 M 261.5 377.5 L 4261.5 377.5 M 261.5 177.5 L 4261.5 177.5" stroke-linejoin="bevel" stroke-miterlimit="10" clip-path="url(#dbIzXulLQJtk)"/><path fill="rgb(189,189,189)" stroke="rgb(189,189,189)" paint-order="fill" d="M 1787.67626953125 177.5 A 7.5 7.5 0 0 1 1772.67626953125 177.5 A 7.5 7.5 0 0 1 1787.67626953125 177.5" fill-opacity="1" clip-path="url(#hTDoOWxbheDI)" stroke-opacity="1" stroke-linejoin="bevel" stroke-miterlimit="10"/><path fill="none" stroke="#bdbdbd" paint-order="fill" d="M 443.31817626953125 177.5 L 3192.789306640625 177.5" stroke-linejoin="bevel" stroke-miterlimit="10" stroke-width="5" clip-path="url(#dcHhdiSOZxDk)"/><path fill="rgb(0,0,0)" stroke="rgb(0,0,0)" paint-order="fill" d="M 3045.07177734375 377.5 A 7.5 7.5 0 0 1 3030.07177734375 377.5 A 7.5 7.5 0 0 1 3045.07177734375 377.5" fill-opacity="1" clip-path="url(#vahPoyvvtITd)" stroke-opacity="1" stroke-linejoin="bevel" stroke-miterlimit="10"/><path fill="none" stroke="#000000" paint-order="fill" d="M 2064.216796875 377.5 L 4079.681884765625 377.5" stroke-linejoin="bevel" stroke-miterlimit="10" stroke-width="5" clip-path="url(#hhsnoboJigbx)"/><path fill="rgb(107,174,214)" stroke="rgb(107,174,214)" paint-order="fill" d="M 2777.04736328125 577.5 A 7.5 7.5 0 0 1 2762.04736328125 577.5 A 7.5 7.5 0 0 1 2777.04736328125 577.5" fill-opacity="1" clip-path="url(#mhtBNegpDfrk)" stroke-opacity="1" stroke-linejoin="bevel" stroke-miterlimit="10"/><path fill="none" stroke="#6baed6" paint-order="fill" d="M 1609.4229736328125 577.5 L 4025.64208984375 577.5" stroke-linejoin="bevel" stroke-miterlimit="10" stroke-width="5" clip-path="url(#glFzmPlANgzD)"/><path fill="rgb(8,81,156)" stroke="rgb(8,81,156)" paint-order="fill" d="M 2936.45849609375 777.5 A 7.5 7.5 0 0 1 2921.45849609375 777.5 A 7.5 7.5 0 0 1 2936.45849609375 777.5" fill-opacity="1" clip-path="url(#nLWFuLmMTATf)" stroke-opacity="1" stroke-linejoin="bevel" stroke-miterlimit="10"/><path fill="none" stroke="#08519c" paint-order="fill" d="M 1999.784912109375 777.5 L 3915.26171875 777.5" stroke-linejoin="bevel" stroke-miterlimit="10" stroke-width="5" clip-path="url(#vcKoReeXcFwr)"/><path fill="none" stroke="black" paint-order="fill" d="M 261.5 877.5 L 4261.5 877.5" stroke-linejoin="bevel" stroke-miterlimit="10"/><path fill="none" stroke="black" paint-order="fill" d="M 342.5 883.5 L 342.5 875.5 M 941.5 883.5 L 941.5 875.5 M 1541.5 883.5 L 1541.5 875.5 M 2141.5 883.5 L 2141.5 875.5 M 2741.5 883.5 L 2741.5 875.5 M 3340.5 883.5 L 3340.5 875.5 M 3940.5 883.5 L 3940.5 875.5" stroke-linejoin="bevel" stroke-miterlimit="10"/><path fill="none" stroke="black" paint-order="fill" d="M 342.5 881.5 L 342.5 877.5 M 462.5 881.5 L 462.5 877.5 M 582.5 881.5 L 582.5 877.5 M 702.5 881.5 L 702.5 877.5 M 822.5 881.5 L 822.5 877.5 M 941.5 881.5 L 941.5 877.5 M 1061.5 881.5 L 1061.5 877.5 M 1181.5 881.5 L 1181.5 877.5 M 1301.5 881.5 L 1301.5 877.5 M 1421.5 881.5 L 1421.5 877.5 M 1541.5 881.5 L 1541.5 877.5 M 1661.5 881.5 L 1661.5 877.5 M 1781.5 881.5 L 1781.5 877.5 M 1901.5 881.5 L 1901.5 877.5 M 2021.5 881.5 L 2021.5 877.5 M 2141.5 881.5 L 2141.5 877.5 M 2261.5 881.5 L 2261.5 877.5 M 2381.5 881.5 L 2381.5 877.5 M 2501.5 881.5 L 2501.5 877.5 M 2621.5 881.5 L 2621.5 877.5 M 2741.5 881.5 L 2741.5 877.5 M 2860.5 881.5 L 2860.5 877.5 M 2980.5 881.5 L 2980.5 877.5 M 3100.5 881.5 L 3100.5 877.5 M 3220.5 881.5 L 3220.5 877.5 M 3340.5 881.5 L 3340.5 877.5 M 3460.5 881.5 L 3460.5 877.5 M 3580.5 881.5 L 3580.5 877.5 M 3700.5 881.5 L 3700.5 877.5 M 3820.5 881.5 L 3820.5 877.5 M 3940.5 881.5 L 3940.5 877.5 M 4060.5 881.5 L 4060.5 877.5 M 4180.5 881.5 L 4180.5 877.5" stroke-linejoin="bevel" stroke-miterlimit="10"/><text fill="#444444" stroke="none" font-family="helvetica" font-size="40pt" font-style="normal" font-weight="normal" text-decoration="normal" x="326.9104309082031" y="926.374755859375" text-anchor="start" dominant-baseline="alphabetic" transform="matrix(1, 0, 0, 1, 0.5, 0.5)">1</text><text fill="none" stroke="rgb(0,0,0)" font-family="helvetica" font-size="40pt" font-style="normal" font-weight="normal" text-decoration="normal" x="326.9104309082031" y="926.374755859375" text-anchor="start" dominant-baseline="alphabetic" transform="matrix(1, 0, 0, 1, 0.5, 0.5)" stroke-opacity="0" stroke-linejoin="bevel" stroke-miterlimit="10">1</text><text fill="#444444" stroke="none" font-family="helvetica" font-size="40pt" font-style="normal" font-weight="normal" text-decoration="normal" x="904.2933502197266" y="926.374755859375" text-anchor="start" dominant-baseline="alphabetic" transform="matrix(1, 0, 0, 1, 0.5, 0.5)">1.2</text><text fill="none" stroke="rgb(0,0,0)" font-family="helvetica" font-size="40pt" font-style="normal" font-weight="normal" text-decoration="normal" x="904.2933502197266" y="926.374755859375" text-anchor="start" dominant-baseline="alphabetic" transform="matrix(1, 0, 0, 1, 0.5, 0.5)" stroke-opacity="0" stroke-linejoin="bevel" stroke-miterlimit="10">1.2</text><text fill="#444444" stroke="none" font-family="helvetica" font-size="40pt" font-style="normal" font-weight="normal" text-decoration="normal" x="1503.9845123291016" y="926.374755859375" text-anchor="start" dominant-baseline="alphabetic" transform="matrix(1, 0, 0, 1, 0.5, 0.5)">1.4</text><text fill="none" stroke="rgb(0,0,0)" font-family="helvetica" font-size="40pt" font-style="normal" font-weight="normal" text-decoration="normal" x="1503.9845123291016" y="926.374755859375" text-anchor="start" dominant-baseline="alphabetic" transform="matrix(1, 0, 0, 1, 0.5, 0.5)" stroke-opacity="0" stroke-linejoin="bevel" stroke-miterlimit="10">1.4</text><text fill="#444444" stroke="none" font-family="helvetica" font-size="40pt" font-style="normal" font-weight="normal" text-decoration="normal" x="2103.675796508789" y="926.374755859375" text-anchor="start" dominant-baseline="alphabetic" transform="matrix(1, 0, 0, 1, 0.5, 0.5)">1.6</text><text fill="none" stroke="rgb(0,0,0)" font-family="helvetica" font-size="40pt" font-style="normal" font-weight="normal" text-decoration="normal" x="2103.675796508789" y="926.374755859375" text-anchor="start" dominant-baseline="alphabetic" transform="matrix(1, 0, 0, 1, 0.5, 0.5)" stroke-opacity="0" stroke-linejoin="bevel" stroke-miterlimit="10">1.6</text><text fill="#444444" stroke="none" font-family="helvetica" font-size="40pt" font-style="normal" font-weight="normal" text-decoration="normal" x="2703.366958618164" y="926.374755859375" text-anchor="start" dominant-baseline="alphabetic" transform="matrix(1, 0, 0, 1, 0.5, 0.5)">1.8</text><text fill="none" stroke="rgb(0,0,0)" font-family="helvetica" font-size="40pt" font-style="normal" font-weight="normal" text-decoration="normal" x="2703.366958618164" y="926.374755859375" text-anchor="start" dominant-baseline="alphabetic" transform="matrix(1, 0, 0, 1, 0.5, 0.5)" stroke-opacity="0" stroke-linejoin="bevel" stroke-miterlimit="10">1.8</text><text fill="#444444" stroke="none" font-family="helvetica" font-size="40pt" font-style="normal" font-weight="normal" text-decoration="normal" x="3325.366455078125" y="926.374755859375" text-anchor="start" dominant-baseline="alphabetic" transform="matrix(1, 0, 0, 1, 0.5, 0.5)">2</text><text fill="none" stroke="rgb(0,0,0)" font-family="helvetica" font-size="40pt" font-style="normal" font-weight="normal" text-decoration="normal" x="3325.366455078125" y="926.374755859375" text-anchor="start" dominant-baseline="alphabetic" transform="matrix(1, 0, 0, 1, 0.5, 0.5)" stroke-opacity="0" stroke-linejoin="bevel" stroke-miterlimit="10">2</text><text fill="#444444" stroke="none" font-family="helvetica" font-size="40pt" font-style="normal" font-weight="normal" text-decoration="normal" x="3902.749282836914" y="926.374755859375" text-anchor="start" dominant-baseline="alphabetic" transform="matrix(1, 0, 0, 1, 0.5, 0.5)">2.2</text><text fill="none" stroke="rgb(0,0,0)" font-family="helvetica" font-size="40pt" font-style="normal" font-weight="normal" text-decoration="normal" x="3902.749282836914" y="926.374755859375" text-anchor="start" dominant-baseline="alphabetic" transform="matrix(1, 0, 0, 1, 0.5, 0.5)" stroke-opacity="0" stroke-linejoin="bevel" stroke-miterlimit="10">2.2</text><path fill="none" stroke="black" paint-order="fill" d="M 261.5 877.5 L 261.5 77.5" stroke-linejoin="bevel" stroke-miterlimit="10"/><path fill="none" stroke="black" paint-order="fill" d="M 255.5 777.5 L 263.5 777.5 M 255.5 577.5 L 263.5 577.5 M 255.5 377.5 L 263.5 377.5 M 255.5 177.5 L 263.5 177.5" stroke-linejoin="bevel" stroke-miterlimit="10"/><path fill="none" stroke="black" paint-order="fill" d="" stroke-linejoin="bevel" stroke-miterlimit="10"/><text fill="#444444" stroke="none" font-family="helvetica" font-size="40pt" font-style="normal" font-weight="normal" text-decoration="normal" x="32.96665954589844" y="791.5" text-anchor="start" dominant-baseline="alphabetic" transform="matrix(1, 0, 0, 1, 0.5, 0.5)">ASO_GF</text><text fill="none" stroke="rgb(0,0,0)" font-family="helvetica" font-size="40pt" font-style="normal" font-weight="normal" text-decoration="normal" x="32.96665954589844" y="791.5" text-anchor="start" dominant-baseline="alphabetic" transform="matrix(1, 0, 0, 1, 0.5, 0.5)" stroke-opacity="0" stroke-linejoin="bevel" stroke-miterlimit="10">ASO_GF</text><text fill="#444444" stroke="none" font-family="helvetica" font-size="40pt" font-style="normal" font-weight="normal" text-decoration="normal" x="62.76666259765625" y="591.5" text-anchor="start" dominant-baseline="alphabetic" transform="matrix(1, 0, 0, 1, 0.5, 0.5)">WT_GF</text><text fill="none" stroke="rgb(0,0,0)" font-family="helvetica" font-size="40pt" font-style="normal" font-weight="normal" text-decoration="normal" x="62.76666259765625" y="591.5" text-anchor="start" dominant-baseline="alphabetic" transform="matrix(1, 0, 0, 1, 0.5, 0.5)" stroke-opacity="0" stroke-linejoin="bevel" stroke-miterlimit="10">WT_GF</text><text fill="#444444" stroke="none" font-family="helvetica" font-size="40pt" font-style="normal" font-weight="normal" text-decoration="normal" x="3.2166595458984375" y="391.5" text-anchor="start" dominant-baseline="alphabetic" transform="matrix(1, 0, 0, 1, 0.5, 0.5)">ASO_SPF</text><text fill="none" stroke="rgb(0,0,0)" font-family="helvetica" font-size="40pt" font-style="normal" font-weight="normal" text-decoration="normal" x="3.2166595458984375" y="391.5" text-anchor="start" dominant-baseline="alphabetic" transform="matrix(1, 0, 0, 1, 0.5, 0.5)" stroke-opacity="0" stroke-linejoin="bevel" stroke-miterlimit="10">ASO_SPF</text><text fill="#444444" stroke="none" font-family="helvetica" font-size="40pt" font-style="normal" font-weight="normal" text-decoration="normal" x="33.01666259765625" y="191.5" text-anchor="start" dominant-baseline="alphabetic" transform="matrix(1, 0, 0, 1, 0.5, 0.5)">WT_SPF</text><text fill="none" stroke="rgb(0,0,0)" font-family="helvetica" font-size="40pt" font-style="normal" font-weight="normal" text-decoration="normal" x="33.01666259765625" y="191.5" text-anchor="start" dominant-baseline="alphabetic" transform="matrix(1, 0, 0, 1, 0.5, 0.5)" stroke-opacity="0" stroke-linejoin="bevel" stroke-miterlimit="10">WT_SPF</text><text fill="#444444" stroke="none" font-family="helvetica" font-size="48pt" font-style="normal" font-weight="bold" text-decoration="normal" x="0" y="50" text-anchor="start" dominant-baseline="alphabetic" transform="matrix(1, 0, 0, 1, 261.5, 7.5)">mu 95%CI, lognormal mixed model</text><text fill="none" stroke="rgb(0,0,0)" font-family="helvetica" font-size="48pt" font-style="normal" font-weight="bold" text-decoration="normal" x="0" y="50" text-anchor="start" dominant-baseline="alphabetic" transform="matrix(1, 0, 0, 1, 261.5, 7.5)" stroke-opacity="0" stroke-miterlimit="10" stroke-dasharray="">mu 95%CI, lognormal mixed model</text></svg>