<svg version="1.1" xmlns="http://www.w3.org/2000/svg" width="4197" height="929"><defs><clipPath id="rbMMfqleLrnA"><path fill="none" stroke="none" d="M 0.5 0.5 L 4197.5 0.5 L 4197.5 929.5 L 0.5 929.5 L 0.5 0.5 Z M 192.5 77.5 L 4192.5 77.5 L 4192.5 877.5 L 192.5 877.5 L 192.5 77.5 Z" clip-rule="evenodd"/></clipPath><clipPath id="QTvpvcmMaEGT"><path fill="none" stroke="none" d="M 192.5 77.5 L 4192.5 77.5 L 4192.5 877.5 L 192.5 877.5 L 192.5 77.5 Z"/></clipPath><clipPath id="quhRkFthiWei"><path fill="none" stroke="none" d="M 192.5 77.5 L 4192.5 77.5 L 4192.5 877.5 L 192.5 877.5 L 192.5 77.5 Z"/></clipPath><clipPath id="WPOokrFFUWuW"><path fill="none" stroke="none" d="M 192.5 77.5 L 4192.5 77.5 L 4192.5 877.5 L 192.5 877.5 L 192.5 77.5 Z"/></clipPath><clipPath id="uvioWGUPwGMw"><path fill="none" stroke="none" d="M 192.5 77.5 L 4192.5 77.5 L 4192.5 877.5 L 192.5 877.5 L 192.5 77.5 Z"/></clipPath><clipPath id="zdlcFbfyBCiV"><path fill="none" stroke="none" d="M 192.5 77.5 L 4192.5 77.5 L 4192.5 877.5 L 192.5 877.5 L 192.5 77.5 Z"/></clipPath><clipPath id="hNveZxukUZst"><path fill="none" stroke="none" d="M 192.5 77.5 L 4192.5 77.5 L 4192.5 877.5 L 192.5 877.5 L 192.5 77.5 Z"/></clipPath><clipPath id="ZiauKcSZMxet"><path fill="none" stroke="none" d="M 192.5 77.5 L 4192.5 77.5 L 4192.5 877.5 L 192.5 877.5 L 192.5 77.5 Z"/></clipPath><clipPath id="EwERdiDIKkri"><path fill="none" stroke="none" d="M 192.5 77.5 L 4192.5 77.5 L 4192.5 877.5 L 192.5 877.5 L 192.5 77.5 Z"/></clipPath><clipPath id="FJIExMrbrkbb"><path fill="none" stroke="none" d="M 192.5 77.5 L 4192.5 77.5 L 4192.5 877.5 L 192.5 877.5 L 192.5 77.5 Z"/></clipPath><clipPath id="kORkUsTKtGXe"><path fill="none" stroke="none" d="M 192.5 77.5 L 4192.5 77.5 L 4192.5 877.5 L 192.5 877.5 L 192.5 77.5 Z"/></clipPath><clipPath id="qQZLDhTJUPSZ"><path fill="none" stroke="none" d="M 192.5 77.5 L 4192.5 77.5 L 4192.5 877.5 L 192.5 877.5 L 192.5 77.5 Z"/></clipPath></defs><path fill="#ffffff" stroke="none" paint-order="stroke" d="M 0.5 0.5 L 4197.5 0.5 L 4197.5 929.5 L 0.5 929.5 L 0.5 0.5 Z" clip-path="url(#rbMMfqleLrnA)"/><path fill="#ffffff" stroke="none" paint-order="stroke" d="M 192.5 77.5 L 4192.5 77.5 L 4192.5 877.5 L 192.5 877.5 L 192.5 77.5 Z"/><path fill="none" stroke="#e5e5e5" paint-order="fill" d="M 192.5 77.5 L 4192.5 77.5 L 4192.5 877.5 L 192.5 877.5 L 192.5 77.5 Z" stroke-linejoin="bevel" stroke-miterlimit="10"/><path fill="none" stroke="#e5e5e5" paint-order="fill" d="M 213.5 877.5 L 213.5 77.5 M 1271.5 877.5 L 1271.5 77.5 M 2329.5 877.5 L 2329.5 77.5 M 3387.5 877.5 L 3387.5 77.5" stroke-linejoin="bevel" stroke-miterlimit="10" clip-path="url(#QTvpvcmMaEGT)"/><path fill="none" stroke="#e5e5e5" paint-order="fill" d="M 192.5 777.5 L 4192.5 777.5 M 192.5 577.5 L 4192.5 577.5 M 192.5 377.5 L 4192.5 377.5 M 192.5 177.5 L 4192.5 177.5" stroke-linejoin="bevel" stroke-miterlimit="10" clip-path="url(#quhRkFthiWei)"/><path fill="rgb(107,174,214)" stroke="rgb(107,174,214)" paint-order="fill" d="M 1245.91064453125 177.5 A 7.5 7.5 0 0 1 1230.91064453125 177.5 A 7.5 7.5 0 0 1 1245.91064453125 177.5" fill-opacity="1" clip-path="url(#WPOokrFFUWuW)" stroke-opacity="1" stroke-linejoin="bevel" stroke-miterlimit="10"/><path fill="none" stroke="#6baed6" paint-order="fill" d="M 574.6898803710938 177.5 L 1943.2322998046875 177.5" stroke-linejoin="bevel" stroke-miterlimit="10" stroke-width="5" clip-path="url(#uvioWGUPwGMw)"/><path fill="rgb(8,81,156)" stroke="rgb(8,81,156)" paint-order="fill" d="M 1681.1075439453125 377.5 A 7.5 7.5 0 0 1 1666.1075439453125 377.5 A 7.5 7.5 0 0 1 1681.1075439453125 377.5" fill-opacity="1" clip-path="url(#zdlcFbfyBCiV)" stroke-opacity="1" stroke-linejoin="bevel" stroke-miterlimit="10"/><path fill="none" stroke="#08519c" paint-order="fill" d="M 1135.3623046875 377.5 L 2230.2607421875 377.5" stroke-linejoin="bevel" stroke-miterlimit="10" stroke-width="5" clip-path="url(#hNveZxukUZst)"/><path fill="rgb(107,174,214)" stroke="rgb(107,174,214)" paint-order="fill" d="M 1004.663330078125 577.5 A 7.5 7.5 0 0 1 989.663330078125 577.5 A 7.5 7.5 0 0 1 1004.663330078125 577.5" fill-opacity="1" clip-path="url(#ZiauKcSZMxet)" stroke-opacity="1" stroke-linejoin="bevel" stroke-miterlimit="10"/><path fill="none" stroke="#6baed6" paint-order="fill" d="M 374.31817626953125 577.5 L 1651.2042236328125 577.5" stroke-linejoin="bevel" stroke-miterlimit="10" stroke-width="5" clip-path="url(#EwERdiDIKkri)"/><path fill="rgb(8,81,156)" stroke="rgb(8,81,156)" paint-order="fill" d="M 3217.3046875 777.5 A 7.5 7.5 0 0 1 3202.3046875 777.5 A 7.5 7.5 0 0 1 3217.3046875 777.5" fill-opacity="1" clip-path="url(#FJIExMrbrkbb)" stroke-opacity="1" stroke-linejoin="bevel" stroke-miterlimit="10"/><path fill="none" stroke="#08519c" paint-order="fill" d="M 2455.82861328125 777.5 L 4010.681884765625 777.5" stroke-linejoin="bevel" stroke-miterlimit="10" stroke-width="5" clip-path="url(#kORkUsTKtGXe)"/><path fill="none" stroke="black" paint-order="fill" d="M 192.5 877.5 L 4192.5 877.5" stroke-linejoin="bevel" stroke-miterlimit="10"/><path fill="none" stroke="black" paint-order="fill" d="M 213.5 883.5 L 213.5 875.5 M 1271.5 883.5 L 1271.5 875.5 M 2329.5 883.5 L 2329.5 875.5 M 3387.5 883.5 L 3387.5 875.5" stroke-linejoin="bevel" stroke-miterlimit="10"/><path fill="none" stroke="black" paint-order="fill" d="M 213.5 881.5 L 213.5 877.5 M 424.5 881.5 L 424.5 877.5 M 636.5 881.5 L 636.5 877.5 M 848.5 881.5 L 848.5 877.5 M 1059.5 881.5 L 1059.5 877.5 M 1271.5 881.5 L 1271.5 877.5 M 1483.5 881.5 L 1483.5 877.5 M 1694.5 881.5 L 1694.5 877.5 M 1906.5 881.5 L 1906.5 877.5 M 2117.5 881.5 L 2117.5 877.5 M 2329.5 881.5 L 2329.5 877.5 M 2541.5 881.5 L 2541.5 877.5 M 2752.5 881.5 L 2752.5 877.5 M 2964.5 881.5 L 2964.5 877.5 M 3176.5 881.5 L 3176.5 877.5 M 3387.5 881.5 L 3387.5 877.5 M 3599.5 881.5 L 3599.5 877.5 M 3810.5 881.5 L 3810.5 877.5 M 4022.5 881.5 L 4022.5 877.5" stroke-linejoin="bevel" stroke-miterlimit="10"/><text fill="#444444" stroke="none" font-family="helvetica" font-size="40pt" font-style="normal" font-weight="normal" text-decoration="normal" x="175.67236328125" y="926.374755859375" text-anchor="start" dominant-baseline="alphabetic" transform="matrix(1, 0, 0, 1, 0.5, 0.5)">1.5</text><text fill="none" stroke="rgb(0,0,0)" font-family="helvetica" font-size="40pt" font-style="normal" font-weight="normal" text-decoration="normal" x="175.67236328125" y="926.374755859375" text-anchor="start" dominant-baseline="alphabetic" transform="matrix(1, 0, 0, 1, 0.5, 0.5)" stroke-opacity="0" stroke-linejoin="bevel" stroke-miterlimit="10">1.5</text><text fill="#444444" stroke="none" font-family="helvetica" font-size="40pt" font-style="normal" font-weight="normal" text-decoration="normal" x="1256.10693359375" y="926.374755859375" text-anchor="start" dominant-baseline="alphabetic" transform="matrix(1, 0, 0, 1, 0.5, 0.5)">2</text><text fill="none" stroke="rgb(0,0,0)" font-family="helvetica" font-size="40pt" font-style="normal" font-weight="normal" text-decoration="normal" x="1256.10693359375" y="926.374755859375" text-anchor="start" dominant-baseline="alphabetic" transform="matrix(1, 0, 0, 1, 0.5, 0.5)" stroke-opacity="0" stroke-linejoin="bevel" stroke-miterlimit="10">2</text><text fill="#444444" stroke="none" font-family="helvetica" font-size="40pt" font-style="normal" font-weight="normal" text-decoration="normal" x="2291.924819946289" y="926.374755859375" text-anchor="start" dominant-baseline="alphabetic" transform="matrix(1, 0, 0, 1, 0.5, 0.5)">2.5</text><text fill="none" stroke="rgb(0,0,0)" font-family="helvetica" font-size="40pt" font-style="normal" font-weight="normal" text-decoration="normal" x="2291.924819946289" y="926.374755859375" text-anchor="start" dominant-baseline="alphabetic" transform="matrix(1, 0, 0, 1, 0.5, 0.5)" stroke-opacity="0" stroke-linejoin="bevel" stroke-miterlimit="10">2.5</text><text fill="#444444" stroke="none" font-family="helvetica" font-size="40pt" font-style="normal" font-weight="normal" text-decoration="normal" x="3372.359619140625" y="926.374755859375" text-anchor="start" dominant-baseline="alphabetic" transform="matrix(1, 0, 0, 1, 0.5, 0.5)">3</text><text fill="none" stroke="rgb(0,0,0)" font-family="helvetica" font-size="40pt" font-style="normal" font-weight="normal" text-decoration="normal" x="3372.359619140625" y="926.374755859375" text-anchor="start" dominant-baseline="alphabetic" transform="matrix(1, 0, 0, 1, 0.5, 0.5)" stroke-opacity="0" stroke-linejoin="bevel" stroke-miterlimit="10">3</text><path fill="none" stroke="black" paint-order="fill" d="M 192.5 877.5 L 192.5 77.5" stroke-linejoin="bevel" stroke-miterlimit="10"/><path fill="none" stroke="black" paint-order="fill" d="M 186.5 777.5 L 194.5 777.5 M 186.5 577.5 L 194.5 577.5 M 186.5 377.5 L 194.5 377.5 M 186.5 177.5 L 194.5 177.5" stroke-linejoin="bevel" stroke-miterlimit="10"/><path fill="none" stroke="black" paint-order="fill" d="" stroke-linejoin="bevel" stroke-miterlimit="10"/><text fill="#444444" stroke="none" font-family="helvetica" font-size="40pt" font-style="normal" font-weight="normal" text-decoration="normal" x="2.5833282470703125" y="791.5" text-anchor="start" dominant-baseline="alphabetic" transform="matrix(1, 0, 0, 1, 0.5, 0.5)">ASO_A</text><text fill="none" stroke="rgb(0,0,0)" font-family="helvetica" font-size="40pt" font-style="normal" font-weight="normal" text-decoration="normal" x="2.5833282470703125" y="791.5" text-anchor="start" dominant-baseline="alphabetic" transform="matrix(1, 0, 0, 1, 0.5, 0.5)" stroke-opacity="0" stroke-linejoin="bevel" stroke-miterlimit="10">ASO_A</text><text fill="#444444" stroke="none" font-family="helvetica" font-size="40pt" font-style="normal" font-weight="normal" text-decoration="normal" x="32.383331298828125" y="591.5" text-anchor="start" dominant-baseline="alphabetic" transform="matrix(1, 0, 0, 1, 0.5, 0.5)">WT_A</text><text fill="none" stroke="rgb(0,0,0)" font-family="helvetica" font-size="40pt" font-style="normal" font-weight="normal" text-decoration="normal" x="32.383331298828125" y="591.5" text-anchor="start" dominant-baseline="alphabetic" transform="matrix(1, 0, 0, 1, 0.5, 0.5)" stroke-opacity="0" stroke-linejoin="bevel" stroke-miterlimit="10">WT_A</text><text fill="#444444" stroke="none" font-family="helvetica" font-size="40pt" font-style="normal" font-weight="normal" text-decoration="normal" x="2.5833282470703125" y="391.5" text-anchor="start" dominant-baseline="alphabetic" transform="matrix(1, 0, 0, 1, 0.5, 0.5)">ASO_V</text><text fill="none" stroke="rgb(0,0,0)" font-family="helvetica" font-size="40pt" font-style="normal" font-weight="normal" text-decoration="normal" x="2.5833282470703125" y="391.5" text-anchor="start" dominant-baseline="alphabetic" transform="matrix(1, 0, 0, 1, 0.5, 0.5)" stroke-opacity="0" stroke-linejoin="bevel" stroke-miterlimit="10">ASO_V</text><text fill="#444444" stroke="none" font-family="helvetica" font-size="40pt" font-style="normal" font-weight="normal" text-decoration="normal" x="32.383331298828125" y="191.5" text-anchor="start" dominant-baseline="alphabetic" transform="matrix(1, 0, 0, 1, 0.5, 0.5)">WT_V</text><text fill="none" stroke="rgb(0,0,0)" font-family="helvetica" font-size="40pt" font-style="normal" font-weight="normal" text-decoration="normal" x="32.383331298828125" y="191.5" text-anchor="start" dominant-baseline="alphabetic" transform="matrix(1, 0, 0, 1, 0.5, 0.5)" stroke-opacity="0" stroke-linejoin="bevel" stroke-miterlimit="10">WT_V</text><text fill="#444444" stroke="none" font-family="helvetica" font-size="48pt" font-style="normal" font-weight="bold" text-decoration="normal" x="0" y="50" text-anchor="start" dominant-baseline="alphabetic" transform="matrix(1, 0, 0, 1, 192.5, 7.5)">mu 95%CI, lognormal mixed model</text><text fill="none" stroke="rgb(0,0,0)" font-family="helvetica" font-size="48pt" font-style="normal" font-weight="bold" text-decoration="normal" x="0" y="50" text-anchor="start" dominant-baseline="alphabetic" transform="matrix(1, 0, 0, 1, 192.5, 7.5)" stroke-opacity="0" stroke-miterlimit="10" stroke-dasharray="">mu 95%CI, lognormal mixed model</text></svg>