<?xml version="1.0" encoding="UTF-8"?>
<svg id="Layer_1" xmlns="http://www.w3.org/2000/svg" xmlns:xlink="http://www.w3.org/1999/xlink" version="1.1" viewBox="0 0 4197 929">
  <!-- Generator: Adobe Illustrator 29.6.1, SVG Export Plug-In . SVG Version: 2.1.1 Build 9)  -->
  <defs>
    <style>
      .st0, .st1, .st2, .st3, .st4 {
        fill: none;
      }

      .st5 {
        fill: #08519c;
      }

      .st5, .st1, .st2, .st3, .st4, .st6 {
        stroke-linejoin: bevel;
      }

      .st5, .st2 {
        stroke: #08519c;
      }

      .st1, .st2 {
        stroke-width: 5px;
      }

      .st1, .st6 {
        stroke: #6baed6;
      }

      .st7 {
        clip-path: url(#clippath-1);
      }

      .st8 {
        clip-path: url(#clippath-3);
      }

      .st9 {
        clip-path: url(#clippath-4);
      }

      .st10 {
        clip-path: url(#clippath-2);
      }

      .st11 {
        clip-path: url(#clippath-7);
      }

      .st12 {
        clip-path: url(#clippath-6);
      }

      .st13 {
        clip-path: url(#clippath-9);
      }

      .st14 {
        clip-path: url(#clippath-8);
      }

      .st15 {
        clip-path: url(#clippath-5);
      }

      .st16 {
        fill: #fff;
      }

      .st3 {
        stroke: #e5e5e5;
      }

      .st4 {
        stroke: #000;
      }

      .st6 {
        fill: #6baed6;
      }

      .st17 {
        clip-path: url(#clippath);
      }
    </style>
    <clipPath id="clippath">
      <rect class="st0" x="192.5" y="77.5" width="4000" height="800"/>
    </clipPath>
    <clipPath id="clippath-1">
      <rect class="st0" x="192.5" y="77.5" width="4000" height="800"/>
    </clipPath>
    <clipPath id="clippath-2">
      <rect class="st0" x="192.5" y="77.5" width="4000" height="800"/>
    </clipPath>
    <clipPath id="clippath-3">
      <rect class="st0" x="192.5" y="77.5" width="4000" height="800"/>
    </clipPath>
    <clipPath id="clippath-4">
      <rect class="st0" x="192.5" y="77.5" width="4000" height="800"/>
    </clipPath>
    <clipPath id="clippath-5">
      <rect class="st0" x="192.5" y="77.5" width="4000" height="800"/>
    </clipPath>
    <clipPath id="clippath-6">
      <rect class="st0" x="192.5" y="77.5" width="4000" height="800"/>
    </clipPath>
    <clipPath id="clippath-7">
      <rect class="st0" x="192.5" y="77.5" width="4000" height="800"/>
    </clipPath>
    <clipPath id="clippath-8">
      <rect class="st0" x="192.5" y="77.5" width="4000" height="800"/>
    </clipPath>
    <clipPath id="clippath-9">
      <rect class="st0" x="192.5" y="77.5" width="4000" height="800"/>
    </clipPath>
  </defs>
  <path class="st16" d="M192.5,77.5h4000v800H192.5V77.5Z"/>
  <path class="st3" d="M192.5,77.5h4000v800H192.5V77.5Z"/>
  <g class="st17">
    <path class="st3" d="M709.5,877.5V77.5M1369.5,877.5V77.5M2029.5,877.5V77.5M2690.5,877.5V77.5M3350.5,877.5V77.5M4010.5,877.5V77.5"/>
  </g>
  <g class="st7">
    <path class="st3" d="M192.5,777.5h4000M192.5,577.5h4000M192.5,377.5h4000M192.5,177.5h4000"/>
  </g>
  <g class="st10">
    <path class="st6" d="M3580.5,177.5c0,4.14-3.36,7.5-7.5,7.5s-7.5-3.36-7.5-7.5,3.36-7.5,7.5-7.5,7.5,3.36,7.5,7.5"/>
  </g>
  <g class="st8">
    <path class="st1" d="M2690.23,177.5h1320.45"/>
  </g>
  <g class="st9">
    <path class="st5" d="M3418.48,377.5c0,4.14-3.36,7.5-7.5,7.5s-7.5-3.36-7.5-7.5,3.36-7.5,7.5-7.5,7.5,3.36,7.5,7.5"/>
  </g>
  <g class="st15">
    <path class="st2" d="M2210.54,377.5h1800.14"/>
  </g>
  <g class="st12">
    <path class="st6" d="M3310.83,577.5c0,4.14-3.36,7.5-7.5,7.5s-7.5-3.36-7.5-7.5,3.36-7.5,7.5-7.5,7.5,3.36,7.5,7.5"/>
  </g>
  <g class="st11">
    <path class="st1" d="M1676.92,577.5h2333.76"/>
  </g>
  <g class="st14">
    <path class="st5" d="M2584.77,777.5c0,4.14-3.36,7.5-7.5,7.5s-7.5-3.36-7.5-7.5,3.36-7.5,7.5-7.5,7.5,3.36,7.5,7.5"/>
  </g>
  <g class="st13">
    <path class="st2" d="M374.32,777.5h3636.36"/>
  </g>
  <path class="st4" d="M192.5,877.5h4000"/>
  <path class="st4" d="M709.5,883.5v-8M1369.5,883.5v-8M2029.5,883.5v-8M2690.5,883.5v-8M3350.5,883.5v-8M4010.5,883.5v-8"/>
  <path class="st4" d="M577.5,881.5v-4M445.5,881.5v-4M313.5,881.5v-4M709.5,881.5v-4M841.5,881.5v-4M973.5,881.5v-4M1105.5,881.5v-4M1237.5,881.5v-4M1369.5,881.5v-4M1501.5,881.5v-4M1633.5,881.5v-4M1765.5,881.5v-4M1897.5,881.5v-4M2029.5,881.5v-4M2162.5,881.5v-4M2294.5,881.5v-4M2426.5,881.5v-4M2558.5,881.5v-4M2690.5,881.5v-4M2822.5,881.5v-4M2954.5,881.5v-4M3086.5,881.5v-4M3218.5,881.5v-4M3350.5,881.5v-4M3482.5,881.5v-4M3614.5,881.5v-4M3746.5,881.5v-4M3878.5,881.5v-4M4010.5,881.5v-4M4142.5,881.5v-4"/>
  <path class="st4" d="M192.5,877.5V77.5"/>
</svg>