<svg version="1.1" xmlns="http://www.w3.org/2000/svg" width="4197" height="938"><defs><clipPath id="dIGblJOTwVPm"><path fill="none" stroke="none" d="M 192.5 86.5 L 4192.5 86.5 L 4192.5 886.5 L 192.5 886.5 L 192.5 86.5 Z"/></clipPath><clipPath id="yAvuduZcedTH"><path fill="none" stroke="none" d="M 192.5 86.5 L 4192.5 86.5 L 4192.5 886.5 L 192.5 886.5 L 192.5 86.5 Z"/></clipPath><clipPath id="WycNGzLhcNhm"><path fill="none" stroke="none" d="M 192.5 86.5 L 4192.5 86.5 L 4192.5 886.5 L 192.5 886.5 L 192.5 86.5 Z"/></clipPath><clipPath id="DZJlfLbIWWNd"><path fill="none" stroke="none" d="M 192.5 86.5 L 4192.5 86.5 L 4192.5 886.5 L 192.5 886.5 L 192.5 86.5 Z"/></clipPath><clipPath id="lcmDOAhAUlql"><path fill="none" stroke="none" d="M 192.5 86.5 L 4192.5 86.5 L 4192.5 886.5 L 192.5 886.5 L 192.5 86.5 Z"/></clipPath><clipPath id="nWfKpurFAcyh"><path fill="none" stroke="none" d="M 192.5 86.5 L 4192.5 86.5 L 4192.5 886.5 L 192.5 886.5 L 192.5 86.5 Z"/></clipPath><clipPath id="WHZgrLLsKLwB"><path fill="none" stroke="none" d="M 192.5 86.5 L 4192.5 86.5 L 4192.5 886.5 L 192.5 886.5 L 192.5 86.5 Z"/></clipPath><clipPath id="fGtVDMIXtdPg"><path fill="none" stroke="none" d="M 192.5 86.5 L 4192.5 86.5 L 4192.5 886.5 L 192.5 886.5 L 192.5 86.5 Z"/></clipPath><clipPath id="oUrCyzpdxZSZ"><path fill="none" stroke="none" d="M 192.5 86.5 L 4192.5 86.5 L 4192.5 886.5 L 192.5 886.5 L 192.5 86.5 Z"/></clipPath><clipPath id="AFtBHGustrGT"><path fill="none" stroke="none" d="M 192.5 86.5 L 4192.5 86.5 L 4192.5 886.5 L 192.5 886.5 L 192.5 86.5 Z"/></clipPath><clipPath id="NohVPaiuKhlq"><path fill="none" stroke="none" d="M 192.5 86.5 L 4192.5 86.5 L 4192.5 886.5 L 192.5 886.5 L 192.5 86.5 Z"/></clipPath></defs><path fill="rgb(255,255,255)" stroke="none" paint-order="stroke" d="M 0.5 0.5 L 4197.5 0.5 L 4197.5 938.5 L 0.5 938.5 L 0.5 0.5 Z" fill-opacity="1"/><rect fill="#FFFFFF" stroke="none" x="192" y="86" width="4000" height="800" transform="matrix(1, 0, 0, 1, 0.5, 0.5)"/><path fill="rgb(255,255,255)" stroke="none" paint-order="stroke" d="M 192.5 86.5 L 4192.5 86.5 L 4192.5 886.5 L 192.5 886.5 L 192.5 86.5 Z" fill-opacity="1"/><path fill="none" stroke="rgb(229,229,229)" paint-order="fill" d="M 192.5 86.5 L 4192.5 86.5 L 4192.5 886.5 L 192.5 886.5 L 192.5 86.5 Z" stroke-opacity="1" stroke-linejoin="bevel" stroke-miterlimit="10"/><path fill="none" stroke="rgb(229,229,229)" paint-order="fill" d="M 240.5 886.5 L 240.5 86.5 M 1000.5 886.5 L 1000.5 86.5 M 1760.5 886.5 L 1760.5 86.5 M 2520.5 886.5 L 2520.5 86.5 M 3280.5 886.5 L 3280.5 86.5 M 4040.5 886.5 L 4040.5 86.5" stroke-opacity="1" stroke-linejoin="bevel" stroke-miterlimit="10" clip-path="url(#dIGblJOTwVPm)"/><path fill="none" stroke="rgb(229,229,229)" paint-order="fill" d="M 192.5 786.5 L 4192.5 786.5 M 192.5 586.5 L 4192.5 586.5 M 192.5 386.5 L 4192.5 386.5 M 192.5 186.5 L 4192.5 186.5" stroke-opacity="1" stroke-linejoin="bevel" stroke-miterlimit="10" clip-path="url(#yAvuduZcedTH)"/><path fill="rgb(107,174,214)" stroke="rgb(107,174,214)" paint-order="fill" d="M 1203.0360107421875 186.5 A 7.5 7.5 0 0 1 1188.0360107421875 186.5 A 7.5 7.5 0 0 1 1203.0360107421875 186.5" fill-opacity="1" clip-path="url(#WycNGzLhcNhm)" stroke-opacity="1" stroke-linejoin="bevel" stroke-miterlimit="10"/><path fill="none" stroke="rgb(107,174,214)" paint-order="fill" d="M 616.0499877929688 186.5 L 1697.447021484375 186.5" stroke-opacity="1" stroke-linejoin="bevel" stroke-miterlimit="10" stroke-width="5" clip-path="url(#DZJlfLbIWWNd)"/><path fill="rgb(8,81,156)" stroke="rgb(8,81,156)" paint-order="fill" d="M 1006.4841918945312 386.5 A 7.5 7.5 0 0 1 991.4841918945312 386.5 A 7.5 7.5 0 0 1 1006.4841918945312 386.5" fill-opacity="1" clip-path="url(#lcmDOAhAUlql)" stroke-opacity="1" stroke-linejoin="bevel" stroke-miterlimit="10"/><path fill="none" stroke="rgb(8,81,156)" paint-order="fill" d="M 377.8553466796875 386.5 L 1579.9425048828125 386.5" stroke-opacity="1" stroke-linejoin="bevel" stroke-miterlimit="10" stroke-width="5" clip-path="url(#nWfKpurFAcyh)"/><path fill="rgb(107,174,214)" stroke="rgb(107,174,214)" paint-order="fill" d="M 2766.855712890625 586.5 A 7.5 7.5 0 0 1 2751.855712890625 586.5 A 7.5 7.5 0 0 1 2766.855712890625 586.5" fill-opacity="1" clip-path="url(#WHZgrLLsKLwB)" stroke-opacity="1" stroke-linejoin="bevel" stroke-miterlimit="10"/><path fill="none" stroke="rgb(107,174,214)" paint-order="fill" d="M 1568.2230224609375 586.5 L 4010.681884765625 586.5" stroke-opacity="1" stroke-linejoin="bevel" stroke-miterlimit="10" stroke-width="5" clip-path="url(#fGtVDMIXtdPg)"/><path fill="rgb(8,81,156)" stroke="rgb(8,81,156)" paint-order="fill" d="M 1226.020263671875 786.5 A 7.5 7.5 0 0 1 1211.020263671875 786.5 A 7.5 7.5 0 0 1 1226.020263671875 786.5" fill-opacity="1" clip-path="url(#oUrCyzpdxZSZ)" stroke-opacity="1" stroke-linejoin="bevel" stroke-miterlimit="10"/><path fill="none" stroke="rgb(8,81,156)" paint-order="fill" d="M 374.31817626953125 786.5 L 2009.0120849609375 786.5" stroke-opacity="1" stroke-linejoin="bevel" stroke-miterlimit="10" stroke-width="5" clip-path="url(#AFtBHGustrGT)"/><path fill="none" stroke="rgb(0,0,0)" paint-order="fill" d="M 192.5 886.5 L 4192.5 886.5" stroke-opacity="1" stroke-linejoin="bevel" stroke-miterlimit="10"/><path fill="none" stroke="rgb(0,0,0)" paint-order="fill" d="M 240.5 892.5 L 240.5 884.5 M 1000.5 892.5 L 1000.5 884.5 M 1760.5 892.5 L 1760.5 884.5 M 2520.5 892.5 L 2520.5 884.5 M 3280.5 892.5 L 3280.5 884.5 M 4040.5 892.5 L 4040.5 884.5" stroke-opacity="1" stroke-linejoin="bevel" stroke-miterlimit="10"/><path fill="none" stroke="rgb(0,0,0)" paint-order="fill" d="M 240.5 890.5 L 240.5 886.5 M 392.5 890.5 L 392.5 886.5 M 544.5 890.5 L 544.5 886.5 M 696.5 890.5 L 696.5 886.5 M 848.5 890.5 L 848.5 886.5 M 1000.5 890.5 L 1000.5 886.5 M 1152.5 890.5 L 1152.5 886.5 M 1304.5 890.5 L 1304.5 886.5 M 1456.5 890.5 L 1456.5 886.5 M 1608.5 890.5 L 1608.5 886.5 M 1760.5 890.5 L 1760.5 886.5 M 1912.5 890.5 L 1912.5 886.5 M 2064.5 890.5 L 2064.5 886.5 M 2216.5 890.5 L 2216.5 886.5 M 2368.5 890.5 L 2368.5 886.5 M 2520.5 890.5 L 2520.5 886.5 M 2672.5 890.5 L 2672.5 886.5 M 2824.5 890.5 L 2824.5 886.5 M 2976.5 890.5 L 2976.5 886.5 M 3128.5 890.5 L 3128.5 886.5 M 3280.5 890.5 L 3280.5 886.5 M 3432.5 890.5 L 3432.5 886.5 M 3584.5 890.5 L 3584.5 886.5 M 3736.5 890.5 L 3736.5 886.5 M 3888.5 890.5 L 3888.5 886.5 M 4040.5 890.5 L 4040.5 886.5" stroke-opacity="1" stroke-linejoin="bevel" stroke-miterlimit="10"/><text fill="rgb(68,68,68)" stroke="none" font-family="helvetica" font-size="40pt" font-style="normal" font-weight="normal" text-decoration="normal" x="202.90399169921875" y="935.2528190612793" text-anchor="start" dominant-baseline="alphabetic" transform="matrix(1, 0, 0, 1, 0.5, 0.5)" fill-opacity="1">0.4</text><text fill="none" stroke="rgb(0,0,0)" font-family="helvetica" font-size="40pt" font-style="normal" font-weight="normal" text-decoration="normal" x="202.90399169921875" y="935.2528190612793" text-anchor="start" dominant-baseline="alphabetic" transform="matrix(1, 0, 0, 1, 0.5, 0.5)" stroke-opacity="0" stroke-linejoin="bevel" stroke-miterlimit="10">0.4</text><text fill="rgb(68,68,68)" stroke="none" font-family="helvetica" font-size="40pt" font-style="normal" font-weight="normal" text-decoration="normal" x="962.9962310791016" y="935.2528190612793" text-anchor="start" dominant-baseline="alphabetic" transform="matrix(1, 0, 0, 1, 0.5, 0.5)" fill-opacity="1">0.6</text><text fill="none" stroke="rgb(0,0,0)" font-family="helvetica" font-size="40pt" font-style="normal" font-weight="normal" text-decoration="normal" x="962.9962310791016" y="935.2528190612793" text-anchor="start" dominant-baseline="alphabetic" transform="matrix(1, 0, 0, 1, 0.5, 0.5)" stroke-opacity="0" stroke-linejoin="bevel" stroke-miterlimit="10">0.6</text><text fill="rgb(68,68,68)" stroke="none" font-family="helvetica" font-size="40pt" font-style="normal" font-weight="normal" text-decoration="normal" x="1723.0885162353516" y="935.2528190612793" text-anchor="start" dominant-baseline="alphabetic" transform="matrix(1, 0, 0, 1, 0.5, 0.5)" fill-opacity="1">0.8</text><text fill="none" stroke="rgb(0,0,0)" font-family="helvetica" font-size="40pt" font-style="normal" font-weight="normal" text-decoration="normal" x="1723.0885162353516" y="935.2528190612793" text-anchor="start" dominant-baseline="alphabetic" transform="matrix(1, 0, 0, 1, 0.5, 0.5)" stroke-opacity="0" stroke-linejoin="bevel" stroke-miterlimit="10">0.8</text><text fill="rgb(68,68,68)" stroke="none" font-family="helvetica" font-size="40pt" font-style="normal" font-weight="normal" text-decoration="normal" x="2505.4189834594727" y="935.2528190612793" text-anchor="start" dominant-baseline="alphabetic" transform="matrix(1, 0, 0, 1, 0.5, 0.5)" fill-opacity="1">1</text><text fill="none" stroke="rgb(0,0,0)" font-family="helvetica" font-size="40pt" font-style="normal" font-weight="normal" text-decoration="normal" x="2505.4189834594727" y="935.2528190612793" text-anchor="start" dominant-baseline="alphabetic" transform="matrix(1, 0, 0, 1, 0.5, 0.5)" stroke-opacity="0" stroke-linejoin="bevel" stroke-miterlimit="10">1</text><text fill="rgb(68,68,68)" stroke="none" font-family="helvetica" font-size="40pt" font-style="normal" font-weight="normal" text-decoration="normal" x="3243.2728424072266" y="935.2528190612793" text-anchor="start" dominant-baseline="alphabetic" transform="matrix(1, 0, 0, 1, 0.5, 0.5)" fill-opacity="1">1.2</text><text fill="none" stroke="rgb(0,0,0)" font-family="helvetica" font-size="40pt" font-style="normal" font-weight="normal" text-decoration="normal" x="3243.2728424072266" y="935.2528190612793" text-anchor="start" dominant-baseline="alphabetic" transform="matrix(1, 0, 0, 1, 0.5, 0.5)" stroke-opacity="0" stroke-linejoin="bevel" stroke-miterlimit="10">1.2</text><text fill="rgb(68,68,68)" stroke="none" font-family="helvetica" font-size="40pt" font-style="normal" font-weight="normal" text-decoration="normal" x="4003.3651275634766" y="935.2528190612793" text-anchor="start" dominant-baseline="alphabetic" transform="matrix(1, 0, 0, 1, 0.5, 0.5)" fill-opacity="1">1.4</text><text fill="none" stroke="rgb(0,0,0)" font-family="helvetica" font-size="40pt" font-style="normal" font-weight="normal" text-decoration="normal" x="4003.3651275634766" y="935.2528190612793" text-anchor="start" dominant-baseline="alphabetic" transform="matrix(1, 0, 0, 1, 0.5, 0.5)" stroke-opacity="0" stroke-linejoin="bevel" stroke-miterlimit="10">1.4</text><path fill="none" stroke="rgb(0,0,0)" paint-order="fill" d="M 192.5 886.5 L 192.5 86.5" stroke-opacity="1" stroke-linejoin="bevel" stroke-miterlimit="10"/><path fill="none" stroke="rgb(0,0,0)" paint-order="fill" d="M 186.5 786.5 L 194.5 786.5 M 186.5 586.5 L 194.5 586.5 M 186.5 386.5 L 194.5 386.5 M 186.5 186.5 L 194.5 186.5" stroke-opacity="1" stroke-linejoin="bevel" stroke-miterlimit="10"/><path fill="none" stroke="rgb(0,0,0)" paint-order="fill" d="" stroke-opacity="1" stroke-linejoin="bevel" stroke-miterlimit="10"/><text fill="rgb(68,68,68)" stroke="none" font-family="helvetica" font-size="40pt" font-style="normal" font-weight="normal" text-decoration="normal" x="3.14654541015625" y="804.5" text-anchor="start" dominant-baseline="alphabetic" transform="matrix(1, 0, 0, 1, 0.5, 0.5)" fill-opacity="1">ASO_A</text><text fill="none" stroke="rgb(0,0,0)" font-family="helvetica" font-size="40pt" font-style="normal" font-weight="normal" text-decoration="normal" x="3.14654541015625" y="804.5" text-anchor="start" dominant-baseline="alphabetic" transform="matrix(1, 0, 0, 1, 0.5, 0.5)" stroke-opacity="0" stroke-linejoin="bevel" stroke-miterlimit="10">ASO_A</text><text fill="rgb(68,68,68)" stroke="none" font-family="helvetica" font-size="40pt" font-style="normal" font-weight="normal" text-decoration="normal" x="32.858245849609375" y="604.5" text-anchor="start" dominant-baseline="alphabetic" transform="matrix(1, 0, 0, 1, 0.5, 0.5)" fill-opacity="1">WT_A</text><text fill="none" stroke="rgb(0,0,0)" font-family="helvetica" font-size="40pt" font-style="normal" font-weight="normal" text-decoration="normal" x="32.858245849609375" y="604.5" text-anchor="start" dominant-baseline="alphabetic" transform="matrix(1, 0, 0, 1, 0.5, 0.5)" stroke-opacity="0" stroke-linejoin="bevel" stroke-miterlimit="10">WT_A</text><text fill="rgb(68,68,68)" stroke="none" font-family="helvetica" font-size="40pt" font-style="normal" font-weight="normal" text-decoration="normal" x="3.14654541015625" y="404.5" text-anchor="start" dominant-baseline="alphabetic" transform="matrix(1, 0, 0, 1, 0.5, 0.5)" fill-opacity="1">ASO_V</text><text fill="none" stroke="rgb(0,0,0)" font-family="helvetica" font-size="40pt" font-style="normal" font-weight="normal" text-decoration="normal" x="3.14654541015625" y="404.5" text-anchor="start" dominant-baseline="alphabetic" transform="matrix(1, 0, 0, 1, 0.5, 0.5)" stroke-opacity="0" stroke-linejoin="bevel" stroke-miterlimit="10">ASO_V</text><text fill="rgb(68,68,68)" stroke="none" font-family="helvetica" font-size="40pt" font-style="normal" font-weight="normal" text-decoration="normal" x="32.858245849609375" y="204.5" text-anchor="start" dominant-baseline="alphabetic" transform="matrix(1, 0, 0, 1, 0.5, 0.5)" fill-opacity="1">WT_V</text><text fill="none" stroke="rgb(0,0,0)" font-family="helvetica" font-size="40pt" font-style="normal" font-weight="normal" text-decoration="normal" x="32.858245849609375" y="204.5" text-anchor="start" dominant-baseline="alphabetic" transform="matrix(1, 0, 0, 1, 0.5, 0.5)" stroke-opacity="0" stroke-linejoin="bevel" stroke-miterlimit="10">WT_V</text><text fill="rgb(68,68,68)" stroke="none" font-family="helvetica" font-size="48pt" font-style="normal" font-weight="bold" text-decoration="normal" x="192" y="66" text-anchor="start" dominant-baseline="alphabetic" transform="matrix(1, 0, 0, 1, 0.5, 0.5)" fill-opacity="1">sigma 95%CI, lognormal mixed model</text><text fill="none" stroke="rgb(0,0,0)" font-family="helvetica" font-size="48pt" font-style="normal" font-weight="bold" text-decoration="normal" x="192" y="66" text-anchor="start" dominant-baseline="alphabetic" transform="matrix(1, 0, 0, 1, 0.5, 0.5)" stroke-opacity="0" stroke-miterlimit="10" stroke-dasharray="">sigma 95%CI, lognormal mixed model</text></svg>