<svg version="1.1" xmlns="http://www.w3.org/2000/svg" width="4197" height="929"><defs><clipPath id="vJQVitzbHEtS"><path fill="none" stroke="none" d="M 0.5 0.5 L 4197.5 0.5 L 4197.5 929.5 L 0.5 929.5 L 0.5 0.5 Z M 192.5 77.5 L 4192.5 77.5 L 4192.5 877.5 L 192.5 877.5 L 192.5 77.5 Z" clip-rule="evenodd"/></clipPath><clipPath id="iaoVuPmekEgI"><path fill="none" stroke="none" d="M 192.5 77.5 L 4192.5 77.5 L 4192.5 877.5 L 192.5 877.5 L 192.5 77.5 Z"/></clipPath><clipPath id="NzHkSfQBMLLl"><path fill="none" stroke="none" d="M 192.5 77.5 L 4192.5 77.5 L 4192.5 877.5 L 192.5 877.5 L 192.5 77.5 Z"/></clipPath><clipPath id="ctovLFDhngPS"><path fill="none" stroke="none" d="M 192.5 77.5 L 4192.5 77.5 L 4192.5 877.5 L 192.5 877.5 L 192.5 77.5 Z"/></clipPath><clipPath id="VrszfvwNObRy"><path fill="none" stroke="none" d="M 192.5 77.5 L 4192.5 77.5 L 4192.5 877.5 L 192.5 877.5 L 192.5 77.5 Z"/></clipPath><clipPath id="CCssxxBKrKmp"><path fill="none" stroke="none" d="M 192.5 77.5 L 4192.5 77.5 L 4192.5 877.5 L 192.5 877.5 L 192.5 77.5 Z"/></clipPath><clipPath id="TnsLCgMLbEMo"><path fill="none" stroke="none" d="M 192.5 77.5 L 4192.5 77.5 L 4192.5 877.5 L 192.5 877.5 L 192.5 77.5 Z"/></clipPath><clipPath id="hwSOziJuvIZr"><path fill="none" stroke="none" d="M 192.5 77.5 L 4192.5 77.5 L 4192.5 877.5 L 192.5 877.5 L 192.5 77.5 Z"/></clipPath><clipPath id="NHbClkHGwzai"><path fill="none" stroke="none" d="M 192.5 77.5 L 4192.5 77.5 L 4192.5 877.5 L 192.5 877.5 L 192.5 77.5 Z"/></clipPath><clipPath id="ZHcfnUSByoGs"><path fill="none" stroke="none" d="M 192.5 77.5 L 4192.5 77.5 L 4192.5 877.5 L 192.5 877.5 L 192.5 77.5 Z"/></clipPath><clipPath id="bOGkKKeeUeuz"><path fill="none" stroke="none" d="M 192.5 77.5 L 4192.5 77.5 L 4192.5 877.5 L 192.5 877.5 L 192.5 77.5 Z"/></clipPath><clipPath id="NlwTnfrkkmtc"><path fill="none" stroke="none" d="M 192.5 77.5 L 4192.5 77.5 L 4192.5 877.5 L 192.5 877.5 L 192.5 77.5 Z"/></clipPath></defs><path fill="#ffffff" stroke="none" paint-order="stroke" d="M 0.5 0.5 L 4197.5 0.5 L 4197.5 929.5 L 0.5 929.5 L 0.5 0.5 Z" clip-path="url(#vJQVitzbHEtS)"/><path fill="#ffffff" stroke="none" paint-order="stroke" d="M 192.5 77.5 L 4192.5 77.5 L 4192.5 877.5 L 192.5 877.5 L 192.5 77.5 Z"/><path fill="none" stroke="#e5e5e5" paint-order="fill" d="M 192.5 77.5 L 4192.5 77.5 L 4192.5 877.5 L 192.5 877.5 L 192.5 77.5 Z" stroke-linejoin="bevel" stroke-miterlimit="10"/><path fill="none" stroke="#e5e5e5" paint-order="fill" d="M 250.5 877.5 L 250.5 77.5 M 761.5 877.5 L 761.5 77.5 M 1273.5 877.5 L 1273.5 77.5 M 1784.5 877.5 L 1784.5 77.5 M 2296.5 877.5 L 2296.5 77.5 M 2807.5 877.5 L 2807.5 77.5 M 3318.5 877.5 L 3318.5 77.5 M 3830.5 877.5 L 3830.5 77.5" stroke-linejoin="bevel" stroke-miterlimit="10" clip-path="url(#iaoVuPmekEgI)"/><path fill="none" stroke="#e5e5e5" paint-order="fill" d="M 192.5 777.5 L 4192.5 777.5 M 192.5 577.5 L 4192.5 577.5 M 192.5 377.5 L 4192.5 377.5 M 192.5 177.5 L 4192.5 177.5" stroke-linejoin="bevel" stroke-miterlimit="10" clip-path="url(#NzHkSfQBMLLl)"/><path fill="rgb(107,174,214)" stroke="rgb(107,174,214)" paint-order="fill" d="M 1517.298095703125 177.5 A 7.5 7.5 0 0 1 1502.298095703125 177.5 A 7.5 7.5 0 0 1 1517.298095703125 177.5" fill-opacity="1" clip-path="url(#ctovLFDhngPS)" stroke-opacity="1" stroke-linejoin="bevel" stroke-miterlimit="10"/><path fill="none" stroke="#6baed6" paint-order="fill" d="M 776.3610229492188 177.5 L 2105.16455078125 177.5" stroke-linejoin="bevel" stroke-miterlimit="10" stroke-width="5" clip-path="url(#VrszfvwNObRy)"/><path fill="rgb(8,81,156)" stroke="rgb(8,81,156)" paint-order="fill" d="M 1023.3729248046875 377.5 A 7.5 7.5 0 0 1 1008.3729248046875 377.5 A 7.5 7.5 0 0 1 1023.3729248046875 377.5" fill-opacity="1" clip-path="url(#CCssxxBKrKmp)" stroke-opacity="1" stroke-linejoin="bevel" stroke-miterlimit="10"/><path fill="none" stroke="#08519c" paint-order="fill" d="M 374.31817626953125 377.5 L 1504.9425048828125 377.5" stroke-linejoin="bevel" stroke-miterlimit="10" stroke-width="5" clip-path="url(#TnsLCgMLbEMo)"/><path fill="rgb(107,174,214)" stroke="rgb(107,174,214)" paint-order="fill" d="M 2654.529296875 577.5 A 7.5 7.5 0 0 1 2639.529296875 577.5 A 7.5 7.5 0 0 1 2654.529296875 577.5" fill-opacity="1" clip-path="url(#hwSOziJuvIZr)" stroke-opacity="1" stroke-linejoin="bevel" stroke-miterlimit="10"/><path fill="none" stroke="#6baed6" paint-order="fill" d="M 1168.0028076171875 577.5 L 4010.681884765625 577.5" stroke-linejoin="bevel" stroke-miterlimit="10" stroke-width="5" clip-path="url(#NHbClkHGwzai)"/><path fill="rgb(8,81,156)" stroke="rgb(8,81,156)" paint-order="fill" d="M 1828.299560546875 777.5 A 7.5 7.5 0 0 1 1813.299560546875 777.5 A 7.5 7.5 0 0 1 1828.299560546875 777.5" fill-opacity="1" clip-path="url(#ZHcfnUSByoGs)" stroke-opacity="1" stroke-linejoin="bevel" stroke-miterlimit="10"/><path fill="none" stroke="#08519c" paint-order="fill" d="M 524.9380493164062 777.5 L 2997.6748046875 777.5" stroke-linejoin="bevel" stroke-miterlimit="10" stroke-width="5" clip-path="url(#bOGkKKeeUeuz)"/><path fill="none" stroke="black" paint-order="fill" d="M 192.5 877.5 L 4192.5 877.5" stroke-linejoin="bevel" stroke-miterlimit="10"/><path fill="none" stroke="black" paint-order="fill" d="M 250.5 883.5 L 250.5 875.5 M 761.5 883.5 L 761.5 875.5 M 1273.5 883.5 L 1273.5 875.5 M 1784.5 883.5 L 1784.5 875.5 M 2296.5 883.5 L 2296.5 875.5 M 2807.5 883.5 L 2807.5 875.5 M 3318.5 883.5 L 3318.5 875.5 M 3830.5 883.5 L 3830.5 875.5" stroke-linejoin="bevel" stroke-miterlimit="10"/><path fill="none" stroke="black" paint-order="fill" d="M 250.5 881.5 L 250.5 877.5 M 352.5 881.5 L 352.5 877.5 M 455.5 881.5 L 455.5 877.5 M 557.5 881.5 L 557.5 877.5 M 659.5 881.5 L 659.5 877.5 M 761.5 881.5 L 761.5 877.5 M 864.5 881.5 L 864.5 877.5 M 966.5 881.5 L 966.5 877.5 M 1068.5 881.5 L 1068.5 877.5 M 1170.5 881.5 L 1170.5 877.5 M 1273.5 881.5 L 1273.5 877.5 M 1375.5 881.5 L 1375.5 877.5 M 1477.5 881.5 L 1477.5 877.5 M 1580.5 881.5 L 1580.5 877.5 M 1682.5 881.5 L 1682.5 877.5 M 1784.5 881.5 L 1784.5 877.5 M 1886.5 881.5 L 1886.5 877.5 M 1989.5 881.5 L 1989.5 877.5 M 2091.5 881.5 L 2091.5 877.5 M 2193.5 881.5 L 2193.5 877.5 M 2296.5 881.5 L 2296.5 877.5 M 2398.5 881.5 L 2398.5 877.5 M 2500.5 881.5 L 2500.5 877.5 M 2602.5 881.5 L 2602.5 877.5 M 2705.5 881.5 L 2705.5 877.5 M 2807.5 881.5 L 2807.5 877.5 M 2909.5 881.5 L 2909.5 877.5 M 3012.5 881.5 L 3012.5 877.5 M 3114.5 881.5 L 3114.5 877.5 M 3216.5 881.5 L 3216.5 877.5 M 3318.5 881.5 L 3318.5 877.5 M 3421.5 881.5 L 3421.5 877.5 M 3523.5 881.5 L 3523.5 877.5 M 3625.5 881.5 L 3625.5 877.5 M 3727.5 881.5 L 3727.5 877.5 M 3830.5 881.5 L 3830.5 877.5 M 3932.5 881.5 L 3932.5 877.5 M 4034.5 881.5 L 4034.5 877.5 M 4137.5 881.5 L 4137.5 877.5" stroke-linejoin="bevel" stroke-miterlimit="10"/><text fill="#444444" stroke="none" font-family="helvetica" font-size="40pt" font-style="normal" font-weight="normal" text-decoration="normal" x="212.75570678710938" y="926.374755859375" text-anchor="start" dominant-baseline="alphabetic" transform="matrix(1, 0, 0, 1, 0.5, 0.5)">0.2</text><text fill="none" stroke="rgb(0,0,0)" font-family="helvetica" font-size="40pt" font-style="normal" font-weight="normal" text-decoration="normal" x="212.75570678710938" y="926.374755859375" text-anchor="start" dominant-baseline="alphabetic" transform="matrix(1, 0, 0, 1, 0.5, 0.5)" stroke-opacity="0" stroke-linejoin="bevel" stroke-miterlimit="10">0.2</text><text fill="#444444" stroke="none" font-family="helvetica" font-size="40pt" font-style="normal" font-weight="normal" text-decoration="normal" x="724.1587677001953" y="926.374755859375" text-anchor="start" dominant-baseline="alphabetic" transform="matrix(1, 0, 0, 1, 0.5, 0.5)">0.4</text><text fill="none" stroke="rgb(0,0,0)" font-family="helvetica" font-size="40pt" font-style="normal" font-weight="normal" text-decoration="normal" x="724.1587677001953" y="926.374755859375" text-anchor="start" dominant-baseline="alphabetic" transform="matrix(1, 0, 0, 1, 0.5, 0.5)" stroke-opacity="0" stroke-linejoin="bevel" stroke-miterlimit="10">0.4</text><text fill="#444444" stroke="none" font-family="helvetica" font-size="40pt" font-style="normal" font-weight="normal" text-decoration="normal" x="1235.561782836914" y="926.374755859375" text-anchor="start" dominant-baseline="alphabetic" transform="matrix(1, 0, 0, 1, 0.5, 0.5)">0.6</text><text fill="none" stroke="rgb(0,0,0)" font-family="helvetica" font-size="40pt" font-style="normal" font-weight="normal" text-decoration="normal" x="1235.561782836914" y="926.374755859375" text-anchor="start" dominant-baseline="alphabetic" transform="matrix(1, 0, 0, 1, 0.5, 0.5)" stroke-opacity="0" stroke-linejoin="bevel" stroke-miterlimit="10">0.6</text><text fill="#444444" stroke="none" font-family="helvetica" font-size="40pt" font-style="normal" font-weight="normal" text-decoration="normal" x="1746.964859008789" y="926.374755859375" text-anchor="start" dominant-baseline="alphabetic" transform="matrix(1, 0, 0, 1, 0.5, 0.5)">0.8</text><text fill="none" stroke="rgb(0,0,0)" font-family="helvetica" font-size="40pt" font-style="normal" font-weight="normal" text-decoration="normal" x="1746.964859008789" y="926.374755859375" text-anchor="start" dominant-baseline="alphabetic" transform="matrix(1, 0, 0, 1, 0.5, 0.5)" stroke-opacity="0" stroke-linejoin="bevel" stroke-miterlimit="10">0.8</text><text fill="#444444" stroke="none" font-family="helvetica" font-size="40pt" font-style="normal" font-weight="normal" text-decoration="normal" x="2280.67626953125" y="926.374755859375" text-anchor="start" dominant-baseline="alphabetic" transform="matrix(1, 0, 0, 1, 0.5, 0.5)">1</text><text fill="none" stroke="rgb(0,0,0)" font-family="helvetica" font-size="40pt" font-style="normal" font-weight="normal" text-decoration="normal" x="2280.67626953125" y="926.374755859375" text-anchor="start" dominant-baseline="alphabetic" transform="matrix(1, 0, 0, 1, 0.5, 0.5)" stroke-opacity="0" stroke-linejoin="bevel" stroke-miterlimit="10">1</text><text fill="#444444" stroke="none" font-family="helvetica" font-size="40pt" font-style="normal" font-weight="normal" text-decoration="normal" x="2769.771011352539" y="926.374755859375" text-anchor="start" dominant-baseline="alphabetic" transform="matrix(1, 0, 0, 1, 0.5, 0.5)">1.2</text><text fill="none" stroke="rgb(0,0,0)" font-family="helvetica" font-size="40pt" font-style="normal" font-weight="normal" text-decoration="normal" x="2769.771011352539" y="926.374755859375" text-anchor="start" dominant-baseline="alphabetic" transform="matrix(1, 0, 0, 1, 0.5, 0.5)" stroke-opacity="0" stroke-linejoin="bevel" stroke-miterlimit="10">1.2</text><text fill="#444444" stroke="none" font-family="helvetica" font-size="40pt" font-style="normal" font-weight="normal" text-decoration="normal" x="3281.173843383789" y="926.374755859375" text-anchor="start" dominant-baseline="alphabetic" transform="matrix(1, 0, 0, 1, 0.5, 0.5)">1.4</text><text fill="none" stroke="rgb(0,0,0)" font-family="helvetica" font-size="40pt" font-style="normal" font-weight="normal" text-decoration="normal" x="3281.173843383789" y="926.374755859375" text-anchor="start" dominant-baseline="alphabetic" transform="matrix(1, 0, 0, 1, 0.5, 0.5)" stroke-opacity="0" stroke-linejoin="bevel" stroke-miterlimit="10">1.4</text><text fill="#444444" stroke="none" font-family="helvetica" font-size="40pt" font-style="normal" font-weight="normal" text-decoration="normal" x="3792.576919555664" y="926.374755859375" text-anchor="start" dominant-baseline="alphabetic" transform="matrix(1, 0, 0, 1, 0.5, 0.5)">1.6</text><text fill="none" stroke="rgb(0,0,0)" font-family="helvetica" font-size="40pt" font-style="normal" font-weight="normal" text-decoration="normal" x="3792.576919555664" y="926.374755859375" text-anchor="start" dominant-baseline="alphabetic" transform="matrix(1, 0, 0, 1, 0.5, 0.5)" stroke-opacity="0" stroke-linejoin="bevel" stroke-miterlimit="10">1.6</text><path fill="none" stroke="black" paint-order="fill" d="M 192.5 877.5 L 192.5 77.5" stroke-linejoin="bevel" stroke-miterlimit="10"/><path fill="none" stroke="black" paint-order="fill" d="M 186.5 777.5 L 194.5 777.5 M 186.5 577.5 L 194.5 577.5 M 186.5 377.5 L 194.5 377.5 M 186.5 177.5 L 194.5 177.5" stroke-linejoin="bevel" stroke-miterlimit="10"/><path fill="none" stroke="black" paint-order="fill" d="" stroke-linejoin="bevel" stroke-miterlimit="10"/><text fill="#444444" stroke="none" font-family="helvetica" font-size="40pt" font-style="normal" font-weight="normal" text-decoration="normal" x="2.5833282470703125" y="791.5" text-anchor="start" dominant-baseline="alphabetic" transform="matrix(1, 0, 0, 1, 0.5, 0.5)">ASO_A</text><text fill="none" stroke="rgb(0,0,0)" font-family="helvetica" font-size="40pt" font-style="normal" font-weight="normal" text-decoration="normal" x="2.5833282470703125" y="791.5" text-anchor="start" dominant-baseline="alphabetic" transform="matrix(1, 0, 0, 1, 0.5, 0.5)" stroke-opacity="0" stroke-linejoin="bevel" stroke-miterlimit="10">ASO_A</text><text fill="#444444" stroke="none" font-family="helvetica" font-size="40pt" font-style="normal" font-weight="normal" text-decoration="normal" x="32.383331298828125" y="591.5" text-anchor="start" dominant-baseline="alphabetic" transform="matrix(1, 0, 0, 1, 0.5, 0.5)">WT_A</text><text fill="none" stroke="rgb(0,0,0)" font-family="helvetica" font-size="40pt" font-style="normal" font-weight="normal" text-decoration="normal" x="32.383331298828125" y="591.5" text-anchor="start" dominant-baseline="alphabetic" transform="matrix(1, 0, 0, 1, 0.5, 0.5)" stroke-opacity="0" stroke-linejoin="bevel" stroke-miterlimit="10">WT_A</text><text fill="#444444" stroke="none" font-family="helvetica" font-size="40pt" font-style="normal" font-weight="normal" text-decoration="normal" x="2.5833282470703125" y="391.5" text-anchor="start" dominant-baseline="alphabetic" transform="matrix(1, 0, 0, 1, 0.5, 0.5)">ASO_V</text><text fill="none" stroke="rgb(0,0,0)" font-family="helvetica" font-size="40pt" font-style="normal" font-weight="normal" text-decoration="normal" x="2.5833282470703125" y="391.5" text-anchor="start" dominant-baseline="alphabetic" transform="matrix(1, 0, 0, 1, 0.5, 0.5)" stroke-opacity="0" stroke-linejoin="bevel" stroke-miterlimit="10">ASO_V</text><text fill="#444444" stroke="none" font-family="helvetica" font-size="40pt" font-style="normal" font-weight="normal" text-decoration="normal" x="32.383331298828125" y="191.5" text-anchor="start" dominant-baseline="alphabetic" transform="matrix(1, 0, 0, 1, 0.5, 0.5)">WT_V</text><text fill="none" stroke="rgb(0,0,0)" font-family="helvetica" font-size="40pt" font-style="normal" font-weight="normal" text-decoration="normal" x="32.383331298828125" y="191.5" text-anchor="start" dominant-baseline="alphabetic" transform="matrix(1, 0, 0, 1, 0.5, 0.5)" stroke-opacity="0" stroke-linejoin="bevel" stroke-miterlimit="10">WT_V</text><text fill="#444444" stroke="none" font-family="helvetica" font-size="48pt" font-style="normal" font-weight="bold" text-decoration="normal" x="0" y="50" text-anchor="start" dominant-baseline="alphabetic" transform="matrix(1, 0, 0, 1, 192.5, 7.5)">sigma 95%CI, lognormal mixed model</text><text fill="none" stroke="rgb(0,0,0)" font-family="helvetica" font-size="48pt" font-style="normal" font-weight="bold" text-decoration="normal" x="0" y="50" text-anchor="start" dominant-baseline="alphabetic" transform="matrix(1, 0, 0, 1, 192.5, 7.5)" stroke-opacity="0" stroke-miterlimit="10" stroke-dasharray="">sigma 95%CI, lognormal mixed model</text></svg>