<svg version="1.1" xmlns="http://www.w3.org/2000/svg" width="4197" height="938"><defs><clipPath id="NGXiNAAVsfka"><path fill="none" stroke="none" d="M 192.5 86.5 L 4192.5 86.5 L 4192.5 886.5 L 192.5 886.5 L 192.5 86.5 Z"/></clipPath><clipPath id="LnBERZFZrUWz"><path fill="none" stroke="none" d="M 192.5 86.5 L 4192.5 86.5 L 4192.5 886.5 L 192.5 886.5 L 192.5 86.5 Z"/></clipPath><clipPath id="rWttNwKXHTqR"><path fill="none" stroke="none" d="M 192.5 86.5 L 4192.5 86.5 L 4192.5 886.5 L 192.5 886.5 L 192.5 86.5 Z"/></clipPath><clipPath id="xBrLtsIlTTOI"><path fill="none" stroke="none" d="M 192.5 86.5 L 4192.5 86.5 L 4192.5 886.5 L 192.5 886.5 L 192.5 86.5 Z"/></clipPath><clipPath id="gKacdXwHvGMh"><path fill="none" stroke="none" d="M 192.5 86.5 L 4192.5 86.5 L 4192.5 886.5 L 192.5 886.5 L 192.5 86.5 Z"/></clipPath><clipPath id="xzFaKappdmht"><path fill="none" stroke="none" d="M 192.5 86.5 L 4192.5 86.5 L 4192.5 886.5 L 192.5 886.5 L 192.5 86.5 Z"/></clipPath><clipPath id="UdzMVgSdgygn"><path fill="none" stroke="none" d="M 192.5 86.5 L 4192.5 86.5 L 4192.5 886.5 L 192.5 886.5 L 192.5 86.5 Z"/></clipPath><clipPath id="FBzKxSzuXIbx"><path fill="none" stroke="none" d="M 192.5 86.5 L 4192.5 86.5 L 4192.5 886.5 L 192.5 886.5 L 192.5 86.5 Z"/></clipPath><clipPath id="lheShBekAStv"><path fill="none" stroke="none" d="M 192.5 86.5 L 4192.5 86.5 L 4192.5 886.5 L 192.5 886.5 L 192.5 86.5 Z"/></clipPath><clipPath id="EodDrFWEtxQz"><path fill="none" stroke="none" d="M 192.5 86.5 L 4192.5 86.5 L 4192.5 886.5 L 192.5 886.5 L 192.5 86.5 Z"/></clipPath><clipPath id="UKwNLuBQxciR"><path fill="none" stroke="none" d="M 192.5 86.5 L 4192.5 86.5 L 4192.5 886.5 L 192.5 886.5 L 192.5 86.5 Z"/></clipPath></defs><path fill="rgb(255,255,255)" stroke="none" paint-order="stroke" d="M 0.5 0.5 L 4197.5 0.5 L 4197.5 938.5 L 0.5 938.5 L 0.5 0.5 Z" fill-opacity="1"/><rect fill="#FFFFFF" stroke="none" x="192" y="86" width="4000" height="800" transform="matrix(1, 0, 0, 1, 0.5, 0.5)"/><path fill="rgb(255,255,255)" stroke="none" paint-order="stroke" d="M 192.5 86.5 L 4192.5 86.5 L 4192.5 886.5 L 192.5 886.5 L 192.5 86.5 Z" fill-opacity="1"/><path fill="none" stroke="rgb(229,229,229)" paint-order="fill" d="M 192.5 86.5 L 4192.5 86.5 L 4192.5 886.5 L 192.5 886.5 L 192.5 86.5 Z" stroke-opacity="1" stroke-linejoin="bevel" stroke-miterlimit="10"/><path fill="none" stroke="rgb(229,229,229)" paint-order="fill" d="M 604.5 886.5 L 604.5 86.5 M 1085.5 886.5 L 1085.5 86.5 M 1567.5 886.5 L 1567.5 86.5 M 2048.5 886.5 L 2048.5 86.5 M 2530.5 886.5 L 2530.5 86.5 M 3011.5 886.5 L 3011.5 86.5 M 3493.5 886.5 L 3493.5 86.5 M 3974.5 886.5 L 3974.5 86.5" stroke-opacity="1" stroke-linejoin="bevel" stroke-miterlimit="10" clip-path="url(#NGXiNAAVsfka)"/><path fill="none" stroke="rgb(229,229,229)" paint-order="fill" d="M 192.5 786.5 L 4192.5 786.5 M 192.5 586.5 L 4192.5 586.5 M 192.5 386.5 L 4192.5 386.5 M 192.5 186.5 L 4192.5 186.5" stroke-opacity="1" stroke-linejoin="bevel" stroke-miterlimit="10" clip-path="url(#LnBERZFZrUWz)"/><path fill="rgb(107,174,214)" stroke="rgb(107,174,214)" paint-order="fill" d="M 1225.605224609375 186.5 A 7.5 7.5 0 0 1 1210.605224609375 186.5 A 7.5 7.5 0 0 1 1225.605224609375 186.5" fill-opacity="1" clip-path="url(#rWttNwKXHTqR)" stroke-opacity="1" stroke-linejoin="bevel" stroke-miterlimit="10"/><path fill="none" stroke="rgb(107,174,214)" paint-order="fill" d="M 669.3123779296875 186.5 L 1733.490966796875 186.5" stroke-opacity="1" stroke-linejoin="bevel" stroke-miterlimit="10" stroke-width="5" clip-path="url(#xBrLtsIlTTOI)"/><path fill="rgb(8,81,156)" stroke="rgb(8,81,156)" paint-order="fill" d="M 1420.7615966796875 386.5 A 7.5 7.5 0 0 1 1405.7615966796875 386.5 A 7.5 7.5 0 0 1 1420.7615966796875 386.5" fill-opacity="1" clip-path="url(#gKacdXwHvGMh)" stroke-opacity="1" stroke-linejoin="bevel" stroke-miterlimit="10"/><path fill="none" stroke="rgb(8,81,156)" paint-order="fill" d="M 992.0087280273438 386.5 L 1812.22607421875 386.5" stroke-opacity="1" stroke-linejoin="bevel" stroke-miterlimit="10" stroke-width="5" clip-path="url(#xzFaKappdmht)"/><path fill="rgb(107,174,214)" stroke="rgb(107,174,214)" paint-order="fill" d="M 976.7264404296875 586.5 A 7.5 7.5 0 0 1 961.7264404296875 586.5 A 7.5 7.5 0 0 1 976.7264404296875 586.5" fill-opacity="1" clip-path="url(#UdzMVgSdgygn)" stroke-opacity="1" stroke-linejoin="bevel" stroke-miterlimit="10"/><path fill="none" stroke="rgb(107,174,214)" paint-order="fill" d="M 374.31817626953125 586.5 L 1541.643310546875 586.5" stroke-opacity="1" stroke-linejoin="bevel" stroke-miterlimit="10" stroke-width="5" clip-path="url(#FBzKxSzuXIbx)"/><path fill="rgb(8,81,156)" stroke="rgb(8,81,156)" paint-order="fill" d="M 3074.149169921875 786.5 A 7.5 7.5 0 0 1 3059.149169921875 786.5 A 7.5 7.5 0 0 1 3074.149169921875 786.5" fill-opacity="1" clip-path="url(#lheShBekAStv)" stroke-opacity="1" stroke-linejoin="bevel" stroke-miterlimit="10"/><path fill="none" stroke="rgb(8,81,156)" paint-order="fill" d="M 2332.191650390625 786.5 L 4010.681884765625 786.5" stroke-opacity="1" stroke-linejoin="bevel" stroke-miterlimit="10" stroke-width="5" clip-path="url(#EodDrFWEtxQz)"/><path fill="none" stroke="rgb(0,0,0)" paint-order="fill" d="M 192.5 886.5 L 4192.5 886.5" stroke-opacity="1" stroke-linejoin="bevel" stroke-miterlimit="10"/><path fill="none" stroke="rgb(0,0,0)" paint-order="fill" d="M 604.5 892.5 L 604.5 884.5 M 1085.5 892.5 L 1085.5 884.5 M 1567.5 892.5 L 1567.5 884.5 M 2048.5 892.5 L 2048.5 884.5 M 2530.5 892.5 L 2530.5 884.5 M 3011.5 892.5 L 3011.5 884.5 M 3493.5 892.5 L 3493.5 884.5 M 3974.5 892.5 L 3974.5 884.5" stroke-opacity="1" stroke-linejoin="bevel" stroke-miterlimit="10"/><path fill="none" stroke="rgb(0,0,0)" paint-order="fill" d="M 507.5 890.5 L 507.5 886.5 M 411.5 890.5 L 411.5 886.5 M 315.5 890.5 L 315.5 886.5 M 218.5 890.5 L 218.5 886.5 M 604.5 890.5 L 604.5 886.5 M 700.5 890.5 L 700.5 886.5 M 796.5 890.5 L 796.5 886.5 M 893.5 890.5 L 893.5 886.5 M 989.5 890.5 L 989.5 886.5 M 1085.5 890.5 L 1085.5 886.5 M 1181.5 890.5 L 1181.5 886.5 M 1278.5 890.5 L 1278.5 886.5 M 1374.5 890.5 L 1374.5 886.5 M 1470.5 890.5 L 1470.5 886.5 M 1567.5 890.5 L 1567.5 886.5 M 1663.5 890.5 L 1663.5 886.5 M 1759.5 890.5 L 1759.5 886.5 M 1856.5 890.5 L 1856.5 886.5 M 1952.5 890.5 L 1952.5 886.5 M 2048.5 890.5 L 2048.5 886.5 M 2144.5 890.5 L 2144.5 886.5 M 2241.5 890.5 L 2241.5 886.5 M 2337.5 890.5 L 2337.5 886.5 M 2433.5 890.5 L 2433.5 886.5 M 2530.5 890.5 L 2530.5 886.5 M 2626.5 890.5 L 2626.5 886.5 M 2722.5 890.5 L 2722.5 886.5 M 2819.5 890.5 L 2819.5 886.5 M 2915.5 890.5 L 2915.5 886.5 M 3011.5 890.5 L 3011.5 886.5 M 3108.5 890.5 L 3108.5 886.5 M 3204.5 890.5 L 3204.5 886.5 M 3300.5 890.5 L 3300.5 886.5 M 3396.5 890.5 L 3396.5 886.5 M 3493.5 890.5 L 3493.5 886.5 M 3589.5 890.5 L 3589.5 886.5 M 3685.5 890.5 L 3685.5 886.5 M 3782.5 890.5 L 3782.5 886.5 M 3878.5 890.5 L 3878.5 886.5 M 3974.5 890.5 L 3974.5 886.5 M 4071.5 890.5 L 4071.5 886.5 M 4167.5 890.5 L 4167.5 886.5" stroke-opacity="1" stroke-linejoin="bevel" stroke-miterlimit="10"/><text fill="rgb(68,68,68)" stroke="none" font-family="helvetica" font-size="40pt" font-style="normal" font-weight="normal" text-decoration="normal" x="566.5915069580078" y="935.2528190612793" text-anchor="start" dominant-baseline="alphabetic" transform="matrix(1, 0, 0, 1, 0.5, 0.5)" fill-opacity="1">1.8</text><text fill="none" stroke="rgb(0,0,0)" font-family="helvetica" font-size="40pt" font-style="normal" font-weight="normal" text-decoration="normal" x="566.5915069580078" y="935.2528190612793" text-anchor="start" dominant-baseline="alphabetic" transform="matrix(1, 0, 0, 1, 0.5, 0.5)" stroke-opacity="0" stroke-linejoin="bevel" stroke-miterlimit="10">1.8</text><text fill="rgb(68,68,68)" stroke="none" font-family="helvetica" font-size="40pt" font-style="normal" font-weight="normal" text-decoration="normal" x="1070.3404922485352" y="935.2528190612793" text-anchor="start" dominant-baseline="alphabetic" transform="matrix(1, 0, 0, 1, 0.5, 0.5)" fill-opacity="1">2</text><text fill="none" stroke="rgb(0,0,0)" font-family="helvetica" font-size="40pt" font-style="normal" font-weight="normal" text-decoration="normal" x="1070.3404922485352" y="935.2528190612793" text-anchor="start" dominant-baseline="alphabetic" transform="matrix(1, 0, 0, 1, 0.5, 0.5)" stroke-opacity="0" stroke-linejoin="bevel" stroke-miterlimit="10">2</text><text fill="rgb(68,68,68)" stroke="none" font-family="helvetica" font-size="40pt" font-style="normal" font-weight="normal" text-decoration="normal" x="1529.6131744384766" y="935.2528190612793" text-anchor="start" dominant-baseline="alphabetic" transform="matrix(1, 0, 0, 1, 0.5, 0.5)" fill-opacity="1">2.2</text><text fill="none" stroke="rgb(0,0,0)" font-family="helvetica" font-size="40pt" font-style="normal" font-weight="normal" text-decoration="normal" x="1529.6131744384766" y="935.2528190612793" text-anchor="start" dominant-baseline="alphabetic" transform="matrix(1, 0, 0, 1, 0.5, 0.5)" stroke-opacity="0" stroke-linejoin="bevel" stroke-miterlimit="10">2.2</text><text fill="rgb(68,68,68)" stroke="none" font-family="helvetica" font-size="40pt" font-style="normal" font-weight="normal" text-decoration="normal" x="2011.1239166259766" y="935.2528190612793" text-anchor="start" dominant-baseline="alphabetic" transform="matrix(1, 0, 0, 1, 0.5, 0.5)" fill-opacity="1">2.4</text><text fill="none" stroke="rgb(0,0,0)" font-family="helvetica" font-size="40pt" font-style="normal" font-weight="normal" text-decoration="normal" x="2011.1239166259766" y="935.2528190612793" text-anchor="start" dominant-baseline="alphabetic" transform="matrix(1, 0, 0, 1, 0.5, 0.5)" stroke-opacity="0" stroke-linejoin="bevel" stroke-miterlimit="10">2.4</text><text fill="rgb(68,68,68)" stroke="none" font-family="helvetica" font-size="40pt" font-style="normal" font-weight="normal" text-decoration="normal" x="2492.6349029541016" y="935.2528190612793" text-anchor="start" dominant-baseline="alphabetic" transform="matrix(1, 0, 0, 1, 0.5, 0.5)" fill-opacity="1">2.6</text><text fill="none" stroke="rgb(0,0,0)" font-family="helvetica" font-size="40pt" font-style="normal" font-weight="normal" text-decoration="normal" x="2492.6349029541016" y="935.2528190612793" text-anchor="start" dominant-baseline="alphabetic" transform="matrix(1, 0, 0, 1, 0.5, 0.5)" stroke-opacity="0" stroke-linejoin="bevel" stroke-miterlimit="10">2.6</text><text fill="rgb(68,68,68)" stroke="none" font-family="helvetica" font-size="40pt" font-style="normal" font-weight="normal" text-decoration="normal" x="2974.1456451416016" y="935.2528190612793" text-anchor="start" dominant-baseline="alphabetic" transform="matrix(1, 0, 0, 1, 0.5, 0.5)" fill-opacity="1">2.8</text><text fill="none" stroke="rgb(0,0,0)" font-family="helvetica" font-size="40pt" font-style="normal" font-weight="normal" text-decoration="normal" x="2974.1456451416016" y="935.2528190612793" text-anchor="start" dominant-baseline="alphabetic" transform="matrix(1, 0, 0, 1, 0.5, 0.5)" stroke-opacity="0" stroke-linejoin="bevel" stroke-miterlimit="10">2.8</text><text fill="rgb(68,68,68)" stroke="none" font-family="helvetica" font-size="40pt" font-style="normal" font-weight="normal" text-decoration="normal" x="3477.8945693969727" y="935.2528190612793" text-anchor="start" dominant-baseline="alphabetic" transform="matrix(1, 0, 0, 1, 0.5, 0.5)" fill-opacity="1">3</text><text fill="none" stroke="rgb(0,0,0)" font-family="helvetica" font-size="40pt" font-style="normal" font-weight="normal" text-decoration="normal" x="3477.8945693969727" y="935.2528190612793" text-anchor="start" dominant-baseline="alphabetic" transform="matrix(1, 0, 0, 1, 0.5, 0.5)" stroke-opacity="0" stroke-linejoin="bevel" stroke-miterlimit="10">3</text><text fill="rgb(68,68,68)" stroke="none" font-family="helvetica" font-size="40pt" font-style="normal" font-weight="normal" text-decoration="normal" x="3937.1673736572266" y="935.2528190612793" text-anchor="start" dominant-baseline="alphabetic" transform="matrix(1, 0, 0, 1, 0.5, 0.5)" fill-opacity="1">3.2</text><text fill="none" stroke="rgb(0,0,0)" font-family="helvetica" font-size="40pt" font-style="normal" font-weight="normal" text-decoration="normal" x="3937.1673736572266" y="935.2528190612793" text-anchor="start" dominant-baseline="alphabetic" transform="matrix(1, 0, 0, 1, 0.5, 0.5)" stroke-opacity="0" stroke-linejoin="bevel" stroke-miterlimit="10">3.2</text><path fill="none" stroke="rgb(0,0,0)" paint-order="fill" d="M 192.5 886.5 L 192.5 86.5" stroke-opacity="1" stroke-linejoin="bevel" stroke-miterlimit="10"/><path fill="none" stroke="rgb(0,0,0)" paint-order="fill" d="M 186.5 786.5 L 194.5 786.5 M 186.5 586.5 L 194.5 586.5 M 186.5 386.5 L 194.5 386.5 M 186.5 186.5 L 194.5 186.5" stroke-opacity="1" stroke-linejoin="bevel" stroke-miterlimit="10"/><path fill="none" stroke="rgb(0,0,0)" paint-order="fill" d="" stroke-opacity="1" stroke-linejoin="bevel" stroke-miterlimit="10"/><text fill="rgb(68,68,68)" stroke="none" font-family="helvetica" font-size="40pt" font-style="normal" font-weight="normal" text-decoration="normal" x="3.14654541015625" y="804.5" text-anchor="start" dominant-baseline="alphabetic" transform="matrix(1, 0, 0, 1, 0.5, 0.5)" fill-opacity="1">ASO_A</text><text fill="none" stroke="rgb(0,0,0)" font-family="helvetica" font-size="40pt" font-style="normal" font-weight="normal" text-decoration="normal" x="3.14654541015625" y="804.5" text-anchor="start" dominant-baseline="alphabetic" transform="matrix(1, 0, 0, 1, 0.5, 0.5)" stroke-opacity="0" stroke-linejoin="bevel" stroke-miterlimit="10">ASO_A</text><text fill="rgb(68,68,68)" stroke="none" font-family="helvetica" font-size="40pt" font-style="normal" font-weight="normal" text-decoration="normal" x="32.858245849609375" y="604.5" text-anchor="start" dominant-baseline="alphabetic" transform="matrix(1, 0, 0, 1, 0.5, 0.5)" fill-opacity="1">WT_A</text><text fill="none" stroke="rgb(0,0,0)" font-family="helvetica" font-size="40pt" font-style="normal" font-weight="normal" text-decoration="normal" x="32.858245849609375" y="604.5" text-anchor="start" dominant-baseline="alphabetic" transform="matrix(1, 0, 0, 1, 0.5, 0.5)" stroke-opacity="0" stroke-linejoin="bevel" stroke-miterlimit="10">WT_A</text><text fill="rgb(68,68,68)" stroke="none" font-family="helvetica" font-size="40pt" font-style="normal" font-weight="normal" text-decoration="normal" x="3.14654541015625" y="404.5" text-anchor="start" dominant-baseline="alphabetic" transform="matrix(1, 0, 0, 1, 0.5, 0.5)" fill-opacity="1">ASO_V</text><text fill="none" stroke="rgb(0,0,0)" font-family="helvetica" font-size="40pt" font-style="normal" font-weight="normal" text-decoration="normal" x="3.14654541015625" y="404.5" text-anchor="start" dominant-baseline="alphabetic" transform="matrix(1, 0, 0, 1, 0.5, 0.5)" stroke-opacity="0" stroke-linejoin="bevel" stroke-miterlimit="10">ASO_V</text><text fill="rgb(68,68,68)" stroke="none" font-family="helvetica" font-size="40pt" font-style="normal" font-weight="normal" text-decoration="normal" x="32.858245849609375" y="204.5" text-anchor="start" dominant-baseline="alphabetic" transform="matrix(1, 0, 0, 1, 0.5, 0.5)" fill-opacity="1">WT_V</text><text fill="none" stroke="rgb(0,0,0)" font-family="helvetica" font-size="40pt" font-style="normal" font-weight="normal" text-decoration="normal" x="32.858245849609375" y="204.5" text-anchor="start" dominant-baseline="alphabetic" transform="matrix(1, 0, 0, 1, 0.5, 0.5)" stroke-opacity="0" stroke-linejoin="bevel" stroke-miterlimit="10">WT_V</text><text fill="rgb(68,68,68)" stroke="none" font-family="helvetica" font-size="48pt" font-style="normal" font-weight="bold" text-decoration="normal" x="192" y="66" text-anchor="start" dominant-baseline="alphabetic" transform="matrix(1, 0, 0, 1, 0.5, 0.5)" fill-opacity="1">mu 95%CI, lognormal mixed model</text><text fill="none" stroke="rgb(0,0,0)" font-family="helvetica" font-size="48pt" font-style="normal" font-weight="bold" text-decoration="normal" x="192" y="66" text-anchor="start" dominant-baseline="alphabetic" transform="matrix(1, 0, 0, 1, 0.5, 0.5)" stroke-opacity="0" stroke-miterlimit="10" stroke-dasharray="">mu 95%CI, lognormal mixed model</text></svg>