<svg version="1.1" xmlns="http://www.w3.org/2000/svg" width="4197" height="929"><defs><clipPath id="aCKzlLULFlOc"><path fill="none" stroke="none" d="M 0.5 0.5 L 4197.5 0.5 L 4197.5 929.5 L 0.5 929.5 L 0.5 0.5 Z M 192.5 77.5 L 4192.5 77.5 L 4192.5 877.5 L 192.5 877.5 L 192.5 77.5 Z" clip-rule="evenodd"/></clipPath><clipPath id="yTRznXPIXdtv"><path fill="none" stroke="none" d="M 192.5 77.5 L 4192.5 77.5 L 4192.5 877.5 L 192.5 877.5 L 192.5 77.5 Z"/></clipPath><clipPath id="QCtTFAqMWPyg"><path fill="none" stroke="none" d="M 192.5 77.5 L 4192.5 77.5 L 4192.5 877.5 L 192.5 877.5 L 192.5 77.5 Z"/></clipPath><clipPath id="vfsvbwdzauiT"><path fill="none" stroke="none" d="M 192.5 77.5 L 4192.5 77.5 L 4192.5 877.5 L 192.5 877.5 L 192.5 77.5 Z"/></clipPath><clipPath id="zDkbPDHUMqoz"><path fill="none" stroke="none" d="M 192.5 77.5 L 4192.5 77.5 L 4192.5 877.5 L 192.5 877.5 L 192.5 77.5 Z"/></clipPath><clipPath id="ZmgfbHviTGeX"><path fill="none" stroke="none" d="M 192.5 77.5 L 4192.5 77.5 L 4192.5 877.5 L 192.5 877.5 L 192.5 77.5 Z"/></clipPath><clipPath id="fAxHTyAKtyOx"><path fill="none" stroke="none" d="M 192.5 77.5 L 4192.5 77.5 L 4192.5 877.5 L 192.5 877.5 L 192.5 77.5 Z"/></clipPath><clipPath id="QwfzftPLsawA"><path fill="none" stroke="none" d="M 192.5 77.5 L 4192.5 77.5 L 4192.5 877.5 L 192.5 877.5 L 192.5 77.5 Z"/></clipPath><clipPath id="CUJckQdEXiMe"><path fill="none" stroke="none" d="M 192.5 77.5 L 4192.5 77.5 L 4192.5 877.5 L 192.5 877.5 L 192.5 77.5 Z"/></clipPath><clipPath id="sNoZfGevSWxf"><path fill="none" stroke="none" d="M 192.5 77.5 L 4192.5 77.5 L 4192.5 877.5 L 192.5 877.5 L 192.5 77.5 Z"/></clipPath><clipPath id="xTbREGfmDyoV"><path fill="none" stroke="none" d="M 192.5 77.5 L 4192.5 77.5 L 4192.5 877.5 L 192.5 877.5 L 192.5 77.5 Z"/></clipPath><clipPath id="FiBRHKToUpHn"><path fill="none" stroke="none" d="M 192.5 77.5 L 4192.5 77.5 L 4192.5 877.5 L 192.5 877.5 L 192.5 77.5 Z"/></clipPath></defs><path fill="#ffffff" stroke="none" paint-order="stroke" d="M 0.5 0.5 L 4197.5 0.5 L 4197.5 929.5 L 0.5 929.5 L 0.5 0.5 Z" clip-path="url(#aCKzlLULFlOc)"/><path fill="#ffffff" stroke="none" paint-order="stroke" d="M 192.5 77.5 L 4192.5 77.5 L 4192.5 877.5 L 192.5 877.5 L 192.5 77.5 Z"/><path fill="none" stroke="#e5e5e5" paint-order="fill" d="M 192.5 77.5 L 4192.5 77.5 L 4192.5 877.5 L 192.5 877.5 L 192.5 77.5 Z" stroke-linejoin="bevel" stroke-miterlimit="10"/><path fill="none" stroke="#e5e5e5" paint-order="fill" d="M 1028.5 877.5 L 1028.5 77.5 M 2000.5 877.5 L 2000.5 77.5 M 2973.5 877.5 L 2973.5 77.5 M 3945.5 877.5 L 3945.5 77.5" stroke-linejoin="bevel" stroke-miterlimit="10" clip-path="url(#yTRznXPIXdtv)"/><path fill="none" stroke="#e5e5e5" paint-order="fill" d="M 192.5 777.5 L 4192.5 777.5 M 192.5 577.5 L 4192.5 577.5 M 192.5 377.5 L 4192.5 377.5 M 192.5 177.5 L 4192.5 177.5" stroke-linejoin="bevel" stroke-miterlimit="10" clip-path="url(#QCtTFAqMWPyg)"/><path fill="rgb(107,174,214)" stroke="rgb(107,174,214)" paint-order="fill" d="M 3005.205322265625 177.5 A 7.5 7.5 0 0 1 2990.205322265625 177.5 A 7.5 7.5 0 0 1 3005.205322265625 177.5" fill-opacity="1" clip-path="url(#vfsvbwdzauiT)" stroke-opacity="1" stroke-linejoin="bevel" stroke-miterlimit="10"/><path fill="none" stroke="#6baed6" paint-order="fill" d="M 1807.45068359375 177.5 L 4010.681884765625 177.5" stroke-linejoin="bevel" stroke-miterlimit="10" stroke-width="5" clip-path="url(#zDkbPDHUMqoz)"/><path fill="rgb(8,81,156)" stroke="rgb(8,81,156)" paint-order="fill" d="M 2077.449951171875 377.5 A 7.5 7.5 0 0 1 2062.449951171875 377.5 A 7.5 7.5 0 0 1 2077.449951171875 377.5" fill-opacity="1" clip-path="url(#ZmgfbHviTGeX)" stroke-opacity="1" stroke-linejoin="bevel" stroke-miterlimit="10"/><path fill="none" stroke="#08519c" paint-order="fill" d="M 1105.13818359375 377.5 L 2818.679443359375 377.5" stroke-linejoin="bevel" stroke-miterlimit="10" stroke-width="5" clip-path="url(#fAxHTyAKtyOx)"/><path fill="rgb(107,174,214)" stroke="rgb(107,174,214)" paint-order="fill" d="M 2524.86865234375 577.5 A 7.5 7.5 0 0 1 2509.86865234375 577.5 A 7.5 7.5 0 0 1 2524.86865234375 577.5" fill-opacity="1" clip-path="url(#QwfzftPLsawA)" stroke-opacity="1" stroke-linejoin="bevel" stroke-miterlimit="10"/><path fill="none" stroke="#6baed6" paint-order="fill" d="M 1372.47119140625 577.5 L 3414.323486328125 577.5" stroke-linejoin="bevel" stroke-miterlimit="10" stroke-width="5" clip-path="url(#CUJckQdEXiMe)"/><path fill="rgb(8,81,156)" stroke="rgb(8,81,156)" paint-order="fill" d="M 1917.6478271484375 777.5 A 7.5 7.5 0 0 1 1902.6478271484375 777.5 A 7.5 7.5 0 0 1 1917.6478271484375 777.5" fill-opacity="1" clip-path="url(#sNoZfGevSWxf)" stroke-opacity="1" stroke-linejoin="bevel" stroke-miterlimit="10"/><path fill="none" stroke="#08519c" paint-order="fill" d="M 374.31817626953125 777.5 L 3035.614990234375 777.5" stroke-linejoin="bevel" stroke-miterlimit="10" stroke-width="5" clip-path="url(#xTbREGfmDyoV)"/><path fill="none" stroke="black" paint-order="fill" d="M 192.5 877.5 L 4192.5 877.5" stroke-linejoin="bevel" stroke-miterlimit="10"/><path fill="none" stroke="black" paint-order="fill" d="M 1028.5 883.5 L 1028.5 875.5 M 2000.5 883.5 L 2000.5 875.5 M 2973.5 883.5 L 2973.5 875.5 M 3945.5 883.5 L 3945.5 875.5" stroke-linejoin="bevel" stroke-miterlimit="10"/><path fill="none" stroke="black" paint-order="fill" d="M 833.5 881.5 L 833.5 877.5 M 639.5 881.5 L 639.5 877.5 M 444.5 881.5 L 444.5 877.5 M 250.5 881.5 L 250.5 877.5 M 1028.5 881.5 L 1028.5 877.5 M 1222.5 881.5 L 1222.5 877.5 M 1417.5 881.5 L 1417.5 877.5 M 1611.5 881.5 L 1611.5 877.5 M 1806.5 881.5 L 1806.5 877.5 M 2000.5 881.5 L 2000.5 877.5 M 2195.5 881.5 L 2195.5 877.5 M 2389.5 881.5 L 2389.5 877.5 M 2584.5 881.5 L 2584.5 877.5 M 2778.5 881.5 L 2778.5 877.5 M 2973.5 881.5 L 2973.5 877.5 M 3167.5 881.5 L 3167.5 877.5 M 3362.5 881.5 L 3362.5 877.5 M 3556.5 881.5 L 3556.5 877.5 M 3751.5 881.5 L 3751.5 877.5 M 3945.5 881.5 L 3945.5 877.5 M 4140.5 881.5 L 4140.5 877.5" stroke-linejoin="bevel" stroke-miterlimit="10"/><text fill="#444444" stroke="none" font-family="helvetica" font-size="40pt" font-style="normal" font-weight="normal" text-decoration="normal" x="990.5505523681641" y="926.374755859375" text-anchor="start" dominant-baseline="alphabetic" transform="matrix(1, 0, 0, 1, 0.5, 0.5)">0.2</text><text fill="none" stroke="rgb(0,0,0)" font-family="helvetica" font-size="40pt" font-style="normal" font-weight="normal" text-decoration="normal" x="990.5505523681641" y="926.374755859375" text-anchor="start" dominant-baseline="alphabetic" transform="matrix(1, 0, 0, 1, 0.5, 0.5)" stroke-opacity="0" stroke-linejoin="bevel" stroke-miterlimit="10">0.2</text><text fill="#444444" stroke="none" font-family="helvetica" font-size="40pt" font-style="normal" font-weight="normal" text-decoration="normal" x="1963.0121002197266" y="926.374755859375" text-anchor="start" dominant-baseline="alphabetic" transform="matrix(1, 0, 0, 1, 0.5, 0.5)">0.4</text><text fill="none" stroke="rgb(0,0,0)" font-family="helvetica" font-size="40pt" font-style="normal" font-weight="normal" text-decoration="normal" x="1963.0121002197266" y="926.374755859375" text-anchor="start" dominant-baseline="alphabetic" transform="matrix(1, 0, 0, 1, 0.5, 0.5)" stroke-opacity="0" stroke-linejoin="bevel" stroke-miterlimit="10">0.4</text><text fill="#444444" stroke="none" font-family="helvetica" font-size="40pt" font-style="normal" font-weight="normal" text-decoration="normal" x="2935.473648071289" y="926.374755859375" text-anchor="start" dominant-baseline="alphabetic" transform="matrix(1, 0, 0, 1, 0.5, 0.5)">0.6</text><text fill="none" stroke="rgb(0,0,0)" font-family="helvetica" font-size="40pt" font-style="normal" font-weight="normal" text-decoration="normal" x="2935.473648071289" y="926.374755859375" text-anchor="start" dominant-baseline="alphabetic" transform="matrix(1, 0, 0, 1, 0.5, 0.5)" stroke-opacity="0" stroke-linejoin="bevel" stroke-miterlimit="10">0.6</text><text fill="#444444" stroke="none" font-family="helvetica" font-size="40pt" font-style="normal" font-weight="normal" text-decoration="normal" x="3907.935317993164" y="926.374755859375" text-anchor="start" dominant-baseline="alphabetic" transform="matrix(1, 0, 0, 1, 0.5, 0.5)">0.8</text><text fill="none" stroke="rgb(0,0,0)" font-family="helvetica" font-size="40pt" font-style="normal" font-weight="normal" text-decoration="normal" x="3907.935317993164" y="926.374755859375" text-anchor="start" dominant-baseline="alphabetic" transform="matrix(1, 0, 0, 1, 0.5, 0.5)" stroke-opacity="0" stroke-linejoin="bevel" stroke-miterlimit="10">0.8</text><path fill="none" stroke="black" paint-order="fill" d="M 192.5 877.5 L 192.5 77.5" stroke-linejoin="bevel" stroke-miterlimit="10"/><path fill="none" stroke="black" paint-order="fill" d="M 186.5 777.5 L 194.5 777.5 M 186.5 577.5 L 194.5 577.5 M 186.5 377.5 L 194.5 377.5 M 186.5 177.5 L 194.5 177.5" stroke-linejoin="bevel" stroke-miterlimit="10"/><path fill="none" stroke="black" paint-order="fill" d="" stroke-linejoin="bevel" stroke-miterlimit="10"/><text fill="#444444" stroke="none" font-family="helvetica" font-size="40pt" font-style="normal" font-weight="normal" text-decoration="normal" x="2.5833282470703125" y="791.5" text-anchor="start" dominant-baseline="alphabetic" transform="matrix(1, 0, 0, 1, 0.5, 0.5)">ASO_A</text><text fill="none" stroke="rgb(0,0,0)" font-family="helvetica" font-size="40pt" font-style="normal" font-weight="normal" text-decoration="normal" x="2.5833282470703125" y="791.5" text-anchor="start" dominant-baseline="alphabetic" transform="matrix(1, 0, 0, 1, 0.5, 0.5)" stroke-opacity="0" stroke-linejoin="bevel" stroke-miterlimit="10">ASO_A</text><text fill="#444444" stroke="none" font-family="helvetica" font-size="40pt" font-style="normal" font-weight="normal" text-decoration="normal" x="32.383331298828125" y="591.5" text-anchor="start" dominant-baseline="alphabetic" transform="matrix(1, 0, 0, 1, 0.5, 0.5)">WT_A</text><text fill="none" stroke="rgb(0,0,0)" font-family="helvetica" font-size="40pt" font-style="normal" font-weight="normal" text-decoration="normal" x="32.383331298828125" y="591.5" text-anchor="start" dominant-baseline="alphabetic" transform="matrix(1, 0, 0, 1, 0.5, 0.5)" stroke-opacity="0" stroke-linejoin="bevel" stroke-miterlimit="10">WT_A</text><text fill="#444444" stroke="none" font-family="helvetica" font-size="40pt" font-style="normal" font-weight="normal" text-decoration="normal" x="2.5833282470703125" y="391.5" text-anchor="start" dominant-baseline="alphabetic" transform="matrix(1, 0, 0, 1, 0.5, 0.5)">ASO_V</text><text fill="none" stroke="rgb(0,0,0)" font-family="helvetica" font-size="40pt" font-style="normal" font-weight="normal" text-decoration="normal" x="2.5833282470703125" y="391.5" text-anchor="start" dominant-baseline="alphabetic" transform="matrix(1, 0, 0, 1, 0.5, 0.5)" stroke-opacity="0" stroke-linejoin="bevel" stroke-miterlimit="10">ASO_V</text><text fill="#444444" stroke="none" font-family="helvetica" font-size="40pt" font-style="normal" font-weight="normal" text-decoration="normal" x="32.383331298828125" y="191.5" text-anchor="start" dominant-baseline="alphabetic" transform="matrix(1, 0, 0, 1, 0.5, 0.5)">WT_V</text><text fill="none" stroke="rgb(0,0,0)" font-family="helvetica" font-size="40pt" font-style="normal" font-weight="normal" text-decoration="normal" x="32.383331298828125" y="191.5" text-anchor="start" dominant-baseline="alphabetic" transform="matrix(1, 0, 0, 1, 0.5, 0.5)" stroke-opacity="0" stroke-linejoin="bevel" stroke-miterlimit="10">WT_V</text><text fill="#444444" stroke="none" font-family="helvetica" font-size="48pt" font-style="normal" font-weight="bold" text-decoration="normal" x="0" y="50" text-anchor="start" dominant-baseline="alphabetic" transform="matrix(1, 0, 0, 1, 192.5, 7.5)">sigma 95%CI, lognormal mixed model</text><text fill="none" stroke="rgb(0,0,0)" font-family="helvetica" font-size="48pt" font-style="normal" font-weight="bold" text-decoration="normal" x="0" y="50" text-anchor="start" dominant-baseline="alphabetic" transform="matrix(1, 0, 0, 1, 192.5, 7.5)" stroke-opacity="0" stroke-miterlimit="10" stroke-dasharray="">sigma 95%CI, lognormal mixed model</text></svg>