<svg version="1.1" xmlns="http://www.w3.org/2000/svg" width="4197" height="938"><defs><clipPath id="DfpdXbAmPhMm"><path fill="none" stroke="none" d="M 192.5 86.5 L 4192.5 86.5 L 4192.5 886.5 L 192.5 886.5 L 192.5 86.5 Z"/></clipPath><clipPath id="DcMqRRmADPUW"><path fill="none" stroke="none" d="M 192.5 86.5 L 4192.5 86.5 L 4192.5 886.5 L 192.5 886.5 L 192.5 86.5 Z"/></clipPath><clipPath id="ukUqrBaUpTKZ"><path fill="none" stroke="none" d="M 192.5 86.5 L 4192.5 86.5 L 4192.5 886.5 L 192.5 886.5 L 192.5 86.5 Z"/></clipPath><clipPath id="tETeztcCizht"><path fill="none" stroke="none" d="M 192.5 86.5 L 4192.5 86.5 L 4192.5 886.5 L 192.5 886.5 L 192.5 86.5 Z"/></clipPath><clipPath id="iOLezsppJCbP"><path fill="none" stroke="none" d="M 192.5 86.5 L 4192.5 86.5 L 4192.5 886.5 L 192.5 886.5 L 192.5 86.5 Z"/></clipPath><clipPath id="HKCbdgfrLrIv"><path fill="none" stroke="none" d="M 192.5 86.5 L 4192.5 86.5 L 4192.5 886.5 L 192.5 886.5 L 192.5 86.5 Z"/></clipPath><clipPath id="aEMTKcFQQqUX"><path fill="none" stroke="none" d="M 192.5 86.5 L 4192.5 86.5 L 4192.5 886.5 L 192.5 886.5 L 192.5 86.5 Z"/></clipPath><clipPath id="uRKAXsXFZSiE"><path fill="none" stroke="none" d="M 192.5 86.5 L 4192.5 86.5 L 4192.5 886.5 L 192.5 886.5 L 192.5 86.5 Z"/></clipPath><clipPath id="CxOibFuooxfy"><path fill="none" stroke="none" d="M 192.5 86.5 L 4192.5 86.5 L 4192.5 886.5 L 192.5 886.5 L 192.5 86.5 Z"/></clipPath><clipPath id="yeRbMCRRNIBX"><path fill="none" stroke="none" d="M 192.5 86.5 L 4192.5 86.5 L 4192.5 886.5 L 192.5 886.5 L 192.5 86.5 Z"/></clipPath><clipPath id="BAEDOtKQkAiX"><path fill="none" stroke="none" d="M 192.5 86.5 L 4192.5 86.5 L 4192.5 886.5 L 192.5 886.5 L 192.5 86.5 Z"/></clipPath></defs><path fill="rgb(255,255,255)" stroke="none" paint-order="stroke" d="M 0.5 0.5 L 4197.5 0.5 L 4197.5 938.5 L 0.5 938.5 L 0.5 0.5 Z" fill-opacity="1"/><rect fill="#FFFFFF" stroke="none" x="192" y="86" width="4000" height="800" transform="matrix(1, 0, 0, 1, 0.5, 0.5)"/><path fill="rgb(255,255,255)" stroke="none" paint-order="stroke" d="M 192.5 86.5 L 4192.5 86.5 L 4192.5 886.5 L 192.5 886.5 L 192.5 86.5 Z" fill-opacity="1"/><path fill="none" stroke="rgb(229,229,229)" paint-order="fill" d="M 192.5 86.5 L 4192.5 86.5 L 4192.5 886.5 L 192.5 886.5 L 192.5 86.5 Z" stroke-opacity="1" stroke-linejoin="bevel" stroke-miterlimit="10"/><path fill="none" stroke="rgb(229,229,229)" paint-order="fill" d="M 724.5 886.5 L 724.5 86.5 M 1546.5 886.5 L 1546.5 86.5 M 2367.5 886.5 L 2367.5 86.5 M 3189.5 886.5 L 3189.5 86.5 M 4010.5 886.5 L 4010.5 86.5" stroke-opacity="1" stroke-linejoin="bevel" stroke-miterlimit="10" clip-path="url(#DfpdXbAmPhMm)"/><path fill="none" stroke="rgb(229,229,229)" paint-order="fill" d="M 192.5 786.5 L 4192.5 786.5 M 192.5 586.5 L 4192.5 586.5 M 192.5 386.5 L 4192.5 386.5 M 192.5 186.5 L 4192.5 186.5" stroke-opacity="1" stroke-linejoin="bevel" stroke-miterlimit="10" clip-path="url(#DcMqRRmADPUW)"/><path fill="rgb(107,174,214)" stroke="rgb(107,174,214)" paint-order="fill" d="M 3289.43896484375 186.5 A 7.5 7.5 0 0 1 3274.43896484375 186.5 A 7.5 7.5 0 0 1 3289.43896484375 186.5" fill-opacity="1" clip-path="url(#ukUqrBaUpTKZ)" stroke-opacity="1" stroke-linejoin="bevel" stroke-miterlimit="10"/><path fill="none" stroke="rgb(107,174,214)" paint-order="fill" d="M 2550.7333984375 186.5 L 3832.333251953125 186.5" stroke-opacity="1" stroke-linejoin="bevel" stroke-miterlimit="10" stroke-width="5" clip-path="url(#tETeztcCizht)"/><path fill="rgb(8,81,156)" stroke="rgb(8,81,156)" paint-order="fill" d="M 3279.727294921875 386.5 A 7.5 7.5 0 0 1 3264.727294921875 386.5 A 7.5 7.5 0 0 1 3279.727294921875 386.5" fill-opacity="1" clip-path="url(#iOLezsppJCbP)" stroke-opacity="1" stroke-linejoin="bevel" stroke-miterlimit="10"/><path fill="none" stroke="rgb(8,81,156)" paint-order="fill" d="M 2290.958740234375 386.5 L 4010.681884765625 386.5" stroke-opacity="1" stroke-linejoin="bevel" stroke-miterlimit="10" stroke-width="5" clip-path="url(#HKCbdgfrLrIv)"/><path fill="rgb(107,174,214)" stroke="rgb(107,174,214)" paint-order="fill" d="M 3001.12744140625 586.5 A 7.5 7.5 0 0 1 2986.12744140625 586.5 A 7.5 7.5 0 0 1 3001.12744140625 586.5" fill-opacity="1" clip-path="url(#aEMTKcFQQqUX)" stroke-opacity="1" stroke-linejoin="bevel" stroke-miterlimit="10"/><path fill="none" stroke="rgb(107,174,214)" paint-order="fill" d="M 1947.5528564453125 586.5 L 4010.68115234375 586.5" stroke-opacity="1" stroke-linejoin="bevel" stroke-miterlimit="10" stroke-width="5" clip-path="url(#uRKAXsXFZSiE)"/><path fill="rgb(8,81,156)" stroke="rgb(8,81,156)" paint-order="fill" d="M 1898.7060546875 786.5 A 7.5 7.5 0 0 1 1883.7060546875 786.5 A 7.5 7.5 0 0 1 1898.7060546875 786.5" fill-opacity="1" clip-path="url(#CxOibFuooxfy)" stroke-opacity="1" stroke-linejoin="bevel" stroke-miterlimit="10"/><path fill="none" stroke="rgb(8,81,156)" paint-order="fill" d="M 374.31817626953125 786.5 L 3110.794677734375 786.5" stroke-opacity="1" stroke-linejoin="bevel" stroke-miterlimit="10" stroke-width="5" clip-path="url(#yeRbMCRRNIBX)"/><path fill="none" stroke="rgb(0,0,0)" paint-order="fill" d="M 192.5 886.5 L 4192.5 886.5" stroke-opacity="1" stroke-linejoin="bevel" stroke-miterlimit="10"/><path fill="none" stroke="rgb(0,0,0)" paint-order="fill" d="M 724.5 892.5 L 724.5 884.5 M 1546.5 892.5 L 1546.5 884.5 M 2367.5 892.5 L 2367.5 884.5 M 3189.5 892.5 L 3189.5 884.5 M 4010.5 892.5 L 4010.5 884.5" stroke-opacity="1" stroke-linejoin="bevel" stroke-miterlimit="10"/><path fill="none" stroke="rgb(0,0,0)" paint-order="fill" d="M 560.5 890.5 L 560.5 886.5 M 396.5 890.5 L 396.5 886.5 M 231.5 890.5 L 231.5 886.5 M 724.5 890.5 L 724.5 886.5 M 889.5 890.5 L 889.5 886.5 M 1053.5 890.5 L 1053.5 886.5 M 1217.5 890.5 L 1217.5 886.5 M 1381.5 890.5 L 1381.5 886.5 M 1546.5 890.5 L 1546.5 886.5 M 1710.5 890.5 L 1710.5 886.5 M 1874.5 890.5 L 1874.5 886.5 M 2039.5 890.5 L 2039.5 886.5 M 2203.5 890.5 L 2203.5 886.5 M 2367.5 890.5 L 2367.5 886.5 M 2531.5 890.5 L 2531.5 886.5 M 2696.5 890.5 L 2696.5 886.5 M 2860.5 890.5 L 2860.5 886.5 M 3024.5 890.5 L 3024.5 886.5 M 3189.5 890.5 L 3189.5 886.5 M 3353.5 890.5 L 3353.5 886.5 M 3517.5 890.5 L 3517.5 886.5 M 3682.5 890.5 L 3682.5 886.5 M 3846.5 890.5 L 3846.5 886.5 M 4010.5 890.5 L 4010.5 886.5 M 4174.5 890.5 L 4174.5 886.5" stroke-opacity="1" stroke-linejoin="bevel" stroke-miterlimit="10"/><text fill="rgb(68,68,68)" stroke="none" font-family="helvetica" font-size="40pt" font-style="normal" font-weight="normal" text-decoration="normal" x="687.1440582275391" y="935.2528190612793" text-anchor="start" dominant-baseline="alphabetic" transform="matrix(1, 0, 0, 1, 0.5, 0.5)" fill-opacity="1">0.6</text><text fill="none" stroke="rgb(0,0,0)" font-family="helvetica" font-size="40pt" font-style="normal" font-weight="normal" text-decoration="normal" x="687.1440582275391" y="935.2528190612793" text-anchor="start" dominant-baseline="alphabetic" transform="matrix(1, 0, 0, 1, 0.5, 0.5)" stroke-opacity="0" stroke-linejoin="bevel" stroke-miterlimit="10">0.6</text><text fill="rgb(68,68,68)" stroke="none" font-family="helvetica" font-size="40pt" font-style="normal" font-weight="normal" text-decoration="normal" x="1508.636489868164" y="935.2528190612793" text-anchor="start" dominant-baseline="alphabetic" transform="matrix(1, 0, 0, 1, 0.5, 0.5)" fill-opacity="1">0.7</text><text fill="none" stroke="rgb(0,0,0)" font-family="helvetica" font-size="40pt" font-style="normal" font-weight="normal" text-decoration="normal" x="1508.636489868164" y="935.2528190612793" text-anchor="start" dominant-baseline="alphabetic" transform="matrix(1, 0, 0, 1, 0.5, 0.5)" stroke-opacity="0" stroke-linejoin="bevel" stroke-miterlimit="10">0.7</text><text fill="rgb(68,68,68)" stroke="none" font-family="helvetica" font-size="40pt" font-style="normal" font-weight="normal" text-decoration="normal" x="2330.1290435791016" y="935.2528190612793" text-anchor="start" dominant-baseline="alphabetic" transform="matrix(1, 0, 0, 1, 0.5, 0.5)" fill-opacity="1">0.8</text><text fill="none" stroke="rgb(0,0,0)" font-family="helvetica" font-size="40pt" font-style="normal" font-weight="normal" text-decoration="normal" x="2330.1290435791016" y="935.2528190612793" text-anchor="start" dominant-baseline="alphabetic" transform="matrix(1, 0, 0, 1, 0.5, 0.5)" stroke-opacity="0" stroke-linejoin="bevel" stroke-miterlimit="10">0.8</text><text fill="rgb(68,68,68)" stroke="none" font-family="helvetica" font-size="40pt" font-style="normal" font-weight="normal" text-decoration="normal" x="3151.6214752197266" y="935.2528190612793" text-anchor="start" dominant-baseline="alphabetic" transform="matrix(1, 0, 0, 1, 0.5, 0.5)" fill-opacity="1">0.9</text><text fill="none" stroke="rgb(0,0,0)" font-family="helvetica" font-size="40pt" font-style="normal" font-weight="normal" text-decoration="normal" x="3151.6214752197266" y="935.2528190612793" text-anchor="start" dominant-baseline="alphabetic" transform="matrix(1, 0, 0, 1, 0.5, 0.5)" stroke-opacity="0" stroke-linejoin="bevel" stroke-miterlimit="10">0.9</text><text fill="rgb(68,68,68)" stroke="none" font-family="helvetica" font-size="40pt" font-style="normal" font-weight="normal" text-decoration="normal" x="3995.3523330688477" y="935.2528190612793" text-anchor="start" dominant-baseline="alphabetic" transform="matrix(1, 0, 0, 1, 0.5, 0.5)" fill-opacity="1">1</text><text fill="none" stroke="rgb(0,0,0)" font-family="helvetica" font-size="40pt" font-style="normal" font-weight="normal" text-decoration="normal" x="3995.3523330688477" y="935.2528190612793" text-anchor="start" dominant-baseline="alphabetic" transform="matrix(1, 0, 0, 1, 0.5, 0.5)" stroke-opacity="0" stroke-linejoin="bevel" stroke-miterlimit="10">1</text><path fill="none" stroke="rgb(0,0,0)" paint-order="fill" d="M 192.5 886.5 L 192.5 86.5" stroke-opacity="1" stroke-linejoin="bevel" stroke-miterlimit="10"/><path fill="none" stroke="rgb(0,0,0)" paint-order="fill" d="M 186.5 786.5 L 194.5 786.5 M 186.5 586.5 L 194.5 586.5 M 186.5 386.5 L 194.5 386.5 M 186.5 186.5 L 194.5 186.5" stroke-opacity="1" stroke-linejoin="bevel" stroke-miterlimit="10"/><path fill="none" stroke="rgb(0,0,0)" paint-order="fill" d="" stroke-opacity="1" stroke-linejoin="bevel" stroke-miterlimit="10"/><text fill="rgb(68,68,68)" stroke="none" font-family="helvetica" font-size="40pt" font-style="normal" font-weight="normal" text-decoration="normal" x="3.14654541015625" y="804.5" text-anchor="start" dominant-baseline="alphabetic" transform="matrix(1, 0, 0, 1, 0.5, 0.5)" fill-opacity="1">ASO_A</text><text fill="none" stroke="rgb(0,0,0)" font-family="helvetica" font-size="40pt" font-style="normal" font-weight="normal" text-decoration="normal" x="3.14654541015625" y="804.5" text-anchor="start" dominant-baseline="alphabetic" transform="matrix(1, 0, 0, 1, 0.5, 0.5)" stroke-opacity="0" stroke-linejoin="bevel" stroke-miterlimit="10">ASO_A</text><text fill="rgb(68,68,68)" stroke="none" font-family="helvetica" font-size="40pt" font-style="normal" font-weight="normal" text-decoration="normal" x="32.858245849609375" y="604.5" text-anchor="start" dominant-baseline="alphabetic" transform="matrix(1, 0, 0, 1, 0.5, 0.5)" fill-opacity="1">WT_A</text><text fill="none" stroke="rgb(0,0,0)" font-family="helvetica" font-size="40pt" font-style="normal" font-weight="normal" text-decoration="normal" x="32.858245849609375" y="604.5" text-anchor="start" dominant-baseline="alphabetic" transform="matrix(1, 0, 0, 1, 0.5, 0.5)" stroke-opacity="0" stroke-linejoin="bevel" stroke-miterlimit="10">WT_A</text><text fill="rgb(68,68,68)" stroke="none" font-family="helvetica" font-size="40pt" font-style="normal" font-weight="normal" text-decoration="normal" x="3.14654541015625" y="404.5" text-anchor="start" dominant-baseline="alphabetic" transform="matrix(1, 0, 0, 1, 0.5, 0.5)" fill-opacity="1">ASO_V</text><text fill="none" stroke="rgb(0,0,0)" font-family="helvetica" font-size="40pt" font-style="normal" font-weight="normal" text-decoration="normal" x="3.14654541015625" y="404.5" text-anchor="start" dominant-baseline="alphabetic" transform="matrix(1, 0, 0, 1, 0.5, 0.5)" stroke-opacity="0" stroke-linejoin="bevel" stroke-miterlimit="10">ASO_V</text><text fill="rgb(68,68,68)" stroke="none" font-family="helvetica" font-size="40pt" font-style="normal" font-weight="normal" text-decoration="normal" x="32.858245849609375" y="204.5" text-anchor="start" dominant-baseline="alphabetic" transform="matrix(1, 0, 0, 1, 0.5, 0.5)" fill-opacity="1">WT_V</text><text fill="none" stroke="rgb(0,0,0)" font-family="helvetica" font-size="40pt" font-style="normal" font-weight="normal" text-decoration="normal" x="32.858245849609375" y="204.5" text-anchor="start" dominant-baseline="alphabetic" transform="matrix(1, 0, 0, 1, 0.5, 0.5)" stroke-opacity="0" stroke-linejoin="bevel" stroke-miterlimit="10">WT_V</text><text fill="rgb(68,68,68)" stroke="none" font-family="helvetica" font-size="48pt" font-style="normal" font-weight="bold" text-decoration="normal" x="192" y="66" text-anchor="start" dominant-baseline="alphabetic" transform="matrix(1, 0, 0, 1, 0.5, 0.5)" fill-opacity="1">omega 95%CI, lognormal mixed model</text><text fill="none" stroke="rgb(0,0,0)" font-family="helvetica" font-size="48pt" font-style="normal" font-weight="bold" text-decoration="normal" x="192" y="66" text-anchor="start" dominant-baseline="alphabetic" transform="matrix(1, 0, 0, 1, 0.5, 0.5)" stroke-opacity="0" stroke-miterlimit="10" stroke-dasharray="">omega 95%CI, lognormal mixed model</text></svg>