<svg version="1.1" xmlns="http://www.w3.org/2000/svg" width="4197" height="938"><defs><clipPath id="fAhkVByaohBG"><path fill="none" stroke="none" d="M 192.5 86.5 L 4192.5 86.5 L 4192.5 886.5 L 192.5 886.5 L 192.5 86.5 Z"/></clipPath><clipPath id="bnhusPITqZny"><path fill="none" stroke="none" d="M 192.5 86.5 L 4192.5 86.5 L 4192.5 886.5 L 192.5 886.5 L 192.5 86.5 Z"/></clipPath><clipPath id="XyDhbsEKUOFt"><path fill="none" stroke="none" d="M 192.5 86.5 L 4192.5 86.5 L 4192.5 886.5 L 192.5 886.5 L 192.5 86.5 Z"/></clipPath><clipPath id="csUglMOTgCnB"><path fill="none" stroke="none" d="M 192.5 86.5 L 4192.5 86.5 L 4192.5 886.5 L 192.5 886.5 L 192.5 86.5 Z"/></clipPath><clipPath id="aLfINlbyKFbw"><path fill="none" stroke="none" d="M 192.5 86.5 L 4192.5 86.5 L 4192.5 886.5 L 192.5 886.5 L 192.5 86.5 Z"/></clipPath><clipPath id="lZkpfMzZwRtz"><path fill="none" stroke="none" d="M 192.5 86.5 L 4192.5 86.5 L 4192.5 886.5 L 192.5 886.5 L 192.5 86.5 Z"/></clipPath><clipPath id="JRzbTBJbXLTp"><path fill="none" stroke="none" d="M 192.5 86.5 L 4192.5 86.5 L 4192.5 886.5 L 192.5 886.5 L 192.5 86.5 Z"/></clipPath><clipPath id="HbKkRFTENive"><path fill="none" stroke="none" d="M 192.5 86.5 L 4192.5 86.5 L 4192.5 886.5 L 192.5 886.5 L 192.5 86.5 Z"/></clipPath><clipPath id="CPQGaQOofwaD"><path fill="none" stroke="none" d="M 192.5 86.5 L 4192.5 86.5 L 4192.5 886.5 L 192.5 886.5 L 192.5 86.5 Z"/></clipPath><clipPath id="VkrQpRFtGcJu"><path fill="none" stroke="none" d="M 192.5 86.5 L 4192.5 86.5 L 4192.5 886.5 L 192.5 886.5 L 192.5 86.5 Z"/></clipPath><clipPath id="qsQiositWtZM"><path fill="none" stroke="none" d="M 192.5 86.5 L 4192.5 86.5 L 4192.5 886.5 L 192.5 886.5 L 192.5 86.5 Z"/></clipPath></defs><path fill="rgb(255,255,255)" stroke="none" paint-order="stroke" d="M 0.5 0.5 L 4197.5 0.5 L 4197.5 938.5 L 0.5 938.5 L 0.5 0.5 Z" fill-opacity="1"/><rect fill="#FFFFFF" stroke="none" x="192" y="86" width="4000" height="800" transform="matrix(1, 0, 0, 1, 0.5, 0.5)"/><path fill="rgb(255,255,255)" stroke="none" paint-order="stroke" d="M 192.5 86.5 L 4192.5 86.5 L 4192.5 886.5 L 192.5 886.5 L 192.5 86.5 Z" fill-opacity="1"/><path fill="none" stroke="rgb(229,229,229)" paint-order="fill" d="M 192.5 86.5 L 4192.5 86.5 L 4192.5 886.5 L 192.5 886.5 L 192.5 86.5 Z" stroke-opacity="1" stroke-linejoin="bevel" stroke-miterlimit="10"/><path fill="none" stroke="rgb(229,229,229)" paint-order="fill" d="M 775.5 886.5 L 775.5 86.5 M 1406.5 886.5 L 1406.5 86.5 M 2037.5 886.5 L 2037.5 86.5 M 2668.5 886.5 L 2668.5 86.5 M 3299.5 886.5 L 3299.5 86.5 M 3930.5 886.5 L 3930.5 86.5" stroke-opacity="1" stroke-linejoin="bevel" stroke-miterlimit="10" clip-path="url(#fAhkVByaohBG)"/><path fill="none" stroke="rgb(229,229,229)" paint-order="fill" d="M 192.5 786.5 L 4192.5 786.5 M 192.5 586.5 L 4192.5 586.5 M 192.5 386.5 L 4192.5 386.5 M 192.5 186.5 L 4192.5 186.5" stroke-opacity="1" stroke-linejoin="bevel" stroke-miterlimit="10" clip-path="url(#bnhusPITqZny)"/><path fill="rgb(107,174,214)" stroke="rgb(107,174,214)" paint-order="fill" d="M 2813.22119140625 186.5 A 7.5 7.5 0 0 1 2798.22119140625 186.5 A 7.5 7.5 0 0 1 2813.22119140625 186.5" fill-opacity="1" clip-path="url(#XyDhbsEKUOFt)" stroke-opacity="1" stroke-linejoin="bevel" stroke-miterlimit="10"/><path fill="none" stroke="rgb(107,174,214)" paint-order="fill" d="M 1767.210693359375 186.5 L 3798.11376953125 186.5" stroke-opacity="1" stroke-linejoin="bevel" stroke-miterlimit="10" stroke-width="5" clip-path="url(#csUglMOTgCnB)"/><path fill="rgb(8,81,156)" stroke="rgb(8,81,156)" paint-order="fill" d="M 1198.5455322265625 386.5 A 7.5 7.5 0 0 1 1183.5455322265625 386.5 A 7.5 7.5 0 0 1 1198.5455322265625 386.5" fill-opacity="1" clip-path="url(#aLfINlbyKFbw)" stroke-opacity="1" stroke-linejoin="bevel" stroke-miterlimit="10"/><path fill="none" stroke="rgb(8,81,156)" paint-order="fill" d="M 374.31817626953125 386.5 L 1925.2164306640625 386.5" stroke-opacity="1" stroke-linejoin="bevel" stroke-miterlimit="10" stroke-width="5" clip-path="url(#lZkpfMzZwRtz)"/><path fill="rgb(107,174,214)" stroke="rgb(107,174,214)" paint-order="fill" d="M 2722.857177734375 586.5 A 7.5 7.5 0 0 1 2707.857177734375 586.5 A 7.5 7.5 0 0 1 2722.857177734375 586.5" fill-opacity="1" clip-path="url(#JRzbTBJbXLTp)" stroke-opacity="1" stroke-linejoin="bevel" stroke-miterlimit="10"/><path fill="none" stroke="rgb(107,174,214)" paint-order="fill" d="M 1616.73583984375 586.5 L 3771.75732421875 586.5" stroke-opacity="1" stroke-linejoin="bevel" stroke-miterlimit="10" stroke-width="5" clip-path="url(#HbKkRFTENive)"/><path fill="rgb(8,81,156)" stroke="rgb(8,81,156)" paint-order="fill" d="M 2253.440673828125 786.5 A 7.5 7.5 0 0 1 2238.440673828125 786.5 A 7.5 7.5 0 0 1 2253.440673828125 786.5" fill-opacity="1" clip-path="url(#CPQGaQOofwaD)" stroke-opacity="1" stroke-linejoin="bevel" stroke-miterlimit="10"/><path fill="none" stroke="rgb(8,81,156)" paint-order="fill" d="M 743.70166015625 786.5 L 4010.681884765625 786.5" stroke-opacity="1" stroke-linejoin="bevel" stroke-miterlimit="10" stroke-width="5" clip-path="url(#VkrQpRFtGcJu)"/><path fill="none" stroke="rgb(0,0,0)" paint-order="fill" d="M 192.5 886.5 L 4192.5 886.5" stroke-opacity="1" stroke-linejoin="bevel" stroke-miterlimit="10"/><path fill="none" stroke="rgb(0,0,0)" paint-order="fill" d="M 775.5 892.5 L 775.5 884.5 M 1406.5 892.5 L 1406.5 884.5 M 2037.5 892.5 L 2037.5 884.5 M 2668.5 892.5 L 2668.5 884.5 M 3299.5 892.5 L 3299.5 884.5 M 3930.5 892.5 L 3930.5 884.5" stroke-opacity="1" stroke-linejoin="bevel" stroke-miterlimit="10"/><path fill="none" stroke="rgb(0,0,0)" paint-order="fill" d="M 649.5 890.5 L 649.5 886.5 M 523.5 890.5 L 523.5 886.5 M 397.5 890.5 L 397.5 886.5 M 271.5 890.5 L 271.5 886.5 M 775.5 890.5 L 775.5 886.5 M 901.5 890.5 L 901.5 886.5 M 1028.5 890.5 L 1028.5 886.5 M 1154.5 890.5 L 1154.5 886.5 M 1280.5 890.5 L 1280.5 886.5 M 1406.5 890.5 L 1406.5 886.5 M 1532.5 890.5 L 1532.5 886.5 M 1659.5 890.5 L 1659.5 886.5 M 1785.5 890.5 L 1785.5 886.5 M 1911.5 890.5 L 1911.5 886.5 M 2037.5 890.5 L 2037.5 886.5 M 2163.5 890.5 L 2163.5 886.5 M 2289.5 890.5 L 2289.5 886.5 M 2416.5 890.5 L 2416.5 886.5 M 2542.5 890.5 L 2542.5 886.5 M 2668.5 890.5 L 2668.5 886.5 M 2794.5 890.5 L 2794.5 886.5 M 2920.5 890.5 L 2920.5 886.5 M 3046.5 890.5 L 3046.5 886.5 M 3173.5 890.5 L 3173.5 886.5 M 3299.5 890.5 L 3299.5 886.5 M 3425.5 890.5 L 3425.5 886.5 M 3551.5 890.5 L 3551.5 886.5 M 3677.5 890.5 L 3677.5 886.5 M 3804.5 890.5 L 3804.5 886.5 M 3930.5 890.5 L 3930.5 886.5 M 4056.5 890.5 L 4056.5 886.5 M 4182.5 890.5 L 4182.5 886.5" stroke-opacity="1" stroke-linejoin="bevel" stroke-miterlimit="10"/><text fill="rgb(68,68,68)" stroke="none" font-family="helvetica" font-size="40pt" font-style="normal" font-weight="normal" text-decoration="normal" x="738.2053985595703" y="935.2528190612793" text-anchor="start" dominant-baseline="alphabetic" transform="matrix(1, 0, 0, 1, 0.5, 0.5)" fill-opacity="1">0.4</text><text fill="none" stroke="rgb(0,0,0)" font-family="helvetica" font-size="40pt" font-style="normal" font-weight="normal" text-decoration="normal" x="738.2053985595703" y="935.2528190612793" text-anchor="start" dominant-baseline="alphabetic" transform="matrix(1, 0, 0, 1, 0.5, 0.5)" stroke-opacity="0" stroke-linejoin="bevel" stroke-miterlimit="10">0.4</text><text fill="rgb(68,68,68)" stroke="none" font-family="helvetica" font-size="40pt" font-style="normal" font-weight="normal" text-decoration="normal" x="1369.1012115478516" y="935.2528190612793" text-anchor="start" dominant-baseline="alphabetic" transform="matrix(1, 0, 0, 1, 0.5, 0.5)" fill-opacity="1">0.5</text><text fill="none" stroke="rgb(0,0,0)" font-family="helvetica" font-size="40pt" font-style="normal" font-weight="normal" text-decoration="normal" x="1369.1012115478516" y="935.2528190612793" text-anchor="start" dominant-baseline="alphabetic" transform="matrix(1, 0, 0, 1, 0.5, 0.5)" stroke-opacity="0" stroke-linejoin="bevel" stroke-miterlimit="10">0.5</text><text fill="rgb(68,68,68)" stroke="none" font-family="helvetica" font-size="40pt" font-style="normal" font-weight="normal" text-decoration="normal" x="1999.9969635009766" y="935.2528190612793" text-anchor="start" dominant-baseline="alphabetic" transform="matrix(1, 0, 0, 1, 0.5, 0.5)" fill-opacity="1">0.6</text><text fill="none" stroke="rgb(0,0,0)" font-family="helvetica" font-size="40pt" font-style="normal" font-weight="normal" text-decoration="normal" x="1999.9969635009766" y="935.2528190612793" text-anchor="start" dominant-baseline="alphabetic" transform="matrix(1, 0, 0, 1, 0.5, 0.5)" stroke-opacity="0" stroke-linejoin="bevel" stroke-miterlimit="10">0.6</text><text fill="rgb(68,68,68)" stroke="none" font-family="helvetica" font-size="40pt" font-style="normal" font-weight="normal" text-decoration="normal" x="2630.8927154541016" y="935.2528190612793" text-anchor="start" dominant-baseline="alphabetic" transform="matrix(1, 0, 0, 1, 0.5, 0.5)" fill-opacity="1">0.7</text><text fill="none" stroke="rgb(0,0,0)" font-family="helvetica" font-size="40pt" font-style="normal" font-weight="normal" text-decoration="normal" x="2630.8927154541016" y="935.2528190612793" text-anchor="start" dominant-baseline="alphabetic" transform="matrix(1, 0, 0, 1, 0.5, 0.5)" stroke-opacity="0" stroke-linejoin="bevel" stroke-miterlimit="10">0.7</text><text fill="rgb(68,68,68)" stroke="none" font-family="helvetica" font-size="40pt" font-style="normal" font-weight="normal" text-decoration="normal" x="3261.7884674072266" y="935.2528190612793" text-anchor="start" dominant-baseline="alphabetic" transform="matrix(1, 0, 0, 1, 0.5, 0.5)" fill-opacity="1">0.8</text><text fill="none" stroke="rgb(0,0,0)" font-family="helvetica" font-size="40pt" font-style="normal" font-weight="normal" text-decoration="normal" x="3261.7884674072266" y="935.2528190612793" text-anchor="start" dominant-baseline="alphabetic" transform="matrix(1, 0, 0, 1, 0.5, 0.5)" stroke-opacity="0" stroke-linejoin="bevel" stroke-miterlimit="10">0.8</text><text fill="rgb(68,68,68)" stroke="none" font-family="helvetica" font-size="40pt" font-style="normal" font-weight="normal" text-decoration="normal" x="3892.6842193603516" y="935.2528190612793" text-anchor="start" dominant-baseline="alphabetic" transform="matrix(1, 0, 0, 1, 0.5, 0.5)" fill-opacity="1">0.9</text><text fill="none" stroke="rgb(0,0,0)" font-family="helvetica" font-size="40pt" font-style="normal" font-weight="normal" text-decoration="normal" x="3892.6842193603516" y="935.2528190612793" text-anchor="start" dominant-baseline="alphabetic" transform="matrix(1, 0, 0, 1, 0.5, 0.5)" stroke-opacity="0" stroke-linejoin="bevel" stroke-miterlimit="10">0.9</text><path fill="none" stroke="rgb(0,0,0)" paint-order="fill" d="M 192.5 886.5 L 192.5 86.5" stroke-opacity="1" stroke-linejoin="bevel" stroke-miterlimit="10"/><path fill="none" stroke="rgb(0,0,0)" paint-order="fill" d="M 186.5 786.5 L 194.5 786.5 M 186.5 586.5 L 194.5 586.5 M 186.5 386.5 L 194.5 386.5 M 186.5 186.5 L 194.5 186.5" stroke-opacity="1" stroke-linejoin="bevel" stroke-miterlimit="10"/><path fill="none" stroke="rgb(0,0,0)" paint-order="fill" d="" stroke-opacity="1" stroke-linejoin="bevel" stroke-miterlimit="10"/><text fill="rgb(68,68,68)" stroke="none" font-family="helvetica" font-size="40pt" font-style="normal" font-weight="normal" text-decoration="normal" x="3.14654541015625" y="804.5" text-anchor="start" dominant-baseline="alphabetic" transform="matrix(1, 0, 0, 1, 0.5, 0.5)" fill-opacity="1">ASO_A</text><text fill="none" stroke="rgb(0,0,0)" font-family="helvetica" font-size="40pt" font-style="normal" font-weight="normal" text-decoration="normal" x="3.14654541015625" y="804.5" text-anchor="start" dominant-baseline="alphabetic" transform="matrix(1, 0, 0, 1, 0.5, 0.5)" stroke-opacity="0" stroke-linejoin="bevel" stroke-miterlimit="10">ASO_A</text><text fill="rgb(68,68,68)" stroke="none" font-family="helvetica" font-size="40pt" font-style="normal" font-weight="normal" text-decoration="normal" x="32.858245849609375" y="604.5" text-anchor="start" dominant-baseline="alphabetic" transform="matrix(1, 0, 0, 1, 0.5, 0.5)" fill-opacity="1">WT_A</text><text fill="none" stroke="rgb(0,0,0)" font-family="helvetica" font-size="40pt" font-style="normal" font-weight="normal" text-decoration="normal" x="32.858245849609375" y="604.5" text-anchor="start" dominant-baseline="alphabetic" transform="matrix(1, 0, 0, 1, 0.5, 0.5)" stroke-opacity="0" stroke-linejoin="bevel" stroke-miterlimit="10">WT_A</text><text fill="rgb(68,68,68)" stroke="none" font-family="helvetica" font-size="40pt" font-style="normal" font-weight="normal" text-decoration="normal" x="3.14654541015625" y="404.5" text-anchor="start" dominant-baseline="alphabetic" transform="matrix(1, 0, 0, 1, 0.5, 0.5)" fill-opacity="1">ASO_V</text><text fill="none" stroke="rgb(0,0,0)" font-family="helvetica" font-size="40pt" font-style="normal" font-weight="normal" text-decoration="normal" x="3.14654541015625" y="404.5" text-anchor="start" dominant-baseline="alphabetic" transform="matrix(1, 0, 0, 1, 0.5, 0.5)" stroke-opacity="0" stroke-linejoin="bevel" stroke-miterlimit="10">ASO_V</text><text fill="rgb(68,68,68)" stroke="none" font-family="helvetica" font-size="40pt" font-style="normal" font-weight="normal" text-decoration="normal" x="32.858245849609375" y="204.5" text-anchor="start" dominant-baseline="alphabetic" transform="matrix(1, 0, 0, 1, 0.5, 0.5)" fill-opacity="1">WT_V</text><text fill="none" stroke="rgb(0,0,0)" font-family="helvetica" font-size="40pt" font-style="normal" font-weight="normal" text-decoration="normal" x="32.858245849609375" y="204.5" text-anchor="start" dominant-baseline="alphabetic" transform="matrix(1, 0, 0, 1, 0.5, 0.5)" stroke-opacity="0" stroke-linejoin="bevel" stroke-miterlimit="10">WT_V</text><text fill="rgb(68,68,68)" stroke="none" font-family="helvetica" font-size="48pt" font-style="normal" font-weight="bold" text-decoration="normal" x="192" y="66" text-anchor="start" dominant-baseline="alphabetic" transform="matrix(1, 0, 0, 1, 0.5, 0.5)" fill-opacity="1">sigma 95%CI, lognormal mixed model</text><text fill="none" stroke="rgb(0,0,0)" font-family="helvetica" font-size="48pt" font-style="normal" font-weight="bold" text-decoration="normal" x="192" y="66" text-anchor="start" dominant-baseline="alphabetic" transform="matrix(1, 0, 0, 1, 0.5, 0.5)" stroke-opacity="0" stroke-miterlimit="10" stroke-dasharray="">sigma 95%CI, lognormal mixed model</text></svg>