<svg version="1.1" xmlns="http://www.w3.org/2000/svg" width="4197" height="929"><defs><clipPath id="raEEpTAwWmta"><path fill="none" stroke="none" d="M 0.5 0.5 L 4197.5 0.5 L 4197.5 929.5 L 0.5 929.5 L 0.5 0.5 Z M 192.5 77.5 L 4192.5 77.5 L 4192.5 877.5 L 192.5 877.5 L 192.5 77.5 Z" clip-rule="evenodd"/></clipPath><clipPath id="KLXnsmGWuDOT"><path fill="none" stroke="none" d="M 192.5 77.5 L 4192.5 77.5 L 4192.5 877.5 L 192.5 877.5 L 192.5 77.5 Z"/></clipPath><clipPath id="csQiOFyTqIsb"><path fill="none" stroke="none" d="M 192.5 77.5 L 4192.5 77.5 L 4192.5 877.5 L 192.5 877.5 L 192.5 77.5 Z"/></clipPath><clipPath id="TusFDfMKwuDM"><path fill="none" stroke="none" d="M 192.5 77.5 L 4192.5 77.5 L 4192.5 877.5 L 192.5 877.5 L 192.5 77.5 Z"/></clipPath><clipPath id="zZdZKdGPTxNM"><path fill="none" stroke="none" d="M 192.5 77.5 L 4192.5 77.5 L 4192.5 877.5 L 192.5 877.5 L 192.5 77.5 Z"/></clipPath><clipPath id="NeKTzKGkmVNo"><path fill="none" stroke="none" d="M 192.5 77.5 L 4192.5 77.5 L 4192.5 877.5 L 192.5 877.5 L 192.5 77.5 Z"/></clipPath><clipPath id="aNBHRBvrOtUv"><path fill="none" stroke="none" d="M 192.5 77.5 L 4192.5 77.5 L 4192.5 877.5 L 192.5 877.5 L 192.5 77.5 Z"/></clipPath><clipPath id="tlcrXsEZxeeJ"><path fill="none" stroke="none" d="M 192.5 77.5 L 4192.5 77.5 L 4192.5 877.5 L 192.5 877.5 L 192.5 77.5 Z"/></clipPath><clipPath id="NaSwrTUIZKXt"><path fill="none" stroke="none" d="M 192.5 77.5 L 4192.5 77.5 L 4192.5 877.5 L 192.5 877.5 L 192.5 77.5 Z"/></clipPath><clipPath id="yIQhhkKlGRUf"><path fill="none" stroke="none" d="M 192.5 77.5 L 4192.5 77.5 L 4192.5 877.5 L 192.5 877.5 L 192.5 77.5 Z"/></clipPath><clipPath id="satgxRnMcSLm"><path fill="none" stroke="none" d="M 192.5 77.5 L 4192.5 77.5 L 4192.5 877.5 L 192.5 877.5 L 192.5 77.5 Z"/></clipPath><clipPath id="LTTxHyUegqhq"><path fill="none" stroke="none" d="M 192.5 77.5 L 4192.5 77.5 L 4192.5 877.5 L 192.5 877.5 L 192.5 77.5 Z"/></clipPath></defs><path fill="#ffffff" stroke="none" paint-order="stroke" d="M 0.5 0.5 L 4197.5 0.5 L 4197.5 929.5 L 0.5 929.5 L 0.5 0.5 Z" clip-path="url(#raEEpTAwWmta)"/><path fill="#ffffff" stroke="none" paint-order="stroke" d="M 192.5 77.5 L 4192.5 77.5 L 4192.5 877.5 L 192.5 877.5 L 192.5 77.5 Z"/><path fill="none" stroke="#e5e5e5" paint-order="fill" d="M 192.5 77.5 L 4192.5 77.5 L 4192.5 877.5 L 192.5 877.5 L 192.5 77.5 Z" stroke-linejoin="bevel" stroke-miterlimit="10"/><path fill="none" stroke="#e5e5e5" paint-order="fill" d="M 617.5 877.5 L 617.5 77.5 M 1709.5 877.5 L 1709.5 77.5 M 2801.5 877.5 L 2801.5 77.5 M 3892.5 877.5 L 3892.5 77.5" stroke-linejoin="bevel" stroke-miterlimit="10" clip-path="url(#KLXnsmGWuDOT)"/><path fill="none" stroke="#e5e5e5" paint-order="fill" d="M 192.5 777.5 L 4192.5 777.5 M 192.5 577.5 L 4192.5 577.5 M 192.5 377.5 L 4192.5 377.5 M 192.5 177.5 L 4192.5 177.5" stroke-linejoin="bevel" stroke-miterlimit="10" clip-path="url(#csQiOFyTqIsb)"/><path fill="rgb(107,174,214)" stroke="rgb(107,174,214)" paint-order="fill" d="M 1220.741943359375 177.5 A 7.5 7.5 0 0 1 1205.741943359375 177.5 A 7.5 7.5 0 0 1 1220.741943359375 177.5" fill-opacity="1" clip-path="url(#TusFDfMKwuDM)" stroke-opacity="1" stroke-linejoin="bevel" stroke-miterlimit="10"/><path fill="none" stroke="#6baed6" paint-order="fill" d="M 407.1739501953125 177.5 L 2010.23583984375 177.5" stroke-linejoin="bevel" stroke-miterlimit="10" stroke-width="5" clip-path="url(#zZdZKdGPTxNM)"/><path fill="rgb(8,81,156)" stroke="rgb(8,81,156)" paint-order="fill" d="M 2188.71044921875 377.5 A 7.5 7.5 0 0 1 2173.71044921875 377.5 A 7.5 7.5 0 0 1 2188.71044921875 377.5" fill-opacity="1" clip-path="url(#NeKTzKGkmVNo)" stroke-opacity="1" stroke-linejoin="bevel" stroke-miterlimit="10"/><path fill="none" stroke="#08519c" paint-order="fill" d="M 1473.6016845703125 377.5 L 2850.269287109375 377.5" stroke-linejoin="bevel" stroke-miterlimit="10" stroke-width="5" clip-path="url(#aNBHRBvrOtUv)"/><path fill="rgb(107,174,214)" stroke="rgb(107,174,214)" paint-order="fill" d="M 2261.509033203125 577.5 A 7.5 7.5 0 0 1 2246.509033203125 577.5 A 7.5 7.5 0 0 1 2261.509033203125 577.5" fill-opacity="1" clip-path="url(#tlcrXsEZxeeJ)" stroke-opacity="1" stroke-linejoin="bevel" stroke-miterlimit="10"/><path fill="none" stroke="#6baed6" paint-order="fill" d="M 715.8084106445312 577.5 L 4010.681884765625 577.5" stroke-linejoin="bevel" stroke-miterlimit="10" stroke-width="5" clip-path="url(#NaSwrTUIZKXt)"/><path fill="rgb(8,81,156)" stroke="rgb(8,81,156)" paint-order="fill" d="M 1810.8172607421875 777.5 A 7.5 7.5 0 0 1 1795.8172607421875 777.5 A 7.5 7.5 0 0 1 1810.8172607421875 777.5" fill-opacity="1" clip-path="url(#yIQhhkKlGRUf)" stroke-opacity="1" stroke-linejoin="bevel" stroke-miterlimit="10"/><path fill="none" stroke="#08519c" paint-order="fill" d="M 374.31817626953125 777.5 L 3426.123779296875 777.5" stroke-linejoin="bevel" stroke-miterlimit="10" stroke-width="5" clip-path="url(#satgxRnMcSLm)"/><path fill="none" stroke="black" paint-order="fill" d="M 192.5 877.5 L 4192.5 877.5" stroke-linejoin="bevel" stroke-miterlimit="10"/><path fill="none" stroke="black" paint-order="fill" d="M 617.5 883.5 L 617.5 875.5 M 1709.5 883.5 L 1709.5 875.5 M 2801.5 883.5 L 2801.5 875.5 M 3892.5 883.5 L 3892.5 875.5" stroke-linejoin="bevel" stroke-miterlimit="10"/><path fill="none" stroke="black" paint-order="fill" d="M 399.5 881.5 L 399.5 877.5 M 617.5 881.5 L 617.5 877.5 M 835.5 881.5 L 835.5 877.5 M 1054.5 881.5 L 1054.5 877.5 M 1272.5 881.5 L 1272.5 877.5 M 1491.5 881.5 L 1491.5 877.5 M 1709.5 881.5 L 1709.5 877.5 M 1927.5 881.5 L 1927.5 877.5 M 2146.5 881.5 L 2146.5 877.5 M 2364.5 881.5 L 2364.5 877.5 M 2582.5 881.5 L 2582.5 877.5 M 2801.5 881.5 L 2801.5 877.5 M 3019.5 881.5 L 3019.5 877.5 M 3237.5 881.5 L 3237.5 877.5 M 3456.5 881.5 L 3456.5 877.5 M 3674.5 881.5 L 3674.5 877.5 M 3892.5 881.5 L 3892.5 877.5 M 4111.5 881.5 L 4111.5 877.5" stroke-linejoin="bevel" stroke-miterlimit="10"/><text fill="#444444" stroke="none" font-family="helvetica" font-size="40pt" font-style="normal" font-weight="normal" text-decoration="normal" x="579.9657745361328" y="926.374755859375" text-anchor="start" dominant-baseline="alphabetic" transform="matrix(1, 0, 0, 1, 0.5, 0.5)">1.5</text><text fill="none" stroke="rgb(0,0,0)" font-family="helvetica" font-size="40pt" font-style="normal" font-weight="normal" text-decoration="normal" x="579.9657745361328" y="926.374755859375" text-anchor="start" dominant-baseline="alphabetic" transform="matrix(1, 0, 0, 1, 0.5, 0.5)" stroke-opacity="0" stroke-linejoin="bevel" stroke-miterlimit="10">1.5</text><text fill="#444444" stroke="none" font-family="helvetica" font-size="40pt" font-style="normal" font-weight="normal" text-decoration="normal" x="1693.9854736328125" y="926.374755859375" text-anchor="start" dominant-baseline="alphabetic" transform="matrix(1, 0, 0, 1, 0.5, 0.5)">2</text><text fill="none" stroke="rgb(0,0,0)" font-family="helvetica" font-size="40pt" font-style="normal" font-weight="normal" text-decoration="normal" x="1693.9854736328125" y="926.374755859375" text-anchor="start" dominant-baseline="alphabetic" transform="matrix(1, 0, 0, 1, 0.5, 0.5)" stroke-opacity="0" stroke-linejoin="bevel" stroke-miterlimit="10">2</text><text fill="#444444" stroke="none" font-family="helvetica" font-size="40pt" font-style="normal" font-weight="normal" text-decoration="normal" x="2763.388687133789" y="926.374755859375" text-anchor="start" dominant-baseline="alphabetic" transform="matrix(1, 0, 0, 1, 0.5, 0.5)">2.5</text><text fill="none" stroke="rgb(0,0,0)" font-family="helvetica" font-size="40pt" font-style="normal" font-weight="normal" text-decoration="normal" x="2763.388687133789" y="926.374755859375" text-anchor="start" dominant-baseline="alphabetic" transform="matrix(1, 0, 0, 1, 0.5, 0.5)" stroke-opacity="0" stroke-linejoin="bevel" stroke-miterlimit="10">2.5</text><text fill="#444444" stroke="none" font-family="helvetica" font-size="40pt" font-style="normal" font-weight="normal" text-decoration="normal" x="3877.408447265625" y="926.374755859375" text-anchor="start" dominant-baseline="alphabetic" transform="matrix(1, 0, 0, 1, 0.5, 0.5)">3</text><text fill="none" stroke="rgb(0,0,0)" font-family="helvetica" font-size="40pt" font-style="normal" font-weight="normal" text-decoration="normal" x="3877.408447265625" y="926.374755859375" text-anchor="start" dominant-baseline="alphabetic" transform="matrix(1, 0, 0, 1, 0.5, 0.5)" stroke-opacity="0" stroke-linejoin="bevel" stroke-miterlimit="10">3</text><path fill="none" stroke="black" paint-order="fill" d="M 192.5 877.5 L 192.5 77.5" stroke-linejoin="bevel" stroke-miterlimit="10"/><path fill="none" stroke="black" paint-order="fill" d="M 186.5 777.5 L 194.5 777.5 M 186.5 577.5 L 194.5 577.5 M 186.5 377.5 L 194.5 377.5 M 186.5 177.5 L 194.5 177.5" stroke-linejoin="bevel" stroke-miterlimit="10"/><path fill="none" stroke="black" paint-order="fill" d="" stroke-linejoin="bevel" stroke-miterlimit="10"/><text fill="#444444" stroke="none" font-family="helvetica" font-size="40pt" font-style="normal" font-weight="normal" text-decoration="normal" x="2.5833282470703125" y="791.5" text-anchor="start" dominant-baseline="alphabetic" transform="matrix(1, 0, 0, 1, 0.5, 0.5)">ASO_A</text><text fill="none" stroke="rgb(0,0,0)" font-family="helvetica" font-size="40pt" font-style="normal" font-weight="normal" text-decoration="normal" x="2.5833282470703125" y="791.5" text-anchor="start" dominant-baseline="alphabetic" transform="matrix(1, 0, 0, 1, 0.5, 0.5)" stroke-opacity="0" stroke-linejoin="bevel" stroke-miterlimit="10">ASO_A</text><text fill="#444444" stroke="none" font-family="helvetica" font-size="40pt" font-style="normal" font-weight="normal" text-decoration="normal" x="32.383331298828125" y="591.5" text-anchor="start" dominant-baseline="alphabetic" transform="matrix(1, 0, 0, 1, 0.5, 0.5)">WT_A</text><text fill="none" stroke="rgb(0,0,0)" font-family="helvetica" font-size="40pt" font-style="normal" font-weight="normal" text-decoration="normal" x="32.383331298828125" y="591.5" text-anchor="start" dominant-baseline="alphabetic" transform="matrix(1, 0, 0, 1, 0.5, 0.5)" stroke-opacity="0" stroke-linejoin="bevel" stroke-miterlimit="10">WT_A</text><text fill="#444444" stroke="none" font-family="helvetica" font-size="40pt" font-style="normal" font-weight="normal" text-decoration="normal" x="2.5833282470703125" y="391.5" text-anchor="start" dominant-baseline="alphabetic" transform="matrix(1, 0, 0, 1, 0.5, 0.5)">ASO_V</text><text fill="none" stroke="rgb(0,0,0)" font-family="helvetica" font-size="40pt" font-style="normal" font-weight="normal" text-decoration="normal" x="2.5833282470703125" y="391.5" text-anchor="start" dominant-baseline="alphabetic" transform="matrix(1, 0, 0, 1, 0.5, 0.5)" stroke-opacity="0" stroke-linejoin="bevel" stroke-miterlimit="10">ASO_V</text><text fill="#444444" stroke="none" font-family="helvetica" font-size="40pt" font-style="normal" font-weight="normal" text-decoration="normal" x="32.383331298828125" y="191.5" text-anchor="start" dominant-baseline="alphabetic" transform="matrix(1, 0, 0, 1, 0.5, 0.5)">WT_V</text><text fill="none" stroke="rgb(0,0,0)" font-family="helvetica" font-size="40pt" font-style="normal" font-weight="normal" text-decoration="normal" x="32.383331298828125" y="191.5" text-anchor="start" dominant-baseline="alphabetic" transform="matrix(1, 0, 0, 1, 0.5, 0.5)" stroke-opacity="0" stroke-linejoin="bevel" stroke-miterlimit="10">WT_V</text><text fill="#444444" stroke="none" font-family="helvetica" font-size="48pt" font-style="normal" font-weight="bold" text-decoration="normal" x="0" y="50" text-anchor="start" dominant-baseline="alphabetic" transform="matrix(1, 0, 0, 1, 192.5, 7.5)">mu 95%CI, lognormal mixed model</text><text fill="none" stroke="rgb(0,0,0)" font-family="helvetica" font-size="48pt" font-style="normal" font-weight="bold" text-decoration="normal" x="0" y="50" text-anchor="start" dominant-baseline="alphabetic" transform="matrix(1, 0, 0, 1, 192.5, 7.5)" stroke-opacity="0" stroke-miterlimit="10" stroke-dasharray="">mu 95%CI, lognormal mixed model</text></svg>