<?xml version="1.0" encoding="UTF-8"?>
<svg id="Layer_1" xmlns="http://www.w3.org/2000/svg" xmlns:xlink="http://www.w3.org/1999/xlink" version="1.1" viewBox="0 0 4197 929">
  <!-- Generator: Adobe Illustrator 29.6.1, SVG Export Plug-In . SVG Version: 2.1.1 Build 9)  -->
  <defs>
    <style>
      .st0, .st1, .st2, .st3, .st4 {
        fill: none;
      }

      .st5 {
        fill: #08519c;
      }

      .st5, .st1, .st2, .st3, .st4, .st6 {
        stroke-linejoin: bevel;
      }

      .st5, .st2 {
        stroke: #08519c;
      }

      .st1, .st2 {
        stroke-width: 5px;
      }

      .st1, .st6 {
        stroke: #6baed6;
      }

      .st7 {
        clip-path: url(#clippath-1);
      }

      .st8 {
        clip-path: url(#clippath-3);
      }

      .st9 {
        clip-path: url(#clippath-4);
      }

      .st10 {
        clip-path: url(#clippath-2);
      }

      .st11 {
        clip-path: url(#clippath-7);
      }

      .st12 {
        clip-path: url(#clippath-6);
      }

      .st13 {
        clip-path: url(#clippath-9);
      }

      .st14 {
        clip-path: url(#clippath-8);
      }

      .st15 {
        clip-path: url(#clippath-5);
      }

      .st16 {
        fill: #fff;
      }

      .st3 {
        stroke: #e5e5e5;
      }

      .st4 {
        stroke: #000;
      }

      .st6 {
        fill: #6baed6;
      }

      .st17 {
        clip-path: url(#clippath);
      }
    </style>
    <clipPath id="clippath">
      <rect class="st0" x="192.5" y="77.5" width="4000" height="800"/>
    </clipPath>
    <clipPath id="clippath-1">
      <rect class="st0" x="192.5" y="77.5" width="4000" height="800"/>
    </clipPath>
    <clipPath id="clippath-2">
      <rect class="st0" x="192.5" y="77.5" width="4000" height="800"/>
    </clipPath>
    <clipPath id="clippath-3">
      <rect class="st0" x="192.5" y="77.5" width="4000" height="800"/>
    </clipPath>
    <clipPath id="clippath-4">
      <rect class="st0" x="192.5" y="77.5" width="4000" height="800"/>
    </clipPath>
    <clipPath id="clippath-5">
      <rect class="st0" x="192.5" y="77.5" width="4000" height="800"/>
    </clipPath>
    <clipPath id="clippath-6">
      <rect class="st0" x="192.5" y="77.5" width="4000" height="800"/>
    </clipPath>
    <clipPath id="clippath-7">
      <rect class="st0" x="192.5" y="77.5" width="4000" height="800"/>
    </clipPath>
    <clipPath id="clippath-8">
      <rect class="st0" x="192.5" y="77.5" width="4000" height="800"/>
    </clipPath>
    <clipPath id="clippath-9">
      <rect class="st0" x="192.5" y="77.5" width="4000" height="800"/>
    </clipPath>
  </defs>
  <path class="st16" d="M192.5,77.5h4000v800H192.5V77.5Z"/>
  <path class="st3" d="M192.5,77.5h4000v800H192.5V77.5Z"/>
  <g class="st17">
    <path class="st3" d="M270.5,877.5V77.5M1205.5,877.5V77.5M2140.5,877.5V77.5M3075.5,877.5V77.5M4010.5,877.5V77.5"/>
  </g>
  <g class="st7">
    <path class="st3" d="M192.5,777.5h4000M192.5,577.5h4000M192.5,377.5h4000M192.5,177.5h4000"/>
  </g>
  <g class="st10">
    <path class="st6" d="M3707.55,177.5c0,4.14-3.36,7.5-7.5,7.5s-7.5-3.36-7.5-7.5,3.36-7.5,7.5-7.5,7.5,3.36,7.5,7.5"/>
  </g>
  <g class="st8">
    <path class="st1" d="M3075.6,177.5h935.08"/>
  </g>
  <g class="st9">
    <path class="st5" d="M3593.17,377.5c0,4.14-3.36,7.5-7.5,7.5s-7.5-3.36-7.5-7.5,3.36-7.5,7.5-7.5,7.5,3.36,7.5,7.5"/>
  </g>
  <g class="st15">
    <path class="st2" d="M2735.57,377.5h1275.11"/>
  </g>
  <g class="st12">
    <path class="st6" d="M3298.91,577.5c0,4.14-3.36,7.5-7.5,7.5s-7.5-3.36-7.5-7.5,3.36-7.5,7.5-7.5,7.5,3.36,7.5,7.5"/>
  </g>
  <g class="st11">
    <path class="st1" d="M2212.46,577.5h1798.22"/>
  </g>
  <g class="st14">
    <path class="st5" d="M1942.83,777.5c0,4.14-3.36,7.5-7.5,7.5s-7.5-3.36-7.5-7.5,3.36-7.5,7.5-7.5,7.5,3.36,7.5,7.5"/>
  </g>
  <g class="st13">
    <path class="st2" d="M374.32,777.5h3117.61"/>
  </g>
  <path class="st4" d="M192.5,877.5h4000"/>
  <path class="st4" d="M270.5,883.5v-8M1205.5,883.5v-8M2140.5,883.5v-8M3075.5,883.5v-8M4010.5,883.5v-8"/>
  <path class="st4" d="M270.5,881.5v-4M457.5,881.5v-4M644.5,881.5v-4M831.5,881.5v-4M1018.5,881.5v-4M1205.5,881.5v-4M1392.5,881.5v-4M1579.5,881.5v-4M1766.5,881.5v-4M1953.5,881.5v-4M2140.5,881.5v-4M2327.5,881.5v-4M2514.5,881.5v-4M2701.5,881.5v-4M2888.5,881.5v-4M3075.5,881.5v-4M3262.5,881.5v-4M3449.5,881.5v-4M3636.5,881.5v-4M3823.5,881.5v-4M4010.5,881.5v-4"/>
  <path class="st4" d="M192.5,877.5V77.5"/>
</svg>