<svg version="1.1" xmlns="http://www.w3.org/2000/svg" width="4197" height="938"><defs><clipPath id="eMesCBITFCvQ"><path fill="none" stroke="none" d="M 192.5 86.5 L 4192.5 86.5 L 4192.5 886.5 L 192.5 886.5 L 192.5 86.5 Z"/></clipPath><clipPath id="XTAsSyaTPzEg"><path fill="none" stroke="none" d="M 192.5 86.5 L 4192.5 86.5 L 4192.5 886.5 L 192.5 886.5 L 192.5 86.5 Z"/></clipPath><clipPath id="TqNTKaOxOinC"><path fill="none" stroke="none" d="M 192.5 86.5 L 4192.5 86.5 L 4192.5 886.5 L 192.5 886.5 L 192.5 86.5 Z"/></clipPath><clipPath id="nPCTLPPbIdTC"><path fill="none" stroke="none" d="M 192.5 86.5 L 4192.5 86.5 L 4192.5 886.5 L 192.5 886.5 L 192.5 86.5 Z"/></clipPath><clipPath id="BTLZMZximPtT"><path fill="none" stroke="none" d="M 192.5 86.5 L 4192.5 86.5 L 4192.5 886.5 L 192.5 886.5 L 192.5 86.5 Z"/></clipPath><clipPath id="gqduLRXGAKsl"><path fill="none" stroke="none" d="M 192.5 86.5 L 4192.5 86.5 L 4192.5 886.5 L 192.5 886.5 L 192.5 86.5 Z"/></clipPath><clipPath id="yTAahkAQmAey"><path fill="none" stroke="none" d="M 192.5 86.5 L 4192.5 86.5 L 4192.5 886.5 L 192.5 886.5 L 192.5 86.5 Z"/></clipPath><clipPath id="TvEyFVTWbZhL"><path fill="none" stroke="none" d="M 192.5 86.5 L 4192.5 86.5 L 4192.5 886.5 L 192.5 886.5 L 192.5 86.5 Z"/></clipPath><clipPath id="TRAnaDeUORtE"><path fill="none" stroke="none" d="M 192.5 86.5 L 4192.5 86.5 L 4192.5 886.5 L 192.5 886.5 L 192.5 86.5 Z"/></clipPath><clipPath id="niymdwfiaZhT"><path fill="none" stroke="none" d="M 192.5 86.5 L 4192.5 86.5 L 4192.5 886.5 L 192.5 886.5 L 192.5 86.5 Z"/></clipPath><clipPath id="ymPNasmIblrx"><path fill="none" stroke="none" d="M 192.5 86.5 L 4192.5 86.5 L 4192.5 886.5 L 192.5 886.5 L 192.5 86.5 Z"/></clipPath></defs><path fill="rgb(255,255,255)" stroke="none" paint-order="stroke" d="M 0.5 0.5 L 4197.5 0.5 L 4197.5 938.5 L 0.5 938.5 L 0.5 0.5 Z" fill-opacity="1"/><rect fill="#FFFFFF" stroke="none" x="192" y="86" width="4000" height="800" transform="matrix(1, 0, 0, 1, 0.5, 0.5)"/><path fill="rgb(255,255,255)" stroke="none" paint-order="stroke" d="M 192.5 86.5 L 4192.5 86.5 L 4192.5 886.5 L 192.5 886.5 L 192.5 86.5 Z" fill-opacity="1"/><path fill="none" stroke="rgb(229,229,229)" paint-order="fill" d="M 192.5 86.5 L 4192.5 86.5 L 4192.5 886.5 L 192.5 886.5 L 192.5 86.5 Z" stroke-opacity="1" stroke-linejoin="bevel" stroke-miterlimit="10"/><path fill="none" stroke="rgb(229,229,229)" paint-order="fill" d="M 418.5 886.5 L 418.5 86.5 M 1121.5 886.5 L 1121.5 86.5 M 1825.5 886.5 L 1825.5 86.5 M 2528.5 886.5 L 2528.5 86.5 M 3231.5 886.5 L 3231.5 86.5 M 3934.5 886.5 L 3934.5 86.5" stroke-opacity="1" stroke-linejoin="bevel" stroke-miterlimit="10" clip-path="url(#eMesCBITFCvQ)"/><path fill="none" stroke="rgb(229,229,229)" paint-order="fill" d="M 192.5 786.5 L 4192.5 786.5 M 192.5 586.5 L 4192.5 586.5 M 192.5 386.5 L 4192.5 386.5 M 192.5 186.5 L 4192.5 186.5" stroke-opacity="1" stroke-linejoin="bevel" stroke-miterlimit="10" clip-path="url(#XTAsSyaTPzEg)"/><path fill="rgb(107,174,214)" stroke="rgb(107,174,214)" paint-order="fill" d="M 1079.444580078125 186.5 A 7.5 7.5 0 0 1 1064.444580078125 186.5 A 7.5 7.5 0 0 1 1079.444580078125 186.5" fill-opacity="1" clip-path="url(#TqNTKaOxOinC)" stroke-opacity="1" stroke-linejoin="bevel" stroke-miterlimit="10"/><path fill="none" stroke="rgb(107,174,214)" paint-order="fill" d="M 374.31817626953125 186.5 L 1777.9705810546875 186.5" stroke-opacity="1" stroke-linejoin="bevel" stroke-miterlimit="10" stroke-width="5" clip-path="url(#nPCTLPPbIdTC)"/><path fill="rgb(8,81,156)" stroke="rgb(8,81,156)" paint-order="fill" d="M 2751.4541015625 386.5 A 7.5 7.5 0 0 1 2736.4541015625 386.5 A 7.5 7.5 0 0 1 2751.4541015625 386.5" fill-opacity="1" clip-path="url(#BTLZMZximPtT)" stroke-opacity="1" stroke-linejoin="bevel" stroke-miterlimit="10"/><path fill="none" stroke="rgb(8,81,156)" paint-order="fill" d="M 1976.5447998046875 386.5 L 3497.772705078125 386.5" stroke-opacity="1" stroke-linejoin="bevel" stroke-miterlimit="10" stroke-width="5" clip-path="url(#gqduLRXGAKsl)"/><path fill="rgb(107,174,214)" stroke="rgb(107,174,214)" paint-order="fill" d="M 2389.91796875 586.5 A 7.5 7.5 0 0 1 2374.91796875 586.5 A 7.5 7.5 0 0 1 2389.91796875 586.5" fill-opacity="1" clip-path="url(#yTAahkAQmAey)" stroke-opacity="1" stroke-linejoin="bevel" stroke-miterlimit="10"/><path fill="none" stroke="rgb(107,174,214)" paint-order="fill" d="M 1057.1561279296875 586.5 L 4010.681884765625 586.5" stroke-opacity="1" stroke-linejoin="bevel" stroke-miterlimit="10" stroke-width="5" clip-path="url(#TvEyFVTWbZhL)"/><path fill="rgb(8,81,156)" stroke="rgb(8,81,156)" paint-order="fill" d="M 1820.5926513671875 786.5 A 7.5 7.5 0 0 1 1805.5926513671875 786.5 A 7.5 7.5 0 0 1 1820.5926513671875 786.5" fill-opacity="1" clip-path="url(#TRAnaDeUORtE)" stroke-opacity="1" stroke-linejoin="bevel" stroke-miterlimit="10"/><path fill="none" stroke="rgb(8,81,156)" paint-order="fill" d="M 798.17236328125 786.5 L 2876.826171875 786.5" stroke-opacity="1" stroke-linejoin="bevel" stroke-miterlimit="10" stroke-width="5" clip-path="url(#niymdwfiaZhT)"/><path fill="none" stroke="rgb(0,0,0)" paint-order="fill" d="M 192.5 886.5 L 4192.5 886.5" stroke-opacity="1" stroke-linejoin="bevel" stroke-miterlimit="10"/><path fill="none" stroke="rgb(0,0,0)" paint-order="fill" d="M 418.5 892.5 L 418.5 884.5 M 1121.5 892.5 L 1121.5 884.5 M 1825.5 892.5 L 1825.5 884.5 M 2528.5 892.5 L 2528.5 884.5 M 3231.5 892.5 L 3231.5 884.5 M 3934.5 892.5 L 3934.5 884.5" stroke-opacity="1" stroke-linejoin="bevel" stroke-miterlimit="10"/><path fill="none" stroke="rgb(0,0,0)" paint-order="fill" d="M 278.5 890.5 L 278.5 886.5 M 418.5 890.5 L 418.5 886.5 M 559.5 890.5 L 559.5 886.5 M 699.5 890.5 L 699.5 886.5 M 840.5 890.5 L 840.5 886.5 M 981.5 890.5 L 981.5 886.5 M 1121.5 890.5 L 1121.5 886.5 M 1262.5 890.5 L 1262.5 886.5 M 1403.5 890.5 L 1403.5 886.5 M 1543.5 890.5 L 1543.5 886.5 M 1684.5 890.5 L 1684.5 886.5 M 1825.5 890.5 L 1825.5 886.5 M 1965.5 890.5 L 1965.5 886.5 M 2106.5 890.5 L 2106.5 886.5 M 2246.5 890.5 L 2246.5 886.5 M 2387.5 890.5 L 2387.5 886.5 M 2528.5 890.5 L 2528.5 886.5 M 2668.5 890.5 L 2668.5 886.5 M 2809.5 890.5 L 2809.5 886.5 M 2950.5 890.5 L 2950.5 886.5 M 3090.5 890.5 L 3090.5 886.5 M 3231.5 890.5 L 3231.5 886.5 M 3372.5 890.5 L 3372.5 886.5 M 3512.5 890.5 L 3512.5 886.5 M 3653.5 890.5 L 3653.5 886.5 M 3793.5 890.5 L 3793.5 886.5 M 3934.5 890.5 L 3934.5 886.5 M 4075.5 890.5 L 4075.5 886.5" stroke-opacity="1" stroke-linejoin="bevel" stroke-miterlimit="10"/><text fill="rgb(68,68,68)" stroke="none" font-family="helvetica" font-size="40pt" font-style="normal" font-weight="normal" text-decoration="normal" x="381.08583068847656" y="935.2528190612793" text-anchor="start" dominant-baseline="alphabetic" transform="matrix(1, 0, 0, 1, 0.5, 0.5)" fill-opacity="1">1.6</text><text fill="none" stroke="rgb(0,0,0)" font-family="helvetica" font-size="40pt" font-style="normal" font-weight="normal" text-decoration="normal" x="381.08583068847656" y="935.2528190612793" text-anchor="start" dominant-baseline="alphabetic" transform="matrix(1, 0, 0, 1, 0.5, 0.5)" stroke-opacity="0" stroke-linejoin="bevel" stroke-miterlimit="10">1.6</text><text fill="rgb(68,68,68)" stroke="none" font-family="helvetica" font-size="40pt" font-style="normal" font-weight="normal" text-decoration="normal" x="1084.268325805664" y="935.2528190612793" text-anchor="start" dominant-baseline="alphabetic" transform="matrix(1, 0, 0, 1, 0.5, 0.5)" fill-opacity="1">1.8</text><text fill="none" stroke="rgb(0,0,0)" font-family="helvetica" font-size="40pt" font-style="normal" font-weight="normal" text-decoration="normal" x="1084.268325805664" y="935.2528190612793" text-anchor="start" dominant-baseline="alphabetic" transform="matrix(1, 0, 0, 1, 0.5, 0.5)" stroke-opacity="0" stroke-linejoin="bevel" stroke-miterlimit="10">1.8</text><text fill="rgb(68,68,68)" stroke="none" font-family="helvetica" font-size="40pt" font-style="normal" font-weight="normal" text-decoration="normal" x="1809.6890029907227" y="935.2528190612793" text-anchor="start" dominant-baseline="alphabetic" transform="matrix(1, 0, 0, 1, 0.5, 0.5)" fill-opacity="1">2</text><text fill="none" stroke="rgb(0,0,0)" font-family="helvetica" font-size="40pt" font-style="normal" font-weight="normal" text-decoration="normal" x="1809.6890029907227" y="935.2528190612793" text-anchor="start" dominant-baseline="alphabetic" transform="matrix(1, 0, 0, 1, 0.5, 0.5)" stroke-opacity="0" stroke-linejoin="bevel" stroke-miterlimit="10">2</text><text fill="rgb(68,68,68)" stroke="none" font-family="helvetica" font-size="40pt" font-style="normal" font-weight="normal" text-decoration="normal" x="2490.6331939697266" y="935.2528190612793" text-anchor="start" dominant-baseline="alphabetic" transform="matrix(1, 0, 0, 1, 0.5, 0.5)" fill-opacity="1">2.2</text><text fill="none" stroke="rgb(0,0,0)" font-family="helvetica" font-size="40pt" font-style="normal" font-weight="normal" text-decoration="normal" x="2490.6331939697266" y="935.2528190612793" text-anchor="start" dominant-baseline="alphabetic" transform="matrix(1, 0, 0, 1, 0.5, 0.5)" stroke-opacity="0" stroke-linejoin="bevel" stroke-miterlimit="10">2.2</text><text fill="rgb(68,68,68)" stroke="none" font-family="helvetica" font-size="40pt" font-style="normal" font-weight="normal" text-decoration="normal" x="3193.8158111572266" y="935.2528190612793" text-anchor="start" dominant-baseline="alphabetic" transform="matrix(1, 0, 0, 1, 0.5, 0.5)" fill-opacity="1">2.4</text><text fill="none" stroke="rgb(0,0,0)" font-family="helvetica" font-size="40pt" font-style="normal" font-weight="normal" text-decoration="normal" x="3193.8158111572266" y="935.2528190612793" text-anchor="start" dominant-baseline="alphabetic" transform="matrix(1, 0, 0, 1, 0.5, 0.5)" stroke-opacity="0" stroke-linejoin="bevel" stroke-miterlimit="10">2.4</text><text fill="rgb(68,68,68)" stroke="none" font-family="helvetica" font-size="40pt" font-style="normal" font-weight="normal" text-decoration="normal" x="3896.9981842041016" y="935.2528190612793" text-anchor="start" dominant-baseline="alphabetic" transform="matrix(1, 0, 0, 1, 0.5, 0.5)" fill-opacity="1">2.6</text><text fill="none" stroke="rgb(0,0,0)" font-family="helvetica" font-size="40pt" font-style="normal" font-weight="normal" text-decoration="normal" x="3896.9981842041016" y="935.2528190612793" text-anchor="start" dominant-baseline="alphabetic" transform="matrix(1, 0, 0, 1, 0.5, 0.5)" stroke-opacity="0" stroke-linejoin="bevel" stroke-miterlimit="10">2.6</text><path fill="none" stroke="rgb(0,0,0)" paint-order="fill" d="M 192.5 886.5 L 192.5 86.5" stroke-opacity="1" stroke-linejoin="bevel" stroke-miterlimit="10"/><path fill="none" stroke="rgb(0,0,0)" paint-order="fill" d="M 186.5 786.5 L 194.5 786.5 M 186.5 586.5 L 194.5 586.5 M 186.5 386.5 L 194.5 386.5 M 186.5 186.5 L 194.5 186.5" stroke-opacity="1" stroke-linejoin="bevel" stroke-miterlimit="10"/><path fill="none" stroke="rgb(0,0,0)" paint-order="fill" d="" stroke-opacity="1" stroke-linejoin="bevel" stroke-miterlimit="10"/><text fill="rgb(68,68,68)" stroke="none" font-family="helvetica" font-size="40pt" font-style="normal" font-weight="normal" text-decoration="normal" x="3.14654541015625" y="804.5" text-anchor="start" dominant-baseline="alphabetic" transform="matrix(1, 0, 0, 1, 0.5, 0.5)" fill-opacity="1">ASO_A</text><text fill="none" stroke="rgb(0,0,0)" font-family="helvetica" font-size="40pt" font-style="normal" font-weight="normal" text-decoration="normal" x="3.14654541015625" y="804.5" text-anchor="start" dominant-baseline="alphabetic" transform="matrix(1, 0, 0, 1, 0.5, 0.5)" stroke-opacity="0" stroke-linejoin="bevel" stroke-miterlimit="10">ASO_A</text><text fill="rgb(68,68,68)" stroke="none" font-family="helvetica" font-size="40pt" font-style="normal" font-weight="normal" text-decoration="normal" x="32.858245849609375" y="604.5" text-anchor="start" dominant-baseline="alphabetic" transform="matrix(1, 0, 0, 1, 0.5, 0.5)" fill-opacity="1">WT_A</text><text fill="none" stroke="rgb(0,0,0)" font-family="helvetica" font-size="40pt" font-style="normal" font-weight="normal" text-decoration="normal" x="32.858245849609375" y="604.5" text-anchor="start" dominant-baseline="alphabetic" transform="matrix(1, 0, 0, 1, 0.5, 0.5)" stroke-opacity="0" stroke-linejoin="bevel" stroke-miterlimit="10">WT_A</text><text fill="rgb(68,68,68)" stroke="none" font-family="helvetica" font-size="40pt" font-style="normal" font-weight="normal" text-decoration="normal" x="3.14654541015625" y="404.5" text-anchor="start" dominant-baseline="alphabetic" transform="matrix(1, 0, 0, 1, 0.5, 0.5)" fill-opacity="1">ASO_V</text><text fill="none" stroke="rgb(0,0,0)" font-family="helvetica" font-size="40pt" font-style="normal" font-weight="normal" text-decoration="normal" x="3.14654541015625" y="404.5" text-anchor="start" dominant-baseline="alphabetic" transform="matrix(1, 0, 0, 1, 0.5, 0.5)" stroke-opacity="0" stroke-linejoin="bevel" stroke-miterlimit="10">ASO_V</text><text fill="rgb(68,68,68)" stroke="none" font-family="helvetica" font-size="40pt" font-style="normal" font-weight="normal" text-decoration="normal" x="32.858245849609375" y="204.5" text-anchor="start" dominant-baseline="alphabetic" transform="matrix(1, 0, 0, 1, 0.5, 0.5)" fill-opacity="1">WT_V</text><text fill="none" stroke="rgb(0,0,0)" font-family="helvetica" font-size="40pt" font-style="normal" font-weight="normal" text-decoration="normal" x="32.858245849609375" y="204.5" text-anchor="start" dominant-baseline="alphabetic" transform="matrix(1, 0, 0, 1, 0.5, 0.5)" stroke-opacity="0" stroke-linejoin="bevel" stroke-miterlimit="10">WT_V</text><text fill="rgb(68,68,68)" stroke="none" font-family="helvetica" font-size="48pt" font-style="normal" font-weight="bold" text-decoration="normal" x="192" y="66" text-anchor="start" dominant-baseline="alphabetic" transform="matrix(1, 0, 0, 1, 0.5, 0.5)" fill-opacity="1">mu 95%CI, lognormal mixed model</text><text fill="none" stroke="rgb(0,0,0)" font-family="helvetica" font-size="48pt" font-style="normal" font-weight="bold" text-decoration="normal" x="192" y="66" text-anchor="start" dominant-baseline="alphabetic" transform="matrix(1, 0, 0, 1, 0.5, 0.5)" stroke-opacity="0" stroke-miterlimit="10" stroke-dasharray="">mu 95%CI, lognormal mixed model</text></svg>