<svg version="1.1" xmlns="http://www.w3.org/2000/svg" width="4275" height="929"><defs><clipPath id="bWEHAnGkCizR"><path fill="none" stroke="none" d="M 0.5 0.5 L 4275.5 0.5 L 4275.5 929.5 L 0.5 929.5 L 0.5 0.5 Z M 270.5 77.5 L 4270.5 77.5 L 4270.5 877.5 L 270.5 877.5 L 270.5 77.5 Z" clip-rule="evenodd"/></clipPath><clipPath id="qkxSpDvEwoSB"><path fill="none" stroke="none" d="M 270.5 77.5 L 4270.5 77.5 L 4270.5 877.5 L 270.5 877.5 L 270.5 77.5 Z"/></clipPath><clipPath id="VkfeyNptbyxG"><path fill="none" stroke="none" d="M 270.5 77.5 L 4270.5 77.5 L 4270.5 877.5 L 270.5 877.5 L 270.5 77.5 Z"/></clipPath><clipPath id="NXMmJiJUtaVD"><path fill="none" stroke="none" d="M 270.5 77.5 L 4270.5 77.5 L 4270.5 877.5 L 270.5 877.5 L 270.5 77.5 Z"/></clipPath><clipPath id="TKTATOXJnpQQ"><path fill="none" stroke="none" d="M 270.5 77.5 L 4270.5 77.5 L 4270.5 877.5 L 270.5 877.5 L 270.5 77.5 Z"/></clipPath><clipPath id="eqRXBMtqkmzN"><path fill="none" stroke="none" d="M 270.5 77.5 L 4270.5 77.5 L 4270.5 877.5 L 270.5 877.5 L 270.5 77.5 Z"/></clipPath><clipPath id="klqHaMhefwON"><path fill="none" stroke="none" d="M 270.5 77.5 L 4270.5 77.5 L 4270.5 877.5 L 270.5 877.5 L 270.5 77.5 Z"/></clipPath><clipPath id="GJUEizfLJIGp"><path fill="none" stroke="none" d="M 270.5 77.5 L 4270.5 77.5 L 4270.5 877.5 L 270.5 877.5 L 270.5 77.5 Z"/></clipPath><clipPath id="BPQofSoeJzhz"><path fill="none" stroke="none" d="M 270.5 77.5 L 4270.5 77.5 L 4270.5 877.5 L 270.5 877.5 L 270.5 77.5 Z"/></clipPath><clipPath id="ouTciOCzKGcu"><path fill="none" stroke="none" d="M 270.5 77.5 L 4270.5 77.5 L 4270.5 877.5 L 270.5 877.5 L 270.5 77.5 Z"/></clipPath><clipPath id="BWafUEVOEQVi"><path fill="none" stroke="none" d="M 270.5 77.5 L 4270.5 77.5 L 4270.5 877.5 L 270.5 877.5 L 270.5 77.5 Z"/></clipPath><clipPath id="yilngzZVtHox"><path fill="none" stroke="none" d="M 270.5 77.5 L 4270.5 77.5 L 4270.5 877.5 L 270.5 877.5 L 270.5 77.5 Z"/></clipPath></defs><path fill="rgb(255,255,255)" stroke="none" paint-order="stroke" d="M 0.5 0.5 L 4275.5 0.5 L 4275.5 929.5 L 0.5 929.5 L 0.5 0.5 Z" fill-opacity="1" clip-path="url(#bWEHAnGkCizR)"/><path fill="rgb(255,255,255)" stroke="none" paint-order="stroke" d="M 270.5 77.5 L 4270.5 77.5 L 4270.5 877.5 L 270.5 877.5 L 270.5 77.5 Z" fill-opacity="1"/><path fill="none" stroke="rgb(229,229,229)" paint-order="fill" d="M 270.5 77.5 L 4270.5 77.5 L 4270.5 877.5 L 270.5 877.5 L 270.5 77.5 Z" stroke-opacity="1" stroke-linejoin="bevel" stroke-miterlimit="10"/><path fill="none" stroke="rgb(229,229,229)" paint-order="fill" d="M 958.5 877.5 L 958.5 77.5 M 2085.5 877.5 L 2085.5 77.5 M 3212.5 877.5 L 3212.5 77.5" stroke-opacity="1" stroke-linejoin="bevel" stroke-miterlimit="10" clip-path="url(#qkxSpDvEwoSB)"/><path fill="none" stroke="rgb(229,229,229)" paint-order="fill" d="M 270.5 777.5 L 4270.5 777.5 M 270.5 577.5 L 4270.5 577.5 M 270.5 377.5 L 4270.5 377.5 M 270.5 177.5 L 4270.5 177.5" stroke-opacity="1" stroke-linejoin="bevel" stroke-miterlimit="10" clip-path="url(#VkfeyNptbyxG)"/><path fill="rgb(189,189,189)" stroke="rgb(189,189,189)" paint-order="fill" d="M 1051.1373291015625 177.5 A 7.5 7.5 0 0 1 1036.1373291015625 177.5 A 7.5 7.5 0 0 1 1051.1373291015625 177.5" fill-opacity="1" clip-path="url(#NXMmJiJUtaVD)" stroke-opacity="1" stroke-linejoin="bevel" stroke-miterlimit="10"/><path fill="none" stroke="rgb(189,189,189)" paint-order="fill" d="M 559.9282836914062 177.5 L 1517.361572265625 177.5" stroke-opacity="1" stroke-linejoin="bevel" stroke-miterlimit="10" stroke-width="5" clip-path="url(#TKTATOXJnpQQ)"/><path fill="rgb(0,0,0)" stroke="rgb(0,0,0)" paint-order="fill" d="M 3520.008544921875 377.5 A 7.5 7.5 0 0 1 3505.008544921875 377.5 A 7.5 7.5 0 0 1 3520.008544921875 377.5" fill-opacity="1" clip-path="url(#eqRXBMtqkmzN)" stroke-opacity="1" stroke-linejoin="bevel" stroke-miterlimit="10"/><path fill="none" stroke="rgb(0,0,0)" paint-order="fill" d="M 2975.701416015625 377.5 L 4088.681884765625 377.5" stroke-opacity="1" stroke-linejoin="bevel" stroke-miterlimit="10" stroke-width="5" clip-path="url(#klqHaMhefwON)"/><path fill="rgb(189,189,189)" stroke="rgb(189,189,189)" paint-order="fill" d="M 766.6174926757812 577.5 A 7.5 7.5 0 0 1 751.6174926757812 577.5 A 7.5 7.5 0 0 1 766.6174926757812 577.5" fill-opacity="1" clip-path="url(#GJUEizfLJIGp)" stroke-opacity="1" stroke-linejoin="bevel" stroke-miterlimit="10"/><path fill="none" stroke="rgb(189,189,189)" paint-order="fill" d="M 452.31817626953125 577.5 L 1081.356201171875 577.5" stroke-opacity="1" stroke-linejoin="bevel" stroke-miterlimit="10" stroke-width="5" clip-path="url(#BPQofSoeJzhz)"/><path fill="rgb(0,0,0)" stroke="rgb(0,0,0)" paint-order="fill" d="M 2443.527099609375 777.5 A 7.5 7.5 0 0 1 2428.527099609375 777.5 A 7.5 7.5 0 0 1 2443.527099609375 777.5" fill-opacity="1" clip-path="url(#ouTciOCzKGcu)" stroke-opacity="1" stroke-linejoin="bevel" stroke-miterlimit="10"/><path fill="none" stroke="rgb(0,0,0)" paint-order="fill" d="M 2097.02734375 777.5 L 2803.7734375 777.5" stroke-opacity="1" stroke-linejoin="bevel" stroke-miterlimit="10" stroke-width="5" clip-path="url(#BWafUEVOEQVi)"/><path fill="none" stroke="rgb(0,0,0)" paint-order="fill" d="M 270.5 877.5 L 4270.5 877.5" stroke-opacity="1" stroke-linejoin="bevel" stroke-miterlimit="10"/><path fill="none" stroke="rgb(0,0,0)" paint-order="fill" d="M 958.5 883.5 L 958.5 875.5 M 2085.5 883.5 L 2085.5 875.5 M 3212.5 883.5 L 3212.5 875.5" stroke-opacity="1" stroke-linejoin="bevel" stroke-miterlimit="10"/><path fill="none" stroke="rgb(0,0,0)" paint-order="fill" d="M 733.5 881.5 L 733.5 877.5 M 508.5 881.5 L 508.5 877.5 M 282.5 881.5 L 282.5 877.5 M 958.5 881.5 L 958.5 877.5 M 1184.5 881.5 L 1184.5 877.5 M 1409.5 881.5 L 1409.5 877.5 M 1635.5 881.5 L 1635.5 877.5 M 1860.5 881.5 L 1860.5 877.5 M 2085.5 881.5 L 2085.5 877.5 M 2311.5 881.5 L 2311.5 877.5 M 2536.5 881.5 L 2536.5 877.5 M 2762.5 881.5 L 2762.5 877.5 M 2987.5 881.5 L 2987.5 877.5 M 3212.5 881.5 L 3212.5 877.5 M 3438.5 881.5 L 3438.5 877.5 M 3663.5 881.5 L 3663.5 877.5 M 3889.5 881.5 L 3889.5 877.5 M 4114.5 881.5 L 4114.5 877.5" stroke-opacity="1" stroke-linejoin="bevel" stroke-miterlimit="10"/><text fill="rgb(68,68,68)" stroke="none" font-family="helvetica" font-size="40pt" font-style="normal" font-weight="normal" text-decoration="normal" x="921.1822052001953" y="926.374755859375" text-anchor="start" dominant-baseline="alphabetic" transform="matrix(1, 0, 0, 1, 0.5, 0.5)" fill-opacity="1">1.5</text><text fill="none" stroke="rgb(0,0,0)" font-family="helvetica" font-size="40pt" font-style="normal" font-weight="normal" text-decoration="normal" x="921.1822052001953" y="926.374755859375" text-anchor="start" dominant-baseline="alphabetic" transform="matrix(1, 0, 0, 1, 0.5, 0.5)" stroke-opacity="0" stroke-linejoin="bevel" stroke-miterlimit="10">1.5</text><text fill="rgb(68,68,68)" stroke="none" font-family="helvetica" font-size="40pt" font-style="normal" font-weight="normal" text-decoration="normal" x="2070.471435546875" y="926.374755859375" text-anchor="start" dominant-baseline="alphabetic" transform="matrix(1, 0, 0, 1, 0.5, 0.5)" fill-opacity="1">2</text><text fill="none" stroke="rgb(0,0,0)" font-family="helvetica" font-size="40pt" font-style="normal" font-weight="normal" text-decoration="normal" x="2070.471435546875" y="926.374755859375" text-anchor="start" dominant-baseline="alphabetic" transform="matrix(1, 0, 0, 1, 0.5, 0.5)" stroke-opacity="0" stroke-linejoin="bevel" stroke-miterlimit="10">2</text><text fill="rgb(68,68,68)" stroke="none" font-family="helvetica" font-size="40pt" font-style="normal" font-weight="normal" text-decoration="normal" x="3175.143814086914" y="926.374755859375" text-anchor="start" dominant-baseline="alphabetic" transform="matrix(1, 0, 0, 1, 0.5, 0.5)" fill-opacity="1">2.5</text><text fill="none" stroke="rgb(0,0,0)" font-family="helvetica" font-size="40pt" font-style="normal" font-weight="normal" text-decoration="normal" x="3175.143814086914" y="926.374755859375" text-anchor="start" dominant-baseline="alphabetic" transform="matrix(1, 0, 0, 1, 0.5, 0.5)" stroke-opacity="0" stroke-linejoin="bevel" stroke-miterlimit="10">2.5</text><path fill="none" stroke="rgb(0,0,0)" paint-order="fill" d="M 270.5 877.5 L 270.5 77.5" stroke-opacity="1" stroke-linejoin="bevel" stroke-miterlimit="10"/><path fill="none" stroke="rgb(0,0,0)" paint-order="fill" d="M 264.5 777.5 L 272.5 777.5 M 264.5 577.5 L 272.5 577.5 M 264.5 377.5 L 272.5 377.5 M 264.5 177.5 L 272.5 177.5" stroke-opacity="1" stroke-linejoin="bevel" stroke-miterlimit="10"/><path fill="none" stroke="rgb(0,0,0)" paint-order="fill" d="" stroke-opacity="1" stroke-linejoin="bevel" stroke-miterlimit="10"/><text fill="rgb(68,68,68)" stroke="none" font-family="helvetica" font-size="40pt" font-style="normal" font-weight="normal" text-decoration="normal" x="3.3166656494140625" y="791.5" text-anchor="start" dominant-baseline="alphabetic" transform="matrix(1, 0, 0, 1, 0.5, 0.5)" fill-opacity="1">ASO_NAC</text><text fill="none" stroke="rgb(0,0,0)" font-family="helvetica" font-size="40pt" font-style="normal" font-weight="normal" text-decoration="normal" x="3.3166656494140625" y="791.5" text-anchor="start" dominant-baseline="alphabetic" transform="matrix(1, 0, 0, 1, 0.5, 0.5)" stroke-opacity="0" stroke-linejoin="bevel" stroke-miterlimit="10">ASO_NAC</text><text fill="rgb(68,68,68)" stroke="none" font-family="helvetica" font-size="40pt" font-style="normal" font-weight="normal" text-decoration="normal" x="33.116668701171875" y="591.5" text-anchor="start" dominant-baseline="alphabetic" transform="matrix(1, 0, 0, 1, 0.5, 0.5)" fill-opacity="1">WT_NAC</text><text fill="none" stroke="rgb(0,0,0)" font-family="helvetica" font-size="40pt" font-style="normal" font-weight="normal" text-decoration="normal" x="33.116668701171875" y="591.5" text-anchor="start" dominant-baseline="alphabetic" transform="matrix(1, 0, 0, 1, 0.5, 0.5)" stroke-opacity="0" stroke-linejoin="bevel" stroke-miterlimit="10">WT_NAC</text><text fill="rgb(68,68,68)" stroke="none" font-family="helvetica" font-size="40pt" font-style="normal" font-weight="normal" text-decoration="normal" x="80.58332824707031" y="391.5" text-anchor="start" dominant-baseline="alphabetic" transform="matrix(1, 0, 0, 1, 0.5, 0.5)" fill-opacity="1">ASO_V</text><text fill="none" stroke="rgb(0,0,0)" font-family="helvetica" font-size="40pt" font-style="normal" font-weight="normal" text-decoration="normal" x="80.58332824707031" y="391.5" text-anchor="start" dominant-baseline="alphabetic" transform="matrix(1, 0, 0, 1, 0.5, 0.5)" stroke-opacity="0" stroke-linejoin="bevel" stroke-miterlimit="10">ASO_V</text><text fill="rgb(68,68,68)" stroke="none" font-family="helvetica" font-size="40pt" font-style="normal" font-weight="normal" text-decoration="normal" x="110.38333129882812" y="191.5" text-anchor="start" dominant-baseline="alphabetic" transform="matrix(1, 0, 0, 1, 0.5, 0.5)" fill-opacity="1">WT_V</text><text fill="none" stroke="rgb(0,0,0)" font-family="helvetica" font-size="40pt" font-style="normal" font-weight="normal" text-decoration="normal" x="110.38333129882812" y="191.5" text-anchor="start" dominant-baseline="alphabetic" transform="matrix(1, 0, 0, 1, 0.5, 0.5)" stroke-opacity="0" stroke-linejoin="bevel" stroke-miterlimit="10">WT_V</text><text fill="rgb(68,68,68)" stroke="none" font-family="helvetica" font-size="48pt" font-style="normal" font-weight="bold" text-decoration="normal" x="0" y="50" text-anchor="start" dominant-baseline="alphabetic" transform="matrix(1, 0, 0, 1, 270.5, 7.5)" fill-opacity="1">mu 95%CI, lognormal mixed model</text><text fill="none" stroke="rgb(0,0,0)" font-family="helvetica" font-size="48pt" font-style="normal" font-weight="bold" text-decoration="normal" x="0" y="50" text-anchor="start" dominant-baseline="alphabetic" transform="matrix(1, 0, 0, 1, 270.5, 7.5)" stroke-opacity="0" stroke-miterlimit="10" stroke-dasharray="">mu 95%CI, lognormal mixed model</text></svg>