<svg version="1.1" xmlns="http://www.w3.org/2000/svg" width="4275" height="929"><defs><clipPath id="CdBVQLUPxaEo"><path fill="none" stroke="none" d="M 0.5 0.5 L 4275.5 0.5 L 4275.5 929.5 L 0.5 929.5 L 0.5 0.5 Z M 270.5 77.5 L 4270.5 77.5 L 4270.5 877.5 L 270.5 877.5 L 270.5 77.5 Z" clip-rule="evenodd"/></clipPath><clipPath id="fTdrRyhgTQGE"><path fill="none" stroke="none" d="M 270.5 77.5 L 4270.5 77.5 L 4270.5 877.5 L 270.5 877.5 L 270.5 77.5 Z"/></clipPath><clipPath id="HMcFtPPLEUow"><path fill="none" stroke="none" d="M 270.5 77.5 L 4270.5 77.5 L 4270.5 877.5 L 270.5 877.5 L 270.5 77.5 Z"/></clipPath><clipPath id="PynspaBfrXvO"><path fill="none" stroke="none" d="M 270.5 77.5 L 4270.5 77.5 L 4270.5 877.5 L 270.5 877.5 L 270.5 77.5 Z"/></clipPath><clipPath id="wlGPuodJDUCa"><path fill="none" stroke="none" d="M 270.5 77.5 L 4270.5 77.5 L 4270.5 877.5 L 270.5 877.5 L 270.5 77.5 Z"/></clipPath><clipPath id="PTZSJDgUstVs"><path fill="none" stroke="none" d="M 270.5 77.5 L 4270.5 77.5 L 4270.5 877.5 L 270.5 877.5 L 270.5 77.5 Z"/></clipPath><clipPath id="ytUtQxmyCbZN"><path fill="none" stroke="none" d="M 270.5 77.5 L 4270.5 77.5 L 4270.5 877.5 L 270.5 877.5 L 270.5 77.5 Z"/></clipPath><clipPath id="nBlpfhgNZtwk"><path fill="none" stroke="none" d="M 270.5 77.5 L 4270.5 77.5 L 4270.5 877.5 L 270.5 877.5 L 270.5 77.5 Z"/></clipPath><clipPath id="ryoEVnolgWVh"><path fill="none" stroke="none" d="M 270.5 77.5 L 4270.5 77.5 L 4270.5 877.5 L 270.5 877.5 L 270.5 77.5 Z"/></clipPath><clipPath id="qMSfpZsekDRR"><path fill="none" stroke="none" d="M 270.5 77.5 L 4270.5 77.5 L 4270.5 877.5 L 270.5 877.5 L 270.5 77.5 Z"/></clipPath><clipPath id="RdzzlXSknKBV"><path fill="none" stroke="none" d="M 270.5 77.5 L 4270.5 77.5 L 4270.5 877.5 L 270.5 877.5 L 270.5 77.5 Z"/></clipPath><clipPath id="oiplkNkeGOwg"><path fill="none" stroke="none" d="M 270.5 77.5 L 4270.5 77.5 L 4270.5 877.5 L 270.5 877.5 L 270.5 77.5 Z"/></clipPath></defs><path fill="#ffffff" stroke="none" paint-order="stroke" d="M 0.5 0.5 L 4275.5 0.5 L 4275.5 929.5 L 0.5 929.5 L 0.5 0.5 Z" clip-path="url(#CdBVQLUPxaEo)"/><path fill="#ffffff" stroke="none" paint-order="stroke" d="M 270.5 77.5 L 4270.5 77.5 L 4270.5 877.5 L 270.5 877.5 L 270.5 77.5 Z"/><path fill="none" stroke="#e5e5e5" paint-order="fill" d="M 270.5 77.5 L 4270.5 77.5 L 4270.5 877.5 L 270.5 877.5 L 270.5 77.5 Z" stroke-linejoin="bevel" stroke-miterlimit="10"/><path fill="none" stroke="#e5e5e5" paint-order="fill" d="M 815.5 877.5 L 815.5 77.5 M 1361.5 877.5 L 1361.5 77.5 M 1906.5 877.5 L 1906.5 77.5 M 2452.5 877.5 L 2452.5 77.5 M 2997.5 877.5 L 2997.5 77.5 M 3543.5 877.5 L 3543.5 77.5 M 4088.5 877.5 L 4088.5 77.5" stroke-linejoin="bevel" stroke-miterlimit="10" clip-path="url(#fTdrRyhgTQGE)"/><path fill="none" stroke="#e5e5e5" paint-order="fill" d="M 270.5 777.5 L 4270.5 777.5 M 270.5 577.5 L 4270.5 577.5 M 270.5 377.5 L 4270.5 377.5 M 270.5 177.5 L 4270.5 177.5" stroke-linejoin="bevel" stroke-miterlimit="10" clip-path="url(#HMcFtPPLEUow)"/><path fill="rgb(189,189,189)" stroke="rgb(189,189,189)" paint-order="fill" d="M 4096.181884765625 177.5 A 7.5 7.5 0 0 1 4081.181884765625 177.5 A 7.5 7.5 0 0 1 4096.181884765625 177.5" fill-opacity="1" clip-path="url(#PynspaBfrXvO)" stroke-opacity="1" stroke-linejoin="bevel" stroke-miterlimit="10"/><path fill="none" stroke="#bdbdbd" paint-order="fill" d="M 4088.681884765625 177.5 L 4088.681884765625 177.5" stroke-linejoin="bevel" stroke-miterlimit="10" stroke-width="5" clip-path="url(#wlGPuodJDUCa)"/><path fill="rgb(0,0,0)" stroke="rgb(0,0,0)" paint-order="fill" d="M 1826.81494140625 377.5 A 7.5 7.5 0 0 1 1811.81494140625 377.5 A 7.5 7.5 0 0 1 1826.81494140625 377.5" fill-opacity="1" clip-path="url(#PTZSJDgUstVs)" stroke-opacity="1" stroke-linejoin="bevel" stroke-miterlimit="10"/><path fill="none" stroke="#000000" paint-order="fill" d="M 452.31817626953125 377.5 L 3188.983154296875 377.5" stroke-linejoin="bevel" stroke-miterlimit="10" stroke-width="5" clip-path="url(#ytUtQxmyCbZN)"/><path fill="rgb(189,189,189)" stroke="rgb(189,189,189)" paint-order="fill" d="M 4096.181884765625 577.5 A 7.5 7.5 0 0 1 4081.181884765625 577.5 A 7.5 7.5 0 0 1 4096.181884765625 577.5" fill-opacity="1" clip-path="url(#nBlpfhgNZtwk)" stroke-opacity="1" stroke-linejoin="bevel" stroke-miterlimit="10"/><path fill="none" stroke="#bdbdbd" paint-order="fill" d="M 4088.681884765625 577.5 L 4088.681884765625 577.5" stroke-linejoin="bevel" stroke-miterlimit="10" stroke-width="5" clip-path="url(#ryoEVnolgWVh)"/><path fill="rgb(0,0,0)" stroke="rgb(0,0,0)" paint-order="fill" d="M 4096.181884765625 777.5 A 7.5 7.5 0 0 1 4081.181884765625 777.5 A 7.5 7.5 0 0 1 4096.181884765625 777.5" fill-opacity="1" clip-path="url(#qMSfpZsekDRR)" stroke-opacity="1" stroke-linejoin="bevel" stroke-miterlimit="10"/><path fill="none" stroke="#000000" paint-order="fill" d="M 4088.681884765625 777.5 L 4088.681884765625 777.5" stroke-linejoin="bevel" stroke-miterlimit="10" stroke-width="5" clip-path="url(#RdzzlXSknKBV)"/><path fill="none" stroke="black" paint-order="fill" d="M 270.5 877.5 L 4270.5 877.5" stroke-linejoin="bevel" stroke-miterlimit="10"/><path fill="none" stroke="black" paint-order="fill" d="M 815.5 883.5 L 815.5 875.5 M 1361.5 883.5 L 1361.5 875.5 M 1906.5 883.5 L 1906.5 875.5 M 2452.5 883.5 L 2452.5 875.5 M 2997.5 883.5 L 2997.5 875.5 M 3543.5 883.5 L 3543.5 875.5 M 4088.5 883.5 L 4088.5 875.5" stroke-linejoin="bevel" stroke-miterlimit="10"/><path fill="none" stroke="black" paint-order="fill" d="M 706.5 881.5 L 706.5 877.5 M 597.5 881.5 L 597.5 877.5 M 488.5 881.5 L 488.5 877.5 M 379.5 881.5 L 379.5 877.5 M 815.5 881.5 L 815.5 877.5 M 924.5 881.5 L 924.5 877.5 M 1033.5 881.5 L 1033.5 877.5 M 1143.5 881.5 L 1143.5 877.5 M 1252.5 881.5 L 1252.5 877.5 M 1361.5 881.5 L 1361.5 877.5 M 1470.5 881.5 L 1470.5 877.5 M 1579.5 881.5 L 1579.5 877.5 M 1688.5 881.5 L 1688.5 877.5 M 1797.5 881.5 L 1797.5 877.5 M 1906.5 881.5 L 1906.5 877.5 M 2015.5 881.5 L 2015.5 877.5 M 2124.5 881.5 L 2124.5 877.5 M 2234.5 881.5 L 2234.5 877.5 M 2343.5 881.5 L 2343.5 877.5 M 2452.5 881.5 L 2452.5 877.5 M 2561.5 881.5 L 2561.5 877.5 M 2670.5 881.5 L 2670.5 877.5 M 2779.5 881.5 L 2779.5 877.5 M 2888.5 881.5 L 2888.5 877.5 M 2997.5 881.5 L 2997.5 877.5 M 3106.5 881.5 L 3106.5 877.5 M 3215.5 881.5 L 3215.5 877.5 M 3325.5 881.5 L 3325.5 877.5 M 3434.5 881.5 L 3434.5 877.5 M 3543.5 881.5 L 3543.5 877.5 M 3652.5 881.5 L 3652.5 877.5 M 3761.5 881.5 L 3761.5 877.5 M 3870.5 881.5 L 3870.5 877.5 M 3979.5 881.5 L 3979.5 877.5 M 4088.5 881.5 L 4088.5 877.5 M 4197.5 881.5 L 4197.5 877.5" stroke-linejoin="bevel" stroke-miterlimit="10"/><text fill="#444444" stroke="none" font-family="helvetica" font-size="40pt" font-style="normal" font-weight="normal" text-decoration="normal" x="778.0811309814453" y="926.374755859375" text-anchor="start" dominant-baseline="alphabetic" transform="matrix(1, 0, 0, 1, 0.5, 0.5)">0.4</text><text fill="none" stroke="rgb(0,0,0)" font-family="helvetica" font-size="40pt" font-style="normal" font-weight="normal" text-decoration="normal" x="778.0811309814453" y="926.374755859375" text-anchor="start" dominant-baseline="alphabetic" transform="matrix(1, 0, 0, 1, 0.5, 0.5)" stroke-opacity="0" stroke-linejoin="bevel" stroke-miterlimit="10">0.4</text><text fill="#444444" stroke="none" font-family="helvetica" font-size="40pt" font-style="normal" font-weight="normal" text-decoration="normal" x="1323.567398071289" y="926.374755859375" text-anchor="start" dominant-baseline="alphabetic" transform="matrix(1, 0, 0, 1, 0.5, 0.5)">0.5</text><text fill="none" stroke="rgb(0,0,0)" font-family="helvetica" font-size="40pt" font-style="normal" font-weight="normal" text-decoration="normal" x="1323.567398071289" y="926.374755859375" text-anchor="start" dominant-baseline="alphabetic" transform="matrix(1, 0, 0, 1, 0.5, 0.5)" stroke-opacity="0" stroke-linejoin="bevel" stroke-miterlimit="10">0.5</text><text fill="#444444" stroke="none" font-family="helvetica" font-size="40pt" font-style="normal" font-weight="normal" text-decoration="normal" x="1869.0536041259766" y="926.374755859375" text-anchor="start" dominant-baseline="alphabetic" transform="matrix(1, 0, 0, 1, 0.5, 0.5)">0.6</text><text fill="none" stroke="rgb(0,0,0)" font-family="helvetica" font-size="40pt" font-style="normal" font-weight="normal" text-decoration="normal" x="1869.0536041259766" y="926.374755859375" text-anchor="start" dominant-baseline="alphabetic" transform="matrix(1, 0, 0, 1, 0.5, 0.5)" stroke-opacity="0" stroke-linejoin="bevel" stroke-miterlimit="10">0.6</text><text fill="#444444" stroke="none" font-family="helvetica" font-size="40pt" font-style="normal" font-weight="normal" text-decoration="normal" x="2414.539810180664" y="926.374755859375" text-anchor="start" dominant-baseline="alphabetic" transform="matrix(1, 0, 0, 1, 0.5, 0.5)">0.7</text><text fill="none" stroke="rgb(0,0,0)" font-family="helvetica" font-size="40pt" font-style="normal" font-weight="normal" text-decoration="normal" x="2414.539810180664" y="926.374755859375" text-anchor="start" dominant-baseline="alphabetic" transform="matrix(1, 0, 0, 1, 0.5, 0.5)" stroke-opacity="0" stroke-linejoin="bevel" stroke-miterlimit="10">0.7</text><text fill="#444444" stroke="none" font-family="helvetica" font-size="40pt" font-style="normal" font-weight="normal" text-decoration="normal" x="2960.026138305664" y="926.374755859375" text-anchor="start" dominant-baseline="alphabetic" transform="matrix(1, 0, 0, 1, 0.5, 0.5)">0.8</text><text fill="none" stroke="rgb(0,0,0)" font-family="helvetica" font-size="40pt" font-style="normal" font-weight="normal" text-decoration="normal" x="2960.026138305664" y="926.374755859375" text-anchor="start" dominant-baseline="alphabetic" transform="matrix(1, 0, 0, 1, 0.5, 0.5)" stroke-opacity="0" stroke-linejoin="bevel" stroke-miterlimit="10">0.8</text><text fill="#444444" stroke="none" font-family="helvetica" font-size="40pt" font-style="normal" font-weight="normal" text-decoration="normal" x="3505.512466430664" y="926.374755859375" text-anchor="start" dominant-baseline="alphabetic" transform="matrix(1, 0, 0, 1, 0.5, 0.5)">0.9</text><text fill="none" stroke="rgb(0,0,0)" font-family="helvetica" font-size="40pt" font-style="normal" font-weight="normal" text-decoration="normal" x="3505.512466430664" y="926.374755859375" text-anchor="start" dominant-baseline="alphabetic" transform="matrix(1, 0, 0, 1, 0.5, 0.5)" stroke-opacity="0" stroke-linejoin="bevel" stroke-miterlimit="10">0.9</text><text fill="#444444" stroke="none" font-family="helvetica" font-size="40pt" font-style="normal" font-weight="normal" text-decoration="normal" x="4073.306884765625" y="926.374755859375" text-anchor="start" dominant-baseline="alphabetic" transform="matrix(1, 0, 0, 1, 0.5, 0.5)">1</text><text fill="none" stroke="rgb(0,0,0)" font-family="helvetica" font-size="40pt" font-style="normal" font-weight="normal" text-decoration="normal" x="4073.306884765625" y="926.374755859375" text-anchor="start" dominant-baseline="alphabetic" transform="matrix(1, 0, 0, 1, 0.5, 0.5)" stroke-opacity="0" stroke-linejoin="bevel" stroke-miterlimit="10">1</text><path fill="none" stroke="black" paint-order="fill" d="M 270.5 877.5 L 270.5 77.5" stroke-linejoin="bevel" stroke-miterlimit="10"/><path fill="none" stroke="black" paint-order="fill" d="M 264.5 777.5 L 272.5 777.5 M 264.5 577.5 L 272.5 577.5 M 264.5 377.5 L 272.5 377.5 M 264.5 177.5 L 272.5 177.5" stroke-linejoin="bevel" stroke-miterlimit="10"/><path fill="none" stroke="black" paint-order="fill" d="" stroke-linejoin="bevel" stroke-miterlimit="10"/><text fill="#444444" stroke="none" font-family="helvetica" font-size="40pt" font-style="normal" font-weight="normal" text-decoration="normal" x="3.3166656494140625" y="791.5" text-anchor="start" dominant-baseline="alphabetic" transform="matrix(1, 0, 0, 1, 0.5, 0.5)">ASO_NAC</text><text fill="none" stroke="rgb(0,0,0)" font-family="helvetica" font-size="40pt" font-style="normal" font-weight="normal" text-decoration="normal" x="3.3166656494140625" y="791.5" text-anchor="start" dominant-baseline="alphabetic" transform="matrix(1, 0, 0, 1, 0.5, 0.5)" stroke-opacity="0" stroke-linejoin="bevel" stroke-miterlimit="10">ASO_NAC</text><text fill="#444444" stroke="none" font-family="helvetica" font-size="40pt" font-style="normal" font-weight="normal" text-decoration="normal" x="33.116668701171875" y="591.5" text-anchor="start" dominant-baseline="alphabetic" transform="matrix(1, 0, 0, 1, 0.5, 0.5)">WT_NAC</text><text fill="none" stroke="rgb(0,0,0)" font-family="helvetica" font-size="40pt" font-style="normal" font-weight="normal" text-decoration="normal" x="33.116668701171875" y="591.5" text-anchor="start" dominant-baseline="alphabetic" transform="matrix(1, 0, 0, 1, 0.5, 0.5)" stroke-opacity="0" stroke-linejoin="bevel" stroke-miterlimit="10">WT_NAC</text><text fill="#444444" stroke="none" font-family="helvetica" font-size="40pt" font-style="normal" font-weight="normal" text-decoration="normal" x="80.58332824707031" y="391.5" text-anchor="start" dominant-baseline="alphabetic" transform="matrix(1, 0, 0, 1, 0.5, 0.5)">ASO_V</text><text fill="none" stroke="rgb(0,0,0)" font-family="helvetica" font-size="40pt" font-style="normal" font-weight="normal" text-decoration="normal" x="80.58332824707031" y="391.5" text-anchor="start" dominant-baseline="alphabetic" transform="matrix(1, 0, 0, 1, 0.5, 0.5)" stroke-opacity="0" stroke-linejoin="bevel" stroke-miterlimit="10">ASO_V</text><text fill="#444444" stroke="none" font-family="helvetica" font-size="40pt" font-style="normal" font-weight="normal" text-decoration="normal" x="110.38333129882812" y="191.5" text-anchor="start" dominant-baseline="alphabetic" transform="matrix(1, 0, 0, 1, 0.5, 0.5)">WT_V</text><text fill="none" stroke="rgb(0,0,0)" font-family="helvetica" font-size="40pt" font-style="normal" font-weight="normal" text-decoration="normal" x="110.38333129882812" y="191.5" text-anchor="start" dominant-baseline="alphabetic" transform="matrix(1, 0, 0, 1, 0.5, 0.5)" stroke-opacity="0" stroke-linejoin="bevel" stroke-miterlimit="10">WT_V</text><text fill="#444444" stroke="none" font-family="helvetica" font-size="48pt" font-style="normal" font-weight="bold" text-decoration="normal" x="0" y="50" text-anchor="start" dominant-baseline="alphabetic" transform="matrix(1, 0, 0, 1, 270.5, 7.5)">omega 95%CI, lognormal mixed model</text><text fill="none" stroke="rgb(0,0,0)" font-family="helvetica" font-size="48pt" font-style="normal" font-weight="bold" text-decoration="normal" x="0" y="50" text-anchor="start" dominant-baseline="alphabetic" transform="matrix(1, 0, 0, 1, 270.5, 7.5)" stroke-opacity="0" stroke-miterlimit="10" stroke-dasharray="">omega 95%CI, lognormal mixed model</text></svg>