<svg version="1.1" xmlns="http://www.w3.org/2000/svg" width="4275" height="929"><defs><clipPath id="TpaOwNsHmlfd"><path fill="none" stroke="none" d="M 0.5 0.5 L 4275.5 0.5 L 4275.5 929.5 L 0.5 929.5 L 0.5 0.5 Z M 270.5 77.5 L 4270.5 77.5 L 4270.5 877.5 L 270.5 877.5 L 270.5 77.5 Z" clip-rule="evenodd"/></clipPath><clipPath id="iJeGEqUVzdpd"><path fill="none" stroke="none" d="M 270.5 77.5 L 4270.5 77.5 L 4270.5 877.5 L 270.5 877.5 L 270.5 77.5 Z"/></clipPath><clipPath id="HTAnRzJAcJpp"><path fill="none" stroke="none" d="M 270.5 77.5 L 4270.5 77.5 L 4270.5 877.5 L 270.5 877.5 L 270.5 77.5 Z"/></clipPath><clipPath id="RhxKeMkPkCAT"><path fill="none" stroke="none" d="M 270.5 77.5 L 4270.5 77.5 L 4270.5 877.5 L 270.5 877.5 L 270.5 77.5 Z"/></clipPath><clipPath id="aOiBAROHokal"><path fill="none" stroke="none" d="M 270.5 77.5 L 4270.5 77.5 L 4270.5 877.5 L 270.5 877.5 L 270.5 77.5 Z"/></clipPath><clipPath id="CZZnZTbQTvvX"><path fill="none" stroke="none" d="M 270.5 77.5 L 4270.5 77.5 L 4270.5 877.5 L 270.5 877.5 L 270.5 77.5 Z"/></clipPath><clipPath id="bOEhCqFvsMOB"><path fill="none" stroke="none" d="M 270.5 77.5 L 4270.5 77.5 L 4270.5 877.5 L 270.5 877.5 L 270.5 77.5 Z"/></clipPath><clipPath id="iOIroygXJPeG"><path fill="none" stroke="none" d="M 270.5 77.5 L 4270.5 77.5 L 4270.5 877.5 L 270.5 877.5 L 270.5 77.5 Z"/></clipPath><clipPath id="RqWgiMTLIgEK"><path fill="none" stroke="none" d="M 270.5 77.5 L 4270.5 77.5 L 4270.5 877.5 L 270.5 877.5 L 270.5 77.5 Z"/></clipPath><clipPath id="BkRloVyMGUkX"><path fill="none" stroke="none" d="M 270.5 77.5 L 4270.5 77.5 L 4270.5 877.5 L 270.5 877.5 L 270.5 77.5 Z"/></clipPath><clipPath id="bZNHUthaxgwH"><path fill="none" stroke="none" d="M 270.5 77.5 L 4270.5 77.5 L 4270.5 877.5 L 270.5 877.5 L 270.5 77.5 Z"/></clipPath><clipPath id="AaivacMxcVnW"><path fill="none" stroke="none" d="M 270.5 77.5 L 4270.5 77.5 L 4270.5 877.5 L 270.5 877.5 L 270.5 77.5 Z"/></clipPath></defs><path fill="#ffffff" stroke="none" paint-order="stroke" d="M 0.5 0.5 L 4275.5 0.5 L 4275.5 929.5 L 0.5 929.5 L 0.5 0.5 Z" clip-path="url(#TpaOwNsHmlfd)"/><path fill="#ffffff" stroke="none" paint-order="stroke" d="M 270.5 77.5 L 4270.5 77.5 L 4270.5 877.5 L 270.5 877.5 L 270.5 77.5 Z"/><path fill="none" stroke="#e5e5e5" paint-order="fill" d="M 270.5 77.5 L 4270.5 77.5 L 4270.5 877.5 L 270.5 877.5 L 270.5 77.5 Z" stroke-linejoin="bevel" stroke-miterlimit="10"/><path fill="none" stroke="#e5e5e5" paint-order="fill" d="M 769.5 877.5 L 769.5 77.5 M 1327.5 877.5 L 1327.5 77.5 M 1886.5 877.5 L 1886.5 77.5 M 2445.5 877.5 L 2445.5 77.5 M 3004.5 877.5 L 3004.5 77.5 M 3562.5 877.5 L 3562.5 77.5 M 4121.5 877.5 L 4121.5 77.5" stroke-linejoin="bevel" stroke-miterlimit="10" clip-path="url(#iJeGEqUVzdpd)"/><path fill="none" stroke="#e5e5e5" paint-order="fill" d="M 270.5 777.5 L 4270.5 777.5 M 270.5 577.5 L 4270.5 577.5 M 270.5 377.5 L 4270.5 377.5 M 270.5 177.5 L 4270.5 177.5" stroke-linejoin="bevel" stroke-miterlimit="10" clip-path="url(#HTAnRzJAcJpp)"/><path fill="rgb(189,189,189)" stroke="rgb(189,189,189)" paint-order="fill" d="M 2822.67724609375 177.5 A 7.5 7.5 0 0 1 2807.67724609375 177.5 A 7.5 7.5 0 0 1 2822.67724609375 177.5" fill-opacity="1" clip-path="url(#RhxKeMkPkCAT)" stroke-opacity="1" stroke-linejoin="bevel" stroke-miterlimit="10"/><path fill="none" stroke="#bdbdbd" paint-order="fill" d="M 1253.469482421875 177.5 L 4088.681884765625 177.5" stroke-linejoin="bevel" stroke-miterlimit="10" stroke-width="5" clip-path="url(#aOiBAROHokal)"/><path fill="rgb(0,0,0)" stroke="rgb(0,0,0)" paint-order="fill" d="M 2105.665771484375 377.5 A 7.5 7.5 0 0 1 2090.665771484375 377.5 A 7.5 7.5 0 0 1 2105.665771484375 377.5" fill-opacity="1" clip-path="url(#CZZnZTbQTvvX)" stroke-opacity="1" stroke-linejoin="bevel" stroke-miterlimit="10"/><path fill="none" stroke="#000000" paint-order="fill" d="M 555.7236938476562 377.5 L 3315.572509765625 377.5" stroke-linejoin="bevel" stroke-miterlimit="10" stroke-width="5" clip-path="url(#bOEhCqFvsMOB)"/><path fill="rgb(189,189,189)" stroke="rgb(189,189,189)" paint-order="fill" d="M 1199.827880859375 577.5 A 7.5 7.5 0 0 1 1184.827880859375 577.5 A 7.5 7.5 0 0 1 1199.827880859375 577.5" fill-opacity="1" clip-path="url(#iOIroygXJPeG)" stroke-opacity="1" stroke-linejoin="bevel" stroke-miterlimit="10"/><path fill="none" stroke="#bdbdbd" paint-order="fill" d="M 452.31817626953125 577.5 L 1771.926025390625 577.5" stroke-linejoin="bevel" stroke-miterlimit="10" stroke-width="5" clip-path="url(#RqWgiMTLIgEK)"/><path fill="rgb(0,0,0)" stroke="rgb(0,0,0)" paint-order="fill" d="M 2052.2093505859375 777.5 A 7.5 7.5 0 0 1 2037.2093505859375 777.5 A 7.5 7.5 0 0 1 2052.2093505859375 777.5" fill-opacity="1" clip-path="url(#BkRloVyMGUkX)" stroke-opacity="1" stroke-linejoin="bevel" stroke-miterlimit="10"/><path fill="none" stroke="#000000" paint-order="fill" d="M 1015.868408203125 777.5 L 2834.43212890625 777.5" stroke-linejoin="bevel" stroke-miterlimit="10" stroke-width="5" clip-path="url(#bZNHUthaxgwH)"/><path fill="none" stroke="black" paint-order="fill" d="M 270.5 877.5 L 4270.5 877.5" stroke-linejoin="bevel" stroke-miterlimit="10"/><path fill="none" stroke="black" paint-order="fill" d="M 769.5 883.5 L 769.5 875.5 M 1327.5 883.5 L 1327.5 875.5 M 1886.5 883.5 L 1886.5 875.5 M 2445.5 883.5 L 2445.5 875.5 M 3004.5 883.5 L 3004.5 875.5 M 3562.5 883.5 L 3562.5 875.5 M 4121.5 883.5 L 4121.5 875.5" stroke-linejoin="bevel" stroke-miterlimit="10"/><path fill="none" stroke="black" paint-order="fill" d="M 657.5 881.5 L 657.5 877.5 M 545.5 881.5 L 545.5 877.5 M 434.5 881.5 L 434.5 877.5 M 322.5 881.5 L 322.5 877.5 M 769.5 881.5 L 769.5 877.5 M 881.5 881.5 L 881.5 877.5 M 992.5 881.5 L 992.5 877.5 M 1104.5 881.5 L 1104.5 877.5 M 1216.5 881.5 L 1216.5 877.5 M 1327.5 881.5 L 1327.5 877.5 M 1439.5 881.5 L 1439.5 877.5 M 1551.5 881.5 L 1551.5 877.5 M 1663.5 881.5 L 1663.5 877.5 M 1774.5 881.5 L 1774.5 877.5 M 1886.5 881.5 L 1886.5 877.5 M 1998.5 881.5 L 1998.5 877.5 M 2110.5 881.5 L 2110.5 877.5 M 2221.5 881.5 L 2221.5 877.5 M 2333.5 881.5 L 2333.5 877.5 M 2445.5 881.5 L 2445.5 877.5 M 2557.5 881.5 L 2557.5 877.5 M 2668.5 881.5 L 2668.5 877.5 M 2780.5 881.5 L 2780.5 877.5 M 2892.5 881.5 L 2892.5 877.5 M 3004.5 881.5 L 3004.5 877.5 M 3115.5 881.5 L 3115.5 877.5 M 3227.5 881.5 L 3227.5 877.5 M 3339.5 881.5 L 3339.5 877.5 M 3451.5 881.5 L 3451.5 877.5 M 3562.5 881.5 L 3562.5 877.5 M 3674.5 881.5 L 3674.5 877.5 M 3786.5 881.5 L 3786.5 877.5 M 3898.5 881.5 L 3898.5 877.5 M 4009.5 881.5 L 4009.5 877.5 M 4121.5 881.5 L 4121.5 877.5 M 4233.5 881.5 L 4233.5 877.5" stroke-linejoin="bevel" stroke-miterlimit="10"/><text fill="#444444" stroke="none" font-family="helvetica" font-size="40pt" font-style="normal" font-weight="normal" text-decoration="normal" x="731.5887603759766" y="926.374755859375" text-anchor="start" dominant-baseline="alphabetic" transform="matrix(1, 0, 0, 1, 0.5, 0.5)">0.2</text><text fill="none" stroke="rgb(0,0,0)" font-family="helvetica" font-size="40pt" font-style="normal" font-weight="normal" text-decoration="normal" x="731.5887603759766" y="926.374755859375" text-anchor="start" dominant-baseline="alphabetic" transform="matrix(1, 0, 0, 1, 0.5, 0.5)" stroke-opacity="0" stroke-linejoin="bevel" stroke-miterlimit="10">0.2</text><text fill="#444444" stroke="none" font-family="helvetica" font-size="40pt" font-style="normal" font-weight="normal" text-decoration="normal" x="1290.3045806884766" y="926.374755859375" text-anchor="start" dominant-baseline="alphabetic" transform="matrix(1, 0, 0, 1, 0.5, 0.5)">0.3</text><text fill="none" stroke="rgb(0,0,0)" font-family="helvetica" font-size="40pt" font-style="normal" font-weight="normal" text-decoration="normal" x="1290.3045806884766" y="926.374755859375" text-anchor="start" dominant-baseline="alphabetic" transform="matrix(1, 0, 0, 1, 0.5, 0.5)" stroke-opacity="0" stroke-linejoin="bevel" stroke-miterlimit="10">0.3</text><text fill="#444444" stroke="none" font-family="helvetica" font-size="40pt" font-style="normal" font-weight="normal" text-decoration="normal" x="1849.020523071289" y="926.374755859375" text-anchor="start" dominant-baseline="alphabetic" transform="matrix(1, 0, 0, 1, 0.5, 0.5)">0.4</text><text fill="none" stroke="rgb(0,0,0)" font-family="helvetica" font-size="40pt" font-style="normal" font-weight="normal" text-decoration="normal" x="1849.020523071289" y="926.374755859375" text-anchor="start" dominant-baseline="alphabetic" transform="matrix(1, 0, 0, 1, 0.5, 0.5)" stroke-opacity="0" stroke-linejoin="bevel" stroke-miterlimit="10">0.4</text><text fill="#444444" stroke="none" font-family="helvetica" font-size="40pt" font-style="normal" font-weight="normal" text-decoration="normal" x="2407.736343383789" y="926.374755859375" text-anchor="start" dominant-baseline="alphabetic" transform="matrix(1, 0, 0, 1, 0.5, 0.5)">0.5</text><text fill="none" stroke="rgb(0,0,0)" font-family="helvetica" font-size="40pt" font-style="normal" font-weight="normal" text-decoration="normal" x="2407.736343383789" y="926.374755859375" text-anchor="start" dominant-baseline="alphabetic" transform="matrix(1, 0, 0, 1, 0.5, 0.5)" stroke-opacity="0" stroke-linejoin="bevel" stroke-miterlimit="10">0.5</text><text fill="#444444" stroke="none" font-family="helvetica" font-size="40pt" font-style="normal" font-weight="normal" text-decoration="normal" x="2966.452163696289" y="926.374755859375" text-anchor="start" dominant-baseline="alphabetic" transform="matrix(1, 0, 0, 1, 0.5, 0.5)">0.6</text><text fill="none" stroke="rgb(0,0,0)" font-family="helvetica" font-size="40pt" font-style="normal" font-weight="normal" text-decoration="normal" x="2966.452163696289" y="926.374755859375" text-anchor="start" dominant-baseline="alphabetic" transform="matrix(1, 0, 0, 1, 0.5, 0.5)" stroke-opacity="0" stroke-linejoin="bevel" stroke-miterlimit="10">0.6</text><text fill="#444444" stroke="none" font-family="helvetica" font-size="40pt" font-style="normal" font-weight="normal" text-decoration="normal" x="3525.168228149414" y="926.374755859375" text-anchor="start" dominant-baseline="alphabetic" transform="matrix(1, 0, 0, 1, 0.5, 0.5)">0.7</text><text fill="none" stroke="rgb(0,0,0)" font-family="helvetica" font-size="40pt" font-style="normal" font-weight="normal" text-decoration="normal" x="3525.168228149414" y="926.374755859375" text-anchor="start" dominant-baseline="alphabetic" transform="matrix(1, 0, 0, 1, 0.5, 0.5)" stroke-opacity="0" stroke-linejoin="bevel" stroke-miterlimit="10">0.7</text><text fill="#444444" stroke="none" font-family="helvetica" font-size="40pt" font-style="normal" font-weight="normal" text-decoration="normal" x="4083.884048461914" y="926.374755859375" text-anchor="start" dominant-baseline="alphabetic" transform="matrix(1, 0, 0, 1, 0.5, 0.5)">0.8</text><text fill="none" stroke="rgb(0,0,0)" font-family="helvetica" font-size="40pt" font-style="normal" font-weight="normal" text-decoration="normal" x="4083.884048461914" y="926.374755859375" text-anchor="start" dominant-baseline="alphabetic" transform="matrix(1, 0, 0, 1, 0.5, 0.5)" stroke-opacity="0" stroke-linejoin="bevel" stroke-miterlimit="10">0.8</text><path fill="none" stroke="black" paint-order="fill" d="M 270.5 877.5 L 270.5 77.5" stroke-linejoin="bevel" stroke-miterlimit="10"/><path fill="none" stroke="black" paint-order="fill" d="M 264.5 777.5 L 272.5 777.5 M 264.5 577.5 L 272.5 577.5 M 264.5 377.5 L 272.5 377.5 M 264.5 177.5 L 272.5 177.5" stroke-linejoin="bevel" stroke-miterlimit="10"/><path fill="none" stroke="black" paint-order="fill" d="" stroke-linejoin="bevel" stroke-miterlimit="10"/><text fill="#444444" stroke="none" font-family="helvetica" font-size="40pt" font-style="normal" font-weight="normal" text-decoration="normal" x="3.3166656494140625" y="791.5" text-anchor="start" dominant-baseline="alphabetic" transform="matrix(1, 0, 0, 1, 0.5, 0.5)">ASO_NAC</text><text fill="none" stroke="rgb(0,0,0)" font-family="helvetica" font-size="40pt" font-style="normal" font-weight="normal" text-decoration="normal" x="3.3166656494140625" y="791.5" text-anchor="start" dominant-baseline="alphabetic" transform="matrix(1, 0, 0, 1, 0.5, 0.5)" stroke-opacity="0" stroke-linejoin="bevel" stroke-miterlimit="10">ASO_NAC</text><text fill="#444444" stroke="none" font-family="helvetica" font-size="40pt" font-style="normal" font-weight="normal" text-decoration="normal" x="33.116668701171875" y="591.5" text-anchor="start" dominant-baseline="alphabetic" transform="matrix(1, 0, 0, 1, 0.5, 0.5)">WT_NAC</text><text fill="none" stroke="rgb(0,0,0)" font-family="helvetica" font-size="40pt" font-style="normal" font-weight="normal" text-decoration="normal" x="33.116668701171875" y="591.5" text-anchor="start" dominant-baseline="alphabetic" transform="matrix(1, 0, 0, 1, 0.5, 0.5)" stroke-opacity="0" stroke-linejoin="bevel" stroke-miterlimit="10">WT_NAC</text><text fill="#444444" stroke="none" font-family="helvetica" font-size="40pt" font-style="normal" font-weight="normal" text-decoration="normal" x="80.58332824707031" y="391.5" text-anchor="start" dominant-baseline="alphabetic" transform="matrix(1, 0, 0, 1, 0.5, 0.5)">ASO_V</text><text fill="none" stroke="rgb(0,0,0)" font-family="helvetica" font-size="40pt" font-style="normal" font-weight="normal" text-decoration="normal" x="80.58332824707031" y="391.5" text-anchor="start" dominant-baseline="alphabetic" transform="matrix(1, 0, 0, 1, 0.5, 0.5)" stroke-opacity="0" stroke-linejoin="bevel" stroke-miterlimit="10">ASO_V</text><text fill="#444444" stroke="none" font-family="helvetica" font-size="40pt" font-style="normal" font-weight="normal" text-decoration="normal" x="110.38333129882812" y="191.5" text-anchor="start" dominant-baseline="alphabetic" transform="matrix(1, 0, 0, 1, 0.5, 0.5)">WT_V</text><text fill="none" stroke="rgb(0,0,0)" font-family="helvetica" font-size="40pt" font-style="normal" font-weight="normal" text-decoration="normal" x="110.38333129882812" y="191.5" text-anchor="start" dominant-baseline="alphabetic" transform="matrix(1, 0, 0, 1, 0.5, 0.5)" stroke-opacity="0" stroke-linejoin="bevel" stroke-miterlimit="10">WT_V</text><text fill="#444444" stroke="none" font-family="helvetica" font-size="48pt" font-style="normal" font-weight="bold" text-decoration="normal" x="0" y="50" text-anchor="start" dominant-baseline="alphabetic" transform="matrix(1, 0, 0, 1, 270.5, 7.5)">sigma 95%CI, lognormal mixed model</text><text fill="none" stroke="rgb(0,0,0)" font-family="helvetica" font-size="48pt" font-style="normal" font-weight="bold" text-decoration="normal" x="0" y="50" text-anchor="start" dominant-baseline="alphabetic" transform="matrix(1, 0, 0, 1, 270.5, 7.5)" stroke-opacity="0" stroke-miterlimit="10" stroke-dasharray="">sigma 95%CI, lognormal mixed model</text></svg>