<svg version="1.1" xmlns="http://www.w3.org/2000/svg" width="4275" height="929"><defs><clipPath id="OnerkifggqTP"><path fill="none" stroke="none" d="M 0.5 0.5 L 4275.5 0.5 L 4275.5 929.5 L 0.5 929.5 L 0.5 0.5 Z M 270.5 77.5 L 4270.5 77.5 L 4270.5 877.5 L 270.5 877.5 L 270.5 77.5 Z" clip-rule="evenodd"/></clipPath><clipPath id="UZrQlGWAsFdl"><path fill="none" stroke="none" d="M 270.5 77.5 L 4270.5 77.5 L 4270.5 877.5 L 270.5 877.5 L 270.5 77.5 Z"/></clipPath><clipPath id="MSXcXmMNFbQq"><path fill="none" stroke="none" d="M 270.5 77.5 L 4270.5 77.5 L 4270.5 877.5 L 270.5 877.5 L 270.5 77.5 Z"/></clipPath><clipPath id="FJlLZtDZramI"><path fill="none" stroke="none" d="M 270.5 77.5 L 4270.5 77.5 L 4270.5 877.5 L 270.5 877.5 L 270.5 77.5 Z"/></clipPath><clipPath id="xDycPtIWrvBe"><path fill="none" stroke="none" d="M 270.5 77.5 L 4270.5 77.5 L 4270.5 877.5 L 270.5 877.5 L 270.5 77.5 Z"/></clipPath><clipPath id="TUcPprSHBSnk"><path fill="none" stroke="none" d="M 270.5 77.5 L 4270.5 77.5 L 4270.5 877.5 L 270.5 877.5 L 270.5 77.5 Z"/></clipPath><clipPath id="mCZqgzqFcvfM"><path fill="none" stroke="none" d="M 270.5 77.5 L 4270.5 77.5 L 4270.5 877.5 L 270.5 877.5 L 270.5 77.5 Z"/></clipPath><clipPath id="zIAibhMhrSmp"><path fill="none" stroke="none" d="M 270.5 77.5 L 4270.5 77.5 L 4270.5 877.5 L 270.5 877.5 L 270.5 77.5 Z"/></clipPath><clipPath id="TqwoSMuopKtw"><path fill="none" stroke="none" d="M 270.5 77.5 L 4270.5 77.5 L 4270.5 877.5 L 270.5 877.5 L 270.5 77.5 Z"/></clipPath><clipPath id="iKZicPkmbaKy"><path fill="none" stroke="none" d="M 270.5 77.5 L 4270.5 77.5 L 4270.5 877.5 L 270.5 877.5 L 270.5 77.5 Z"/></clipPath><clipPath id="TtxAaLzDnrCR"><path fill="none" stroke="none" d="M 270.5 77.5 L 4270.5 77.5 L 4270.5 877.5 L 270.5 877.5 L 270.5 77.5 Z"/></clipPath><clipPath id="isaGcOMTDLbA"><path fill="none" stroke="none" d="M 270.5 77.5 L 4270.5 77.5 L 4270.5 877.5 L 270.5 877.5 L 270.5 77.5 Z"/></clipPath></defs><path fill="#ffffff" stroke="none" paint-order="stroke" d="M 0.5 0.5 L 4275.5 0.5 L 4275.5 929.5 L 0.5 929.5 L 0.5 0.5 Z" clip-path="url(#OnerkifggqTP)"/><path fill="#ffffff" stroke="none" paint-order="stroke" d="M 270.5 77.5 L 4270.5 77.5 L 4270.5 877.5 L 270.5 877.5 L 270.5 77.5 Z"/><path fill="none" stroke="#e5e5e5" paint-order="fill" d="M 270.5 77.5 L 4270.5 77.5 L 4270.5 877.5 L 270.5 877.5 L 270.5 77.5 Z" stroke-linejoin="bevel" stroke-miterlimit="10"/><path fill="none" stroke="#e5e5e5" paint-order="fill" d="M 344.5 877.5 L 344.5 77.5 M 968.5 877.5 L 968.5 77.5 M 1592.5 877.5 L 1592.5 77.5 M 2216.5 877.5 L 2216.5 77.5 M 2840.5 877.5 L 2840.5 77.5 M 3464.5 877.5 L 3464.5 77.5 M 4088.5 877.5 L 4088.5 77.5" stroke-linejoin="bevel" stroke-miterlimit="10" clip-path="url(#UZrQlGWAsFdl)"/><path fill="none" stroke="#e5e5e5" paint-order="fill" d="M 270.5 777.5 L 4270.5 777.5 M 270.5 577.5 L 4270.5 577.5 M 270.5 377.5 L 4270.5 377.5 M 270.5 177.5 L 4270.5 177.5" stroke-linejoin="bevel" stroke-miterlimit="10" clip-path="url(#MSXcXmMNFbQq)"/><path fill="rgb(189,189,189)" stroke="rgb(189,189,189)" paint-order="fill" d="M 4096.181640625 177.5 A 7.5 7.5 0 0 1 4081.181640625 177.5 A 7.5 7.5 0 0 1 4096.181640625 177.5" fill-opacity="1" clip-path="url(#FJlLZtDZramI)" stroke-opacity="1" stroke-linejoin="bevel" stroke-miterlimit="10"/><path fill="none" stroke="#bdbdbd" paint-order="fill" d="M 4088.681640625 177.5 L 4088.681640625 177.5" stroke-linejoin="bevel" stroke-miterlimit="10" stroke-width="5" clip-path="url(#xDycPtIWrvBe)"/><path fill="rgb(0,0,0)" stroke="rgb(0,0,0)" paint-order="fill" d="M 2162.560791015625 377.5 A 7.5 7.5 0 0 1 2147.560791015625 377.5 A 7.5 7.5 0 0 1 2162.560791015625 377.5" fill-opacity="1" clip-path="url(#TUcPprSHBSnk)" stroke-opacity="1" stroke-linejoin="bevel" stroke-miterlimit="10"/><path fill="none" stroke="#000000" paint-order="fill" d="M 452.31817626953125 377.5 L 4088.681884765625 377.5" stroke-linejoin="bevel" stroke-miterlimit="10" stroke-width="5" clip-path="url(#mCZqgzqFcvfM)"/><path fill="rgb(189,189,189)" stroke="rgb(189,189,189)" paint-order="fill" d="M 4096.181640625 577.5 A 7.5 7.5 0 0 1 4081.181640625 577.5 A 7.5 7.5 0 0 1 4096.181640625 577.5" fill-opacity="1" clip-path="url(#zIAibhMhrSmp)" stroke-opacity="1" stroke-linejoin="bevel" stroke-miterlimit="10"/><path fill="none" stroke="#bdbdbd" paint-order="fill" d="M 4088.681640625 577.5 L 4088.681640625 577.5" stroke-linejoin="bevel" stroke-miterlimit="10" stroke-width="5" clip-path="url(#TqwoSMuopKtw)"/><path fill="rgb(0,0,0)" stroke="rgb(0,0,0)" paint-order="fill" d="M 3752.983642578125 777.5 A 7.5 7.5 0 0 1 3737.983642578125 777.5 A 7.5 7.5 0 0 1 3752.983642578125 777.5" fill-opacity="1" clip-path="url(#iKZicPkmbaKy)" stroke-opacity="1" stroke-linejoin="bevel" stroke-miterlimit="10"/><path fill="none" stroke="#000000" paint-order="fill" d="M 2656.681640625 777.5 L 4088.681640625 777.5" stroke-linejoin="bevel" stroke-miterlimit="10" stroke-width="5" clip-path="url(#TtxAaLzDnrCR)"/><path fill="none" stroke="black" paint-order="fill" d="M 270.5 877.5 L 4270.5 877.5" stroke-linejoin="bevel" stroke-miterlimit="10"/><path fill="none" stroke="black" paint-order="fill" d="M 344.5 883.5 L 344.5 875.5 M 968.5 883.5 L 968.5 875.5 M 1592.5 883.5 L 1592.5 875.5 M 2216.5 883.5 L 2216.5 875.5 M 2840.5 883.5 L 2840.5 875.5 M 3464.5 883.5 L 3464.5 875.5 M 4088.5 883.5 L 4088.5 875.5" stroke-linejoin="bevel" stroke-miterlimit="10"/><path fill="none" stroke="black" paint-order="fill" d="M 344.5 881.5 L 344.5 877.5 M 468.5 881.5 L 468.5 877.5 M 593.5 881.5 L 593.5 877.5 M 718.5 881.5 L 718.5 877.5 M 843.5 881.5 L 843.5 877.5 M 968.5 881.5 L 968.5 877.5 M 1093.5 881.5 L 1093.5 877.5 M 1217.5 881.5 L 1217.5 877.5 M 1342.5 881.5 L 1342.5 877.5 M 1467.5 881.5 L 1467.5 877.5 M 1592.5 881.5 L 1592.5 877.5 M 1717.5 881.5 L 1717.5 877.5 M 1841.5 881.5 L 1841.5 877.5 M 1966.5 881.5 L 1966.5 877.5 M 2091.5 881.5 L 2091.5 877.5 M 2216.5 881.5 L 2216.5 877.5 M 2341.5 881.5 L 2341.5 877.5 M 2466.5 881.5 L 2466.5 877.5 M 2590.5 881.5 L 2590.5 877.5 M 2715.5 881.5 L 2715.5 877.5 M 2840.5 881.5 L 2840.5 877.5 M 2965.5 881.5 L 2965.5 877.5 M 3090.5 881.5 L 3090.5 877.5 M 3214.5 881.5 L 3214.5 877.5 M 3339.5 881.5 L 3339.5 877.5 M 3464.5 881.5 L 3464.5 877.5 M 3589.5 881.5 L 3589.5 877.5 M 3714.5 881.5 L 3714.5 877.5 M 3839.5 881.5 L 3839.5 877.5 M 3963.5 881.5 L 3963.5 877.5 M 4088.5 881.5 L 4088.5 877.5 M 4213.5 881.5 L 4213.5 877.5" stroke-linejoin="bevel" stroke-miterlimit="10"/><text fill="#444444" stroke="none" font-family="helvetica" font-size="40pt" font-style="normal" font-weight="normal" text-decoration="normal" x="306.49766540527344" y="926.374755859375" text-anchor="start" dominant-baseline="alphabetic" transform="matrix(1, 0, 0, 1, 0.5, 0.5)">0.4</text><text fill="none" stroke="rgb(0,0,0)" font-family="helvetica" font-size="40pt" font-style="normal" font-weight="normal" text-decoration="normal" x="306.49766540527344" y="926.374755859375" text-anchor="start" dominant-baseline="alphabetic" transform="matrix(1, 0, 0, 1, 0.5, 0.5)" stroke-opacity="0" stroke-linejoin="bevel" stroke-miterlimit="10">0.4</text><text fill="#444444" stroke="none" font-family="helvetica" font-size="40pt" font-style="normal" font-weight="normal" text-decoration="normal" x="930.5811309814453" y="926.374755859375" text-anchor="start" dominant-baseline="alphabetic" transform="matrix(1, 0, 0, 1, 0.5, 0.5)">0.5</text><text fill="none" stroke="rgb(0,0,0)" font-family="helvetica" font-size="40pt" font-style="normal" font-weight="normal" text-decoration="normal" x="930.5811309814453" y="926.374755859375" text-anchor="start" dominant-baseline="alphabetic" transform="matrix(1, 0, 0, 1, 0.5, 0.5)" stroke-opacity="0" stroke-linejoin="bevel" stroke-miterlimit="10">0.5</text><text fill="#444444" stroke="none" font-family="helvetica" font-size="40pt" font-style="normal" font-weight="normal" text-decoration="normal" x="1554.664566040039" y="926.374755859375" text-anchor="start" dominant-baseline="alphabetic" transform="matrix(1, 0, 0, 1, 0.5, 0.5)">0.6</text><text fill="none" stroke="rgb(0,0,0)" font-family="helvetica" font-size="40pt" font-style="normal" font-weight="normal" text-decoration="normal" x="1554.664566040039" y="926.374755859375" text-anchor="start" dominant-baseline="alphabetic" transform="matrix(1, 0, 0, 1, 0.5, 0.5)" stroke-opacity="0" stroke-linejoin="bevel" stroke-miterlimit="10">0.6</text><text fill="#444444" stroke="none" font-family="helvetica" font-size="40pt" font-style="normal" font-weight="normal" text-decoration="normal" x="2178.748062133789" y="926.374755859375" text-anchor="start" dominant-baseline="alphabetic" transform="matrix(1, 0, 0, 1, 0.5, 0.5)">0.7</text><text fill="none" stroke="rgb(0,0,0)" font-family="helvetica" font-size="40pt" font-style="normal" font-weight="normal" text-decoration="normal" x="2178.748062133789" y="926.374755859375" text-anchor="start" dominant-baseline="alphabetic" transform="matrix(1, 0, 0, 1, 0.5, 0.5)" stroke-opacity="0" stroke-linejoin="bevel" stroke-miterlimit="10">0.7</text><text fill="#444444" stroke="none" font-family="helvetica" font-size="40pt" font-style="normal" font-weight="normal" text-decoration="normal" x="2802.831558227539" y="926.374755859375" text-anchor="start" dominant-baseline="alphabetic" transform="matrix(1, 0, 0, 1, 0.5, 0.5)">0.8</text><text fill="none" stroke="rgb(0,0,0)" font-family="helvetica" font-size="40pt" font-style="normal" font-weight="normal" text-decoration="normal" x="2802.831558227539" y="926.374755859375" text-anchor="start" dominant-baseline="alphabetic" transform="matrix(1, 0, 0, 1, 0.5, 0.5)" stroke-opacity="0" stroke-linejoin="bevel" stroke-miterlimit="10">0.8</text><text fill="#444444" stroke="none" font-family="helvetica" font-size="40pt" font-style="normal" font-weight="normal" text-decoration="normal" x="3426.915054321289" y="926.374755859375" text-anchor="start" dominant-baseline="alphabetic" transform="matrix(1, 0, 0, 1, 0.5, 0.5)">0.9</text><text fill="none" stroke="rgb(0,0,0)" font-family="helvetica" font-size="40pt" font-style="normal" font-weight="normal" text-decoration="normal" x="3426.915054321289" y="926.374755859375" text-anchor="start" dominant-baseline="alphabetic" transform="matrix(1, 0, 0, 1, 0.5, 0.5)" stroke-opacity="0" stroke-linejoin="bevel" stroke-miterlimit="10">0.9</text><text fill="#444444" stroke="none" font-family="helvetica" font-size="40pt" font-style="normal" font-weight="normal" text-decoration="normal" x="4073.306884765625" y="926.374755859375" text-anchor="start" dominant-baseline="alphabetic" transform="matrix(1, 0, 0, 1, 0.5, 0.5)">1</text><text fill="none" stroke="rgb(0,0,0)" font-family="helvetica" font-size="40pt" font-style="normal" font-weight="normal" text-decoration="normal" x="4073.306884765625" y="926.374755859375" text-anchor="start" dominant-baseline="alphabetic" transform="matrix(1, 0, 0, 1, 0.5, 0.5)" stroke-opacity="0" stroke-linejoin="bevel" stroke-miterlimit="10">1</text><path fill="none" stroke="black" paint-order="fill" d="M 270.5 877.5 L 270.5 77.5" stroke-linejoin="bevel" stroke-miterlimit="10"/><path fill="none" stroke="black" paint-order="fill" d="M 264.5 777.5 L 272.5 777.5 M 264.5 577.5 L 272.5 577.5 M 264.5 377.5 L 272.5 377.5 M 264.5 177.5 L 272.5 177.5" stroke-linejoin="bevel" stroke-miterlimit="10"/><path fill="none" stroke="black" paint-order="fill" d="" stroke-linejoin="bevel" stroke-miterlimit="10"/><text fill="#444444" stroke="none" font-family="helvetica" font-size="40pt" font-style="normal" font-weight="normal" text-decoration="normal" x="3.3166656494140625" y="791.5" text-anchor="start" dominant-baseline="alphabetic" transform="matrix(1, 0, 0, 1, 0.5, 0.5)">ASO_NAC</text><text fill="none" stroke="rgb(0,0,0)" font-family="helvetica" font-size="40pt" font-style="normal" font-weight="normal" text-decoration="normal" x="3.3166656494140625" y="791.5" text-anchor="start" dominant-baseline="alphabetic" transform="matrix(1, 0, 0, 1, 0.5, 0.5)" stroke-opacity="0" stroke-linejoin="bevel" stroke-miterlimit="10">ASO_NAC</text><text fill="#444444" stroke="none" font-family="helvetica" font-size="40pt" font-style="normal" font-weight="normal" text-decoration="normal" x="33.116668701171875" y="591.5" text-anchor="start" dominant-baseline="alphabetic" transform="matrix(1, 0, 0, 1, 0.5, 0.5)">WT_NAC</text><text fill="none" stroke="rgb(0,0,0)" font-family="helvetica" font-size="40pt" font-style="normal" font-weight="normal" text-decoration="normal" x="33.116668701171875" y="591.5" text-anchor="start" dominant-baseline="alphabetic" transform="matrix(1, 0, 0, 1, 0.5, 0.5)" stroke-opacity="0" stroke-linejoin="bevel" stroke-miterlimit="10">WT_NAC</text><text fill="#444444" stroke="none" font-family="helvetica" font-size="40pt" font-style="normal" font-weight="normal" text-decoration="normal" x="80.58332824707031" y="391.5" text-anchor="start" dominant-baseline="alphabetic" transform="matrix(1, 0, 0, 1, 0.5, 0.5)">ASO_V</text><text fill="none" stroke="rgb(0,0,0)" font-family="helvetica" font-size="40pt" font-style="normal" font-weight="normal" text-decoration="normal" x="80.58332824707031" y="391.5" text-anchor="start" dominant-baseline="alphabetic" transform="matrix(1, 0, 0, 1, 0.5, 0.5)" stroke-opacity="0" stroke-linejoin="bevel" stroke-miterlimit="10">ASO_V</text><text fill="#444444" stroke="none" font-family="helvetica" font-size="40pt" font-style="normal" font-weight="normal" text-decoration="normal" x="110.38333129882812" y="191.5" text-anchor="start" dominant-baseline="alphabetic" transform="matrix(1, 0, 0, 1, 0.5, 0.5)">WT_V</text><text fill="none" stroke="rgb(0,0,0)" font-family="helvetica" font-size="40pt" font-style="normal" font-weight="normal" text-decoration="normal" x="110.38333129882812" y="191.5" text-anchor="start" dominant-baseline="alphabetic" transform="matrix(1, 0, 0, 1, 0.5, 0.5)" stroke-opacity="0" stroke-linejoin="bevel" stroke-miterlimit="10">WT_V</text><text fill="#444444" stroke="none" font-family="helvetica" font-size="48pt" font-style="normal" font-weight="bold" text-decoration="normal" x="0" y="50" text-anchor="start" dominant-baseline="alphabetic" transform="matrix(1, 0, 0, 1, 270.5, 7.5)">omega 95%CI, lognormal mixed model</text><text fill="none" stroke="rgb(0,0,0)" font-family="helvetica" font-size="48pt" font-style="normal" font-weight="bold" text-decoration="normal" x="0" y="50" text-anchor="start" dominant-baseline="alphabetic" transform="matrix(1, 0, 0, 1, 270.5, 7.5)" stroke-opacity="0" stroke-miterlimit="10" stroke-dasharray="">omega 95%CI, lognormal mixed model</text></svg>