<svg version="1.1" xmlns="http://www.w3.org/2000/svg" width="4275" height="929"><defs><clipPath id="qvXSzZmNgCGI"><path fill="none" stroke="none" d="M 0.5 0.5 L 4275.5 0.5 L 4275.5 929.5 L 0.5 929.5 L 0.5 0.5 Z M 270.5 77.5 L 4270.5 77.5 L 4270.5 877.5 L 270.5 877.5 L 270.5 77.5 Z" clip-rule="evenodd"/></clipPath><clipPath id="vJdFhNuZOiVK"><path fill="none" stroke="none" d="M 270.5 77.5 L 4270.5 77.5 L 4270.5 877.5 L 270.5 877.5 L 270.5 77.5 Z"/></clipPath><clipPath id="XnXdrqMpgsWe"><path fill="none" stroke="none" d="M 270.5 77.5 L 4270.5 77.5 L 4270.5 877.5 L 270.5 877.5 L 270.5 77.5 Z"/></clipPath><clipPath id="TKLJsTTQGUpb"><path fill="none" stroke="none" d="M 270.5 77.5 L 4270.5 77.5 L 4270.5 877.5 L 270.5 877.5 L 270.5 77.5 Z"/></clipPath><clipPath id="WvXNPvvtJTLP"><path fill="none" stroke="none" d="M 270.5 77.5 L 4270.5 77.5 L 4270.5 877.5 L 270.5 877.5 L 270.5 77.5 Z"/></clipPath><clipPath id="oRDoEvQEVToD"><path fill="none" stroke="none" d="M 270.5 77.5 L 4270.5 77.5 L 4270.5 877.5 L 270.5 877.5 L 270.5 77.5 Z"/></clipPath><clipPath id="mcryNBtIqTKN"><path fill="none" stroke="none" d="M 270.5 77.5 L 4270.5 77.5 L 4270.5 877.5 L 270.5 877.5 L 270.5 77.5 Z"/></clipPath><clipPath id="zbrvvKetFctL"><path fill="none" stroke="none" d="M 270.5 77.5 L 4270.5 77.5 L 4270.5 877.5 L 270.5 877.5 L 270.5 77.5 Z"/></clipPath><clipPath id="WiKfLpAnmIkx"><path fill="none" stroke="none" d="M 270.5 77.5 L 4270.5 77.5 L 4270.5 877.5 L 270.5 877.5 L 270.5 77.5 Z"/></clipPath><clipPath id="WBDsuxevHEub"><path fill="none" stroke="none" d="M 270.5 77.5 L 4270.5 77.5 L 4270.5 877.5 L 270.5 877.5 L 270.5 77.5 Z"/></clipPath><clipPath id="GTxMLFOnTNBF"><path fill="none" stroke="none" d="M 270.5 77.5 L 4270.5 77.5 L 4270.5 877.5 L 270.5 877.5 L 270.5 77.5 Z"/></clipPath><clipPath id="WFghQtQUOiWL"><path fill="none" stroke="none" d="M 270.5 77.5 L 4270.5 77.5 L 4270.5 877.5 L 270.5 877.5 L 270.5 77.5 Z"/></clipPath></defs><path fill="rgb(255,255,255)" stroke="none" paint-order="stroke" d="M 0.5 0.5 L 4275.5 0.5 L 4275.5 929.5 L 0.5 929.5 L 0.5 0.5 Z" fill-opacity="1" clip-path="url(#qvXSzZmNgCGI)"/><path fill="rgb(255,255,255)" stroke="none" paint-order="stroke" d="M 270.5 77.5 L 4270.5 77.5 L 4270.5 877.5 L 270.5 877.5 L 270.5 77.5 Z" fill-opacity="1"/><path fill="none" stroke="rgb(229,229,229)" paint-order="fill" d="M 270.5 77.5 L 4270.5 77.5 L 4270.5 877.5 L 270.5 877.5 L 270.5 77.5 Z" stroke-opacity="1" stroke-linejoin="bevel" stroke-miterlimit="10"/><path fill="none" stroke="rgb(229,229,229)" paint-order="fill" d="M 335.5 877.5 L 335.5 77.5 M 960.5 877.5 L 960.5 77.5 M 1586.5 877.5 L 1586.5 77.5 M 2212.5 877.5 L 2212.5 77.5 M 2837.5 877.5 L 2837.5 77.5 M 3463.5 877.5 L 3463.5 77.5 M 4088.5 877.5 L 4088.5 77.5" stroke-opacity="1" stroke-linejoin="bevel" stroke-miterlimit="10" clip-path="url(#vJdFhNuZOiVK)"/><path fill="none" stroke="rgb(229,229,229)" paint-order="fill" d="M 270.5 777.5 L 4270.5 777.5 M 270.5 577.5 L 4270.5 577.5 M 270.5 377.5 L 4270.5 377.5 M 270.5 177.5 L 4270.5 177.5" stroke-opacity="1" stroke-linejoin="bevel" stroke-miterlimit="10" clip-path="url(#XnXdrqMpgsWe)"/><path fill="rgb(189,189,189)" stroke="rgb(189,189,189)" paint-order="fill" d="M 4096.181884765625 177.5 A 7.5 7.5 0 0 1 4081.181884765625 177.5 A 7.5 7.5 0 0 1 4096.181884765625 177.5" fill-opacity="1" clip-path="url(#TKLJsTTQGUpb)" stroke-opacity="1" stroke-linejoin="bevel" stroke-miterlimit="10"/><path fill="none" stroke="rgb(189,189,189)" paint-order="fill" d="M 4088.681884765625 177.5 L 4088.681884765625 177.5" stroke-opacity="1" stroke-linejoin="bevel" stroke-miterlimit="10" stroke-width="5" clip-path="url(#WvXNPvvtJTLP)"/><path fill="rgb(0,0,0)" stroke="rgb(0,0,0)" paint-order="fill" d="M 1504.7508544921875 377.5 A 7.5 7.5 0 0 1 1489.7508544921875 377.5 A 7.5 7.5 0 0 1 1504.7508544921875 377.5" fill-opacity="1" clip-path="url(#oRDoEvQEVToD)" stroke-opacity="1" stroke-linejoin="bevel" stroke-miterlimit="10"/><path fill="none" stroke="rgb(0,0,0)" paint-order="fill" d="M 452.31817626953125 377.5 L 2531.967041015625 377.5" stroke-opacity="1" stroke-linejoin="bevel" stroke-miterlimit="10" stroke-width="5" clip-path="url(#mcryNBtIqTKN)"/><path fill="rgb(189,189,189)" stroke="rgb(189,189,189)" paint-order="fill" d="M 4096.181884765625 577.5 A 7.5 7.5 0 0 1 4081.181884765625 577.5 A 7.5 7.5 0 0 1 4096.181884765625 577.5" fill-opacity="1" clip-path="url(#zbrvvKetFctL)" stroke-opacity="1" stroke-linejoin="bevel" stroke-miterlimit="10"/><path fill="none" stroke="rgb(189,189,189)" paint-order="fill" d="M 4088.681884765625 577.5 L 4088.681884765625 577.5" stroke-opacity="1" stroke-linejoin="bevel" stroke-miterlimit="10" stroke-width="5" clip-path="url(#WiKfLpAnmIkx)"/><path fill="rgb(0,0,0)" stroke="rgb(0,0,0)" paint-order="fill" d="M 3748.80810546875 777.5 A 7.5 7.5 0 0 1 3733.80810546875 777.5 A 7.5 7.5 0 0 1 3748.80810546875 777.5" fill-opacity="1" clip-path="url(#WBDsuxevHEub)" stroke-opacity="1" stroke-linejoin="bevel" stroke-miterlimit="10"/><path fill="none" stroke="rgb(0,0,0)" paint-order="fill" d="M 3219.8876953125 777.5 L 4088.681884765625 777.5" stroke-opacity="1" stroke-linejoin="bevel" stroke-miterlimit="10" stroke-width="5" clip-path="url(#GTxMLFOnTNBF)"/><path fill="none" stroke="rgb(0,0,0)" paint-order="fill" d="M 270.5 877.5 L 4270.5 877.5" stroke-opacity="1" stroke-linejoin="bevel" stroke-miterlimit="10"/><path fill="none" stroke="rgb(0,0,0)" paint-order="fill" d="M 335.5 883.5 L 335.5 875.5 M 960.5 883.5 L 960.5 875.5 M 1586.5 883.5 L 1586.5 875.5 M 2212.5 883.5 L 2212.5 875.5 M 2837.5 883.5 L 2837.5 875.5 M 3463.5 883.5 L 3463.5 875.5 M 4088.5 883.5 L 4088.5 875.5" stroke-opacity="1" stroke-linejoin="bevel" stroke-miterlimit="10"/><path fill="none" stroke="rgb(0,0,0)" paint-order="fill" d="M 335.5 881.5 L 335.5 877.5 M 460.5 881.5 L 460.5 877.5 M 585.5 881.5 L 585.5 877.5 M 710.5 881.5 L 710.5 877.5 M 835.5 881.5 L 835.5 877.5 M 960.5 881.5 L 960.5 877.5 M 1086.5 881.5 L 1086.5 877.5 M 1211.5 881.5 L 1211.5 877.5 M 1336.5 881.5 L 1336.5 877.5 M 1461.5 881.5 L 1461.5 877.5 M 1586.5 881.5 L 1586.5 877.5 M 1711.5 881.5 L 1711.5 877.5 M 1836.5 881.5 L 1836.5 877.5 M 1961.5 881.5 L 1961.5 877.5 M 2086.5 881.5 L 2086.5 877.5 M 2212.5 881.5 L 2212.5 877.5 M 2337.5 881.5 L 2337.5 877.5 M 2462.5 881.5 L 2462.5 877.5 M 2587.5 881.5 L 2587.5 877.5 M 2712.5 881.5 L 2712.5 877.5 M 2837.5 881.5 L 2837.5 877.5 M 2962.5 881.5 L 2962.5 877.5 M 3087.5 881.5 L 3087.5 877.5 M 3212.5 881.5 L 3212.5 877.5 M 3338.5 881.5 L 3338.5 877.5 M 3463.5 881.5 L 3463.5 877.5 M 3588.5 881.5 L 3588.5 877.5 M 3713.5 881.5 L 3713.5 877.5 M 3838.5 881.5 L 3838.5 877.5 M 3963.5 881.5 L 3963.5 877.5 M 4088.5 881.5 L 4088.5 877.5 M 4213.5 881.5 L 4213.5 877.5" stroke-opacity="1" stroke-linejoin="bevel" stroke-miterlimit="10"/><text fill="rgb(68,68,68)" stroke="none" font-family="helvetica" font-size="40pt" font-style="normal" font-weight="normal" text-decoration="normal" x="297.67579650878906" y="926.374755859375" text-anchor="start" dominant-baseline="alphabetic" transform="matrix(1, 0, 0, 1, 0.5, 0.5)" fill-opacity="1">0.4</text><text fill="none" stroke="rgb(0,0,0)" font-family="helvetica" font-size="40pt" font-style="normal" font-weight="normal" text-decoration="normal" x="297.67579650878906" y="926.374755859375" text-anchor="start" dominant-baseline="alphabetic" transform="matrix(1, 0, 0, 1, 0.5, 0.5)" stroke-opacity="0" stroke-linejoin="bevel" stroke-miterlimit="10">0.4</text><text fill="rgb(68,68,68)" stroke="none" font-family="helvetica" font-size="40pt" font-style="normal" font-weight="normal" text-decoration="normal" x="923.2296295166016" y="926.374755859375" text-anchor="start" dominant-baseline="alphabetic" transform="matrix(1, 0, 0, 1, 0.5, 0.5)" fill-opacity="1">0.5</text><text fill="none" stroke="rgb(0,0,0)" font-family="helvetica" font-size="40pt" font-style="normal" font-weight="normal" text-decoration="normal" x="923.2296295166016" y="926.374755859375" text-anchor="start" dominant-baseline="alphabetic" transform="matrix(1, 0, 0, 1, 0.5, 0.5)" stroke-opacity="0" stroke-linejoin="bevel" stroke-miterlimit="10">0.5</text><text fill="rgb(68,68,68)" stroke="none" font-family="helvetica" font-size="40pt" font-style="normal" font-weight="normal" text-decoration="normal" x="1548.783462524414" y="926.374755859375" text-anchor="start" dominant-baseline="alphabetic" transform="matrix(1, 0, 0, 1, 0.5, 0.5)" fill-opacity="1">0.6</text><text fill="none" stroke="rgb(0,0,0)" font-family="helvetica" font-size="40pt" font-style="normal" font-weight="normal" text-decoration="normal" x="1548.783462524414" y="926.374755859375" text-anchor="start" dominant-baseline="alphabetic" transform="matrix(1, 0, 0, 1, 0.5, 0.5)" stroke-opacity="0" stroke-linejoin="bevel" stroke-miterlimit="10">0.6</text><text fill="rgb(68,68,68)" stroke="none" font-family="helvetica" font-size="40pt" font-style="normal" font-weight="normal" text-decoration="normal" x="2174.337173461914" y="926.374755859375" text-anchor="start" dominant-baseline="alphabetic" transform="matrix(1, 0, 0, 1, 0.5, 0.5)" fill-opacity="1">0.7</text><text fill="none" stroke="rgb(0,0,0)" font-family="helvetica" font-size="40pt" font-style="normal" font-weight="normal" text-decoration="normal" x="2174.337173461914" y="926.374755859375" text-anchor="start" dominant-baseline="alphabetic" transform="matrix(1, 0, 0, 1, 0.5, 0.5)" stroke-opacity="0" stroke-linejoin="bevel" stroke-miterlimit="10">0.7</text><text fill="rgb(68,68,68)" stroke="none" font-family="helvetica" font-size="40pt" font-style="normal" font-weight="normal" text-decoration="normal" x="2799.891128540039" y="926.374755859375" text-anchor="start" dominant-baseline="alphabetic" transform="matrix(1, 0, 0, 1, 0.5, 0.5)" fill-opacity="1">0.8</text><text fill="none" stroke="rgb(0,0,0)" font-family="helvetica" font-size="40pt" font-style="normal" font-weight="normal" text-decoration="normal" x="2799.891128540039" y="926.374755859375" text-anchor="start" dominant-baseline="alphabetic" transform="matrix(1, 0, 0, 1, 0.5, 0.5)" stroke-opacity="0" stroke-linejoin="bevel" stroke-miterlimit="10">0.8</text><text fill="rgb(68,68,68)" stroke="none" font-family="helvetica" font-size="40pt" font-style="normal" font-weight="normal" text-decoration="normal" x="3425.444839477539" y="926.374755859375" text-anchor="start" dominant-baseline="alphabetic" transform="matrix(1, 0, 0, 1, 0.5, 0.5)" fill-opacity="1">0.9</text><text fill="none" stroke="rgb(0,0,0)" font-family="helvetica" font-size="40pt" font-style="normal" font-weight="normal" text-decoration="normal" x="3425.444839477539" y="926.374755859375" text-anchor="start" dominant-baseline="alphabetic" transform="matrix(1, 0, 0, 1, 0.5, 0.5)" stroke-opacity="0" stroke-linejoin="bevel" stroke-miterlimit="10">0.9</text><text fill="rgb(68,68,68)" stroke="none" font-family="helvetica" font-size="40pt" font-style="normal" font-weight="normal" text-decoration="normal" x="4073.30712890625" y="926.374755859375" text-anchor="start" dominant-baseline="alphabetic" transform="matrix(1, 0, 0, 1, 0.5, 0.5)" fill-opacity="1">1</text><text fill="none" stroke="rgb(0,0,0)" font-family="helvetica" font-size="40pt" font-style="normal" font-weight="normal" text-decoration="normal" x="4073.30712890625" y="926.374755859375" text-anchor="start" dominant-baseline="alphabetic" transform="matrix(1, 0, 0, 1, 0.5, 0.5)" stroke-opacity="0" stroke-linejoin="bevel" stroke-miterlimit="10">1</text><path fill="none" stroke="rgb(0,0,0)" paint-order="fill" d="M 270.5 877.5 L 270.5 77.5" stroke-opacity="1" stroke-linejoin="bevel" stroke-miterlimit="10"/><path fill="none" stroke="rgb(0,0,0)" paint-order="fill" d="M 264.5 777.5 L 272.5 777.5 M 264.5 577.5 L 272.5 577.5 M 264.5 377.5 L 272.5 377.5 M 264.5 177.5 L 272.5 177.5" stroke-opacity="1" stroke-linejoin="bevel" stroke-miterlimit="10"/><path fill="none" stroke="rgb(0,0,0)" paint-order="fill" d="" stroke-opacity="1" stroke-linejoin="bevel" stroke-miterlimit="10"/><text fill="rgb(68,68,68)" stroke="none" font-family="helvetica" font-size="40pt" font-style="normal" font-weight="normal" text-decoration="normal" x="3.3166656494140625" y="791.5" text-anchor="start" dominant-baseline="alphabetic" transform="matrix(1, 0, 0, 1, 0.5, 0.5)" fill-opacity="1">ASO_NAC</text><text fill="none" stroke="rgb(0,0,0)" font-family="helvetica" font-size="40pt" font-style="normal" font-weight="normal" text-decoration="normal" x="3.3166656494140625" y="791.5" text-anchor="start" dominant-baseline="alphabetic" transform="matrix(1, 0, 0, 1, 0.5, 0.5)" stroke-opacity="0" stroke-linejoin="bevel" stroke-miterlimit="10">ASO_NAC</text><text fill="rgb(68,68,68)" stroke="none" font-family="helvetica" font-size="40pt" font-style="normal" font-weight="normal" text-decoration="normal" x="33.116668701171875" y="591.5" text-anchor="start" dominant-baseline="alphabetic" transform="matrix(1, 0, 0, 1, 0.5, 0.5)" fill-opacity="1">WT_NAC</text><text fill="none" stroke="rgb(0,0,0)" font-family="helvetica" font-size="40pt" font-style="normal" font-weight="normal" text-decoration="normal" x="33.116668701171875" y="591.5" text-anchor="start" dominant-baseline="alphabetic" transform="matrix(1, 0, 0, 1, 0.5, 0.5)" stroke-opacity="0" stroke-linejoin="bevel" stroke-miterlimit="10">WT_NAC</text><text fill="rgb(68,68,68)" stroke="none" font-family="helvetica" font-size="40pt" font-style="normal" font-weight="normal" text-decoration="normal" x="80.58332824707031" y="391.5" text-anchor="start" dominant-baseline="alphabetic" transform="matrix(1, 0, 0, 1, 0.5, 0.5)" fill-opacity="1">ASO_V</text><text fill="none" stroke="rgb(0,0,0)" font-family="helvetica" font-size="40pt" font-style="normal" font-weight="normal" text-decoration="normal" x="80.58332824707031" y="391.5" text-anchor="start" dominant-baseline="alphabetic" transform="matrix(1, 0, 0, 1, 0.5, 0.5)" stroke-opacity="0" stroke-linejoin="bevel" stroke-miterlimit="10">ASO_V</text><text fill="rgb(68,68,68)" stroke="none" font-family="helvetica" font-size="40pt" font-style="normal" font-weight="normal" text-decoration="normal" x="110.38333129882812" y="191.5" text-anchor="start" dominant-baseline="alphabetic" transform="matrix(1, 0, 0, 1, 0.5, 0.5)" fill-opacity="1">WT_V</text><text fill="none" stroke="rgb(0,0,0)" font-family="helvetica" font-size="40pt" font-style="normal" font-weight="normal" text-decoration="normal" x="110.38333129882812" y="191.5" text-anchor="start" dominant-baseline="alphabetic" transform="matrix(1, 0, 0, 1, 0.5, 0.5)" stroke-opacity="0" stroke-linejoin="bevel" stroke-miterlimit="10">WT_V</text><text fill="rgb(68,68,68)" stroke="none" font-family="helvetica" font-size="48pt" font-style="normal" font-weight="bold" text-decoration="normal" x="0" y="50" text-anchor="start" dominant-baseline="alphabetic" transform="matrix(1, 0, 0, 1, 270.5, 7.5)" fill-opacity="1">omega 95%CI, lognormal mixed model</text><text fill="none" stroke="rgb(0,0,0)" font-family="helvetica" font-size="48pt" font-style="normal" font-weight="bold" text-decoration="normal" x="0" y="50" text-anchor="start" dominant-baseline="alphabetic" transform="matrix(1, 0, 0, 1, 270.5, 7.5)" stroke-opacity="0" stroke-miterlimit="10" stroke-dasharray="">omega 95%CI, lognormal mixed model</text></svg>